<?xml version="1.0" encoding="UTF-8"?>
<svg xmlns="http://www.w3.org/2000/svg" viewBox="0 0 158.64 210.7">
  <defs>
    <style>
      .cls-1 {
        fill: #632b52;
      }

      .cls-2 {
        stroke-width: 1.31px;
      }

      .cls-2, .cls-3 {
        fill: none;
        stroke: #0f0c1c;
        stroke-linecap: round;
        stroke-miterlimit: 10;
      }

      .cls-4 {
        isolation: isolate;
      }

      .cls-3 {
        stroke-width: .66px;
      }

      .cls-5 {
        fill: #413857;
      }

      .cls-6, .cls-7, .cls-8 {
        fill: #231b36;
      }

      .cls-6, .cls-9 {
        mix-blend-mode: multiply;
      }

      .cls-6, .cls-8 {
        opacity: .5;
      }

      .cls-9 {
        fill: #bfcad6;
      }

      .cls-8 {
        mix-blend-mode: screen;
      }

      .cls-10 {
        fill: #955c7f;
      }
    </style>
  </defs>
  <g class="cls-4">
    <g id="Layer_2" data-name="Layer 2">
      <g id="OBJECTS">
        <g>
          <ellipse class="cls-9" cx="93.22" cy="199.22" rx="65.42" ry="11.48"/>
          <g>
            <path class="cls-7" d="M145.13,168.94c.32-31.77,8.9-73.42-34.63-88.67-6.99-2.54-.95-8.9-10.17-14.62-1.91-1.59,1.91-22.56-3.5-26.37s-36.54-12.07-43.53,20.34c-6.99,32.41-9.21,37.81-3.18,34.95-.64,11.44,.32,14.62,4.45,12.39,1.59,7.31,6.99,11.76,12.07,15.25-1.27,12.39-7.94,59.42-3.5,65.77,4.45,6.35,81.66,12.73,81.98-19.04Z"/>
            <path class="cls-8" d="M61.38,80.26c-6.81-2.48-1.26-8.57-9.49-14.17-5.85,26.64-7.37,31.13-1.77,28.47-.64,11.44,.32,14.62,4.45,12.39,.88,4.03,2.92,7.19,5.42,9.8-.07-2.97,.92-5.89,2.89-8.11,3.49-3.91,9.58-6.75,15.93,8.97,9.76,24.18,4.04,38.42,2.19,35.68-.09,1.26,13.23,24.49,10.87,36.29,11.96-3.49,4.03-9.87,4.14-20.65,.32-31.77,8.9-73.42-34.63-88.67Z"/>
            <path class="cls-6" d="M110.5,80.26c-6.99-2.54-.95-8.9-10.17-14.62-1.91-1.59,1.91-22.56-3.5-26.37-2.55-1.8-10.83-4.58-19.6-3.62,5.7,.58,10.39,2.35,12.2,3.62,5.4,3.81,1.59,24.78,3.5,26.37,9.21,5.72,3.18,12.07,10.17,14.62,43.53,15.25,34.95,56.9,34.63,88.67-.18,17.8-24.48,23.62-46.61,24.19,23.71,.6,53.82-4.37,54.01-24.19,.32-31.77,8.9-73.42-34.63-88.67Z"/>
            <path class="cls-6" d="M99.9,64.52c-.77-4.73,1.76-21.84-3.07-25.25-5.4-3.81-36.54-12.07-43.53,20.34-.61,2.81-1.18,5.41-1.71,7.83,4.75,4.03,11.02,6.68,18.03,7.17,.81,.06,1.62,.08,2.42,.07,.79,.11,1.59,.21,2.41,.26,10.39,.73,19.83-3.49,25.45-10.43Z"/>
            <g>
              <path class="cls-7" d="M58.7,2.73c1.59,3.18,9.53,20.02,10.8,23.51,1.27,3.5-13.35,6.04-14.93,6.35-1.59,.32,.64-30.5,.64-32.09s3.5,2.22,3.5,2.22Z"/>
              <path class="cls-8" d="M58.7,2.73c1.59,3.18,9.53,20.02,10.8,23.51,1.27,3.5-13.35,6.04-14.93,6.35-1.59,.32,.64-30.5,.64-32.09s3.5,2.22,3.5,2.22Z"/>
              <path class="cls-1" d="M58.83,12.5c.97,1.94,5.81,12.21,6.59,14.34,.78,2.13-8.14,3.68-9.11,3.88-.97,.19,.39-18.6,.39-19.57s2.13,1.36,2.13,1.36Z"/>
              <path class="cls-7" d="M73.16,26.64S84.84,3.53,87.7,.43c2.86-3.1,7.63,11.2,11.2,23.12s-.48,17.16-.48,17.16l-25.26-14.06Z"/>
              <path class="cls-1" d="M74.8,28.47s10.03-19.85,12.49-22.51c.05-.05,.09-.09,.14-.13,4.3,3.87,6.99,29.76,7.38,33.78l-20.01-11.14Z"/>
              <ellipse class="cls-7" cx="73.96" cy="48.81" rx="28.6" ry="25.79"/>
              <path class="cls-8" d="M70.39,23.23c-14.11,1.58-25.03,12.43-25.03,25.58s10.92,24,25.03,25.58c14.11-1.58,25.03-12.43,25.03-25.58s-10.92-24-25.03-25.58Z"/>
              <path class="cls-7" d="M40.59,48.81c0,14.24,12.8,25.79,28.6,25.79s28.6-11.55,28.6-25.79-57.19-14.24-57.19,0Z"/>
              <path class="cls-8" d="M67.41,74.54c14.96-.83,26.81-12.03,26.81-25.73,0-6.82-13.13-10.38-26.81-10.66-13.68,.28-26.81,3.84-26.81,10.66,0,13.7,11.85,24.9,26.81,25.73Z"/>
              <g>
                <g>
                  <path class="cls-5" d="M61.79,47.53s-.85,3.16,1.21,4.67,4.47,.68,5.34-.35c.87-1.03-1.59-3.98-3.46-4.53-1.87-.56-3.09,.22-3.09,.22Z"/>
                  <path class="cls-5" d="M61.89,47.5s.48,2.98-1.42,4.21-3.41-.19-4.08-1.21,1.2-3.08,2.85-3.45,2.64,.45,2.64,.45Z"/>
                </g>
                <path class="cls-10" d="M63.78,46.59c-.14-.65-1.7-1.08-2.35-.66-.89-.51-2.26-.24-2.12,.44,.14,.68,2.47,1.25,2.47,1.25,0,0,2.13-.37,2-1.02Z"/>
                <g>
                  <path class="cls-2" d="M81.49,42.91s-3.95-2.37-8.66,.05"/>
                  <path class="cls-2" d="M48.25,41.4s1.57-2.12,6.04,.71"/>
                </g>
                <g>
                  <g>
                    <path class="cls-3" d="M78.69,47.93s10.56,.37,14.51,2.68"/>
                    <path class="cls-3" d="M77.29,50.94s10.66,1.74,14.34,5.2"/>
                  </g>
                  <g>
                    <path class="cls-3" d="M50.59,46.66s-10.55-.59-14.69,1.36"/>
                    <path class="cls-3" d="M51.71,49.78s-10.77,.77-14.75,3.88"/>
                  </g>
                </g>
              </g>
            </g>
            <path class="cls-7" d="M63.36,107.65c-2.14,2.09-3.32,4.96-3.44,7.95-.54,13.72-2.55,61.94-4.39,70.71-2.14,10.25,10.72,10.01,12.15,9.53,1.43-.48,10.49-40.75,10.72-42.42,1.67,2.86,8.34-10.96,.24-35.75-5.27-16.11-11.54-13.69-15.29-10.03Z"/>
            <path class="cls-8" d="M63.36,107.65c-2.14,2.09-3.32,4.96-3.44,7.95-.54,13.72-2.55,61.94-4.39,70.71-2.14,10.25,10.72,10.01,12.15,9.53,1.43-.48,10.49-40.75,10.72-42.42,1.67,2.86,8.34-10.96,.24-35.75-5.27-16.11-11.54-13.69-15.29-10.03Z"/>
            <path class="cls-7" d="M109.15,122.44s-17.4,.95-21.92,10.25c-4.53,9.29-8.82,22.4-4.53,21.69-3.1,11.92-2.38,33.12,1.19,38.84,3.57,5.72,40.75,4.53,50.52-1.43,9.77-5.96,20.02-66.25-25.26-69.35Z"/>
            <path class="cls-8" d="M96.6,129.51c-3.47-1.54-7.67-.28-9.35,3.12,0,.02-.02,.04-.03,.06-4.53,9.29-8.82,22.4-4.53,21.69-3.1,11.92-2.38,33.12,1.19,38.84,.84,1.34,3.52,2.29,7.25,2.9,7.09-.8,13.4-2.18,16.66-4.07,8.59-4.97,17.54-49.79-11.2-62.54Z"/>
            <path class="cls-6" d="M109.15,122.44s-.76,.04-1.98,.19c42.84,4.81,32.77,63.29,23.15,69.16-5.12,3.12-17.75,4.93-29.14,5.13,12.29,.23,27.49-1.63,33.23-5.13,9.77-5.96,20.02-66.25-25.26-69.35Z"/>
            <path class="cls-7" d="M100.9,206.14c-14.6,0-28.51-2.24-39.29-6.42-5.79-2.25-11.13-4.48-15.85-6.46-16.13-6.76-25.62-10.48-30.68-7.53-4.46,2.6-10.23,2.01-13.26-2.17-3.21-4.42-2.05-10.58,2.46-13.56,13.71-9.05,29.22-2.56,48.85,5.67,4.83,2.02,9.82,4.11,15.37,6.27,20.18,7.83,48.02,5.2,59.48,1.91,3.07-.88,4.69-4.28,3.35-7.18-.01-.03-.02-.04-.02-.04-2.55-4.6-.89-10.41,3.71-12.96,4.6-2.55,10.41-.89,12.96,3.71,2.8,5.05,5.89,16.18-.28,25.93-2.95,4.65-11.58,10.58-35.96,12.42-3.63,.27-7.26,.41-10.84,.41Z"/>
            <path class="cls-8" d="M43.26,187.7c4.75,1.41,10.14,3.01,15.96,4.56,9.51,2.54,21.42-3.14,11.22-9.61-.65-.23-1.29-.46-1.93-.71-5.56-2.15-10.55-4.25-15.37-6.27-19.63-8.22-35.13-14.72-48.85-5.67-3.16,2.08-4.66,5.72-4.19,9.24,.28,.77,.66,1.51,1.17,2.21,2.34,3.23,6.39,4.21,10.11,3.15,.52-.27,1.03-.58,1.51-.94,4.57-3.38,14.12-.79,30.37,4.03Z"/>
            <path class="cls-6" d="M147.98,167.39c-2.23-4.03-6.96-5.8-11.19-4.48,2.27,.7,4.28,2.24,5.52,4.48,2.8,5.05,5.89,16.18-.28,25.93-2.95,4.65-11.58,10.58-35.96,12.42-2.85,.21-5.69,.32-8.51,.36,1.11,.03,2.22,.04,3.34,.04,3.58,0,7.21-.13,10.84-.41,24.39-1.84,33.02-7.77,35.96-12.42,6.17-9.74,3.08-20.88,.28-25.93Z"/>
            <path class="cls-7" d="M77.25,102.18c-.19-.3-.36-.59-.5-.88,.89,1.07,1.84,1.65,2.32,1.34,.48-.31,.32-1.42-.3-2.66,.21,.25,.41,.52,.61,.81,1.03,1.57,1.39,3.16,.8,3.55-.59,.38-1.9-.58-2.93-2.15Z"/>
            <path class="cls-8" d="M91.1,97.36c-.19-.3-.36-.59-.5-.88,.89,1.07,1.84,1.65,2.32,1.34,.48-.31,.32-1.42-.3-2.66,.21,.25,.41,.52,.61,.81,1.03,1.57,1.39,3.16,.8,3.55s-1.9-.58-2.93-2.15Z"/>
            <path class="cls-7" d="M86.91,112.89c-.19-.3-.36-.59-.5-.88,.89,1.07,1.84,1.65,2.32,1.34,.48-.31,.32-1.42-.3-2.66,.21,.25,.41,.52,.61,.81,1.03,1.57,1.39,3.16,.8,3.55-.59,.38-1.9-.58-2.93-2.15Z"/>
            <path class="cls-6" d="M126.1,138.69c-.19-.3-.36-.59-.5-.88,.89,1.07,1.84,1.65,2.32,1.34,.48-.31,.32-1.42-.3-2.66,.21,.25,.41,.52,.61,.81,1.03,1.57,1.39,3.16,.8,3.55-.59,.38-1.9-.58-2.93-2.15Z"/>
            <path class="cls-6" d="M132.31,155.73c-.08-.35-.13-.68-.16-1,.46,1.31,1.14,2.19,1.7,2.07,.56-.12,.8-1.21,.66-2.6,.11,.31,.21,.63,.28,.98,.41,1.84,.19,3.45-.5,3.6-.69,.15-1.57-1.21-1.98-3.05Z"/>
            <path class="cls-6" d="M124.07,150.07c-.1-.34-.18-.67-.23-.99,.56,1.28,1.31,2.1,1.85,1.94s.71-1.27,.46-2.64c.13,.3,.25,.61,.36,.95,.55,1.8,.45,3.42-.23,3.63-.67,.2-1.66-1.09-2.21-2.89Z"/>
          </g>
        </g>
      </g>
    </g>
  </g>
</svg>