<?xml version="1.0" encoding="UTF-8"?>
<svg xmlns="http://www.w3.org/2000/svg" viewBox="0 0 162.21 111.12">
  <defs>
    <style>
      .cls-1 {
        fill: #632b52;
      }

      .cls-2 {
        isolation: isolate;
      }

      .cls-3 {
        fill: none;
        stroke: #0f0c1c;
        stroke-linecap: round;
        stroke-miterlimit: 10;
        stroke-width: .85px;
      }

      .cls-4, .cls-5 {
        fill: #413857;
      }

      .cls-4, .cls-6, .cls-7, .cls-8, .cls-9, .cls-10 {
        opacity: .5;
      }

      .cls-4, .cls-7, .cls-8, .cls-9, .cls-10 {
        mix-blend-mode: screen;
      }

      .cls-6, .cls-11, .cls-8 {
        fill: #231b36;
      }

      .cls-6, .cls-12 {
        mix-blend-mode: multiply;
      }

      .cls-13, .cls-7 {
        fill: #f29a0c;
      }

      .cls-12 {
        fill: #bfcad6;
      }

      .cls-14, .cls-9 {
        fill: #955c7f;
      }

      .cls-15 {
        fill: #ffeaff;
      }
    </style>
  </defs>
  <g class="cls-2">
    <g id="Layer_2" data-name="Layer 2">
      <g id="OBJECTS">
        <g>
          <ellipse class="cls-12" cx="81.48" cy="102.42" rx="80.74" ry="8.7"/>
          <g>
            <path class="cls-11" d="M56.18,27.17S78.52,1.3,74.41,13.35c14.99-10.58,28.22-14.7,22.34-6.76,17.64-5.88,37.63-6.17,28.51-.59,14.99,.29,25.87,11.17,17.64,8.82,7.05,9.7,16.76,49.38,1.76,67.02-14.99,17.64-116.7,14.7-125.52-.29-8.82-14.99-10.88-44.68-1.47-52.32,9.41-7.64,38.51-2.06,38.51-2.06Z"/>
            <path class="cls-8" d="M74.51,13.28l-.1,.07c4.12-12.05-18.22,13.82-18.22,13.82,0,0-29.1-5.58-38.51,2.06-9.41,7.64-7.35,37.33,1.47,52.32,1.68,2.86,6.75,5.28,13.95,7.2,21.57-.58,41.94-5.2,51.75-16.35,11.31-12.87,8.78-38.07,3.84-54.24-1.83-6-9.04-8.49-14.17-4.88Z"/>
            <path class="cls-11" d="M11.65,31.13S22.09,3.5,25.17,.42c3.09-3.09,12.05,11.76,15.14,19.11,3.09,7.35-28.66,11.61-28.66,11.61Z"/>
            <path class="cls-8" d="M11.65,31.13S22.09,3.5,25.17,.42c3.09-3.09,12.05,11.76,15.14,19.11,3.09,7.35-28.66,11.61-28.66,11.61Z"/>
            <path class="cls-1" d="M16.26,29.67S24.05,9.05,26.36,6.74c2.3-2.3,9,8.78,11.3,14.26,2.3,5.49-21.39,8.67-21.39,8.67Z"/>
            <path class="cls-11" d="M35.42,25.22S53.4,3.61,57.13,1.79c3.74-1.82,7.19,14.32,7.68,21.89,.49,7.57-29.39,1.54-29.39,1.54Z"/>
            <path class="cls-8" d="M37,25.22S54.42,4.27,58.52,1.9c-.45-.28-.92-.34-1.38-.11-3.74,1.82-21.71,23.43-21.71,23.43,0,0,11.89,2.4,20.55,2.27-8.45-.15-18.98-2.27-18.98-2.27Z"/>
            <path class="cls-1" d="M40.03,25.34S53.44,9.2,56.23,7.85s5.37,10.69,5.73,16.34c.37,5.65-21.94,1.15-21.94,1.15Z"/>
            <path class="cls-6" d="M142.9,14.82c8.23,2.35-2.65-8.52-17.64-8.82,7.11-4.36-3.51-5.14-16.9-2.47-.11,.07-.2,.14-.31,.21,15.8,.31,27.26,11.77,18.59,9.29,7.44,10.22,17.66,52.05,1.86,70.64-3.59,4.22-11.89,7.32-22.69,9.41,18.33-1.55,33.71-5.18,38.86-11.24,14.99-17.64,5.29-57.32-1.76-67.02Z"/>
            <path class="cls-6" d="M141.84,71.67l-3.25-.41,.02-.16c-.05,.32-1.39,7.83-10.1,12.93-9.49,5.57-80.37,9.59-106.72-6.12-.02,0-.03-.02-.05-.03-1.89-1.11-4.03,1.12-2.95,3.03,.12,.21,.24,.42,.36,.63,8.82,14.99,110.52,17.93,125.52,.29,1.66-1.95,3-4.18,4.09-6.6-1.71-1.87-4.06-3.2-6.92-3.57Z"/>
            <path class="cls-11" d="M79.34,108.33c-24.76,0-51-3.28-66.29-11.69-4.18-2.3-6.22-7.31-4.38-11.71,2.16-5.17,8.25-7.16,12.99-4.49,26.73,15.07,97.48,9.35,106.84,3.55,8.59-5.32,9.74-12.85,9.79-13.17l-.02,.16,3.26,.33c8.83,.91,13.24,11.13,7.86,18.19-2.65,3.48-6.28,7.01-11.23,10.08-8.25,5.1-32.71,8.75-58.81,8.75Z"/>
            <path class="cls-8" d="M115.28,87.46c-24.15,3.81-72.56,4.85-93.63-7.03-4.73-2.67-10.83-.68-12.99,4.49,0,.01-.01,.03-.02,.04-.93,2.27,.51,4.82,2.9,5.39,13.98,3.33,30.81,4.75,47.01,4.75,24.18,0,46.95-3.13,56.72-7.65Z"/>
            <path class="cls-6" d="M141.52,71.31l-3.26-.33,.02-.16c-.04,.25-.76,4.86-5.1,9.39,.67,3.07,.12,6.44-2.06,9.3-2.65,3.48-6.28,7.01-11.23,10.08-7.27,4.5-27.15,7.86-49.64,8.6,3.04,.1,6.07,.15,9.09,.15,26.1,0,50.56-3.64,58.81-8.75,4.96-3.07,8.58-6.6,11.23-10.08,5.38-7.06,.97-17.29-7.86-18.19Z"/>
            <g>
              <ellipse class="cls-11" cx="40.59" cy="39.66" rx="31.14" ry="23.94"/>
              <path class="cls-8" d="M36.91,15.89c-15.47,1.4-27.47,11.5-27.47,23.77s12,22.37,27.47,23.77c15.47-1.4,27.47-11.5,27.47-23.77s-12-22.37-27.47-23.77Z"/>
              <path class="cls-11" d="M10.72,37.02c0,15.59,15.05,28.23,33.61,28.23s33.61-12.64,33.61-28.23-67.22-15.59-67.22,0Z"/>
              <path class="cls-8" d="M40.76,65.09c16.88-1.5,30.04-13.49,30.04-28.07,0-7.24-14.51-11.12-30.04-11.63-15.53,.51-30.04,4.39-30.04,11.63,0,14.58,13.16,26.57,30.04,28.07Z"/>
              <path class="cls-11" d="M51.67,42.48c-.8-1.16-2.77-1.45-4.55-1.35,0,0,0,0,0,0,0,0,0,0,0,0-.92,.05-1.8,.2-2.43,.38,0,0,0,0,0,0-.14,.04-.26,.08-.37,.13-.02,0-.04,.01-.06,.02-.09,.04-.16,.07-.23,.11-.03,.01-.06,.03-.09,.04-.02,.01-.03,.02-.05,.04-1.12-.72-6.47-1.46-7.74,.64-1.42,2.35,2.73,8.6,5.43,5.34,1.55-1.87,2.14-3.45,2.37-4.48,.06,.19,.13,.39,.22,.62,.4,1.01,1.13,2.34,2.52,3.87,.2,.22,.4,.39,.6,.52,0,0,.02,0,.03,.01,2.82,1.86,5.86-3.69,4.35-5.88Z"/>
              <g>
                <g>
                  <g>
                    <circle class="cls-13" cx="55.3" cy="35.02" r="7.08"/>
                    <path class="cls-7" d="M54.04,28.06c-3.31,.6-5.82,3.48-5.82,6.97s2.51,6.37,5.82,6.97c3.31-.59,5.82-3.48,5.82-6.97s-2.51-6.37-5.82-6.97Z"/>
                    <path class="cls-11" d="M54.37,35.02c0,2.84,.93,5.14,.93,5.14,0,0,.93-2.3,.93-5.14s-.93-5.14-.93-5.14c0,0-.93,2.3-.93,5.14Z"/>
                  </g>
                  <g>
                    <circle class="cls-13" cx="31.35" cy="35.02" r="7.08"/>
                    <path class="cls-7" d="M30.1,28.06c-3.31,.6-5.82,3.48-5.82,6.97s2.51,6.37,5.82,6.97c3.31-.59,5.82-3.48,5.82-6.97s-2.51-6.37-5.82-6.97Z"/>
                    <path class="cls-11" d="M30.43,35.02c0,2.84,.93,5.14,.93,5.14,0,0,.93-2.3,.93-5.14s-.93-5.14-.93-5.14c0,0-.93,2.3-.93,5.14Z"/>
                  </g>
                </g>
                <g>
                  <path class="cls-5" d="M43.12,42.06s-.07,2.34,2.76,5.42c2.83,3.08,6.73-2.83,5.21-5.06s-8.08-1.06-7.97-.35Z"/>
                  <path class="cls-4" d="M47.07,48.25c2.16-.59,3.96-4.2,2.84-5.84-.58-.86-1.91-1.21-3.32-1.28-1.85,.09-3.52,.57-3.47,.93,0,0-.07,2.34,2.76,5.42,.38,.41,.78,.65,1.18,.77Z"/>
                  <path class="cls-5" d="M43.53,42.06s.07,2.34-2.76,5.42c-2.83,3.08-6.73-2.83-5.21-5.06,1.52-2.23,8.08-1.06,7.97-.35Z"/>
                  <g class="cls-10">
                    <path class="cls-5" d="M43.53,42.06s.07,2.34-2.76,5.42c-2.83,3.08-6.73-2.83-5.21-5.06,1.52-2.23,8.08-1.06,7.97-.35Z"/>
                  </g>
                </g>
                <path class="cls-14" d="M46.03,41c0-1.56-1.8-2.42-2.71-1.35-.96-1.14-2.71-.34-2.71,1.3s2.71,2.74,2.71,2.74c0,0,2.71-1.12,2.71-2.69Z"/>
                <path class="cls-9" d="M45.3,40.45c0-.44-.13-.82-.35-1.13-.55-.24-1.19-.18-1.63,.33-.96-1.14-2.71-.34-2.71,1.3,0,1.04,1.1,1.87,1.9,2.33,.56-.25,2.78-1.36,2.78-2.83Z"/>
                <g>
                  <g>
                    <line class="cls-3" x1="24.65" y1="43.16" x2="1.06" y2="29.18"/>
                    <line class="cls-3" x1="19.39" y1="43.21" x2=".43" y2="34.44"/>
                  </g>
                  <g>
                    <line class="cls-3" x1="62" y1="43.16" x2="85.59" y2="29.18"/>
                    <line class="cls-3" x1="67.26" y1="43.21" x2="86.23" y2="34.44"/>
                  </g>
                </g>
              </g>
            </g>
            <path class="cls-15" d="M29.97,32.27c0,.62-.5,1.12-1.11,1.12s-1.12-.5-1.12-1.12,.5-1.12,1.12-1.12,1.11,.5,1.11,1.12Z"/>
            <circle class="cls-15" cx="52.86" cy="32.27" r="1.12"/>
            <path class="cls-9" d="M42.15,40.49c.08,.33-.06,.65-.31,.71-.25,.06-.52-.15-.61-.49-.08-.33,.06-.65,.31-.71,.25-.06,.52,.15,.61,.49Z"/>
            <path class="cls-11" d="M137.13,24.51c-.3-.18-.58-.38-.83-.58,1.27,.58,2.38,.7,2.67,.21,.3-.49-.32-1.42-1.42-2.27,.3,.14,.6,.29,.9,.47,1.61,.98,2.62,2.25,2.25,2.85s-1.96,.3-3.57-.68Z"/>
            <path class="cls-11" d="M50.24,73.62c-.3-.18-.58-.38-.83-.58,1.27,.58,2.38,.7,2.67,.21,.3-.49-.32-1.42-1.42-2.27,.3,.14,.6,.29,.9,.47,1.61,.98,2.62,2.25,2.25,2.85-.36,.6-1.96,.3-3.57-.68Z"/>
            <path class="cls-11" d="M59.89,76.77c-.3-.18-.58-.38-.83-.58,1.27,.58,2.38,.7,2.67,.21,.3-.49-.32-1.42-1.42-2.27,.3,.14,.6,.29,.9,.47,1.61,.98,2.62,2.25,2.25,2.85s-1.96,.3-3.57-.68Z"/>
            <path class="cls-11" d="M58.27,67.96c-.3-.18-.58-.38-.83-.58,1.27,.58,2.38,.7,2.67,.21,.3-.49-.32-1.42-1.42-2.27,.3,.14,.6,.29,.9,.47,1.61,.98,2.62,2.25,2.25,2.85s-1.96,.3-3.57-.68Z"/>
            <path class="cls-11" d="M40.51,73.44c-.19-.3-.36-.59-.5-.88,.89,1.07,1.84,1.65,2.32,1.34,.48-.31,.32-1.42-.3-2.66,.21,.25,.41,.52,.61,.81,1.03,1.57,1.39,3.16,.8,3.55-.59,.38-1.9-.58-2.93-2.16Z"/>
            <path class="cls-11" d="M48.36,80.54c-.19-.3-.36-.59-.5-.88,.89,1.07,1.84,1.65,2.32,1.34,.48-.31,.32-1.42-.3-2.66,.21,.25,.41,.52,.61,.81,1.03,1.57,1.39,3.16,.8,3.55s-1.9-.58-2.93-2.15Z"/>
            <path class="cls-6" d="M126.59,30.13c-.27-.23-.51-.46-.74-.7,1.16,.76,2.24,1.04,2.61,.61,.36-.44-.1-1.45-1.06-2.46,.27,.18,.55,.37,.82,.6,1.44,1.21,2.25,2.62,1.8,3.16-.45,.54-1.99,0-3.43-1.21Z"/>
            <path class="cls-6" d="M119.53,18.87c-.32-.16-.61-.33-.88-.51,1.31,.47,2.42,.5,2.68-.01,.25-.51-.44-1.39-1.6-2.15,.31,.11,.62,.24,.94,.4,1.68,.84,2.79,2.03,2.48,2.66-.31,.63-1.93,.46-3.62-.38Z"/>
            <path class="cls-11" d="M138.73,34.28c-.25-.25-.46-.51-.66-.77,1.08,.88,2.13,1.26,2.53,.87s.04-1.45-.81-2.55c.25,.2,.51,.43,.75,.68,1.31,1.35,1.97,2.83,1.47,3.32-.5,.49-1.98-.2-3.29-1.55Z"/>
          </g>
        </g>
      </g>
    </g>
  </g>
</svg>