<?xml version="1.0" encoding="UTF-8"?>
<svg xmlns="http://www.w3.org/2000/svg" viewBox="0 0 232.76 176">
  <defs>
    <style>
      .cls-1 {
        fill: #632b52;
      }

      .cls-2 {
        isolation: isolate;
      }

      .cls-3 {
        mix-blend-mode: screen;
        opacity: .39;
      }

      .cls-3, .cls-4, .cls-5 {
        fill: #231b36;
      }

      .cls-6 {
        fill: #413857;
      }

      .cls-4, .cls-7 {
        opacity: .5;
      }

      .cls-4, .cls-7, .cls-8 {
        mix-blend-mode: multiply;
      }

      .cls-8 {
        fill: #bfcad6;
      }

      .cls-9 {
        stroke-width: 1.65px;
      }

      .cls-9, .cls-10 {
        fill: none;
        stroke: #0f0c1c;
        stroke-linecap: round;
        stroke-miterlimit: 10;
      }

      .cls-10 {
        stroke-width: .83px;
      }

      .cls-11 {
        fill: #955c7f;
      }

      .cls-12 {
        fill: #ffeaff;
      }
    </style>
  </defs>
  <g class="cls-2">
    <g id="Layer_2" data-name="Layer 2">
      <g id="OBJECTS">
        <g>
          <ellipse class="cls-8" cx="83.01" cy="167.3" rx="65.42" ry="8.7"/>
          <g>
            <path class="cls-5" d="M154.07,141.43c-2.76,0-5.54-.49-8.26-1.49-17.67-6.49-23.5-29.43-24.11-32.03-1.5-6.4,2.48-12.81,8.88-14.3,6.39-1.49,12.78,2.46,14.29,8.84,1.29,5.29,5.28,13.72,9.14,15.14,0,0,.02,0,.02,0,.28-.12,1.11-.69,1.96-2.22,2.32-4.15,2.46-10.75,.38-17.66-5.51-18.29-3.72-40.03,4.56-55.38,5.97-11.08,14.97-18.67,26.01-21.96,29.79-8.87,41.43,4.3,43.46,7.03,3.92,5.28,2.83,12.73-2.45,16.66-4.98,3.7-11.89,2.94-15.96-1.59-.78-.5-5.62-3.04-18.26,.72-4.92,1.46-8.9,4.98-11.85,10.44-5.34,9.91-6.44,24.87-2.72,37.22,5.2,17.26,2.08,33.96-8.14,43.59-4.86,4.58-10.85,6.98-16.96,6.98Zm57.26-99.77s0,0,0,0c0,0,0,0,0,0Zm-.01-.02s0,0,.01,.01c0,0,0,0-.01-.01Zm-.02-.02s0,.01,.01,.02c0,0,0-.01-.01-.02Z"/>
            <g class="cls-7">
              <path class="cls-5" d="M154.07,141.43c-2.76,0-5.54-.49-8.26-1.49-17.67-6.49-23.5-29.43-24.11-32.03-1.5-6.4,2.48-12.81,8.88-14.3,6.39-1.49,12.78,2.46,14.29,8.84,1.29,5.29,5.28,13.72,9.14,15.14,0,0,.02,0,.02,0,.28-.12,1.11-.69,1.96-2.22,2.32-4.15,2.46-10.75,.38-17.66-5.51-18.29-3.72-40.03,4.56-55.38,5.97-11.08,14.97-18.67,26.01-21.96,29.79-8.87,41.43,4.3,43.46,7.03,3.92,5.28,2.83,12.73-2.45,16.66-4.98,3.7-11.89,2.94-15.96-1.59-.78-.5-5.62-3.04-18.26,.72-4.92,1.46-8.9,4.98-11.85,10.44-5.34,9.91-6.44,24.87-2.72,37.22,5.2,17.26,2.08,33.96-8.14,43.59-4.86,4.58-10.85,6.98-16.96,6.98Zm57.26-99.77s0,0,0,0c0,0,0,0,0,0Zm-.01-.02s0,0,.01,.01c0,0,0,0-.01-.01Zm-.02-.02s0,.01,.01,.02c0,0,0-.01-.01-.02Z"/>
            </g>
            <path class="cls-5" d="M40.33,157.49s-6.68,1.53-7.52,5.57,4.39,5.12,8.73,3.45c4.35-1.67,5.48-8.97,5.36-10.31-.13-1.41-6.57,1.28-6.57,1.28Z"/>
            <path class="cls-3" d="M40.33,157.49s-6.68,1.53-7.52,5.57,4.39,5.12,8.73,3.45c4.35-1.67,5.48-8.97,5.36-10.31-.13-1.41-6.57,1.28-6.57,1.28Z"/>
            <path class="cls-5" d="M49.22,103.39c2.24,5.58,1.49,17.36-1.82,14.05,1.16,6.61,2.31,41.17-3.31,47.29-5.62,6.12-7.11-19.51-15.05-33.23-7.94-13.72-7.44-43.32-4.46-50.43,2.98-7.11,17.2,3.8,24.64,22.32Z"/>
            <path class="cls-3" d="M49.22,103.39c2.24,5.58,1.49,17.36-1.82,14.05,1.16,6.61,2.31,41.17-3.31,47.29-5.62,6.12-7.11-19.51-15.05-33.23-7.94-13.72-7.44-43.32-4.46-50.43,2.98-7.11,17.2,3.8,24.64,22.32Z"/>
            <path class="cls-5" d="M79.8,102.25c-5.65,6.48-12.63,15.53-7.76,15.76-1,16.14,12.6,35.59,20.96,40.03,8.36,4.44,24.32-.76,31.67-15.17,7.35-14.41,1.34-38.5-5.75-44.55-1.06-.91-2.3-1.77-3.68-2.55-11.7-6.68-26.58-3.68-35.44,6.48Z"/>
            <path class="cls-5" d="M100.41,152.77c-1.4,.21-2.79,.37-4.2,.5-5.49,.5-19.24,1.86-21.58,3.08-2.93,1.53-2.36,7.15,9.66,7.12,12.02-.03,26.17-2.1,30.43-6.66,4.13-4.42,5.04-6.98-14.31-4.04Z"/>
            <path class="cls-4" d="M114.72,156.81c2.76-2.95,4.07-5.07-1.13-5.28-2.59,.08-6.25,.47-11.29,1.23-1.4,.21-2.79,.37-4.2,.5-5.49,.5-19.24,1.86-21.58,3.08-2.88,1.5-2.35,6.94,9.06,7.11,11.73-.17,25.03-2.24,29.14-6.64Z"/>
            <path class="cls-5" d="M67.08,37.91s-2.65,27.45,8.6,30.42c11.24,2.98,22.49-8.27,27.12-7.61,4.63,.66-.33,3.97-.33,3.97,0,0,23.48,.66,33.07,10.91,9.59,10.25-3.64,2.65-3.64,2.65,0,0,19.51,22.49,10.91,49.27-8.6,26.79-29.76,36.05-66.8,24.8-37.04-11.24-32.08-22.49-32.08-22.49,0,0-5.95,1.98-7.28-6.94-1.98,3.31-20.5-16.53-7.94-63.82,12.57-47.29,38.36-21.16,38.36-21.16Z"/>
            <path class="cls-4" d="M131.89,78.26s13.23,7.61,3.64-2.65c-4.71-5.03-12.75-7.75-19.73-9.22,6.68,6.96,19.31,23.28,16.43,44.93-3.88,29.12-23.92,42.56-64.08,37.86-.76-.09-1.47-.18-2.19-.28,2.95,1.13,6.27,2.28,10.05,3.43,37.04,11.24,58.2,1.98,66.8-24.8,8.6-26.79-10.91-49.27-10.91-49.27Z"/>
            <g>
              <path class="cls-3" d="M27.77,62.87c-.17,.7-.32,1.38-.47,2.06,.66-.67,1.17-1.51,.47-2.06Z"/>
              <path class="cls-3" d="M63.4,124.31c7.98-24.84-10.12-45.7-10.12-45.7,0,0,12.27,7.05,3.37-2.45-7.72-8.25-25.13-9.8-29.6-10.07-9.03,42.23,7.72,59.95,9.6,56.82,1.32,8.93,7.28,6.94,7.28,6.94,0,0-2.4,5.49,8.77,12.63,4.72-4.48,8.26-10.56,10.7-18.17Z"/>
            </g>
            <path class="cls-4" d="M67.08,37.91S41.28,11.79,28.72,59.08c-.43,1.62-.82,3.2-1.17,4.75,5.07,3.29,11.12,5.4,17.72,5.86,9.24,.64,17.86-2.07,24.5-7.02-4.2-8.92-2.68-24.75-2.68-24.75Z"/>
            <path class="cls-5" d="M53.86,.1c1.92-1.72,14.43,18.83,13.14,34.55-1.29,15.72-28.38-4.31-28.38-4.31,0,0,2.32-18.63,15.24-30.23Z"/>
            <path class="cls-4" d="M53.86,.1c1.92-1.72,14.43,18.83,13.14,34.55-1.29,15.72-28.38-4.31-28.38-4.31,0,0,2.32-18.63,15.24-30.23Z"/>
            <path class="cls-1" d="M54.02,6.66c1.62-1.45,12.16,15.87,11.08,29.12-1.09,13.25-23.92-3.63-23.92-3.63,0,0,1.95-15.7,12.85-25.48Z"/>
            <path class="cls-5" d="M34.47,18.81S22.49,3.28,20.42,1.81s-6.67,21.19-4.73,28.61c1.94,7.42,18.78-11.61,18.78-11.61Z"/>
            <path class="cls-1" d="M33.59,20.86s-9.8-12.71-11.5-13.91c-1.7-1.21-5.46,17.35-3.87,23.42,1.59,6.08,15.37-9.51,15.37-9.51Z"/>
            <ellipse class="cls-5" cx="39.79" cy="40.06" rx="29.6" ry="26.29"/>
            <path class="cls-3" d="M25.21,17.19c-8.96,4.52-15.01,13.07-15.01,22.87s6.05,18.35,15.01,22.87c8.96-4.52,15.01-13.07,15.01-22.87s-6.05-18.35-15.01-22.87Z"/>
            <path class="cls-5" d="M6.77,36.55c0,17.85,15.72,32.33,35.11,32.33s35.11-14.47,35.11-32.33S6.77,18.69,6.77,36.55Z"/>
            <path class="cls-4" d="M58.98,24.68c7.81,2.38,13.14,6.11,13.14,11.2,0,15.09-10.5,27.92-25.13,32.65,16.97-2.28,30.01-15.73,30.01-31.99,0-5.92-7.71-9.87-18.02-11.86Z"/>
            <path class="cls-3" d="M32.47,23.59c-13.91,1.32-25.69,5.64-25.69,12.95,0,13.17,8.56,24.5,20.83,29.53,10.68-6.73,17.7-18.02,17.7-30.84,0-5.19-5.15-9.07-12.84-11.65Z"/>
            <path class="cls-4" d="M72.34,105.82c-.15-6.27-7.39-10.03-12.36-6.21-3.74,2.86-7.15,8.56-8.04,19.63-.73,9.02-.78,16.38-.47,22.42,3.53,2.44,8.64,5.1,15.99,7.81,.48-8.94,1.2-18.91,1.88-26.09,2.3,3.23,3.21-8.41,2.99-17.57Z"/>
            <path class="cls-5" d="M110.78,159.47c-1.46,.22-2.91,.39-4.38,.52-5.73,.52-20.07,1.94-22.5,3.21-3.05,1.59-2.46,7.46,10.08,7.43,12.54-.03,27.29-2.19,31.74-6.94,4.31-4.61,5.26-7.28-14.93-4.22Z"/>
            <path class="cls-4" d="M118.09,158.51c2.47,.76,1.13,2.68-1.21,5.18-3.8,4.06-15.11,6.22-26.14,6.79,.98,.09,2.03,.16,3.21,.16,12.54-.03,27.29-2.19,31.74-6.94,3.7-3.96,4.91-6.48-7.61-5.18Z"/>
            <g>
              <path class="cls-1" d="M29.62,36.08c0,9.98,4.39,19.47,9.81,19.47s9.81-9.5,9.81-19.47c0-8.26-19.61-8.19-19.61,0Z"/>
              <g>
                <path class="cls-12" d="M44.54,35.73c-.16,1.49-.29,2.7,.28,2.77s1.63-2.03,1.79-3.52c.16-1.49-.62-1.82-1.2-1.88s-.71,1.15-.88,2.64Z"/>
                <path class="cls-12" d="M34.32,35.73c.16,1.49,.29,2.7-.28,2.77-.58,.06-1.63-2.03-1.79-3.52s.62-1.82,1.2-1.88c.58-.06,.71,1.15,.88,2.64Z"/>
              </g>
              <path class="cls-11" d="M45.34,48.11c.8,.35,1.09,1.32,.68,2.09-1.74,3.26-4.05,5.36-6.59,5.36s-4.85-2.1-6.59-5.35c-.41-.77-.12-1.74,.68-2.09,3.43-1.51,8.39-1.52,11.82-.01Z"/>
              <g>
                <path class="cls-6" d="M52.47,31.68s-.34,.55-.97,1.26-1.52,1.57-2.63,2.18c-1.11,.62-2.43,1-3.89,.74-1.46-.26-3.07-1.15-4.76-3.08s-1.76-2.96-.93-3.42c.83-.46,2.57-.36,4.53-.02,1.95,.34,4.12,.93,5.79,1.43,1.68,.5,2.86,.91,2.86,.91Z"/>
                <path class="cls-6" d="M26.39,31.68s.34,.55,.97,1.26c.62,.71,1.52,1.57,2.63,2.18,1.11,.62,2.43,1,3.89,.74,1.46-.26,3.07-1.15,4.76-3.08s1.76-2.96,.93-3.42c-.83-.46-2.57-.36-4.53-.02-1.95,.34-4.12,.93-5.79,1.43-1.68,.5-2.86,.91-2.86,.91Z"/>
              </g>
              <path class="cls-11" d="M41.92,28.96c0-1.22-1.66-1.29-2.5-.46-.89-.89-2.5-.86-2.5,.41s2.5,2.14,2.5,2.14c0,0,2.5-.88,2.5-2.1Z"/>
              <g>
                <path class="cls-9" d="M44.83,26.92s5.23-4.82,9.5-1.17"/>
                <path class="cls-9" d="M34.03,26.92s-5.23-4.82-9.5-1.17"/>
              </g>
              <g>
                <g>
                  <line class="cls-10" x1="24.36" y1="33.74" x2=".41" y2="45.23"/>
                  <line class="cls-10" x1="22.09" y1="37.66" x2="4.13" y2="47.99"/>
                </g>
                <g>
                  <line class="cls-10" x1="54.5" y1="33.74" x2="78.44" y2="45.23"/>
                  <line class="cls-10" x1="56.77" y1="37.66" x2="74.73" y2="47.99"/>
                </g>
              </g>
            </g>
            <path class="cls-5" d="M72.71,105.83c-.22,9.15-1.67,20.74-3.82,17.41-1.98,13.89-4.63,38.36-4.46,45.31,.17,6.94-9.59,.83-11.24-4.96s-4.96-18.19-1.49-45.31c1.41-11.02,5.09-16.55,8.95-19.23,5.15-3.58,12.21,.51,12.06,6.79Z"/>
            <path class="cls-3" d="M60.89,98.9c-.08,.05-.16,.09-.23,.14-3.87,2.68-7.54,8.22-8.95,19.23-3.47,27.12-.17,39.52,1.49,45.31,.5,1.75,1.74,3.52,3.22,4.96-.16-6.95,2.48-31.42,4.46-45.3,2.14,3.33,3.6-8.25,3.82-17.41,.07-3.02-1.54-5.53-3.79-6.93Z"/>
            <path class="cls-5" d="M60.3,162.25s6.78,.99,7.94,4.96c1.16,3.97-3.97,5.46-8.43,4.13-4.46-1.32-6.45-8.02-6.94-9.34-.5-1.32,7.44,.25,7.44,.25Z"/>
            <path class="cls-5" d="M60.3,162.25s6.78,.99,7.94,4.96c1.16,3.97-3.97,5.46-8.43,4.13-4.46-1.32-6.45-8.02-6.94-9.34-.5-1.32,7.44,.25,7.44,.25Z"/>
            <path class="cls-3" d="M55.96,161.59c-1.76-.18-3.33-.19-3.11,.42,.5,1.32,2.48,8.02,6.94,9.34,.33,.1,.67,.18,1.01,.24,.83-.99,1.22-2.39,.82-4.22-.71-3.33-3.7-5.02-5.67-5.78Z"/>
            <path class="cls-5" d="M89.28,106.78c-5.89,6.75-13.18,16.2-8.1,16.44-1.04,16.83,13.14,37.12,21.86,41.75,8.72,4.63,25.36-.79,33.03-15.82,7.66-15.03,1.4-40.16-6-46.47-1.11-.95-2.4-1.85-3.83-2.66-12.2-6.97-27.73-3.84-36.96,6.76Z"/>
            <path class="cls-4" d="M130.08,102.69c-1.11-.95-2.4-1.85-3.83-2.66-1.6-.92-3.26-1.64-4.96-2.22,1.43,.84,2.73,1.74,3.85,2.7,7.94,6.77,14.65,33.71,6.43,49.84-3.61,7.09-9.09,12.18-14.88,15.24,7.28-2.1,14.88-7.59,19.39-16.43,7.66-15.03,1.4-40.16-6-46.47Z"/>
            <path class="cls-3" d="M89.28,106.78c-5.89,6.75-13.18,16.2-8.09,16.44-.33,5.39,.89,11.13,3,16.6,2.03,5.27,8.68,6.75,12.73,2.81,2.47-2.41,4.68-5.32,6.42-8.74,4.65-9.12,4.17-21.95,1.43-32.04-.65-2.39-3.31-3.64-5.55-2.58-3.71,1.76-7.12,4.28-9.93,7.51Z"/>
            <path class="cls-3" d="M84.11,82.86c-.44-.15-.86-.26-1.27-.34,1.63,.77,2.68,1.78,2.44,2.48s-1.68,.87-3.44,.49c.38,.18,.78,.35,1.22,.5,2.31,.78,4.42,.72,4.72-.15s-1.35-2.2-3.66-2.98Z"/>
            <path class="cls-4" d="M108.67,76.14c-.44-.15-.86-.26-1.27-.34,1.63,.77,2.68,1.78,2.44,2.48-.24,.7-1.68,.87-3.44,.49,.38,.18,.78,.35,1.22,.5,2.31,.78,4.42,.72,4.72-.15,.29-.86-1.35-2.2-3.66-2.98Z"/>
            <path class="cls-4" d="M119.28,87.86c-.38-.27-.75-.49-1.12-.7,1.34,1.21,2.05,2.48,1.62,3.08-.43,.6-1.85,.34-3.44-.53,.31,.28,.65,.56,1.02,.83,1.99,1.42,4.03,1.97,4.56,1.22,.53-.74-.65-2.49-2.64-3.91Z"/>
            <path class="cls-3" d="M77.55,96.99c-.28-.37-.56-.7-.85-1.01,.9,1.57,1.19,2.99,.59,3.43-.59,.44-1.87-.24-3.11-1.56,.21,.37,.44,.74,.72,1.11,1.46,1.96,3.23,3.11,3.96,2.56s.15-2.57-1.31-4.53Z"/>
          </g>
        </g>
      </g>
    </g>
  </g>
</svg>