<svg width="280" height="439" viewBox="0 0 280 439" fill="none" xmlns="http://www.w3.org/2000/svg">
<g clip-path="url(#clip0_9_2)">
<g style="mix-blend-mode:multiply">
<path d="M121.861 439C60.411 439 10.5959 432.324 10.5959 424.088C10.5959 415.853 60.411 409.177 121.861 409.177C183.311 409.177 233.126 415.853 233.126 424.088C233.126 432.324 183.311 439 121.861 439Z" fill="#BFCAD6"/>
</g>
<path d="M16.8548 133.844C13.1301 131.462 -2.10895 170.009 4.55812 196.353C11.2252 222.697 51.2106 180.858 51.2106 180.858C51.2106 180.858 41.9924 149.87 16.8718 133.844H16.8548Z" fill="#231B36"/>
<g style="mix-blend-mode:multiply" opacity="0.5">
<path d="M16.8548 133.844C13.1301 131.462 -2.10895 170.009 4.55812 196.353C11.2252 222.697 51.2106 180.858 51.2106 180.858C51.2106 180.858 41.9924 149.87 16.8718 133.844H16.8548Z" fill="#231B36"/>
</g>
<path d="M18.4535 145.036C15.3071 143.031 2.46616 175.511 8.07874 197.707C13.6913 219.903 47.3839 184.646 47.3839 184.646C47.3839 184.646 39.6113 158.525 18.4365 145.036H18.4535Z" fill="#632B52"/>
<g style="mix-blend-mode:multiply" opacity="0.5">
<path d="M18.4535 145.036C15.3071 143.031 2.46616 175.511 8.07874 197.707C13.6913 219.903 47.3839 184.646 47.3839 184.646C47.3839 184.646 39.6113 158.525 18.4365 145.036H18.4535Z" fill="#632B52"/>
</g>
<path d="M54.9183 160.051C54.9183 160.051 70.6846 130.228 73.763 127.125C76.8414 124.023 91.06 161.216 89.9034 174.397C88.7469 187.577 54.9183 160.068 54.9183 160.068V160.051Z" fill="#231B36"/>
<path d="M56.9762 163.307C56.9762 163.307 69.8852 138.883 72.4023 136.347C74.9195 133.81 86.5699 164.267 85.6174 175.048C84.665 185.829 56.9762 163.307 56.9762 163.307Z" fill="#632B52"/>
<path d="M133.154 208.488C103.408 228.815 103.17 274.733 107.013 287.913C110.857 301.094 113.935 287.519 113.935 287.519C113.935 287.519 118.545 332.459 145.468 361.134C150.468 367.339 142.39 409.948 139.311 417.318C136.233 424.671 152.39 435.915 165.452 412.279C178.531 388.643 183.906 355.324 183.906 355.324C183.906 355.324 214.656 302.242 216.969 262.341C219.282 222.439 166.609 185.623 133.154 208.488Z" fill="#231B36"/>
<path d="M143.138 429.11C149.074 429.196 157.271 427.019 165.435 412.262C165.435 412.262 137.951 406.452 128.919 415.741C125.093 419.684 124.701 428.836 143.138 429.11Z" fill="#231B36"/>
<g style="mix-blend-mode:multiply" opacity="0.5">
<path d="M133.154 208.488C166.609 185.623 219.265 222.439 216.969 262.341C214.656 302.242 183.906 355.324 183.906 355.324C183.906 355.324 178.531 388.643 165.452 412.279C165.044 413.016 164.636 413.719 164.211 414.404C156.455 427.242 148.785 429.213 143.155 429.145C124.718 428.888 125.11 419.718 128.936 415.776C131.726 412.913 136.267 411.474 141.233 410.874C144.771 396.545 149.618 366.293 145.468 361.151C118.562 332.477 113.935 287.536 113.935 287.536C113.935 287.536 110.857 301.094 107.013 287.93C103.17 274.75 103.408 228.85 133.154 208.505V208.488Z" fill="#231B36"/>
</g>
<path d="M30.0869 287.519C26.6343 298.368 26.2431 319.673 31.6176 315.405C34.3048 331.671 56.9933 365.762 60.4459 370.801C63.8985 375.84 67.7422 417.678 68.1334 426.591C68.5246 435.503 83.5085 430.464 88.9 406.057C94.2745 381.65 91.9784 365.385 91.9784 365.385C91.9784 365.385 96.9787 367.716 96.2134 362.283C95.448 356.866 101.588 304.556 69.307 282.48C37.0091 260.404 30.0869 287.519 30.0869 287.519Z" fill="#231B36"/>
<path d="M72.5214 430.584C68.5246 431.836 61.4153 431.253 61.2282 427.756C61.0411 424.277 65.072 417.301 72.3853 415.553C79.6817 413.805 76.5352 429.333 72.5384 430.584H72.5214Z" fill="#231B36"/>
<g style="mix-blend-mode:multiply" opacity="0.5">
<path d="M69.2899 282.48C69.5961 282.686 69.8852 282.926 70.1913 283.148C97.8121 306.681 92.2675 354.604 92.9988 359.78C93.7642 365.196 88.7639 362.882 88.7639 362.882C88.7639 362.882 91.077 379.148 85.6855 403.555C82.0118 420.215 73.865 427.842 68.9328 428.168C66.6877 428.785 63.6093 428.853 61.2962 428.219C61.2622 428.065 61.2282 427.928 61.2112 427.773C61.0751 425.168 63.3032 420.592 67.5041 417.73C66.2115 402.27 63.2011 374.846 60.4458 370.818C56.9933 365.779 34.3048 331.688 31.6176 315.423C30.359 316.417 29.4235 316.005 28.7602 314.686C28.6242 314.068 28.4881 313.486 28.4031 312.903C28.3351 312.954 28.25 313.006 28.182 313.04C26.7703 307.418 27.6888 294.992 30.0698 287.519C30.0698 287.519 36.992 260.404 69.2899 282.48Z" fill="#231B36"/>
</g>
<path d="M206.254 234.986C215.285 235.363 223.058 228.473 223.755 219.32C225.575 195.564 223.466 177.002 221.425 159.057C218.942 137.186 216.799 118.281 221.85 91.8347C229.929 49.6367 269.166 32.874 269.574 32.7026C278.18 29.1204 282.279 19.1965 278.724 10.5066C275.17 1.83394 265.305 -2.29673 256.699 1.28547C254.403 2.2453 200.216 25.4182 188.753 85.3901C182.715 116.962 185.368 140.323 187.937 162.913C189.875 180.019 191.712 196.181 190.148 216.698C189.433 226.056 196.372 234.232 205.659 234.951C205.863 234.951 206.067 234.986 206.254 234.986Z" fill="#231B36"/>
<g style="mix-blend-mode:screen" opacity="0.39">
<path d="M196.594 85.3902C208.074 25.4182 262.261 2.24531 264.557 1.28549C265.39 0.942692 266.224 0.685596 267.074 0.479919C272.142 1.71398 276.581 5.27904 278.724 10.5067C282.279 19.1794 278.18 29.1204 269.574 32.7026C269.183 32.874 229.946 49.6367 221.867 91.8176C216.799 118.281 218.959 137.169 221.442 159.04C223.483 176.985 225.592 195.53 223.772 219.303C223.194 226.827 217.836 232.826 210.914 234.506C202.972 232.603 197.359 225.148 198.005 216.681C199.57 196.164 197.733 180.001 195.794 162.896C193.226 140.306 190.573 116.944 196.611 85.373L196.594 85.3902Z" fill="#231B36"/>
</g>
<path d="M232.65 251.611C235.235 195.65 198.822 156.571 145.502 165.861C92.1995 175.151 81.9438 267.106 90.1415 295.009C98.3393 322.895 153.7 357.003 178.31 352.856C202.92 348.725 230.592 296.037 232.65 251.611Z" fill="#231B36"/>
<path d="M232.65 251.611C235.235 195.65 198.822 156.571 145.502 165.861C92.1995 175.151 81.9438 267.106 90.1415 295.009C98.3393 322.895 153.7 357.003 178.31 352.856C202.92 348.725 230.592 296.037 232.65 251.611Z" fill="#231B36"/>
<g style="mix-blend-mode:screen" opacity="0.39">
<path d="M137.985 295.009C130.263 268.734 138.92 185.64 184.518 168.312C215.608 178.905 234.538 210.75 232.65 251.611C231 287.365 212.751 328.449 192.869 345.28C168.939 334.173 143.359 313.263 138.002 294.992L137.985 295.009Z" fill="#231B36"/>
</g>
<path d="M95.2779 190.662C95.2779 190.662 98.3563 230.958 106.554 242.322C114.752 253.685 144.839 322.038 141.777 343.737C138.699 365.436 38.8969 377.674 13.2661 288.822C-12.3647 199.969 4.0479 182.401 21.4639 172.083C38.897 161.748 90.1586 149.356 95.2779 190.68V190.662Z" fill="#231B36"/>
<g style="mix-blend-mode:multiply" opacity="0.5">
<path d="M121.062 287.81C117.881 274.459 120.381 228.61 151.098 209.79C182.919 190.302 228.517 222.234 232.123 258.467C227.769 301.282 201.662 348.931 178.31 352.839C169.534 354.313 156.829 350.919 143.75 344.663C129.566 317.445 127.984 287.759 127.984 287.759C127.984 287.759 124.242 301.145 121.062 287.793V287.81Z" fill="#231B36"/>
</g>
<g style="mix-blend-mode:multiply" opacity="0.5">
<path d="M21.4639 172.066C23.794 170.695 26.7193 169.272 30.0698 167.952C19.3889 183.207 15.7833 212.704 35.8865 282.394C50.3262 332.442 86.3148 353.079 118.238 358.083C86.3318 363.842 31.3454 351.485 13.2661 288.805C-12.3647 199.952 4.04786 182.384 21.4639 172.066Z" fill="#231B36"/>
</g>
<g style="mix-blend-mode:multiply" opacity="0.5">
<path d="M0.0680627 212.961C0.782392 187.252 10.9361 178.322 21.4809 172.066C32.536 165.518 57.1804 158.148 75.0556 164.164C81.4846 167.729 86.9101 172.58 90.8389 178.339C91.196 178.459 91.5532 178.579 91.8934 178.716C93.5261 182.093 94.7167 186.018 95.2949 190.68C95.2949 190.68 96.4685 206.054 99.3088 220.486C90.8729 234.729 75.5148 244.67 57.4695 245.664C53.0985 245.904 48.8295 245.595 44.7306 244.824C23.3348 243.847 5.44253 230.838 0.0850612 212.961H0.0680627Z" fill="#231B36"/>
</g>
<g style="mix-blend-mode:multiply" opacity="0.5">
<path d="M91.247 358.563C83.9167 345.417 74.2562 326.409 72.9806 315.577C67.4021 319.587 68.7627 298.317 72.7255 287.639C72.7255 287.639 80.8723 260.867 112.133 284.434C134.634 301.402 136.505 333.094 135.978 351.553C127.372 357.518 110.262 361.048 91.247 358.563Z" fill="#231B36"/>
</g>
<path d="M52.231 242.322C24.7748 242.322 2.51715 222.777 2.51715 198.667C2.51715 174.557 24.7748 155.012 52.231 155.012C79.6873 155.012 101.945 174.557 101.945 198.667C101.945 222.777 79.6873 242.322 52.231 242.322Z" fill="#231B36"/>
<path d="M110.653 193.216C110.653 221.017 87.5904 243.556 59.1362 243.556C30.6821 243.556 7.61952 221.017 7.61952 193.216C7.61952 165.416 110.653 165.416 110.653 193.216Z" fill="#231B36"/>
<g style="mix-blend-mode:screen" opacity="0.39">
<path d="M110.653 193.216C110.653 204.031 107.166 214.041 101.214 222.234C95.1078 230.649 82.5901 230.649 76.4842 222.234C70.5485 214.041 67.0449 204.014 67.0449 193.216C67.0449 186.138 73.729 180.858 83.6956 177.396C87.0291 176.231 90.6688 176.231 94.0023 177.396C103.969 180.876 110.653 186.138 110.653 193.216Z" fill="#231B36"/>
</g>
<g style="mix-blend-mode:multiply" opacity="0.5">
<path d="M52.2311 155.012C54.7312 155.012 57.1974 155.183 59.5955 155.492C35.6314 158.611 17.2289 176.745 17.2289 198.667C17.2289 220.588 35.6144 238.705 59.5955 241.842C57.1974 242.15 54.7312 242.322 52.2311 242.322C24.7634 242.322 2.51717 222.782 2.51717 198.667C2.51717 174.551 24.7804 155.012 52.2311 155.012Z" fill="#231B36"/>
</g>
<path d="M149.108 208.488C119.361 228.815 119.123 274.733 122.967 287.913C126.81 301.094 129.889 287.519 129.889 287.519C129.889 287.519 134.498 332.459 161.421 361.134C166.422 367.339 158.343 409.948 155.265 417.318C152.186 424.671 168.344 435.915 181.406 412.279C194.485 388.643 199.859 355.324 199.859 355.324C199.859 355.324 230.609 302.242 232.922 262.341C235.235 222.439 182.562 185.623 149.108 208.488Z" fill="#231B36"/>
<path d="M159.091 429.11C165.027 429.196 173.225 427.019 181.389 412.262C181.389 412.262 153.904 406.452 144.873 415.741C141.046 419.684 140.655 428.836 159.091 429.11Z" fill="#231B36"/>
<g style="mix-blend-mode:multiply" opacity="0.5">
<path d="M144.873 415.759C149.295 411.217 158.122 410.274 165.996 410.514C159.397 410.737 152.781 412.022 149.159 415.759C145.485 419.546 145.026 428.151 161.404 429.025C160.605 429.093 159.84 429.128 159.108 429.11C140.672 428.853 141.063 419.684 144.89 415.741L144.873 415.759Z" fill="#231B36"/>
</g>
<g style="mix-blend-mode:screen" opacity="0.39">
<path d="M151.302 287.519C151.302 287.519 148.223 301.077 144.38 287.913C140.536 274.733 140.774 228.833 170.521 208.488C174.568 205.728 178.905 203.843 183.395 202.729C209.826 208.659 234.504 234.763 232.922 262.341C230.609 302.242 199.859 355.324 199.859 355.324C199.859 355.324 194.468 388.643 181.406 412.279C179.739 415.279 178.038 417.712 176.337 419.666C176.269 418.878 176.371 418.072 176.694 417.318C179.773 409.965 187.852 367.339 182.851 361.134C155.945 332.459 151.336 287.519 151.336 287.519H151.302Z" fill="#231B36"/>
</g>
<path d="M60.0376 208.711C60.0376 208.711 61.7214 208.213 63.5582 207.219C65.3951 206.208 67.351 204.7 67.8952 202.66C68.4395 200.621 66.6197 200.261 64.4256 200.621C62.2316 200.998 59.6464 202.112 58.694 203.02C57.5715 204.083 56.3639 205.934 56.2109 207.288C56.0578 208.659 56.9592 209.533 60.0206 208.711H60.0376Z" fill="#413857"/>
<g style="mix-blend-mode:multiply" opacity="0.5">
<path d="M56.2279 207.288C56.3809 205.917 57.5885 204.083 58.711 203.02C59.6635 202.112 62.2487 200.998 64.4427 200.621C65.208 200.483 65.9053 200.466 66.5006 200.552C66.3135 200.569 66.1094 200.586 65.9223 200.621C60.4288 201.923 57.9287 208.745 58.8471 208.951C56.7551 209.242 56.1088 208.436 56.2279 207.271V207.288Z" fill="#413857"/>
</g>
<path d="M74.3412 207.048C74.3412 207.048 72.8275 206.757 71.1608 206.037C69.494 205.317 67.6571 204.151 67.0108 202.42C66.3645 200.689 67.9293 200.226 69.8682 200.363C71.807 200.501 74.1371 201.272 75.0385 201.975C76.11 202.814 77.3006 204.306 77.5387 205.488C77.7768 206.671 77.0795 207.511 74.3412 207.031V207.048Z" fill="#413857"/>
<g style="mix-blend-mode:screen" opacity="0.5">
<path d="M74.3412 207.048C74.3412 207.048 72.8275 206.757 71.1608 206.037C69.494 205.317 67.6571 204.151 67.0108 202.42C66.3645 200.689 67.9293 200.226 69.8682 200.363C71.807 200.501 74.1371 201.272 75.0385 201.975C76.11 202.814 77.3006 204.306 77.5387 205.488C77.7768 206.671 77.0795 207.511 74.3412 207.031V207.048Z" fill="#413857"/>
</g>
<path d="M63.8984 201.289C64.1876 199.849 67.198 199.626 68.5076 200.535C70.3104 199.421 73.2187 199.301 72.9126 200.809C72.6064 202.317 67.9123 203.534 67.9123 203.534C67.9123 203.534 63.6093 202.712 63.8984 201.272V201.289Z" fill="#955C7F"/>
<g style="mix-blend-mode:multiply" opacity="0.5">
<path d="M65.4461 200.124C65.3441 200.295 65.2591 200.501 65.225 200.706C65.072 201.769 66.5346 202.832 67.7762 203.517C67.0619 203.363 63.6603 202.575 63.9154 201.289C64.0345 200.672 64.6638 200.295 65.4461 200.124Z" fill="#955C7F"/>
</g>
<path d="M83.9507 202.986L114.769 210.784" stroke="#0F0C1C" stroke-width="0.67" stroke-miterlimit="10" stroke-linecap="round"/>
<path d="M111.231 215.498L88.4407 206.791" stroke="#0F0C1C" stroke-width="0.67" stroke-miterlimit="10" stroke-linecap="round"/>
<path d="M40.8868 206.02L9.84754 222.011" stroke="#0F0C1C" stroke-width="0.67" stroke-miterlimit="10" stroke-linecap="round"/>
<path d="M14.3036 225.833L37.3152 210.716" stroke="#0F0C1C" stroke-width="0.67" stroke-miterlimit="10" stroke-linecap="round"/>
<path d="M57.2654 194.776L35.0701 189.737C35.0701 189.737 44.6455 209.705 57.2654 194.776Z" fill="#FFCF0A"/>
<g style="mix-blend-mode:multiply" opacity="0.5">
<path d="M38.5057 190.508C39.7473 192.753 43.7101 199.129 49.2887 200.158C40.8188 201.718 35.0701 189.72 35.0701 189.72L38.5227 190.508H38.5057Z" fill="#FFCF0A"/>
</g>
<path d="M70.4465 194.125L90.4307 187.577C90.4307 187.577 83.3214 206.774 70.4465 194.125Z" fill="#FFCF0A"/>
<g style="mix-blend-mode:screen" opacity="0.5">
<path d="M72.4023 193.49L90.4477 187.577C90.4477 187.577 89.5462 190.011 87.7944 192.582C84.597 196.507 79.3926 199.695 72.4193 193.49H72.4023Z" fill="#FFCF0A"/>
</g>
<path d="M48.0471 198.598C48.0471 198.598 48.8805 196.164 49.0336 192.908L46.4484 192.325C46.8225 195.907 48.0471 198.598 48.0471 198.598Z" fill="#231B36"/>
<path d="M79.2565 196.833C79.2565 196.833 78.2871 194.656 77.8619 191.691L80.1919 190.937C80.1409 194.262 79.2565 196.85 79.2565 196.85V196.833Z" fill="#231B36"/>
<g style="mix-blend-mode:multiply" opacity="0.5">
<path d="M56.6701 258.073C56.2109 257.439 55.7347 256.856 55.2415 256.325C56.7381 259.033 57.1803 261.467 56.1599 262.204C55.1394 262.941 52.9794 261.741 50.9044 259.461C51.2616 260.095 51.6358 260.73 52.095 261.381C54.5271 264.775 57.5205 266.78 58.7621 265.872C60.0036 264.963 59.0682 261.467 56.6361 258.073H56.6701Z" fill="#231B36"/>
</g>
<g style="mix-blend-mode:multiply" opacity="0.5">
<path d="M47.826 278.572C47.5029 277.852 47.1457 277.201 46.7715 276.584C47.707 279.532 47.6729 282.017 46.5334 282.531C45.3939 283.046 43.506 281.452 41.9243 278.812C42.1454 279.498 42.4005 280.2 42.7237 280.92C44.4415 284.725 46.9756 287.296 48.3873 286.645C49.7989 285.994 49.5438 282.377 47.826 278.572Z" fill="#231B36"/>
</g>
<g style="mix-blend-mode:multiply" opacity="0.5">
<path d="M62.4698 285.394C62.1466 284.674 61.7894 284.023 61.4153 283.406C62.3507 286.354 62.3167 288.839 61.1772 289.353C60.0376 289.884 58.1498 288.273 56.5681 285.634C56.7892 286.319 57.0443 287.022 57.3674 287.742C59.0852 291.547 61.6364 294.118 63.031 293.467C64.4257 292.815 64.1876 289.199 62.4698 285.394Z" fill="#231B36"/>
</g>
<path d="M17.0929 257.987C16.8888 257.216 16.6337 256.513 16.3615 255.845C16.8208 258.913 16.3956 261.347 15.188 261.689C13.9804 262.032 12.3647 260.147 11.2252 257.267C11.3272 257.987 11.4803 258.724 11.6844 259.478C12.7899 263.506 14.8819 266.454 16.3785 266.043C17.8752 265.632 18.1984 262.015 17.0929 257.987Z" fill="#231B36"/>
<path d="M29.6616 272.556C29.4575 271.785 29.2024 271.082 28.9303 270.414C29.3895 273.482 28.9643 275.915 27.7568 276.258C26.5492 276.601 24.9335 274.716 23.7939 271.836C23.896 272.556 24.0491 273.293 24.2532 274.047C25.3587 278.075 27.4506 281.023 28.9473 280.612C30.444 280.2 30.7672 276.584 29.6616 272.556Z" fill="#231B36"/>
<path d="M72.2153 287.519C68.7627 298.368 68.3715 319.673 73.746 315.405C76.4332 331.671 99.1217 365.762 102.574 370.801C106.027 375.84 109.871 417.678 110.262 426.591C110.653 435.503 125.637 430.464 131.028 406.057C136.403 381.65 134.107 365.385 134.107 365.385C134.107 365.385 139.107 367.716 138.342 362.283C137.576 356.849 143.716 304.556 111.435 282.48C79.1375 260.404 72.2153 287.519 72.2153 287.519Z" fill="#231B36"/>
<g style="mix-blend-mode:screen" opacity="0.39">
<path d="M138.342 362.283C139.005 366.927 135.433 365.899 134.396 365.505C126.912 354.038 111.299 328.74 109.088 315.405C103.714 319.673 104.088 298.351 107.558 287.519C107.558 287.519 108.272 284.76 110.262 281.726C110.653 281.983 111.027 282.206 111.418 282.48C143.716 304.556 137.559 356.866 138.325 362.283H138.342Z" fill="#231B36"/>
</g>
<path d="M114.65 430.584C110.653 431.836 103.544 431.253 103.357 427.756C103.17 424.277 107.2 417.301 114.514 415.553C121.81 413.805 118.664 429.333 114.667 430.584H114.65Z" fill="#231B36"/>
<g style="mix-blend-mode:multiply" opacity="0.5">
<path d="M114.497 415.553C114.939 415.45 115.347 415.416 115.721 415.416C109.19 418.312 105.653 424.877 105.84 428.391C105.908 429.487 106.571 430.327 107.609 430.944C105.296 430.516 103.442 429.505 103.34 427.756C103.153 424.277 107.183 417.301 114.497 415.553Z" fill="#231B36"/>
</g>
<g style="mix-blend-mode:screen" opacity="0.5">
<path d="M81.9607 192.274C81.9607 193.251 82.7431 194.056 83.7296 194.056C84.716 194.056 85.4984 193.268 85.4984 192.274C85.4984 191.279 84.716 190.491 83.7296 190.491C82.7431 190.491 81.9607 191.279 81.9607 192.274Z" fill="#FFCF0A"/>
</g>
<g style="mix-blend-mode:screen" opacity="0.5">
<path d="M51.5847 196.833C50.8615 196.833 50.2751 196.242 50.2751 195.513C50.2751 194.784 50.8615 194.193 51.5847 194.193C52.308 194.193 52.8943 194.784 52.8943 195.513C52.8943 196.242 52.308 196.833 51.5847 196.833Z" fill="#FFCF0A"/>
</g>
<path d="M204.23 236.94C204.026 236.168 203.771 235.466 203.499 234.797C203.958 237.865 203.533 240.299 202.325 240.642C201.118 240.985 199.502 239.099 198.362 236.22C198.464 236.94 198.617 237.677 198.822 238.431C199.927 242.459 202.019 245.407 203.516 244.995C205.012 244.584 205.336 240.968 204.23 236.94Z" fill="#231B36"/>
<path d="M202.546 277.527C202.546 276.738 202.495 275.984 202.41 275.264C202.036 278.332 200.982 280.577 199.723 280.577C198.464 280.577 197.427 278.315 197.087 275.247C197.002 275.967 196.934 276.704 196.934 277.509C196.917 281.692 198.158 285.085 199.706 285.102C201.254 285.102 202.529 281.726 202.546 277.544V277.527Z" fill="#231B36"/>
<path d="M220.745 259.444C220.762 258.656 220.745 257.902 220.677 257.182C220.217 260.25 219.095 262.461 217.853 262.409C216.595 262.375 215.608 260.095 215.353 257.01C215.251 257.73 215.166 258.467 215.149 259.256C215.013 263.438 216.17 266.866 217.717 266.917C219.265 266.968 220.626 263.609 220.762 259.427L220.745 259.444Z" fill="#231B36"/>
</g>
<defs>
<clipPath id="clip0_9_2">
<rect width="280" height="439" fill="white" transform="matrix(-1 0 0 1 280 0)"/>
</clipPath>
</defs>
</svg>
