<svg width="48" height="48" viewBox="0 0 48 48" fill="none" xmlns="http://www.w3.org/2000/svg">
<path d="M24 36C20.8174 36 17.7652 34.7357 15.5147 32.4853C13.2643 30.2348 12 27.1826 12 24C12 20.8174 13.2643 17.7652 15.5147 15.5147C17.7652 13.2643 20.8174 12 24 12C27.1826 12 30.2348 13.2643 32.4853 15.5147C34.7357 17.7652 36 20.8174 36 24C36 27.1826 34.7357 30.2348 32.4853 32.4853C30.2348 34.7357 27.1826 36 24 36ZM24 32C26.1217 32 28.1566 31.1571 29.6569 29.6569C31.1571 28.1566 32 26.1217 32 24C32 21.8783 31.1571 19.8434 29.6569 18.3431C28.1566 16.8429 26.1217 16 24 16C21.8783 16 19.8434 16.8429 18.3431 18.3431C16.8429 19.8434 16 21.8783 16 24C16 26.1217 16.8429 28.1566 18.3431 29.6569C19.8434 31.1571 21.8783 32 24 32ZM22 2H26V8H22V2ZM22 40H26V46H22V40ZM7.03 9.858L9.858 7.03L14.1 11.272L11.272 14.1L7.03 9.858ZM33.9 36.728L36.728 33.9L40.97 38.142L38.142 40.97L33.9 36.728ZM38.142 7.028L40.97 9.858L36.728 14.1L33.9 11.272L38.142 7.03V7.028ZM11.272 33.9L14.1 36.728L9.858 40.97L7.03 38.142L11.272 33.9ZM46 22V26H40V22H46ZM8 22V26H2V22H8Z" fill="black"/>
</svg>
