<svg width="48" height="48" viewBox="0 0 48 48" fill="none" xmlns="http://www.w3.org/2000/svg">
<path d="M20 14C19.9996 16.7813 20.8276 19.4997 22.3785 21.8084C23.9293 24.1172 26.1327 25.9117 28.7076 26.9631C31.2824 28.0145 34.1121 28.2752 36.8358 27.7118C39.5594 27.1485 42.0535 25.7866 44 23.8V24C44 35.046 35.046 44 24 44C12.954 44 4 35.046 4 24C4 12.954 12.954 4 24 4H24.2C22.8682 5.30232 21.8104 6.85801 21.0891 8.57543C20.3678 10.2928 19.9975 12.1373 20 14ZM8 24C7.99855 27.57 9.19105 31.0379 11.3878 33.8519C13.5845 36.666 16.6593 38.6646 20.1228 39.5296C23.5864 40.3947 27.2398 40.0766 30.5017 38.626C33.7636 37.1753 36.4467 34.6754 38.124 31.524C35.1389 32.2273 32.0236 32.1562 29.0736 31.3174C26.1237 30.4787 23.437 28.9002 21.2684 26.7316C19.0998 24.563 17.5213 21.8763 16.6826 18.9264C15.8438 15.9764 15.7727 12.8611 16.476 9.876C13.9152 11.2403 11.7736 13.2753 10.2805 15.7633C8.78746 18.2512 7.99915 21.0984 8 24Z" fill="black"/>
</svg>
