<svg width="48" height="48" viewBox="0 0 48 48" fill="none" xmlns="http://www.w3.org/2000/svg">
<path d="M19.968 10.12C21.7379 7.25269 24.552 5.18463 27.8171 4.35179C31.0821 3.51896 34.543 3.98642 37.4701 5.65563C40.3971 7.32485 42.5617 10.0654 43.5075 13.2995C44.4534 16.5337 44.1064 20.0087 42.54 22.992C44.1442 24.5027 45.2577 26.4605 45.7362 28.6115C46.2146 30.7625 46.0361 33.0076 45.2235 35.056C44.411 37.1043 43.002 38.8614 41.1791 40.0995C39.3563 41.3376 37.2036 41.9997 35 42H18C15.8182 41.9961 13.6603 41.546 11.6589 40.6775C9.65743 39.8089 7.8548 38.5401 6.36175 36.9493C4.86871 35.3584 3.71681 33.4789 2.97686 31.4265C2.23691 29.374 1.92454 27.1919 2.05896 25.0143C2.19338 22.8366 2.77175 20.7095 3.75851 18.7636C4.74526 16.8178 6.11957 15.0943 7.79693 13.6991C9.4743 12.3039 11.4193 11.2665 13.5123 10.6506C15.6054 10.0348 17.8023 9.85554 19.968 10.12ZM24.11 11.208C26.1077 12.0361 27.9174 13.2592 29.4307 14.8041C30.9439 16.3489 32.1294 18.1836 32.916 20.198C35.0117 19.7968 37.1787 20.01 39.156 20.812C40.0831 18.8335 40.2588 16.5853 39.6504 14.4868C39.0419 12.3883 37.6909 10.5828 35.8492 9.40711C34.0076 8.23141 31.8011 7.76582 29.6414 8.09718C27.4818 8.42855 25.5144 9.53424 24.11 11.208ZM35 38C36.154 37.9998 37.2902 37.7143 38.3072 37.1689C39.3243 36.6235 40.1907 35.8351 40.8294 34.8738C41.468 33.9126 41.8591 32.8083 41.9678 31.6594C42.0765 30.5104 41.8995 29.3524 41.4524 28.2885C41.0054 27.2245 40.3022 26.2875 39.4055 25.561C38.5088 24.8345 37.4464 24.341 36.3128 24.1244C35.1793 23.9078 34.0097 23.9748 32.9083 24.3195C31.8069 24.6642 30.8078 25.2758 30 26.1V26C30 23.6266 29.2962 21.3065 27.9776 19.3332C26.659 17.3598 24.7849 15.8217 22.5922 14.9134C20.3995 14.0052 17.9867 13.7676 15.6589 14.2306C13.3311 14.6936 11.1929 15.8365 9.51468 17.5147C7.83645 19.193 6.69356 21.3311 6.23054 23.6589C5.76752 25.9867 6.00516 28.3995 6.91341 30.5922C7.82166 32.7849 9.35973 34.6591 11.3331 35.9776C13.3065 37.2962 15.6266 38 18 38H35Z" fill="black"/>
</svg>
