<svg width="48" height="48" viewBox="0 0 48 48" fill="none" xmlns="http://www.w3.org/2000/svg">
<path d="M17.34 10.014C18.6527 7.23726 20.842 4.96922 23.5706 3.55936C26.2992 2.1495 29.4158 1.67606 32.44 2.212C31.9245 3.79176 31.8564 5.4834 32.2433 7.09948C32.6302 8.71555 33.457 10.193 34.632 11.368C35.8071 12.543 37.2845 13.3698 38.9006 13.7567C40.5166 14.1436 42.2083 14.0755 43.788 13.56C44.3387 16.7055 43.8034 19.9448 42.27 22.746C43.9469 24.2232 45.1341 26.1761 45.6735 28.3448C46.2129 30.5135 46.079 32.795 45.2896 34.8857C44.5002 36.9763 43.0928 38.777 41.2546 40.0479C39.4164 41.3188 37.2348 41.9997 35 42H18C13.8153 41.9976 9.79808 40.3558 6.8095 37.4266C3.82092 34.4974 2.09889 30.5139 2.01256 26.3301C1.92623 22.1462 3.48248 18.0951 6.34768 15.0451C9.21288 11.9951 13.159 10.189 17.34 10.014ZM21.694 10.428C24.2145 11.0286 26.5519 12.2312 28.506 13.9327C30.46 15.6342 31.9726 17.784 32.914 20.198C34.8952 19.8187 36.9422 19.9882 38.834 20.688C39.292 19.8275 39.6208 18.9042 39.81 17.948C36.7856 17.6692 33.9541 16.3406 31.8068 14.1925C29.6595 12.0445 28.3318 9.21256 28.054 6.188C25.4565 6.70398 23.1694 8.2287 21.694 10.428ZM35 38C36.1541 37.9998 37.2902 37.7143 38.3073 37.1689C39.3244 36.6235 40.1908 35.835 40.8294 34.8738C41.4681 33.9126 41.8592 32.8083 41.9679 31.6594C42.0766 30.5104 41.8996 29.3524 41.4525 28.2884C41.0055 27.2245 40.3023 26.2875 39.4056 25.561C38.5089 24.8345 37.4465 24.341 36.3129 24.1244C35.1793 23.9078 34.0098 23.9748 32.9084 24.3195C31.807 24.6642 30.8079 25.2758 30 26.1V26C30 23.6266 29.2963 21.3065 27.9777 19.3332C26.6591 17.3598 24.785 15.8217 22.5922 14.9134C20.3995 14.0052 17.9867 13.7676 15.659 14.2306C13.3312 14.6936 11.193 15.8365 9.51476 17.5147C7.83653 19.1929 6.69364 21.3311 6.23062 23.6589C5.76759 25.9867 6.00523 28.3995 6.91349 30.5922C7.82174 32.7849 9.35981 34.6591 11.3332 35.9776C13.3066 37.2962 15.6267 38 18 38H35Z" fill="black"/>
</svg>
