<svg width="48" height="48" viewBox="0 0 48 48" fill="none" xmlns="http://www.w3.org/2000/svg">
<path d="M34 42H14C11.1665 42.0018 8.42369 41.0008 6.25737 39.1743C4.09105 37.3479 2.64093 34.8137 2.1638 32.0206C1.68667 29.2276 2.21331 26.3557 3.65046 23.9137C5.08761 21.4717 7.34255 19.617 10.016 18.678C9.92543 16.7853 10.22 14.894 10.8819 13.1185C11.5438 11.343 12.5592 9.72035 13.8667 8.34884C15.1741 6.97734 16.7464 5.88552 18.4882 5.13952C20.23 4.39352 22.1051 4.00887 24 4.00887C25.8948 4.00887 27.77 4.39352 29.5118 5.13952C31.2536 5.88552 32.8259 6.97734 34.1333 8.34884C35.4407 9.72035 36.4562 11.343 37.1181 13.1185C37.78 14.894 38.0746 16.7853 37.984 18.678C40.6574 19.617 42.9124 21.4717 44.3495 23.9137C45.7867 26.3557 46.3133 29.2276 45.8362 32.0206C45.3591 34.8137 43.9089 37.3479 41.7426 39.1743C39.5763 41.0008 36.8335 42.0018 34 42ZM14 38H34C35.0853 37.9981 36.1588 37.7753 37.1553 37.3453C38.1518 36.9154 39.0504 36.2871 39.7964 35.4988C40.5423 34.7105 41.1201 33.7787 41.4946 32.7601C41.869 31.7414 42.0323 30.6572 41.9744 29.5734C41.9165 28.4897 41.6387 27.429 41.158 26.4561C40.6772 25.4831 40.0034 24.6181 39.1778 23.9137C38.3521 23.2093 37.3917 22.6804 36.3551 22.3589C35.3185 22.0375 34.2273 21.9303 33.148 22.044C33.8201 20.5217 34.1017 18.8558 33.9673 17.1972C33.8329 15.5386 33.2867 13.9397 32.3783 12.5456C31.4698 11.1514 30.2278 10.006 28.7648 9.21307C27.3018 8.42019 25.664 8.00493 24 8.00493C22.3359 8.00493 20.6982 8.42019 19.2352 9.21307C17.7722 10.006 16.5302 11.1514 15.6217 12.5456C14.7133 13.9397 14.1671 15.5386 14.0327 17.1972C13.8983 18.8558 14.1799 20.5217 14.852 22.044C13.7727 21.9303 12.6815 22.0375 11.6449 22.3589C10.6083 22.6804 9.64791 23.2093 8.82223 23.9137C7.99654 24.6181 7.32281 25.4831 6.84203 26.4561C6.36125 27.429 6.08347 28.4897 6.0256 29.5734C5.96773 30.6572 6.13098 31.7414 6.50542 32.7601C6.87985 33.7787 7.45764 34.7105 8.20362 35.4988C8.9496 36.2871 9.84817 36.9154 10.8447 37.3453C11.8411 37.7753 12.9147 37.9981 14 38Z" fill="black"/>
</svg>
