<svg width="48" height="48" viewBox="0 0 48 48" fill="none" xmlns="http://www.w3.org/2000/svg">
<g clip-path="url(#clip0_42_122)">
<path d="M37.3297 40.7604H19.5569C17.0389 40.762 14.6015 39.8725 12.6765 38.2494C10.7514 36.6264 9.46276 34.3744 9.03876 31.8924C8.61477 29.4103 9.08276 26.8583 10.3599 24.6882C11.637 22.5181 13.6408 20.87 16.0165 20.0356C15.9361 18.3537 16.1978 16.6729 16.786 15.0952C17.3742 13.5174 18.2766 12.0755 19.4384 10.8567C20.6003 9.6379 21.9974 8.66767 23.5453 8.00474C25.0931 7.34182 26.7594 7 28.4433 7C30.1271 7 31.7934 7.34182 33.3413 8.00474C34.8891 8.66767 36.2863 9.6379 37.4481 10.8567C38.61 12.0755 39.5123 13.5174 40.1005 15.0952C40.6887 16.6729 40.9505 18.3537 40.87 20.0356C43.2457 20.87 45.2496 22.5181 46.5267 24.6882C47.8038 26.8583 48.2718 29.4103 47.8478 31.8924C47.4238 34.3744 46.1352 36.6264 44.2101 38.2494C42.285 39.8725 39.8477 40.762 37.3297 40.7604ZM19.5569 37.2059H37.3297C38.2941 37.2042 39.2481 37.0062 40.1336 36.6241C41.0191 36.242 41.8176 35.6837 42.4806 34.9832C43.1435 34.2827 43.6569 33.4547 43.9896 32.5495C44.3224 31.6442 44.4675 30.6808 44.416 29.7177C44.3646 28.7546 44.1178 27.8121 43.6905 26.9475C43.2633 26.0828 42.6646 25.3142 41.9308 24.6882C41.1971 24.0623 40.3437 23.5922 39.4225 23.3066C38.5013 23.021 37.5317 22.9257 36.5725 23.0267C37.1698 21.674 37.4201 20.1936 37.3006 18.7197C37.1812 17.2458 36.6958 15.825 35.8885 14.5861C35.0812 13.3471 33.9775 12.3292 32.6774 11.6247C31.3774 10.9201 29.922 10.5511 28.4433 10.5511C26.9645 10.5511 25.5092 10.9201 24.2091 11.6247C22.909 12.3292 21.8053 13.3471 20.998 14.5861C20.1907 15.825 19.7053 17.2458 19.5859 18.7197C19.4665 20.1936 19.7167 21.674 20.314 23.0267C19.3549 22.9257 18.3852 23.021 17.464 23.3066C16.5429 23.5922 15.6894 24.0623 14.9557 24.6882C14.222 25.3142 13.6233 26.0828 13.196 26.9475C12.7688 27.8121 12.5219 28.7546 12.4705 29.7177C12.4191 30.6808 12.5642 31.6442 12.8969 32.5495C13.2296 33.4547 13.7431 34.2827 14.406 34.9832C15.0689 35.6837 15.8674 36.242 16.7529 36.6241C17.6384 37.0062 18.5924 37.2042 19.5569 37.2059Z" fill="black"/>
<path d="M28.4432 40.7604H10.6704C8.1524 40.762 5.71507 39.8725 3.78999 38.2494C1.86491 36.6264 0.576286 34.3744 0.152289 31.8924C-0.271708 29.4103 0.19628 26.8583 1.47339 24.6882C2.7505 22.5181 4.75432 20.87 7.13006 20.0356C7.04958 18.3537 7.31136 16.6729 7.89955 15.0952C8.48773 13.5174 9.39008 12.0755 10.5519 10.8567C11.7138 9.6379 13.1109 8.66767 14.6588 8.00474C16.2066 7.34182 17.873 7 19.5568 7C21.2406 7 22.9069 7.34182 24.4548 8.00474C26.0026 8.66767 27.3998 9.6379 28.5617 10.8567C29.7235 12.0755 30.6259 13.5174 31.214 15.0952C31.8022 16.6729 32.064 18.3537 31.9835 20.0356C34.3593 20.87 36.3631 22.5181 37.6402 24.6882C38.9173 26.8583 39.3853 29.4103 38.9613 31.8924C38.5373 34.3744 37.2487 36.6264 35.3236 38.2494C33.3985 39.8725 30.9612 40.762 28.4432 40.7604Z" fill="black"/>
</g>
<defs>
<clipPath id="clip0_42_122">
<rect width="48" height="48" fill="white"/>
</clipPath>
</defs>
</svg>
