<svg width="48" height="48" viewBox="0 0 48 48" fill="none" xmlns="http://www.w3.org/2000/svg">
<g clip-path="url(#clip0_42_89)">
<path d="M36.005 33.5982C37.741 33.5972 39.4561 33.2197 41.032 32.4916C42.6079 31.7635 44.0071 30.7022 45.1331 29.3809C46.2591 28.0596 47.085 26.5098 47.5539 24.8384C48.0228 23.1669 48.1235 21.4137 47.8491 19.6995C47.5747 17.9854 46.9317 16.3512 45.9644 14.9097C44.9972 13.4682 43.7287 12.2536 42.2466 11.3499C40.7644 10.4461 39.1038 9.87462 37.3794 9.67486C35.6549 9.4751 33.9076 9.65182 32.2581 10.1928C30.7349 6.63468 28.0303 3.71129 24.6012 1.91643C21.172 0.121579 17.2284 -0.434733 13.4366 0.341463C9.6447 1.11766 6.23694 3.17879 3.78888 6.17671C1.34082 9.17463 0.00251007 12.9256 0 16.796C0 21.2523 1.77024 25.5259 4.9213 28.6769C8.07235 31.828 12.3461 33.5982 16.8024 33.5982H36.005ZM36.005 28.7976H16.8024C14.6349 28.7966 12.5082 28.2086 10.648 27.0962C8.78787 25.9838 7.26366 24.3884 6.23726 22.4795C5.21086 20.5705 4.72057 18.4192 4.81846 16.254C4.91635 14.0888 5.59875 11.9906 6.79322 10.182C7.9877 8.37344 9.64965 6.92209 11.6026 5.98207C13.5556 5.04204 15.7267 4.64841 17.8853 4.84299C20.044 5.03757 22.1097 5.81308 23.8631 7.08719C25.6165 8.3613 26.9921 10.0864 27.8439 12.0795L29.5721 16.1264L33.7535 14.7534C34.743 14.4293 35.791 14.3237 36.8252 14.4438C37.8595 14.5639 38.8554 14.9068 39.7443 15.449C40.6332 15.9911 41.3939 16.7196 41.9741 17.5841C42.5543 18.4487 42.9401 19.4288 43.1049 20.4568C43.2697 21.4849 43.2096 22.5364 42.9288 23.539C42.6479 24.5416 42.153 25.4714 41.4781 26.2642C40.8033 27.057 39.9645 27.6941 39.0196 28.1315C38.0747 28.5688 37.0462 28.7961 36.005 28.7976ZM33.6047 35.9985C32.9681 35.9985 32.3576 36.2514 31.9074 36.7015C31.4573 37.1517 31.2044 37.7622 31.2044 38.3988V43.1994C31.2044 43.836 31.4573 44.4465 31.9074 44.8967C32.3576 45.3468 32.9681 45.5997 33.6047 45.5997C34.2413 45.5997 34.8518 45.3468 35.302 44.8967C35.7521 44.4465 36.005 43.836 36.005 43.1994V38.3988C36.005 37.7622 35.7521 37.1517 35.302 36.7015C34.8518 36.2514 34.2413 35.9985 33.6047 35.9985ZM24.0034 35.9985C23.3668 35.9985 22.7562 36.2514 22.3061 36.7015C21.8559 37.1517 21.603 37.7622 21.603 38.3988V45.5997C21.603 46.2363 21.8559 46.8468 22.3061 47.297C22.7562 47.7471 23.3668 48 24.0034 48C24.64 48 25.2505 47.7471 25.7007 47.297C26.1508 46.8468 26.4037 46.2363 26.4037 45.5997V38.3988C26.4037 37.7622 26.1508 37.1517 25.7007 36.7015C25.2505 36.2514 24.64 35.9985 24.0034 35.9985ZM14.402 35.9985C13.7654 35.9985 13.1549 36.2514 12.7047 36.7015C12.2546 37.1517 12.0017 37.7622 12.0017 38.3988V40.7991C12.0017 41.4357 12.2546 42.0462 12.7047 42.4964C13.1549 42.9465 13.7654 43.1994 14.402 43.1994C15.0386 43.1994 15.6492 42.9465 16.0993 42.4964C16.5495 42.0462 16.8024 41.4357 16.8024 40.7991V38.3988C16.8024 37.7622 16.5495 37.1517 16.0993 36.7015C15.6492 36.2514 15.0386 35.9985 14.402 35.9985Z" fill="black"/>
</g>
<defs>
<clipPath id="clip0_42_89">
<rect width="48" height="48" fill="white" transform="matrix(-1 0 0 1 48 0)"/>
</clipPath>
</defs>
</svg>
