<svg width="48" height="48" viewBox="0 0 48 48" fill="none" xmlns="http://www.w3.org/2000/svg">
<g clip-path="url(#clip0_42_76)">
<path d="M29.2686 40.4686C29.5687 40.1686 29.9757 40 30.4 40C30.8243 40 31.2313 40.1686 31.5314 40.4686C31.8314 40.7687 32 41.1757 32 41.6V44.8C32 45.2243 31.8314 45.6313 31.5314 45.9314C31.2313 46.2314 30.8243 46.4 30.4 46.4C29.9757 46.4 29.5687 46.2314 29.2686 45.9314C28.9686 45.6313 28.8 45.2243 28.8 44.8V41.6C28.8 41.1757 28.9686 40.7687 29.2686 40.4686Z" fill="black"/>
<path d="M22.8686 40.4686C23.1687 40.1686 23.5757 40 24 40C24.4243 40 24.8313 40.1686 25.1314 40.4686C25.4314 40.7687 25.6 41.1757 25.6 41.6V46.4C25.6 46.8243 25.4314 47.2313 25.1314 47.5314C24.8313 47.8314 24.4243 48 24 48C23.5757 48 23.1687 47.8314 22.8686 47.5314C22.5686 47.2313 22.4 46.8243 22.4 46.4V41.6C22.4 41.1757 22.5686 40.7687 22.8686 40.4686Z" fill="black"/>
<path d="M16.4686 40.4686C16.7687 40.1686 17.1757 40 17.6 40C18.0243 40 18.4313 40.1686 18.7314 40.4686C19.0314 40.7687 19.2 41.1757 19.2 41.6V43.2C19.2 43.6243 19.0314 44.0313 18.7314 44.3314C18.4313 44.6314 18.0243 44.8 17.6 44.8C17.1757 44.8 16.7687 44.6314 16.4686 44.3314C16.1686 44.0313 16 43.6243 16 43.2V41.6C16 41.1757 16.1686 40.7687 16.4686 40.4686Z" fill="black"/>
<path d="M30.6309 38.9064L32.5061 35.5711H34.5936C35.8901 35.5704 37.1686 35.2697 38.3279 34.6927C39.4872 34.1157 40.4953 33.2784 41.2725 32.2471C42.0496 31.2157 42.5744 30.0187 42.8053 28.7508C43.0361 27.483 42.9667 26.1791 42.6025 24.9425C42.2384 23.7059 41.5894 22.5706 40.7071 21.6265C39.8248 20.6824 38.7334 19.9554 37.5193 19.5033C36.3053 19.0511 35.0019 18.886 33.7126 19.0213C32.4232 19.1565 31.1833 19.5883 30.0909 20.2823C29.5733 18.0909 28.4673 16.08 26.8908 14.4638C25.3142 12.8475 23.3262 11.6863 21.1382 11.1039C18.9503 10.5215 16.6443 10.5397 14.4659 11.1565C12.2875 11.7732 10.3182 12.9656 8.76767 14.6065C7.21711 16.2474 6.14334 18.2754 5.6607 20.4747C5.17805 22.674 5.30459 24.9622 6.02684 27.0957C6.74909 29.2292 8.04002 31.1281 9.76218 32.5903C11.4843 34.0525 13.5733 35.0231 15.8065 35.399L17.0912 38.9064C12.8769 38.3777 7.73896 36.9602 5.0309 33.708C2.32283 30.4557 0.963474 26.3002 1.22945 22.0871C1.49543 17.8741 3.36676 13.92 6.46262 11.0296C9.55848 8.13926 13.6462 6.52975 17.894 6.52866C20.8617 6.52738 23.7761 7.31227 26.3371 8.80248C28.8981 10.2927 31.0131 12.4344 32.4644 15.007C34.1737 14.7145 35.9255 14.7781 37.6088 15.1936C39.2922 15.6091 40.8703 16.3676 42.2432 17.4209C43.6162 18.4743 44.754 19.7995 45.5846 21.3127C46.4152 22.8259 46.9205 24.4941 47.0685 26.2115C47.2165 27.9289 47.0039 29.6581 46.4442 31.2896C45.8845 32.9211 44.9899 34.4193 43.8172 35.6892C42.6444 36.9592 41.219 37.9732 39.6312 38.6671C38.0435 39.3609 33.5944 39.2044 31.8599 39.2049L30.6309 38.9064Z" fill="black"/>
<path d="M19.4129 6.35796C21.2363 3.40405 24.1354 1.27354 27.4991 0.415549C30.8627 -0.442438 34.4281 0.0391429 37.4436 1.75877C40.4591 3.47839 42.6891 6.3017 43.6634 9.6335C44.6378 12.9653 44.2804 16.5453 42.6666 19.6187C44.3193 21.1751 45.4664 23.1919 45.9593 25.4079C46.4523 27.6239 46.2683 29.9368 45.4312 32.047C44.5942 34.1572 43.1426 35.9673 41.2647 37.2429C39.3868 38.5184 37.1691 39.2005 34.8989 39.2007H17.3855C15.1378 39.1967 12.9148 38.7331 10.8529 37.8383C8.79103 36.9434 6.93395 35.6364 5.39582 33.9975C3.85768 32.3585 2.67099 30.4223 1.9087 28.3079C1.1464 26.1934 0.824598 23.9454 0.963077 21.702C1.10156 19.4586 1.69739 17.2673 2.71395 15.2626C3.73051 13.258 5.14631 11.4824 6.87434 10.0451C8.60236 8.60778 10.6061 7.53906 12.7624 6.90462C14.9186 6.27019 17.1819 6.08552 19.4129 6.35796ZM23.68 7.47882C25.7381 8.33188 27.6025 9.59198 29.1614 11.1835C30.7204 12.775 31.9416 14.6651 32.752 16.7403C34.911 16.327 37.1434 16.5467 39.1804 17.3729C40.1355 15.3346 40.3166 13.0185 39.6898 10.8567C39.0629 8.69478 37.6711 6.83474 35.7738 5.62354C33.8765 4.41233 31.6034 3.93268 29.3786 4.27405C27.1537 4.61543 25.1269 5.75451 23.68 7.47882ZM34.8989 35.0799C36.0878 35.0798 37.2583 34.7857 38.306 34.2238C39.3538 33.6619 40.2464 32.8496 40.9044 31.8593C41.5623 30.8691 41.9652 29.7315 42.0772 28.5478C42.1892 27.3642 42.0068 26.1712 41.5463 25.0751C41.0857 23.979 40.3613 23.0138 39.4375 22.2653C38.5137 21.5169 37.4192 21.0085 36.2514 20.7853C35.0836 20.5621 33.8788 20.6312 32.7441 20.9863C31.6094 21.3414 30.5802 21.9715 29.7479 22.8206V22.7175C29.7479 20.2725 29.0229 17.8823 27.6645 15.8494C26.3061 13.8164 24.3753 12.2318 22.1164 11.2962C19.8575 10.3605 17.3718 10.1157 14.9737 10.5927C12.5756 11.0697 10.3729 12.2471 8.64396 13.976C6.91505 15.7049 5.73765 17.9077 5.26064 20.3058C4.78363 22.7038 5.02845 25.1895 5.96413 27.4484C6.89981 29.7074 8.48433 31.6381 10.5173 32.9965C12.5503 34.3549 14.9405 35.0799 17.3855 35.0799H34.8989Z" fill="black"/>
</g>
<defs>
<clipPath id="clip0_42_76">
<rect width="48" height="48" fill="white"/>
</clipPath>
</defs>
</svg>
