<svg width="48" height="48" viewBox="0 0 48 48" fill="none" xmlns="http://www.w3.org/2000/svg">
<path d="M30.7989 38.9209L31.2656 35.2223H33.2282C34.4472 35.2216 35.6493 34.9382 36.7392 34.3943C37.8292 33.8505 38.777 33.0612 39.5077 32.0891C40.2384 31.117 40.7318 29.9887 40.9488 28.7936C41.1659 27.5985 41.1006 26.3695 40.7582 25.2039C40.4158 24.0383 39.8057 22.9682 38.9762 22.0783C38.1466 21.1884 37.1205 20.5032 35.979 20.077C34.8376 19.6508 33.6122 19.4952 32.4 19.6227C31.1877 19.7501 30.0219 20.1571 28.9949 20.8113C28.5082 18.7458 27.4684 16.8503 25.9861 15.3268C24.5039 13.8034 22.6347 12.7089 20.5776 12.1599C18.5205 11.611 16.3525 11.6281 14.3044 12.2095C12.2563 12.7908 10.4048 13.9147 8.94694 15.4614C7.48912 17.008 6.47957 18.9197 6.02579 20.9927C5.57201 23.0657 5.69098 25.2225 6.37004 27.2335C7.04909 29.2445 8.26281 31.0344 9.88197 32.4126C11.5011 33.7908 13.4651 34.7058 15.5648 35.06L16.5979 38.9209C12.6356 38.4226 7.97976 36.5316 5.43366 33.4661C2.88756 30.4006 1.6095 26.4837 1.85957 22.5125C2.10964 18.5414 3.86905 14.8143 6.77975 12.0899C9.69045 9.36548 13.5337 7.84838 17.5274 7.84735C20.3177 7.84615 23.0578 8.58597 25.4656 9.99062C27.8735 11.3953 29.862 13.414 31.2264 15.8389C32.8335 15.5632 34.4805 15.6231 36.0632 16.0148C37.6458 16.4065 39.1296 17.1214 40.4204 18.1142C41.7112 19.1071 42.781 20.3563 43.5619 21.7826C44.3429 23.2089 44.818 24.7812 44.9571 26.4C45.0962 28.0188 44.8963 29.6488 44.3701 31.1866C43.8439 32.7244 43.0028 34.1366 41.9002 35.3336C40.7976 36.5306 39.4574 37.4865 37.9646 38.1405C36.4718 38.7945 35.2699 38.9204 33.6391 38.9209H30.7989Z" fill="black"/>
<path d="M16.8744 7.86318C18.1626 5.16702 20.3112 2.96479 22.9891 1.59584C25.667 0.226896 28.7255 -0.232803 31.6935 0.287583C31.1876 1.8215 31.1208 3.46405 31.5005 5.03323C31.8802 6.60241 32.6916 8.03695 33.8447 9.17788C34.9979 10.3188 36.4478 11.1216 38.0338 11.4973C39.6199 11.8729 41.28 11.8068 42.8304 11.3063C43.3708 14.3605 42.8455 17.5058 41.3406 20.2257C42.9863 21.6601 44.1514 23.5563 44.6808 25.662C45.2102 27.7678 45.0788 29.9831 44.304 32.0131C43.5293 34.0431 42.148 35.7915 40.3441 37.0255C38.5401 38.2596 36.3991 38.9207 34.2059 38.921H17.5221C13.4153 38.9187 9.47276 37.3245 6.53978 34.4803C3.6068 31.6361 1.9168 27.7682 1.83208 23.7058C1.74736 19.6434 3.27465 15.7098 6.08655 12.7483C8.89845 9.78679 12.7711 8.03311 16.8744 7.86318ZM21.1474 8.26517C23.621 8.84834 25.9149 10.016 27.8326 11.6682C29.7503 13.3203 31.2347 15.4077 32.1587 17.7517C34.103 17.3834 36.112 17.5479 37.9686 18.2274C38.418 17.3919 38.7407 16.4954 38.9264 15.5669C35.9582 15.2963 33.1794 14.0062 31.072 11.9205C28.9647 9.83475 27.6617 7.08499 27.3891 4.1482C24.8399 4.64921 22.5953 6.12968 21.1474 8.26517ZM34.2059 35.0371C35.3385 35.0369 36.4535 34.7597 37.4516 34.2301C38.4498 33.7005 39.3001 32.9349 39.9268 32.0016C40.5536 31.0682 40.9375 29.996 41.0441 28.8804C41.1508 27.7648 40.9771 26.6404 40.5383 25.6073C40.0996 24.5742 39.4095 23.6645 38.5295 22.9591C37.6494 22.2536 36.6068 21.7744 35.4943 21.5641C34.3818 21.3538 33.2341 21.4189 32.1531 21.7535C31.0722 22.0882 30.0917 22.6821 29.2989 23.4824V23.3853C29.2989 21.0808 28.6082 18.828 27.3142 16.9119C26.0201 14.9958 24.1808 13.5023 22.0289 12.6205C19.877 11.7386 17.5091 11.5078 15.2246 11.9574C12.9401 12.407 10.8417 13.5167 9.19471 15.1462C7.5477 16.7758 6.42607 18.8519 5.97166 21.1121C5.51725 23.3724 5.75047 25.7151 6.64183 27.8442C7.53319 29.9733 9.04264 31.7931 10.9793 33.0734C12.916 34.3537 15.1929 35.0371 17.5221 35.0371H34.2059Z" fill="black"/>
<path d="M29.2686 40.4686C29.5687 40.1686 29.9757 40 30.4 40C30.8243 40 31.2313 40.1686 31.5314 40.4686C31.8314 40.7687 32 41.1757 32 41.6V44.8C32 45.2243 31.8314 45.6313 31.5314 45.9314C31.2313 46.2314 30.8243 46.4 30.4 46.4C29.9757 46.4 29.5687 46.2314 29.2686 45.9314C28.9686 45.6313 28.8 45.2243 28.8 44.8V41.6C28.8 41.1757 28.9686 40.7687 29.2686 40.4686Z" fill="black"/>
<path d="M22.8686 40.4686C23.1687 40.1686 23.5757 40 24 40C24.4243 40 24.8313 40.1686 25.1314 40.4686C25.4314 40.7687 25.6 41.1757 25.6 41.6V46.4C25.6 46.8243 25.4314 47.2313 25.1314 47.5314C24.8313 47.8314 24.4243 48 24 48C23.5757 48 23.1687 47.8314 22.8686 47.5314C22.5686 47.2313 22.4 46.8243 22.4 46.4V41.6C22.4 41.1757 22.5686 40.7687 22.8686 40.4686Z" fill="black"/>
<path d="M16.4686 40.4686C16.7687 40.1686 17.1757 40 17.6 40C18.0243 40 18.4313 40.1686 18.7314 40.4686C19.0314 40.7687 19.2 41.1757 19.2 41.6V43.2C19.2 43.6243 19.0314 44.0313 18.7314 44.3314C18.4313 44.6314 18.0243 44.8 17.6 44.8C17.1757 44.8 16.7687 44.6314 16.4686 44.3314C16.1686 44.0313 16 43.6243 16 43.2V41.6C16 41.1757 16.1686 40.7687 16.4686 40.4686Z" fill="black"/>
</svg>
