<svg width="48" height="48" viewBox="0 0 48 48" fill="none" xmlns="http://www.w3.org/2000/svg">
<path d="M26 32.536L29.9279 30.268L31.9279 33.732L28 36L31.9279 38.268L29.9279 41.732L26 39.464V44H22V39.464L18.072 41.732L16.072 38.268L20 36L16.072 33.732L18.072 30.268L22 32.536V28H26V32.536ZM34 36V32H35C36.154 31.9998 37.2902 31.7143 38.3072 31.1689C39.3243 30.6235 40.1907 29.8351 40.8294 28.8738C41.468 27.9126 41.8591 26.8083 41.9678 25.6594C42.0765 24.5104 41.8995 23.3524 41.4524 22.2885C41.0054 21.2245 40.3022 20.2875 39.4055 19.561C38.5088 18.8345 37.4464 18.341 36.3128 18.1244C35.1792 17.9078 34.0097 17.9748 32.9083 18.3195C31.8069 18.6642 30.8078 19.2758 30 20.1V20C29.9992 17.8002 29.3937 15.6429 28.2498 13.764C27.1058 11.885 25.4674 10.3567 23.5135 9.34593C21.5596 8.3352 19.3656 7.881 17.171 8.03296C14.9765 8.18492 12.8659 8.9372 11.07 10.2076C9.27409 11.478 7.86194 13.2175 6.98788 15.2362C6.11382 17.2549 5.81147 19.4751 6.11389 21.654C6.4163 23.8329 7.31184 25.8868 8.70264 27.5911C10.0934 29.2955 11.926 30.5847 14 31.318V35.496C11.3474 34.8096 8.9155 33.4535 6.93735 31.5577C4.9592 29.6618 3.50104 27.2898 2.7026 24.6687C1.90416 22.0477 1.79218 19.2655 2.37739 16.5888C2.96261 13.9121 4.22541 11.4305 6.0448 9.38182C7.86419 7.33313 10.1792 5.78598 12.768 4.88863C15.3569 3.99127 18.1328 3.77377 20.8298 4.25696C23.5268 4.74015 26.0545 5.90784 28.1708 7.64816C30.2871 9.38847 31.921 11.6431 32.916 14.196C34.42 13.9082 35.9676 13.9377 37.4597 14.2824C38.9518 14.6272 40.3554 15.2797 41.5807 16.1982C42.8061 17.1167 43.8262 18.2809 44.5757 19.6164C45.3251 20.9518 45.7875 22.429 45.9332 23.9534C46.0789 25.4778 45.9047 27.0159 45.4218 28.4691C44.9388 29.9223 44.1578 31.2587 43.1286 32.3927C42.0994 33.5267 40.8448 34.4333 39.4451 35.0544C38.0453 35.6756 36.5313 35.9977 35 36H34Z" fill="black"/>
</svg>
