<svg width="48" height="48" viewBox="0 0 48 48" fill="none" xmlns="http://www.w3.org/2000/svg">
<path d="M8.76471 8H16.2941V11.7647H8.76471V8ZM31.3529 36.2353H38.8824V40H31.3529V36.2353ZM5 17.4118H14.4118V21.1765H5V17.4118ZM18.1765 17.4118H23.8235V21.1765H18.1765V17.4118ZM27.5882 17.4118H38.8824V21.1765H27.5882V17.4118ZM8.76471 26.8235H20.0588V30.5882H8.76471V26.8235ZM23.8235 26.8235H29.4706V30.5882H23.8235V26.8235ZM33.2353 26.8235H42.6471V30.5882H33.2353V26.8235ZM20.0588 8H42.6471V11.7647H20.0588V8ZM5 36.2353H27.5882V40H5V36.2353Z" fill="black"/>
</svg>
