<svg width="48" height="48" viewBox="0 0 48 48" fill="none" xmlns="http://www.w3.org/2000/svg">
<g clip-path="url(#clip0_1_43)">
<path d="M23.925 47.9393C14.8635 47.9393 7.491 40.668 7.491 31.731C7.491 21.2925 22.0987 1.50375 22.7212 0.666003C22.8598 0.479483 23.0397 0.327709 23.247 0.222663C23.4542 0.117616 23.683 0.0621721 23.9153 0.0607062C24.4395 0.0562062 24.8325 0.276003 25.1182 0.649456C25.7467 1.4715 40.509 20.9101 40.509 31.7303C40.509 40.6681 33.069 47.9393 23.925 47.9393ZM23.9415 4.11075C20.454 9.06375 10.491 23.895 10.491 31.7303C10.491 39.0136 16.5173 44.9386 23.925 44.9386C31.4145 44.9386 37.5083 39.0136 37.5083 31.7303C37.509 23.6041 27.4702 8.9948 23.9415 4.11075Z" fill="#051923"/>
<path d="M24 34C19 26.5 13.8333 26.3333 11.5 26L10 27L9.5 34.5L15 43.5L25.5 46L31 45L37.5 37V34C36 36.5 29 41.5 24 34Z" fill="#051923"/>
</g>
<defs>
<clipPath id="clip0_1_43">
<rect width="48" height="48" fill="white"/>
</clipPath>
</defs>
</svg>
