<svg width="36" height="36" viewBox="0 0 36 36" fill="none" xmlns="http://www.w3.org/2000/svg">
<g clip-path="url(#clip0_2_7)">
<path d="M7.67849 35.646C7.56593 35.5342 7.47659 35.4012 7.41563 35.2547C7.35467 35.1082 7.32328 34.9512 7.32328 34.7925C7.32328 34.6338 7.35467 34.4767 7.41563 34.3303C7.47659 34.1838 7.56593 34.0508 7.67849 33.939L13.9275 27.6915C14.0936 27.5161 14.3087 27.3947 14.5448 27.3431C14.7808 27.2915 15.027 27.312 15.2512 27.4021C15.4754 27.4922 15.6673 27.6477 15.802 27.8483C15.9367 28.0489 16.0079 28.2854 16.0065 28.527C16.0067 28.6899 15.9739 28.8511 15.9099 29.0009C15.846 29.1507 15.7523 29.286 15.6345 29.3985L9.38699 35.6475C9.27518 35.7601 9.14221 35.8494 8.99572 35.9104C8.84924 35.9713 8.69215 36.0027 8.53349 36.0027C8.37483 36.0027 8.21774 35.9713 8.07126 35.9104C7.92478 35.8494 7.7918 35.7601 7.67999 35.6475L7.67849 35.646ZM20.391 29.736C20.2784 29.6242 20.1891 29.4912 20.1281 29.3447C20.0672 29.1982 20.0358 29.0412 20.0358 28.8825C20.0358 28.7238 20.0672 28.5667 20.1281 28.4203C20.1891 28.2738 20.2784 28.1408 20.391 28.029L24.9795 23.445H12.2295L5.93249 29.7375C5.82041 29.8496 5.68735 29.9385 5.5409 29.9991C5.39446 30.0598 5.2375 30.091 5.07899 30.091C4.92048 30.091 4.76352 30.0598 4.61708 29.9991C4.47064 29.9385 4.33757 29.8496 4.22549 29.7375C4.11341 29.6254 4.0245 29.4923 3.96384 29.3459C3.90318 29.1995 3.87196 29.0425 3.87196 28.884C3.87196 28.7255 3.90318 28.5685 3.96384 28.4221C4.0245 28.2756 4.11341 28.1426 4.22549 28.0305L8.81549 23.4405H8.61299C6.30322 23.4405 4.08805 22.5229 2.4548 20.8897C0.821544 19.2564 -0.0960083 17.0413 -0.0960083 14.7315C-0.0960083 12.4217 0.821544 10.2066 2.4548 8.5733C4.08805 6.94005 6.30322 6.0225 8.61299 6.0225H8.71349H8.70899C8.84399 6.0225 8.97899 6.033 9.11249 6.039C11.1585 2.409 14.988 -0.00150299 19.3815 -0.00150299C22.497 -0.00150302 25.4849 1.23602 27.688 3.43888C29.8912 5.64173 31.1291 8.62949 31.1295 11.745V11.7675C32.4156 12.0844 33.5586 12.8227 34.3763 13.8647C35.194 14.9067 35.6394 16.1924 35.6415 17.517C35.6415 18.2943 35.4884 19.064 35.1909 19.7821C34.8935 20.5002 34.4575 21.1527 33.9079 21.7024C33.3582 22.252 32.7057 22.688 31.9876 22.9854C31.2695 23.2829 30.4998 23.436 29.7225 23.436H28.3965L22.0995 29.733C21.9877 29.8456 21.8547 29.9349 21.7082 29.9959C21.5617 30.0568 21.4047 30.0882 21.246 30.0882C21.0873 30.0882 20.9302 30.0568 20.7838 29.9959C20.6373 29.9349 20.5043 29.8456 20.3925 29.733L20.391 29.736ZM2.41349 14.73C2.41508 16.3989 3.07866 17.9991 4.25862 19.1793C5.43859 20.3596 7.03857 21.0235 8.70749 21.0255H29.7135C30.644 21.0253 31.5363 20.6555 32.1942 19.9974C32.852 19.3392 33.2214 18.4468 33.2212 17.5162C33.221 16.5857 32.8512 15.6934 32.1931 15.0356C31.535 14.3778 30.6425 14.0083 29.712 14.0085C28.8465 14.0085 28.056 14.322 27.444 14.8395L27.4485 14.835C27.2035 15.0355 26.8897 15.1319 26.5744 15.1036C26.2591 15.0752 25.9675 14.9243 25.7623 14.6833C25.557 14.4423 25.4545 14.1305 25.4767 13.8147C25.4989 13.4989 25.644 13.2044 25.881 12.9945L25.8825 12.993C26.6766 12.3194 27.6352 11.8686 28.6605 11.6865L28.6965 11.6805C28.6787 9.69401 28.0273 7.76506 26.8372 6.17446C25.647 4.58387 23.9802 3.41468 22.0795 2.83711C20.1787 2.25953 18.1432 2.30373 16.2693 2.96327C14.3954 3.6228 12.781 4.86324 11.661 6.504L11.64 6.5355C12.5524 6.86038 13.4041 7.33542 14.16 7.941L14.1435 7.9275C14.3933 8.128 14.5533 8.41954 14.5882 8.73798C14.623 9.05641 14.53 9.37566 14.3295 9.6255C14.129 9.87533 13.8375 10.0353 13.519 10.0702C13.2006 10.105 12.8813 10.012 12.6315 9.8115L12.633 9.813C11.5271 8.91797 10.1467 8.43116 8.72399 8.4345H8.70749H8.70899C7.03917 8.43489 5.4378 9.0982 4.25678 10.2787C3.07575 11.4591 2.41168 13.0602 2.41049 14.73H2.41349Z" fill="#051923"/>
</g>
<defs>
<clipPath id="clip0_2_7">
<rect width="36" height="36" fill="white"/>
</clipPath>
</defs>
</svg>
