<svg width="44" height="38" viewBox="0 0 44 38" fill="none" xmlns="http://www.w3.org/2000/svg">
<path d="M16.0908 14.7014C16.4532 14.6213 16.7414 14.3471 16.8395 13.9892C17.4123 11.8977 18.5379 10.2262 20.2298 8.94141L20.2304 8.94092C21.9357 7.64379 23.8479 7 26 7C28.6693 7 30.8926 7.91776 32.7311 9.76538L32.7346 9.76884C34.5822 11.6074 35.5 13.8307 35.5 16.5C35.5 17.0079 35.8807 17.4351 36.3852 17.4934C37.8703 17.6651 39.071 18.2967 40.0353 19.406L40.0352 19.4061L40.0432 19.4151C41.0195 20.5112 41.5 21.7743 41.5 23.25C41.5 24.8692 40.9473 26.2085 39.8279 27.3279C38.7085 28.4473 37.3692 29 35.75 29H17.75C15.7274 29 14.0346 28.3145 12.6145 26.9303C11.1981 25.5399 10.5 23.873 10.5 21.87C10.5 20.1373 11.0141 18.6119 12.0481 17.2591C13.0836 15.9171 14.4187 15.0711 16.0908 14.7014Z" stroke="#051923" stroke-width="2" stroke-linejoin="round"/>
<path d="M9.75 32C7.47 32 5.525 31.215 3.915 29.645C2.305 28.065 1.5 26.14 1.5 23.87C1.5 21.92 2.085 20.18 3.255 18.65C4.435 17.12 5.975 16.145 7.875 15.725C8.505 13.425 9.755 11.565 11.625 10.145C13.505 8.715 15.63 8 18 8C20.93 8 23.41 9.02 25.44 11.06C27.48 13.09 28.5 15.57 28.5 18.5C30.23 18.7 31.66 19.45 32.79 20.75C33.93 22.03 34.5 23.53 34.5 25.25C34.5 27.13 33.845 28.725 32.535 30.035C31.225 31.345 29.63 32 27.75 32H9.75Z" fill="#051923"/>
</svg>
