<svg width="36" height="36" viewBox="0 0 36 36" fill="none" xmlns="http://www.w3.org/2000/svg">
<path d="M18 3.375C14.3696 3.375 11.2016 5.91525 10.3534 9.387C9.65916 9.65748 9.0251 10.0622 8.48748 10.578C7.94986 11.0938 7.51924 11.7106 7.22025 12.393C3.28725 12.1027 0 15.2494 0 19.125C0 22.8476 3.02737 25.875 6.75 25.875V23.625C4.26713 23.625 2.25 21.6079 2.25 19.125C2.25 16.6421 4.26713 14.625 6.75 14.625C7.06163 14.625 7.38675 14.6644 7.74337 14.7431L8.84138 14.994L9.08888 13.8915C9.22787 13.2772 9.53613 12.714 9.97872 12.2658C10.4213 11.8177 10.9806 11.5024 11.5931 11.3557L12.3356 11.1802L12.4459 10.4242C12.8453 7.686 15.2359 5.625 18 5.625C19.0413 5.62311 20.0625 5.91163 20.9488 6.45814C21.8352 7.00466 22.5516 7.78751 23.0175 8.71875L23.4619 9.59737L24.3945 9.27225C24.921 9.09225 25.4048 9 25.875 9C28.3579 9 30.375 11.0171 30.375 13.5C30.375 13.545 30.366 13.5832 30.357 13.6237C30.3491 13.7025 30.3401 13.7812 30.3345 13.8555L30.2648 14.6655L31.0117 14.985C31.8247 15.3293 32.5181 15.9057 33.0052 16.6421C33.4922 17.3785 33.7513 18.2421 33.75 19.125C33.75 21.6079 31.7329 23.625 29.25 23.625H26.3891C26.9794 24.2796 27.4347 25.0442 27.729 25.875H29.25C32.9726 25.875 36 22.851 36 19.125C35.9998 17.939 35.6874 16.774 35.0942 15.7471C34.501 14.7202 33.6478 13.8676 32.6205 13.275C32.5599 11.5256 31.823 9.86794 30.5648 8.65092C29.3067 7.4339 27.6254 6.75245 25.875 6.75C25.4363 6.75 25.0009 6.79837 24.5565 6.89062C23.84 5.80771 22.8659 4.91961 21.7216 4.30601C20.5772 3.69241 19.2985 3.3725 18 3.375ZM17.4375 13.5C16.1584 13.5 15.0075 14.1187 14.2909 15.0727L16.0886 16.4227C16.2453 16.213 16.4489 16.0429 16.6831 15.9261C16.9174 15.8093 17.1757 15.7489 17.4375 15.75C18.3825 15.75 19.125 16.4925 19.125 17.4375C19.125 18.3825 18.3825 19.125 17.4375 19.125H10.125V21.375H17.4375C19.5998 21.375 21.375 19.5998 21.375 17.4375C21.375 15.2752 19.5998 13.5 17.4375 13.5ZM9 23.625V25.875H12.375C13.0118 25.875 13.5 26.3633 13.5 27C13.5 27.6367 13.0118 28.125 12.375 28.125C12.1777 28.1263 11.9837 28.0748 11.813 27.9759C11.6423 27.877 11.5012 27.7343 11.4041 27.5625L9.45787 28.701C9.75727 29.209 10.1836 29.6304 10.695 29.9239C11.2064 30.2173 11.7854 30.3728 12.375 30.375C14.2256 30.375 15.75 28.8506 15.75 27C15.7452 26.6156 15.6736 26.2349 15.5385 25.875H21.375C22.6316 25.875 23.625 26.8684 23.625 28.125C23.625 29.3816 22.6316 30.375 21.375 30.375C20.9091 30.3751 20.4546 30.2306 20.0744 29.9613C19.6941 29.6921 19.4068 29.3115 19.2521 28.872L17.1304 29.619C17.4402 30.4974 18.0148 31.2582 18.775 31.7965C19.5352 32.3349 20.4435 32.6243 21.375 32.625C23.85 32.625 25.875 30.6 25.875 28.125C25.875 25.65 23.85 23.625 21.375 23.625H9Z" fill="#051923"/>
</svg>
