<svg width="48" height="48" viewBox="0 0 48 48" fill="none" xmlns="http://www.w3.org/2000/svg">
<path d="M34.5 34.5C34.5 36.0913 33.8679 37.6174 32.7426 38.7426C31.6174 39.8679 30.0913 40.5 28.5 40.5C25.9312 40.5 23.4469 38.8256 22.5938 36.5212C22.4639 36.1503 22.4849 35.7431 22.6522 35.3874C22.8195 35.0318 23.1197 34.756 23.4882 34.6194C23.8568 34.4827 24.2642 34.4962 24.6229 34.657C24.9816 34.8177 25.2629 35.1128 25.4062 35.4788C25.8263 36.6131 27.1875 37.5 28.5 37.5C29.2956 37.5 30.0587 37.1839 30.6213 36.6213C31.1839 36.0587 31.5 35.2956 31.5 34.5C31.5 33.7044 31.1839 32.9413 30.6213 32.3787C30.0587 31.8161 29.2956 31.5 28.5 31.5H7.5C7.10218 31.5 6.72064 31.342 6.43934 31.0607C6.15804 30.7794 6 30.3978 6 30C6 29.6022 6.15804 29.2206 6.43934 28.9393C6.72064 28.658 7.10218 28.5 7.5 28.5H28.5C30.0913 28.5 31.6174 29.1321 32.7426 30.2574C33.8679 31.3826 34.5 32.9087 34.5 34.5ZM22.5 19.5C24.0913 19.5 25.6174 18.8679 26.7426 17.7426C27.8679 16.6174 28.5 15.0913 28.5 13.5C28.5 11.9087 27.8679 10.3826 26.7426 9.25736C25.6174 8.13214 24.0913 7.5 22.5 7.5C19.9312 7.5 17.4469 9.17438 16.5938 11.4788C16.4639 11.8497 16.4849 12.2569 16.6522 12.6126C16.8195 12.9682 17.1197 13.244 17.4882 13.3806C17.8568 13.5173 18.2642 13.5037 18.6229 13.343C18.9816 13.1823 19.2629 12.8872 19.4062 12.5212C19.8263 11.3869 21.1875 10.5 22.5 10.5C23.2956 10.5 24.0587 10.8161 24.6213 11.3787C25.1839 11.9413 25.5 12.7044 25.5 13.5C25.5 14.2956 25.1839 15.0587 24.6213 15.6213C24.0587 16.1839 23.2956 16.5 22.5 16.5H4.5C4.10218 16.5 3.72064 16.658 3.43934 16.9393C3.15804 17.2206 3 17.6022 3 18C3 18.3978 3.15804 18.7794 3.43934 19.0607C3.72064 19.342 4.10218 19.5 4.5 19.5H22.5ZM39 13.5C36.4313 13.5 33.9469 15.1744 33.0938 17.4788C32.9639 17.8497 32.9849 18.2569 33.1522 18.6126C33.3195 18.9682 33.6197 19.244 33.9882 19.3806C34.3568 19.5173 34.7642 19.5037 35.1229 19.343C35.4816 19.1823 35.7629 18.8872 35.9062 18.5212C36.3262 17.3869 37.6875 16.5 39 16.5C39.7957 16.5 40.5587 16.8161 41.1213 17.3787C41.6839 17.9413 42 18.7044 42 19.5C42 20.2956 41.6839 21.0587 41.1213 21.6213C40.5587 22.1839 39.7957 22.5 39 22.5H6C5.60218 22.5 5.22064 22.658 4.93934 22.9393C4.65804 23.2206 4.5 23.6022 4.5 24C4.5 24.3978 4.65804 24.7794 4.93934 25.0607C5.22064 25.342 5.60218 25.5 6 25.5H39C40.5913 25.5 42.1174 24.8679 43.2426 23.7426C44.3679 22.6174 45 21.0913 45 19.5C45 17.9087 44.3679 16.3826 43.2426 15.2574C42.1174 14.1321 40.5913 13.5 39 13.5Z" fill="#051923"/>
</svg>
