<svg width="79" height="153" viewBox="0 0 79 153" fill="none" xmlns="http://www.w3.org/2000/svg">
<path d="M14.7 0L12.8625 2.74352C12.8625 2.74352 9.7265 7.47937 6.566 13.6196C3.4055 19.7599 0 27.1086 0 34.1634C0 39.3607 1.54875 44.3452 4.30553 48.0203C7.06232 51.6954 10.8013 53.76 14.7 53.76C18.5987 53.76 22.3377 51.6954 25.0945 48.0203C27.8513 44.3452 29.4 39.3607 29.4 34.1634C29.4 27.1086 25.9945 19.7599 22.834 13.6196C20.8846 9.84478 18.7827 6.21404 16.5375 2.74352L14.7 0Z" fill="#0250B6"/>
<path d="M63.42 53.76L61.5825 56.4607C61.5825 56.4607 58.4465 61.1225 55.286 67.1668C52.1255 73.2112 48.72 80.4451 48.72 87.3896C48.72 92.5057 50.2687 97.4123 53.0255 101.03C55.7823 104.648 59.5213 106.68 63.42 106.68C67.3187 106.68 71.0577 104.648 73.8145 101.03C76.5713 97.4123 78.12 92.5057 78.12 87.3896C78.12 80.4451 74.7145 73.2112 71.554 67.1668C69.6046 63.451 67.5027 59.877 65.2575 56.4607L63.42 53.76Z" fill="#0250B6"/>
<path d="M17.7 99L15.8625 101.744C15.8625 101.744 12.7265 106.479 9.566 112.62C6.4055 118.76 3 126.109 3 133.163C3 138.361 4.54875 143.345 7.30553 147.02C10.0623 150.695 13.8013 152.76 17.7 152.76C21.5987 152.76 25.3377 150.695 28.0945 147.02C30.8513 143.345 32.4 138.361 32.4 133.163C32.4 126.109 28.9945 118.76 25.834 112.62C23.8846 108.845 21.7827 105.214 19.5375 101.744L17.7 99Z" fill="#0250B6"/>
</svg>
