<svg width="50" height="50" viewBox="0 0 50 50" fill="none" xmlns="http://www.w3.org/2000/svg">
<g clip-path="url(#clip0_2_44)">
<path d="M25 10.9375V37.5M30.0508 29.5185C29.9396 29.4482 29.848 29.3508 29.7845 29.2356C29.721 29.1204 29.6876 28.9909 29.6875 28.8594V7.8125C29.6875 6.5693 29.1936 5.37701 28.3146 4.49794C27.4355 3.61886 26.2432 3.125 25 3.125C23.7568 3.125 22.5645 3.61886 21.6854 4.49794C20.8064 5.37701 20.3125 6.5693 20.3125 7.8125V28.8594C20.3123 28.9907 20.279 29.1198 20.2157 29.2349C20.1523 29.3499 20.061 29.4472 19.9502 29.5176C18.5617 30.422 17.4333 31.6731 16.6765 33.1472C15.9196 34.6214 15.5606 36.2675 15.6348 37.9228C15.7465 40.3692 16.8111 42.6748 18.6008 44.3464C20.3904 46.018 22.7632 46.9229 25.2115 46.8677C27.6598 46.8124 29.9893 45.8014 31.7018 44.0508C33.4142 42.3001 34.3737 39.9489 34.375 37.5C34.3757 35.9148 33.9805 34.3545 33.2254 32.9607C32.4703 31.5669 31.379 30.3838 30.0508 29.5185Z" stroke="#051923" stroke-width="2.5" stroke-miterlimit="10" stroke-linecap="round"/>
<path d="M25 41.6667C27.3012 41.6667 29.1667 39.8012 29.1667 37.5C29.1667 35.1988 27.3012 33.3333 25 33.3333C22.6988 33.3333 20.8333 35.1988 20.8333 37.5C20.8333 39.8012 22.6988 41.6667 25 41.6667Z" fill="#051923"/>
<mask id="path-3-outside-1_2_44" maskUnits="userSpaceOnUse" x="31.5" y="-0.5" width="17" height="17" fill="black">
<rect fill="white" x="31.5" y="-0.5" width="17" height="17"/>
<path d="M35.23 11.75L34.6975 12.2825C34.5578 12.423 34.4794 12.6131 34.4794 12.8113C34.4794 13.0094 34.5578 13.1995 34.6975 13.34C34.838 13.4797 35.0281 13.5581 35.2263 13.5581C35.4244 13.5581 35.6145 13.4797 35.755 13.34L36.2875 12.8075C36.4104 12.664 36.4746 12.4795 36.4673 12.2907C36.46 12.102 36.3817 11.9229 36.2482 11.7893C36.1146 11.6558 35.9355 11.5775 35.7468 11.5702C35.558 11.5629 35.3735 11.6271 35.23 11.75ZM34.75 8C34.75 7.80109 34.671 7.61032 34.5303 7.46967C34.3897 7.32902 34.1989 7.25 34 7.25H33.25C33.0511 7.25 32.8603 7.32902 32.7197 7.46967C32.579 7.61032 32.5 7.80109 32.5 8C32.5 8.19891 32.579 8.38968 32.7197 8.53033C32.8603 8.67098 33.0511 8.75 33.25 8.75H34C34.1989 8.75 34.3897 8.67098 34.5303 8.53033C34.671 8.38968 34.75 8.19891 34.75 8ZM40 2.75C40.1989 2.75 40.3897 2.67098 40.5303 2.53033C40.671 2.38968 40.75 2.19891 40.75 2V1.25C40.75 1.05109 40.671 0.860322 40.5303 0.71967C40.3897 0.579018 40.1989 0.5 40 0.5C39.8011 0.5 39.6103 0.579018 39.4697 0.71967C39.329 0.860322 39.25 1.05109 39.25 1.25V2C39.25 2.19891 39.329 2.38968 39.4697 2.53033C39.6103 2.67098 39.8011 2.75 40 2.75ZM35.23 4.2875C35.3697 4.42606 35.5582 4.50417 35.755 4.505C35.8537 4.50557 35.9516 4.48665 36.0429 4.44933C36.1343 4.41201 36.2174 4.35701 36.2875 4.2875C36.4272 4.14698 36.5056 3.95689 36.5056 3.75875C36.5056 3.56061 36.4272 3.37052 36.2875 3.23L35.755 2.6975C35.6115 2.57463 35.427 2.51043 35.2382 2.51772C35.0495 2.52501 34.8704 2.60326 34.7368 2.73683C34.6033 2.8704 34.525 3.04945 34.5177 3.23821C34.5104 3.42697 34.5746 3.61152 34.6975 3.755L35.23 4.2875ZM44.23 4.505C44.4268 4.50417 44.6153 4.42606 44.755 4.2875L45.2875 3.755C45.366 3.68777 45.4298 3.60503 45.4748 3.51198C45.5198 3.41893 45.5451 3.31758 45.5491 3.21429C45.5531 3.111 45.5357 3.008 45.498 2.91176C45.4603 2.81551 45.4031 2.7281 45.33 2.65501C45.2569 2.58192 45.1695 2.52473 45.0732 2.48702C44.977 2.44932 44.874 2.43191 44.7707 2.4359C44.6674 2.43989 44.5661 2.46519 44.473 2.51021C44.38 2.55522 44.2972 2.61899 44.23 2.6975L43.75 3.23C43.6103 3.37052 43.5319 3.56061 43.5319 3.75875C43.5319 3.95689 43.6103 4.14698 43.75 4.2875C43.8822 4.41902 44.0587 4.49656 44.245 4.505H44.23ZM46.75 7.25H46C45.8011 7.25 45.6103 7.32902 45.4697 7.46967C45.329 7.61032 45.25 7.80109 45.25 8C45.25 8.19891 45.329 8.38968 45.4697 8.53033C45.6103 8.67098 45.8011 8.75 46 8.75H46.75C46.9489 8.75 47.1397 8.67098 47.2803 8.53033C47.421 8.38968 47.5 8.19891 47.5 8C47.5 7.80109 47.421 7.61032 47.2803 7.46967C47.1397 7.32902 46.9489 7.25 46.75 7.25ZM40 13.25C39.8011 13.25 39.6103 13.329 39.4697 13.4697C39.329 13.6103 39.25 13.8011 39.25 14V14.75C39.25 14.9489 39.329 15.1397 39.4697 15.2803C39.6103 15.421 39.8011 15.5 40 15.5C40.1989 15.5 40.3897 15.421 40.5303 15.2803C40.671 15.1397 40.75 14.9489 40.75 14.75V14C40.75 13.8011 40.671 13.6103 40.5303 13.4697C40.3897 13.329 40.1989 13.25 40 13.25ZM44.77 11.75C44.6275 11.6707 44.4631 11.6401 44.3016 11.6627C44.1401 11.6852 43.9904 11.7598 43.8751 11.8751C43.7598 11.9904 43.6852 12.1401 43.6627 12.3016C43.6401 12.4631 43.6707 12.6275 43.75 12.77L44.2825 13.3025C44.423 13.4422 44.6131 13.5206 44.8113 13.5206C45.0094 13.5206 45.1995 13.4422 45.34 13.3025C45.4797 13.162 45.5581 12.9719 45.5581 12.7738C45.5581 12.5756 45.4797 12.3855 45.34 12.245L44.77 11.75ZM40 3.875C39.1842 3.875 38.3866 4.11693 37.7083 4.57019C37.0299 5.02345 36.5012 5.66769 36.189 6.42143C35.8768 7.17518 35.7951 8.00458 35.9543 8.80475C36.1134 9.60492 36.5063 10.3399 37.0832 10.9168C37.6601 11.4937 38.3951 11.8866 39.1953 12.0457C39.9954 12.2049 40.8248 12.1232 41.5786 11.811C42.3323 11.4988 42.9766 10.9701 43.4298 10.2917C43.8831 9.61338 44.125 8.81585 44.125 8C44.123 6.90659 43.6878 5.85853 42.9146 5.08537C42.1415 4.31222 41.0934 3.87698 40 3.875ZM40 10.625C39.4808 10.625 38.9733 10.471 38.5416 10.1826C38.1099 9.89417 37.7735 9.4842 37.5748 9.00454C37.3761 8.52489 37.3242 7.99709 37.4254 7.48789C37.5267 6.97869 37.7767 6.51096 38.1438 6.14385C38.511 5.77673 38.9787 5.52672 39.4879 5.42544C39.9971 5.32415 40.5249 5.37614 41.0045 5.57482C41.4842 5.7735 41.8942 6.10995 42.1826 6.54163C42.471 6.97331 42.625 7.48082 42.625 8C42.625 8.69619 42.3484 9.36387 41.8562 9.85616C41.3639 10.3484 40.6962 10.625 40 10.625Z"/>
</mask>
<path d="M35.23 11.75L34.6975 12.2825C34.5578 12.423 34.4794 12.6131 34.4794 12.8113C34.4794 13.0094 34.5578 13.1995 34.6975 13.34C34.838 13.4797 35.0281 13.5581 35.2263 13.5581C35.4244 13.5581 35.6145 13.4797 35.755 13.34L36.2875 12.8075C36.4104 12.664 36.4746 12.4795 36.4673 12.2907C36.46 12.102 36.3817 11.9229 36.2482 11.7893C36.1146 11.6558 35.9355 11.5775 35.7468 11.5702C35.558 11.5629 35.3735 11.6271 35.23 11.75ZM34.75 8C34.75 7.80109 34.671 7.61032 34.5303 7.46967C34.3897 7.32902 34.1989 7.25 34 7.25H33.25C33.0511 7.25 32.8603 7.32902 32.7197 7.46967C32.579 7.61032 32.5 7.80109 32.5 8C32.5 8.19891 32.579 8.38968 32.7197 8.53033C32.8603 8.67098 33.0511 8.75 33.25 8.75H34C34.1989 8.75 34.3897 8.67098 34.5303 8.53033C34.671 8.38968 34.75 8.19891 34.75 8ZM40 2.75C40.1989 2.75 40.3897 2.67098 40.5303 2.53033C40.671 2.38968 40.75 2.19891 40.75 2V1.25C40.75 1.05109 40.671 0.860322 40.5303 0.71967C40.3897 0.579018 40.1989 0.5 40 0.5C39.8011 0.5 39.6103 0.579018 39.4697 0.71967C39.329 0.860322 39.25 1.05109 39.25 1.25V2C39.25 2.19891 39.329 2.38968 39.4697 2.53033C39.6103 2.67098 39.8011 2.75 40 2.75ZM35.23 4.2875C35.3697 4.42606 35.5582 4.50417 35.755 4.505C35.8537 4.50557 35.9516 4.48665 36.0429 4.44933C36.1343 4.41201 36.2174 4.35701 36.2875 4.2875C36.4272 4.14698 36.5056 3.95689 36.5056 3.75875C36.5056 3.56061 36.4272 3.37052 36.2875 3.23L35.755 2.6975C35.6115 2.57463 35.427 2.51043 35.2382 2.51772C35.0495 2.52501 34.8704 2.60326 34.7368 2.73683C34.6033 2.8704 34.525 3.04945 34.5177 3.23821C34.5104 3.42697 34.5746 3.61152 34.6975 3.755L35.23 4.2875ZM44.23 4.505C44.4268 4.50417 44.6153 4.42606 44.755 4.2875L45.2875 3.755C45.366 3.68777 45.4298 3.60503 45.4748 3.51198C45.5198 3.41893 45.5451 3.31758 45.5491 3.21429C45.5531 3.111 45.5357 3.008 45.498 2.91176C45.4603 2.81551 45.4031 2.7281 45.33 2.65501C45.2569 2.58192 45.1695 2.52473 45.0732 2.48702C44.977 2.44932 44.874 2.43191 44.7707 2.4359C44.6674 2.43989 44.5661 2.46519 44.473 2.51021C44.38 2.55522 44.2972 2.61899 44.23 2.6975L43.75 3.23C43.6103 3.37052 43.5319 3.56061 43.5319 3.75875C43.5319 3.95689 43.6103 4.14698 43.75 4.2875C43.8822 4.41902 44.0587 4.49656 44.245 4.505H44.23ZM46.75 7.25H46C45.8011 7.25 45.6103 7.32902 45.4697 7.46967C45.329 7.61032 45.25 7.80109 45.25 8C45.25 8.19891 45.329 8.38968 45.4697 8.53033C45.6103 8.67098 45.8011 8.75 46 8.75H46.75C46.9489 8.75 47.1397 8.67098 47.2803 8.53033C47.421 8.38968 47.5 8.19891 47.5 8C47.5 7.80109 47.421 7.61032 47.2803 7.46967C47.1397 7.32902 46.9489 7.25 46.75 7.25ZM40 13.25C39.8011 13.25 39.6103 13.329 39.4697 13.4697C39.329 13.6103 39.25 13.8011 39.25 14V14.75C39.25 14.9489 39.329 15.1397 39.4697 15.2803C39.6103 15.421 39.8011 15.5 40 15.5C40.1989 15.5 40.3897 15.421 40.5303 15.2803C40.671 15.1397 40.75 14.9489 40.75 14.75V14C40.75 13.8011 40.671 13.6103 40.5303 13.4697C40.3897 13.329 40.1989 13.25 40 13.25ZM44.77 11.75C44.6275 11.6707 44.4631 11.6401 44.3016 11.6627C44.1401 11.6852 43.9904 11.7598 43.8751 11.8751C43.7598 11.9904 43.6852 12.1401 43.6627 12.3016C43.6401 12.4631 43.6707 12.6275 43.75 12.77L44.2825 13.3025C44.423 13.4422 44.6131 13.5206 44.8113 13.5206C45.0094 13.5206 45.1995 13.4422 45.34 13.3025C45.4797 13.162 45.5581 12.9719 45.5581 12.7738C45.5581 12.5756 45.4797 12.3855 45.34 12.245L44.77 11.75ZM40 3.875C39.1842 3.875 38.3866 4.11693 37.7083 4.57019C37.0299 5.02345 36.5012 5.66769 36.189 6.42143C35.8768 7.17518 35.7951 8.00458 35.9543 8.80475C36.1134 9.60492 36.5063 10.3399 37.0832 10.9168C37.6601 11.4937 38.3951 11.8866 39.1953 12.0457C39.9954 12.2049 40.8248 12.1232 41.5786 11.811C42.3323 11.4988 42.9766 10.9701 43.4298 10.2917C43.8831 9.61338 44.125 8.81585 44.125 8C44.123 6.90659 43.6878 5.85853 42.9146 5.08537C42.1415 4.31222 41.0934 3.87698 40 3.875ZM40 10.625C39.4808 10.625 38.9733 10.471 38.5416 10.1826C38.1099 9.89417 37.7735 9.4842 37.5748 9.00454C37.3761 8.52489 37.3242 7.99709 37.4254 7.48789C37.5267 6.97869 37.7767 6.51096 38.1438 6.14385C38.511 5.77673 38.9787 5.52672 39.4879 5.42544C39.9971 5.32415 40.5249 5.37614 41.0045 5.57482C41.4842 5.7735 41.8942 6.10995 42.1826 6.54163C42.471 6.97331 42.625 7.48082 42.625 8C42.625 8.69619 42.3484 9.36387 41.8562 9.85616C41.3639 10.3484 40.6962 10.625 40 10.625Z" fill="#051923"/>
<path d="M35.23 11.75L34.6975 12.2825C34.5578 12.423 34.4794 12.6131 34.4794 12.8113C34.4794 13.0094 34.5578 13.1995 34.6975 13.34C34.838 13.4797 35.0281 13.5581 35.2263 13.5581C35.4244 13.5581 35.6145 13.4797 35.755 13.34L36.2875 12.8075C36.4104 12.664 36.4746 12.4795 36.4673 12.2907C36.46 12.102 36.3817 11.9229 36.2482 11.7893C36.1146 11.6558 35.9355 11.5775 35.7468 11.5702C35.558 11.5629 35.3735 11.6271 35.23 11.75ZM34.75 8C34.75 7.80109 34.671 7.61032 34.5303 7.46967C34.3897 7.32902 34.1989 7.25 34 7.25H33.25C33.0511 7.25 32.8603 7.32902 32.7197 7.46967C32.579 7.61032 32.5 7.80109 32.5 8C32.5 8.19891 32.579 8.38968 32.7197 8.53033C32.8603 8.67098 33.0511 8.75 33.25 8.75H34C34.1989 8.75 34.3897 8.67098 34.5303 8.53033C34.671 8.38968 34.75 8.19891 34.75 8ZM40 2.75C40.1989 2.75 40.3897 2.67098 40.5303 2.53033C40.671 2.38968 40.75 2.19891 40.75 2V1.25C40.75 1.05109 40.671 0.860322 40.5303 0.71967C40.3897 0.579018 40.1989 0.5 40 0.5C39.8011 0.5 39.6103 0.579018 39.4697 0.71967C39.329 0.860322 39.25 1.05109 39.25 1.25V2C39.25 2.19891 39.329 2.38968 39.4697 2.53033C39.6103 2.67098 39.8011 2.75 40 2.75ZM35.23 4.2875C35.3697 4.42606 35.5582 4.50417 35.755 4.505C35.8537 4.50557 35.9516 4.48665 36.0429 4.44933C36.1343 4.41201 36.2174 4.35701 36.2875 4.2875C36.4272 4.14698 36.5056 3.95689 36.5056 3.75875C36.5056 3.56061 36.4272 3.37052 36.2875 3.23L35.755 2.6975C35.6115 2.57463 35.427 2.51043 35.2382 2.51772C35.0495 2.52501 34.8704 2.60326 34.7368 2.73683C34.6033 2.8704 34.525 3.04945 34.5177 3.23821C34.5104 3.42697 34.5746 3.61152 34.6975 3.755L35.23 4.2875ZM44.23 4.505C44.4268 4.50417 44.6153 4.42606 44.755 4.2875L45.2875 3.755C45.366 3.68777 45.4298 3.60503 45.4748 3.51198C45.5198 3.41893 45.5451 3.31758 45.5491 3.21429C45.5531 3.111 45.5357 3.008 45.498 2.91176C45.4603 2.81551 45.4031 2.7281 45.33 2.65501C45.2569 2.58192 45.1695 2.52473 45.0732 2.48702C44.977 2.44932 44.874 2.43191 44.7707 2.4359C44.6674 2.43989 44.5661 2.46519 44.473 2.51021C44.38 2.55522 44.2972 2.61899 44.23 2.6975L43.75 3.23C43.6103 3.37052 43.5319 3.56061 43.5319 3.75875C43.5319 3.95689 43.6103 4.14698 43.75 4.2875C43.8822 4.41902 44.0587 4.49656 44.245 4.505H44.23ZM46.75 7.25H46C45.8011 7.25 45.6103 7.32902 45.4697 7.46967C45.329 7.61032 45.25 7.80109 45.25 8C45.25 8.19891 45.329 8.38968 45.4697 8.53033C45.6103 8.67098 45.8011 8.75 46 8.75H46.75C46.9489 8.75 47.1397 8.67098 47.2803 8.53033C47.421 8.38968 47.5 8.19891 47.5 8C47.5 7.80109 47.421 7.61032 47.2803 7.46967C47.1397 7.32902 46.9489 7.25 46.75 7.25ZM40 13.25C39.8011 13.25 39.6103 13.329 39.4697 13.4697C39.329 13.6103 39.25 13.8011 39.25 14V14.75C39.25 14.9489 39.329 15.1397 39.4697 15.2803C39.6103 15.421 39.8011 15.5 40 15.5C40.1989 15.5 40.3897 15.421 40.5303 15.2803C40.671 15.1397 40.75 14.9489 40.75 14.75V14C40.75 13.8011 40.671 13.6103 40.5303 13.4697C40.3897 13.329 40.1989 13.25 40 13.25ZM44.77 11.75C44.6275 11.6707 44.4631 11.6401 44.3016 11.6627C44.1401 11.6852 43.9904 11.7598 43.8751 11.8751C43.7598 11.9904 43.6852 12.1401 43.6627 12.3016C43.6401 12.4631 43.6707 12.6275 43.75 12.77L44.2825 13.3025C44.423 13.4422 44.6131 13.5206 44.8113 13.5206C45.0094 13.5206 45.1995 13.4422 45.34 13.3025C45.4797 13.162 45.5581 12.9719 45.5581 12.7738C45.5581 12.5756 45.4797 12.3855 45.34 12.245L44.77 11.75ZM40 3.875C39.1842 3.875 38.3866 4.11693 37.7083 4.57019C37.0299 5.02345 36.5012 5.66769 36.189 6.42143C35.8768 7.17518 35.7951 8.00458 35.9543 8.80475C36.1134 9.60492 36.5063 10.3399 37.0832 10.9168C37.6601 11.4937 38.3951 11.8866 39.1953 12.0457C39.9954 12.2049 40.8248 12.1232 41.5786 11.811C42.3323 11.4988 42.9766 10.9701 43.4298 10.2917C43.8831 9.61338 44.125 8.81585 44.125 8C44.123 6.90659 43.6878 5.85853 42.9146 5.08537C42.1415 4.31222 41.0934 3.87698 40 3.875ZM40 10.625C39.4808 10.625 38.9733 10.471 38.5416 10.1826C38.1099 9.89417 37.7735 9.4842 37.5748 9.00454C37.3761 8.52489 37.3242 7.99709 37.4254 7.48789C37.5267 6.97869 37.7767 6.51096 38.1438 6.14385C38.511 5.77673 38.9787 5.52672 39.4879 5.42544C39.9971 5.32415 40.5249 5.37614 41.0045 5.57482C41.4842 5.7735 41.8942 6.10995 42.1826 6.54163C42.471 6.97331 42.625 7.48082 42.625 8C42.625 8.69619 42.3484 9.36387 41.8562 9.85616C41.3639 10.3484 40.6962 10.625 40 10.625Z" stroke="#051923" stroke-width="0.5" mask="url(#path-3-outside-1_2_44)"/>
</g>
<defs>
<clipPath id="clip0_2_44">
<rect width="50" height="50" fill="white"/>
</clipPath>
</defs>
</svg>
