<svg width="36" height="36" viewBox="0 0 36 36" fill="none" xmlns="http://www.w3.org/2000/svg">
<g clip-path="url(#clip0_2_13)">
<mask id="path-1-inside-1_2_13" fill="white">
<path d="M21.4615 0C18.2908 0 15.6628 1.79031 14.0622 4.284C13.7631 4.24246 13.4792 4.15385 13.1538 4.15385C9.68954 4.15385 6.92308 6.55615 6.01477 9.73523C2.69446 9.85846 0 12.5737 0 15.9231C0 19.3472 2.80662 22.1538 6.23077 22.1538H28.3846C32.5745 22.1538 36 18.7283 36 14.5385C36 10.9731 33.4772 8.08338 30.1583 7.26923C29.3303 3.15554 25.8092 0 21.4615 0ZM21.4615 2.76923C23.0233 2.76492 24.5289 3.35118 25.6765 4.41045C26.8241 5.46972 27.5289 6.92368 27.6494 8.48077L27.7782 9.64938L28.9038 9.73523C30.0923 9.85678 31.1931 10.4156 31.9927 11.3032C32.7923 12.1908 33.2335 13.3438 33.2308 14.5385C33.2308 17.2302 31.0763 19.3846 28.3846 19.3846H6.23077C5.77542 19.3874 5.32406 19.2997 4.90284 19.1267C4.48162 18.9538 4.09893 18.6989 3.77695 18.3769C3.45496 18.0549 3.20009 17.6722 3.02711 17.251C2.85413 16.8298 2.76647 16.3784 2.76923 15.9231C2.76626 15.4238 2.87196 14.9299 3.07901 14.4756C3.28606 14.0213 3.5895 13.6175 3.96825 13.2923C4.347 12.967 4.792 12.7281 5.27236 12.592C5.75272 12.456 6.25694 12.4261 6.75 12.5045L8.22185 12.7648L8.35062 11.2929C8.46246 10.0969 9.01701 8.98575 9.90557 8.17737C10.7941 7.36899 11.9526 6.92166 13.1538 6.92308C13.5138 6.92308 13.8877 6.96046 14.2795 7.05323L15.3595 7.31215L15.8372 6.318C16.3428 5.25484 17.1396 4.35699 18.1353 3.72879C19.1309 3.10059 20.2843 2.76785 21.4615 2.76923ZM29.034 23.3225C27.7186 24.0037 24.7085 25.1031 23.9275 26.3506C23.739 26.6459 23.6108 26.9755 23.5501 27.3205C23.4894 27.6656 23.4975 28.0192 23.5739 28.3611C23.6504 28.7029 23.7936 29.0263 23.9954 29.3127C24.1973 29.599 24.4537 29.8426 24.75 30.0295C25.9948 30.8118 27.5483 30.3438 28.4275 29.1642C29.2098 28.1146 29.0326 26.1471 29.034 23.3225ZM9.64938 24.7071C8.334 25.3883 5.32385 26.4877 4.54292 27.7352C4.35443 28.0305 4.22615 28.3601 4.16547 28.7052C4.10478 29.0502 4.11289 29.4038 4.18932 29.7457C4.26575 30.0876 4.409 30.411 4.61083 30.6973C4.81266 30.9836 5.06909 31.2272 5.36538 31.4142C6.61015 32.1965 8.16369 31.7285 9.04292 30.5488C9.82523 29.4992 9.648 27.5317 9.64938 24.7071ZM19.3417 28.8609C18.0263 29.5422 15.0162 30.6415 14.2352 31.8891C14.0467 32.1844 13.9185 32.514 13.8578 32.859C13.7971 33.204 13.8052 33.5576 13.8816 33.8995C13.9581 34.2414 14.1013 34.5648 14.3031 34.8511C14.505 35.1375 14.7614 35.3811 15.0577 35.568C16.3025 36.3503 17.856 35.8823 18.7352 34.7026C19.5175 33.6531 19.3403 31.6855 19.3417 28.8609Z"/>
</mask>
<path d="M21.4615 0C18.2908 0 15.6628 1.79031 14.0622 4.284C13.7631 4.24246 13.4792 4.15385 13.1538 4.15385C9.68954 4.15385 6.92308 6.55615 6.01477 9.73523C2.69446 9.85846 0 12.5737 0 15.9231C0 19.3472 2.80662 22.1538 6.23077 22.1538H28.3846C32.5745 22.1538 36 18.7283 36 14.5385C36 10.9731 33.4772 8.08338 30.1583 7.26923C29.3303 3.15554 25.8092 0 21.4615 0ZM21.4615 2.76923C23.0233 2.76492 24.5289 3.35118 25.6765 4.41045C26.8241 5.46972 27.5289 6.92368 27.6494 8.48077L27.7782 9.64938L28.9038 9.73523C30.0923 9.85678 31.1931 10.4156 31.9927 11.3032C32.7923 12.1908 33.2335 13.3438 33.2308 14.5385C33.2308 17.2302 31.0763 19.3846 28.3846 19.3846H6.23077C5.77542 19.3874 5.32406 19.2997 4.90284 19.1267C4.48162 18.9538 4.09893 18.6989 3.77695 18.3769C3.45496 18.0549 3.20009 17.6722 3.02711 17.251C2.85413 16.8298 2.76647 16.3784 2.76923 15.9231C2.76626 15.4238 2.87196 14.9299 3.07901 14.4756C3.28606 14.0213 3.5895 13.6175 3.96825 13.2923C4.347 12.967 4.792 12.7281 5.27236 12.592C5.75272 12.456 6.25694 12.4261 6.75 12.5045L8.22185 12.7648L8.35062 11.2929C8.46246 10.0969 9.01701 8.98575 9.90557 8.17737C10.7941 7.36899 11.9526 6.92166 13.1538 6.92308C13.5138 6.92308 13.8877 6.96046 14.2795 7.05323L15.3595 7.31215L15.8372 6.318C16.3428 5.25484 17.1396 4.35699 18.1353 3.72879C19.1309 3.10059 20.2843 2.76785 21.4615 2.76923ZM29.034 23.3225C27.7186 24.0037 24.7085 25.1031 23.9275 26.3506C23.739 26.6459 23.6108 26.9755 23.5501 27.3205C23.4894 27.6656 23.4975 28.0192 23.5739 28.3611C23.6504 28.7029 23.7936 29.0263 23.9954 29.3127C24.1973 29.599 24.4537 29.8426 24.75 30.0295C25.9948 30.8118 27.5483 30.3438 28.4275 29.1642C29.2098 28.1146 29.0326 26.1471 29.034 23.3225ZM9.64938 24.7071C8.334 25.3883 5.32385 26.4877 4.54292 27.7352C4.35443 28.0305 4.22615 28.3601 4.16547 28.7052C4.10478 29.0502 4.11289 29.4038 4.18932 29.7457C4.26575 30.0876 4.409 30.411 4.61083 30.6973C4.81266 30.9836 5.06909 31.2272 5.36538 31.4142C6.61015 32.1965 8.16369 31.7285 9.04292 30.5488C9.82523 29.4992 9.648 27.5317 9.64938 24.7071ZM19.3417 28.8609C18.0263 29.5422 15.0162 30.6415 14.2352 31.8891C14.0467 32.1844 13.9185 32.514 13.8578 32.859C13.7971 33.204 13.8052 33.5576 13.8816 33.8995C13.9581 34.2414 14.1013 34.5648 14.3031 34.8511C14.505 35.1375 14.7614 35.3811 15.0577 35.568C16.3025 36.3503 17.856 35.8823 18.7352 34.7026C19.5175 33.6531 19.3403 31.6855 19.3417 28.8609Z" fill="#051923" stroke="#EBF8FF" stroke-width="0.5" mask="url(#path-1-inside-1_2_13)"/>
</g>
<defs>
<clipPath id="clip0_2_13">
<rect width="36" height="36" fill="white"/>
</clipPath>
</defs>
</svg>
