<svg width="400" height="400" viewBox="0 0 400 400" fill="none" xmlns="http://www.w3.org/2000/svg">
<g clip-path="url(#clip0_0_3)">
<path d="M310.056 392.556C310.056 396.669 240.647 400.004 155.028 400.004C69.4085 400.004 0 396.669 0 392.556C0 388.443 69.4085 385.108 155.028 385.108C240.647 385.108 310.056 388.443 310.056 392.556Z" fill="#7295A0"/>
<path d="M217.936 310.858C216.528 320.629 218.993 330.75 223.926 339.3C228.859 347.85 236.158 354.88 244.382 360.343C251.126 364.824 258.728 368.484 263.63 374.929C266.422 378.602 268.181 383.061 268.647 387.653C268.793 389.088 268.825 390.571 269.38 391.903C269.939 393.236 271.196 394.404 272.639 394.324C274.077 394.244 275.254 392.401 274.384 391.255C274.792 392.179 274.313 393.858 275.614 394.026C277.367 393.8 278.691 391.863 278.273 390.145C278.522 390.86 277.843 392.507 279.024 392.285C282.096 391.295 283.304 387.662 283.997 384.504C289.436 359.766 290.08 333.984 285.879 309.006C284.725 302.153 283.18 295.26 279.907 289.131C276.635 282.997 271.444 277.641 264.846 275.451C257.689 273.075 249.652 274.701 243.049 278.347C231.811 284.551 219.814 297.782 217.932 310.866L217.936 310.858Z" fill="#4B4F4F"/>
<path d="M8.55174 354.729C9.20444 359.015 10.6164 363.239 13.1207 366.774C13.7734 367.694 14.5815 368.617 15.6826 368.862C16.7838 369.106 18.1469 368.275 18.0181 367.156C18.4755 368.093 19.6477 368.617 20.6467 368.329C22.1519 367.782 21.1085 366.885 21.1529 366.126C21.0019 367.298 22.9689 367.68 23.6971 366.752C24.4253 365.824 24.1988 364.482 23.8569 363.354C22.6759 359.473 20.5313 355.395 21.9344 351.585C22.8446 349.115 25.0824 347.388 27.3869 346.122C31.3652 343.937 35.8764 342.729 40.4143 342.631C45.5071 342.52 50.8087 343.75 55.573 341.947C61.8735 339.566 65.3235 331.994 63.9915 325.39C62.6594 318.785 57.2869 313.447 50.9952 311.04C45.7069 309.01 36.2627 307.673 31.0944 310.702C26.9029 313.158 21.9965 317.995 18.7641 321.73C11.0116 330.684 6.73127 342.893 8.54285 354.729H8.55174Z" fill="#4B4F4F"/>
<path d="M15.7492 270.037C16.8326 283.907 17.9782 298.035 23.2131 310.929C30.9123 329.875 47.4697 344.825 66.8598 351.309C77.7426 354.947 89.287 356.035 100.72 357.012C143.568 360.676 186.948 363.119 229.383 356.164C239.08 354.574 249.137 352.291 256.645 345.944C263.905 339.806 267.826 330.675 271.129 321.757C274.215 313.416 277.003 304.835 277.527 295.957C278.291 283.068 274.233 270.313 268.567 258.712C265.743 252.929 262.466 247.275 257.977 242.665C246.184 230.54 228.091 227.369 211.222 226.152C187.206 224.42 163.002 225.353 139.106 222.413C130.416 221.342 121.66 219.721 113.81 215.848C106.675 212.326 100.538 207.063 93.5274 203.297C76.2063 193.992 55.3909 194.654 35.832 196.617C27.4668 197.457 14.3772 200.543 11.8774 210.123C10.6386 214.871 11.8863 220.605 12.2593 225.384C12.8098 232.432 13.3604 239.485 13.9154 246.534C14.5282 254.368 15.1409 262.203 15.7537 270.033L15.7492 270.037Z" fill="#656A6B"/>
<path d="M212.808 290.547C206.067 297.756 202.293 307.469 201.45 317.302C200.606 327.135 202.569 337.084 206.192 346.269C209.162 353.801 213.3 361.156 213.634 369.248C213.824 373.863 212.714 378.522 210.472 382.554C209.771 383.816 208.949 385.046 208.643 386.458C208.341 387.871 208.705 389.549 209.93 390.309C211.16 391.068 213.176 390.229 213.114 388.79C212.923 389.78 211.498 391.122 212.541 391.766C214.109 392.583 216.302 391.757 216.941 390.105C216.737 390.833 215.489 391.677 216.333 392.285C219.423 393.231 222.487 390.944 224.863 388.75C243.471 371.575 258.75 350.799 269.593 327.908C272.568 321.628 275.241 315.09 276.066 308.188C276.892 301.287 275.698 293.918 271.542 288.349C267.031 282.304 259.509 279.04 252.01 278.249C239.244 276.908 221.839 280.892 212.808 290.543V290.547Z" fill="#656A6B"/>
<path d="M76.1664 389.829C76.9167 390.931 77.7737 392.117 79.0658 392.445C80.3579 392.774 82.0007 391.588 81.5434 390.336C82.0806 391.57 83.4438 392.392 84.7847 392.285C86.2766 391.535 86.0945 390.811 85.8681 389.696C85.7971 391.131 88.2791 391.277 88.9584 390.011C89.6378 388.75 89.0739 387.2 88.4789 385.894C85.4418 379.192 81.7654 372.379 81.9563 365.02C82.0629 361.018 83.3194 357.145 83.8611 353.179C85.0422 344.541 82.649 335.472 77.3608 328.539C72.0725 321.61 63.9559 316.907 55.3154 315.765C45.2718 314.442 31.645 320.7 37.9899 332.336C44.9432 345.092 54.1565 357.065 62.2287 369.141C66.8509 376.052 71.4953 382.95 76.1664 389.825V389.829Z" fill="#656A6B"/>
<path d="M264.207 242.767C268.363 242.217 272.528 241.151 276.066 238.903C286.239 232.441 288.29 218.762 294.107 208.205C301.664 194.485 316.396 185.683 331.764 182.685C347.131 179.687 363.107 181.925 378.181 186.158C384.61 187.965 391.231 190.315 395.733 195.254C400.231 200.188 401.767 208.431 397.416 213.499C392.669 219.028 384.051 218.255 376.871 217.007C370.748 215.941 364.625 214.876 358.507 213.814C351.252 212.553 343.552 211.327 336.71 214.049C325.601 218.464 320.899 231.189 314.891 241.528C304.994 258.561 288.486 271.632 269.646 277.356C261.805 279.741 253.306 280.874 245.434 278.591C237.561 276.308 230.488 270.059 229.01 261.994C224.641 238.184 251.53 244.459 264.211 242.772L264.207 242.767Z" fill="#656A6B"/>
<path d="M113.357 215.417C95.6586 235.657 68.445 247.191 41.5998 245.836C47.2033 248.128 53.2996 248.932 59.3471 249.238C75.4071 250.06 91.6137 247.488 106.688 241.883C117.606 237.824 129.621 231.748 136.002 221.999C127.557 219.925 120.315 219.046 113.659 215.093L113.362 215.417H113.357Z" fill="#4B4F4F"/>
<path d="M11.1137 211.447C10.3811 202.702 9.8527 193.553 13.3249 185.492C17.6807 175.379 27.6488 168.757 37.8967 164.733C46.3064 161.428 55.2488 159.479 64.2712 158.977C68.7424 158.728 73.2492 158.835 77.6583 159.621C87.8662 161.446 97.2926 166.989 104.224 174.703C111.155 182.418 115.626 192.225 117.398 202.444C118.694 209.928 118.454 218.096 114.374 224.504C111.745 228.635 107.758 231.686 103.744 234.489C98.5181 238.135 93.0745 241.533 87.1691 243.922C74.5146 249.043 60.395 249.283 46.8214 247.853C36.2272 246.733 24.7761 244.077 18.2535 235.652C12.9875 228.852 11.8197 219.774 11.1226 211.442L11.1137 211.447Z" fill="#656A6B"/>
<path d="M15.4295 160.86C15.5805 160.154 15.7981 159.368 16.433 159.03C16.8637 158.799 17.3832 158.843 17.8627 158.91C23.0799 159.656 27.5201 162.965 31.7071 166.163C33.8784 167.824 36.1207 169.56 37.3772 171.99C42.701 182.294 25.6552 204.541 16.3709 203.732C4.54673 202.706 13.9066 168.041 15.4295 160.86Z" fill="#656A6B"/>
<path d="M91.4227 151.999C91.9289 151.489 92.5417 150.942 93.2565 151.004C93.7405 151.044 94.1579 151.36 94.522 151.68C98.5048 155.13 110.262 179.802 110.005 182.525C108.908 194.068 85.5839 185.798 78.2177 180.091C68.8312 172.825 86.2544 157.218 91.4227 151.999Z" fill="#656A6B"/>
<path d="M55.7594 191.243C55.9104 191.905 55.9903 192.593 55.9903 193.295C55.9903 198.394 51.861 202.524 46.7637 202.524C43.3625 202.524 40.3921 200.681 38.7936 197.945C39.726 202.053 43.398 205.118 47.7894 205.118C52.8822 205.118 57.016 200.987 57.016 195.889C57.016 194.192 56.5587 192.607 55.7639 191.243H55.7594Z" fill="#E9F1F4"/>
<path d="M57.1314 196.191C57.1314 201.285 53.0021 205.42 47.9048 205.42C42.8075 205.42 38.6782 201.289 38.6782 196.191C38.6782 191.092 42.8075 186.962 47.9048 186.962C53.0021 186.962 57.1314 191.092 57.1314 196.191Z" fill="white"/>
<path d="M47.9048 205.722C42.6521 205.722 38.3762 201.445 38.3762 196.191C38.3762 190.937 42.6521 186.66 47.9048 186.66C53.1575 186.66 57.4334 190.937 57.4334 196.191C57.4334 201.445 53.1575 205.722 47.9048 205.722ZM47.9048 187.268C42.9851 187.268 38.9801 191.274 38.9801 196.195C38.9801 201.116 42.9851 205.122 47.9048 205.122C52.8245 205.122 56.8295 201.116 56.8295 196.195C56.8295 191.274 52.8245 187.268 47.9048 187.268Z" fill="#4B4F4F"/>
<path d="M54.5118 196.559C54.5118 199.895 51.8077 202.6 48.4731 202.6C45.1386 202.6 42.4345 199.895 42.4345 196.559C42.4345 193.224 45.1386 190.519 48.4731 190.519C51.8077 190.519 54.5118 193.224 54.5118 196.559Z" fill="#593E39"/>
<path d="M48.6019 201.938C49.2857 200.148 49.8674 198.3 50.045 196.395C50.2181 194.49 49.965 192.504 49.0548 190.817C49.0859 190.817 48.4643 191.425 48.4243 191.478C48.149 191.843 48.0735 192.487 47.967 192.926C47.7316 193.917 47.5984 194.934 47.5674 195.955C47.5363 196.972 47.6073 197.998 47.7805 199.002C47.8693 199.522 47.9847 200.041 48.1313 200.548C48.1979 200.788 48.6818 201.738 48.6019 201.942V201.938Z" fill="#30211F"/>
<path d="M43.4558 196.892C43.4913 197.092 43.5357 197.292 43.6423 197.465C43.7488 197.639 43.922 197.781 44.1218 197.799C44.4193 197.83 44.6901 197.594 44.81 197.314C44.9299 197.039 44.9343 196.728 44.961 196.431C45.0365 195.631 45.294 194.849 45.7158 194.166C46.4218 193.011 44.6946 193.264 44.2328 193.903C43.6156 194.761 43.2782 195.844 43.4558 196.888V196.892Z" fill="white"/>
<path d="M46.484 192.997C46.7193 193.033 46.9635 192.931 47.1411 192.775C47.3231 192.62 47.4475 192.411 47.5629 192.202C47.6206 192.091 47.6739 191.945 47.5851 191.852C47.554 191.82 47.5096 191.803 47.4697 191.789C47.0834 191.674 46.404 191.816 46.1421 192.154C45.8934 192.473 46.0666 192.931 46.484 192.993V192.997Z" fill="white"/>
<path d="M100.605 181.334C100.756 181.996 100.836 182.685 100.836 183.386C100.836 188.485 96.7065 192.615 91.6092 192.615C88.2081 192.615 85.2376 190.772 83.6391 188.036C84.5716 192.145 88.2436 195.209 92.6349 195.209C97.7322 195.209 101.862 191.079 101.862 185.98C101.862 184.283 101.404 182.698 100.609 181.334H100.605Z" fill="#E9F1F4"/>
<path d="M101.973 186.282C101.973 191.381 97.8432 195.511 92.7459 195.511C87.6486 195.511 83.5193 191.381 83.5193 186.282C83.5193 181.183 87.6486 177.053 92.7459 177.053C97.8432 177.053 101.973 181.183 101.973 186.282Z" fill="white"/>
<path d="M92.7503 195.813C87.4976 195.813 83.2218 191.536 83.2218 186.282C83.2218 181.028 87.4976 176.751 92.7503 176.751C98.003 176.751 102.279 181.028 102.279 186.282C102.279 191.536 98.003 195.813 92.7503 195.813ZM92.7503 177.359C87.8307 177.359 83.8256 181.366 83.8256 186.287C83.8256 191.208 87.8262 195.214 92.7503 195.214C97.6745 195.214 101.675 191.208 101.675 186.287C101.675 181.366 97.6745 177.359 92.7503 177.359Z" fill="#4B4F4F"/>
<path d="M99.3528 186.651C99.3528 189.986 96.6488 192.691 93.3142 192.691C89.9797 192.691 87.2756 189.986 87.2756 186.651C87.2756 183.315 89.9797 180.611 93.3142 180.611C96.6488 180.611 99.3528 183.315 99.3528 186.651Z" fill="#593E39"/>
<path d="M93.443 192.029C94.1268 190.239 94.7084 188.392 94.8861 186.486C95.0592 184.581 94.8061 182.596 93.8959 180.908C93.927 180.908 93.3054 181.517 93.2654 181.565C92.9901 181.93 92.9146 182.574 92.8081 183.013C92.5727 184.004 92.4395 185.021 92.4084 186.042C92.3774 187.064 92.4484 188.085 92.6216 189.089C92.7104 189.609 92.8258 190.128 92.9723 190.635C93.0389 190.874 93.5229 191.825 93.443 192.029Z" fill="#30211F"/>
<path d="M88.3013 186.984C88.3368 187.184 88.3812 187.384 88.4878 187.557C88.5944 187.73 88.7675 187.872 88.9673 187.89C89.2648 187.921 89.5357 187.681 89.6556 187.406C89.7754 187.13 89.7799 186.82 89.8065 186.522C89.882 185.722 90.1395 184.941 90.5613 184.257C91.2673 183.102 89.5401 183.355 89.0783 183.995C88.4612 184.852 88.1237 185.936 88.3013 186.979V186.984Z" fill="white"/>
<path d="M91.3295 183.089C91.5648 183.124 91.809 183.022 91.9866 182.867C92.1687 182.711 92.293 182.503 92.4084 182.294C92.4662 182.183 92.5194 182.032 92.4306 181.943C92.3996 181.912 92.3552 181.894 92.3152 181.881C91.9289 181.765 91.2496 181.907 90.9876 182.245C90.7389 182.565 90.9121 183.022 91.3295 183.084V183.089Z" fill="white"/>
<path d="M18.5732 166.149C18.6487 165.896 18.733 165.63 18.9195 165.443C19.1149 165.252 19.3902 165.168 19.661 165.137C20.6867 165.012 21.6857 165.488 22.5782 166.016C24.5541 167.18 26.3568 168.645 27.8975 170.342C26.0903 171.865 24.3143 173.42 22.5693 175.014C19.8653 177.479 17.4187 180.131 16.7616 183.844C15.5405 181.641 16.3886 177.892 16.6639 175.512C17.028 172.345 17.6674 169.21 18.5732 166.154V166.149Z" fill="#E5CAC6"/>
<path d="M90.7567 157.804C91.1253 157.436 91.516 157.067 91.9955 156.876C92.7903 156.556 93.7227 156.774 94.4376 157.24C95.1569 157.706 95.6986 158.395 96.2003 159.088C99.6637 163.831 101.99 169.396 102.945 175.192C97.0218 171.843 92.4351 166.318 86.1878 163.627C87.8484 161.801 88.9673 159.594 90.7523 157.804H90.7567Z" fill="#E5CAC6"/>
<path d="M72.0548 196.146C71.4554 196.377 70.8826 196.79 70.6783 197.399C70.5229 197.856 70.5984 198.367 70.7538 198.824C71.2378 200.255 72.4233 201.334 73.671 202.182C74.9187 203.03 76.2818 203.732 77.3919 204.754C78.7461 203.519 79.9805 202.156 81.0727 200.685C81.5345 200.064 81.9785 199.406 82.1961 198.665C82.4137 197.918 82.4758 196.861 82.0274 196.231C81.5345 195.533 79.4121 194.259 77.5961 195.422C76.9878 195.813 76.4106 196.146 76.0865 196.773C75.0341 195.853 73.3424 195.653 72.0592 196.146H72.0548Z" fill="#E5CAC6"/>
<path d="M87.2579 212.753C87.1868 212.579 87.0003 212.522 86.8316 212.579C85.0245 213.183 82.9376 213.25 81.1926 212.397C79.2878 211.46 78.2577 209.453 77.8448 207.45C77.8137 207.299 77.787 207.152 77.7604 207.001C77.7648 206.921 77.7693 206.841 77.7781 206.766C77.867 205.224 77.8004 203.679 77.5783 202.156C77.5162 201.742 76.8768 201.822 76.9345 202.24C76.97 202.471 76.9967 202.702 77.0233 202.937C76.8946 202.995 76.828 203.128 76.8324 203.275C76.8679 204.518 76.9168 205.784 77.1166 207.014C77.0455 208.036 76.9034 209.053 76.6859 210.052C76.5616 210.63 76.3928 211.211 76.0909 211.722C75.8023 212.215 75.3982 212.637 74.9764 213.019C74.1061 213.81 73.1115 214.458 72.0326 214.929C70.8204 215.462 69.5239 215.773 68.2007 215.844C68.0276 215.853 67.8988 216.044 67.921 216.208C67.9432 216.394 68.1075 216.497 68.2851 216.488C70.7538 216.35 73.1737 215.395 75.0652 213.801C75.5403 213.401 76.0021 212.961 76.3751 212.455C76.7525 211.944 77.0011 211.376 77.1743 210.767C77.3475 210.145 77.4762 209.51 77.5739 208.866C77.7648 209.435 78.009 209.99 78.3243 210.519C78.8926 211.478 79.6741 212.282 80.6465 212.828C81.5345 213.33 82.5602 213.592 83.577 213.654C84.7669 213.725 85.9569 213.548 87.0847 213.17C87.249 213.117 87.3245 212.899 87.2579 212.744V212.753Z" fill="#E5CAC6"/>
<path d="M123.241 306.385C125.479 305.532 127.228 303.751 128.769 301.917C140.522 287.918 143.732 268.86 146.507 250.793C147.666 243.251 148.829 235.594 147.928 228.017C147.742 226.432 147.466 224.829 147.418 223.243C144.864 223.017 142.311 222.754 139.767 222.448C140.074 223.19 140.451 223.923 140.624 224.602C143.75 236.749 140.375 251.961 135.323 263.149C130.096 274.714 121.758 284.685 116.767 296.357C115.559 299.186 114.649 302.743 116.625 305.102C118.161 306.94 120.999 307.242 123.236 306.39L123.241 306.385Z" fill="#797F7F"/>
<path d="M236.904 230.385C238.165 233.645 238.139 237.407 236.429 240.436C230.79 250.429 224.983 261.043 225.196 272.515C225.32 279.275 227.553 285.804 228.694 292.466C229.742 298.573 229.867 304.84 229.072 310.986C228.752 313.469 228.286 316.032 228.983 318.435C229.68 320.837 232.007 323 234.462 322.525C236.46 322.143 237.792 320.229 238.503 318.324C240.146 313.913 239.577 309.032 239.195 304.342C237.823 287.545 239.173 270.526 243.174 254.155C243.964 250.922 244.87 247.679 246.451 244.753C247.894 242.083 249.861 239.743 251.606 237.256C247.148 234.222 242.161 232.01 236.9 230.385H236.904Z" fill="#797F7F"/>
<path d="M172.273 263.597C173.357 259.84 175.666 256.5 176.554 252.689C177.295 249.491 176.993 246.16 176.878 242.878C176.665 236.82 177.113 230.74 178.206 224.78C171.541 224.598 164.876 224.384 158.225 224.011C158.744 233.196 154.056 242.35 155.095 251.574C155.694 256.908 158.167 261.821 159.859 266.915C163.082 276.646 163.429 287.31 160.84 297.232C158.243 307.18 152.759 316.529 152.533 326.811C152.475 329.445 156.276 330.653 158.513 329.263C160.751 327.872 161.688 325.137 162.465 322.618C164.499 316.023 166.532 309.427 168.566 302.832C170.444 296.739 172.34 290.534 172.398 284.156C172.456 277.268 170.373 270.215 172.278 263.593L172.273 263.597Z" fill="#797F7F"/>
<path d="M211.28 226.112C206.853 225.792 202.422 225.566 197.986 225.388C197.902 225.948 197.778 226.507 197.649 227.058C196.028 234.027 194.012 240.902 191.61 247.639C189.399 253.84 186.815 260.364 188.147 266.813C189.253 272.173 192.978 276.837 193.391 282.295C193.759 287.163 191.442 292.288 193.315 296.796C193.737 297.813 194.599 298.866 195.691 298.746C196.321 298.675 196.841 298.226 197.267 297.76C200.646 294.047 200.699 288.415 199.931 283.454C199.163 278.493 197.764 273.421 198.923 268.536C200.322 262.62 205.148 258.228 208.252 253.005C210.938 248.483 212.355 243.216 212.288 237.957C212.239 234.084 211.6 229.696 212.777 226.228C212.279 226.188 211.782 226.152 211.285 226.117L211.28 226.112Z" fill="#797F7F"/>
<path d="M351.607 181.45C348.676 181.286 345.741 181.259 342.815 181.388C343.175 184.612 342.429 188.005 341.776 191.243C340.347 198.363 339.476 205.797 340.649 212.904C344.103 212.237 347.695 212.322 351.287 212.721C351.287 209.777 350.359 206.868 349.866 203.941C348.623 196.613 350.079 189.125 351.527 181.836C351.554 181.708 351.58 181.579 351.607 181.45Z" fill="#797F7F"/>
<path d="M378.181 186.153C375.779 185.478 373.35 184.852 370.908 184.292C370.469 186.526 369.541 188.712 368.608 190.808C365.815 197.092 362.867 203.355 361.118 210.008C360.762 211.354 360.46 212.739 360.363 214.125C364.426 214.831 368.488 215.537 372.551 216.243C373.297 213.299 373.084 210.177 373.643 207.188C375.011 199.899 380.628 194.463 385.068 188.401C382.817 187.517 380.486 186.797 378.181 186.149V186.153Z" fill="#797F7F"/>
<path d="M395.733 195.249C394.987 194.432 394.179 193.695 393.331 193.006C391.963 196.946 390.378 200.81 388.58 204.572C386.555 208.813 384.215 213.299 383.425 217.829C388.771 218.162 394.059 217.403 397.416 213.494C401.767 208.427 400.235 200.184 395.733 195.249Z" fill="#797F7F"/>
<path d="M309.092 250.095C306.286 245.436 301.664 241.799 297.131 238.601C292.859 235.59 288.348 232.552 284.973 228.644C283.775 230.878 282.42 232.97 280.791 234.817C281.688 235.945 282.749 236.958 283.877 237.797C287.455 240.471 291.745 242.114 295.159 244.992C298.8 248.066 301.171 252.303 303.582 256.447C305.527 254.426 307.37 252.307 309.088 250.091L309.092 250.095Z" fill="#797F7F"/>
<path d="M331.462 211.998C327.905 205.86 325.024 199.335 322.883 192.571C322.182 190.359 321.582 188.001 321.334 185.665C317.622 187.082 314.048 188.858 310.709 190.972C311.454 193.055 312.054 195.276 312.831 197.252C316.028 205.402 323.856 211.074 326.977 219.255C327.155 219.725 327.35 220.223 327.563 220.711C329.291 218.762 331.213 217.052 333.415 215.702C332.869 214.423 332.146 213.179 331.462 211.998Z" fill="#797F7F"/>
<path d="M320.912 230.491C320.579 230.363 320.242 230.234 319.909 230.109C308.91 225.926 299.32 217.163 295.226 206.304C294.839 206.926 294.462 207.556 294.107 208.2C292.513 211.091 291.203 214.218 289.933 217.363C293.636 220.871 297.139 224.584 300.425 228.488C304.071 232.819 307.929 237.686 313.475 238.783C314.376 238.961 315.313 239.036 316.25 239.099C317.804 236.27 319.309 233.334 320.908 230.487L320.912 230.491Z" fill="#797F7F"/>
<path d="M51.8033 177.502C52.1185 177.857 52.5048 178.203 52.9799 178.243C53.6148 178.292 54.1743 177.728 54.3164 177.111C54.4585 176.493 54.2897 175.84 54.0677 175.245C52.4027 170.76 47.9892 167.513 47.0789 162.814C47.0168 162.485 46.9768 162.139 46.9813 161.792C44.2772 162.521 41.6042 163.387 38.9845 164.377C39.5884 164.688 40.2899 164.879 40.845 165.07C42.4479 165.625 43.882 166.505 45.1208 167.66C46.5062 168.952 47.6251 170.511 48.5531 172.154C49.5787 173.975 50.4091 175.943 51.8077 177.502H51.8033Z" fill="#797F7F"/>
<path d="M63.0013 183.777C63.5297 184.674 64.4755 185.527 65.4923 185.292C66.6023 185.034 67.033 183.702 67.184 182.574C67.9077 177.217 66.7222 171.621 63.8894 167.016C62.4552 164.688 60.5992 162.565 59.7556 159.963C59.6934 159.772 59.6401 159.576 59.5913 159.381C57.0915 159.665 54.6094 160.06 52.1452 160.562C52.1674 160.58 52.194 160.598 52.2162 160.616C54.3253 162.254 56.4699 163.933 57.9618 166.145C60.6081 170.067 60.8479 175.054 61.6915 179.709C61.9446 181.117 62.2731 182.538 62.9969 183.773L63.0013 183.777Z" fill="#797F7F"/>
<path d="M65.8652 158.906C67.1706 159.989 68.3739 161.184 69.2886 162.605C70.5052 164.484 71.1712 166.669 72.3168 168.592C72.8807 169.534 73.6088 170.449 74.6256 170.853C75.6469 171.257 77.0011 170.973 77.4984 169.996C77.8803 169.241 77.6627 168.308 77.2364 167.58C76.8102 166.851 76.193 166.252 75.7002 165.563C74.5679 163.973 74.1683 161.983 73.2625 160.256C73.0316 159.812 72.7652 159.39 72.4722 158.986C70.2743 158.839 68.0631 158.826 65.8563 158.91L65.8652 158.906Z" fill="#797F7F"/>
</g>
<defs>
<clipPath id="clip0_0_3">
<rect width="400" height="249" fill="white" transform="translate(0 151)"/>
</clipPath>
</defs>
</svg>
