<svg width="400" height="400" viewBox="0 0 400 400" fill="none" xmlns="http://www.w3.org/2000/svg">
<path d="M308.662 389.125C308.662 394.883 255.788 399.552 190.567 399.552C125.346 399.552 72.4719 394.883 72.4719 389.125C72.4719 383.367 125.346 378.698 190.567 378.698C255.788 378.698 308.662 383.367 308.662 389.125Z" fill="#7295A0"/>
<path d="M272.881 332.738C270.795 348.82 268.713 365.184 271.633 381.128C271.896 382.562 272.2 384.045 271.836 385.464C271.473 386.883 270.232 388.221 268.694 388.228C267.156 388.232 265.867 386.335 266.845 385.208C267.242 387.206 266.278 389.392 264.496 390.537C263.362 389.555 262.739 388.065 262.858 386.609C263.41 387.709 262.569 389.214 261.294 389.407C255.892 386.839 254.239 380.406 253.213 374.755C248.929 351.21 245.216 327.561 242.704 303.779C242.044 297.517 241.562 290.795 244.853 285.311C252.857 271.975 276.835 274.932 283.613 287.675C287.077 294.193 283.476 298.803 280.359 304.676C275.683 313.488 274.138 323.048 272.881 332.734V332.738Z" fill="#CCCCCC"/>
<path d="M141.18 227.234C150.214 234.197 155.175 245.106 156.487 256.093C157.799 267.076 155.776 278.2 152.815 288.913C149.854 299.622 145.949 310.097 143.373 320.899C138.59 340.975 138.523 362.052 143.41 382.066C143.822 383.745 144.67 385.849 142.729 386.431C141.157 386.779 140.465 385.797 140.239 384.693C140.498 388.799 135.562 389.214 135.069 384.775C136.841 386.079 134.336 389.003 132.186 388.395C130.034 387.791 129.014 385.505 128.407 383.456C126.584 377.29 125.965 370.868 124.961 364.531C121.678 343.78 114.141 323.663 102.898 305.617C96.5838 295.483 89.0949 285.967 83.9553 275.251C78.8158 264.534 76.17 252.113 80.1275 240.919C84.0813 229.732 94.3234 222.662 106.478 222.106C119.232 221.524 129.967 218.593 141.176 227.238L141.18 227.234Z" fill="#CCCCCC"/>
<path d="M353.962 232.211C344.039 231.588 333.893 233.797 325.066 238.499C324.036 239.048 323.002 239.648 322.235 240.519C321.138 241.76 320.697 243.416 320.386 245.017C319.063 251.824 319.497 258.768 320.812 265.49C321.468 268.844 322.35 272.149 323.34 275.417C324.118 277.985 324.803 283.173 326.719 285.096C333.378 291.796 345.891 260.588 347.726 255.656C348.422 253.784 354.562 232.252 353.958 232.215L353.962 232.211Z" fill="#E8E8E8"/>
<path d="M249.703 255.285C234.403 242.001 229.282 225.37 216.48 211.697C211.507 206.387 205.478 202.041 199.167 198.213C181.418 187.441 160.741 180.471 139.62 180.397C118.498 180.322 96.995 187.556 82.1026 201.811C74.4321 209.155 68.6626 218.122 64.1715 227.531C60.2844 235.668 57.2681 244.406 57.4942 253.318C57.7795 264.501 63.449 275.436 72.609 282.454C81.7653 289.472 113.133 327.78 118.483 317.783C129.007 298.121 140.639 274.313 152.863 270.785C173.266 264.897 193.013 278.304 203.936 296.839C214.301 314.429 231.057 317.853 256.781 317.664C266.082 317.597 280.122 314.129 288.215 309.753C296.749 305.139 301.114 294.56 298.135 285.722C295.504 277.919 288.111 272.312 280.178 269.07C272.244 265.827 263.603 264.508 255.254 262.378C249.7 260.958 244.253 259.176 238.965 257.038C237.583 256.478 236.245 254.426 237.697 254.055L249.703 255.289V255.285Z" fill="#E8E8E8"/>
<path d="M235.296 334.324C233.21 350.406 231.128 366.77 234.048 382.714C234.311 384.148 234.614 385.631 234.251 387.05C233.888 388.469 232.647 389.807 231.109 389.814C229.571 389.822 228.282 387.921 229.26 386.794C229.656 388.791 228.693 390.978 226.911 392.123C225.773 391.141 225.154 389.651 225.273 388.195C225.825 389.295 224.984 390.8 223.709 390.993C218.306 388.425 216.654 381.992 215.627 376.341C211.344 352.796 205.056 306.325 194.669 284.581C189.607 273.991 200.161 276.321 203.455 270.841C211.462 257.501 239.254 276.522 246.031 289.265C249.496 295.783 245.894 300.392 242.778 306.266C238.101 315.077 236.556 324.638 235.3 334.324H235.296Z" fill="#E8E8E8"/>
<path d="M122.489 230.095C130.871 237.754 134.851 249.023 135.188 260.076C135.525 271.13 132.527 282.058 128.633 292.5C124.738 302.942 119.921 313.077 116.405 323.637C109.864 343.273 107.941 364.279 111.039 384.615C111.298 386.32 111.958 388.488 109.976 388.914C108.378 389.136 107.774 388.102 107.648 386.987C107.545 391.1 102.59 391.122 102.494 386.661C104.143 388.102 101.39 390.815 99.2999 390.04C97.21 389.266 96.3948 386.909 95.9723 384.819C94.6976 378.527 94.6532 372.076 94.2122 365.68C92.7745 344.737 87.0457 324.082 77.4373 305.202C72.0421 294.601 65.424 284.518 61.2516 273.427C57.0755 262.337 55.5377 249.745 60.4697 238.899C65.3944 228.061 76.2219 221.824 88.3797 222.236C101.138 222.665 112.088 220.598 122.489 230.102V230.095Z" fill="#E8E8E8"/>
<path d="M243.43 297.406C241.733 296.472 240.065 295.472 238.631 294.204C237.119 292.867 235.904 291.266 234.781 289.621C225.969 276.685 223.001 259.291 230.783 245.706C232.261 243.124 234.118 240.697 236.523 238.84C240.262 235.95 245.12 234.605 249.926 234.286C259.156 233.678 268.257 236.609 276.517 240.526C286.544 245.28 295.985 251.754 301.97 260.736C305.79 266.468 308.017 273.287 307.88 280.105C307.736 287.342 304.367 292.666 300.669 298.744C298.064 303.023 296.208 305.732 290.753 306.577C283.353 307.726 275.334 307.163 268.009 305.91C259.378 304.435 251.011 301.578 243.434 297.41L243.43 297.406Z" fill="#CCCCCC"/>
<path d="M336.887 267.265C336.331 278.982 330.55 290.473 321.361 298.136C318.848 300.233 316.073 302.064 313.02 303.257C305.249 306.292 296.526 304.924 288.593 302.66C276.598 299.24 265.041 293.748 256.136 285.233C252.03 281.305 248.547 276.799 245.172 272.249C241.796 267.699 238.465 263 236.671 257.638C234.866 252.236 234.707 246.373 235.47 240.689C236.438 233.493 239.143 226.063 244.946 221.472C251.252 216.481 259.423 211.293 267.401 211.975C281.104 213.15 309.481 215.314 329.161 241.271C334.723 248.604 337.32 258.024 336.883 267.261L336.887 267.265Z" fill="#E8E8E8"/>
<path d="M277.12 184.054C267.027 191.339 258.311 200.34 250.511 209.967C245.461 216.199 240.647 222.98 239.072 230.744C237.497 238.507 239.947 247.47 246.787 251.472C254.343 255.893 264.74 252.78 271.077 246.551C275.238 242.46 278.025 237.306 280.192 232.007C282.323 226.793 282.234 222.954 282.471 217.544C282.727 211.745 282.568 206.017 281.641 200.299C281.4 198.817 277.132 184.05 277.117 184.058L277.12 184.054Z" fill="#E8E8E8"/>
<path d="M72.6609 182.579C73.5947 176.087 78.7379 170.803 84.4 167.027C99.0257 157.267 117.535 154.958 134.584 149.878C145.289 146.687 156.532 141.47 160.975 131.702C165.288 122.224 161.642 110.74 154.242 103.218C146.842 95.6957 136.351 91.5641 125.82 89.048C118.546 87.3101 110.902 86.2392 103.535 87.6547C98.418 88.6367 92.7856 91.8864 92.83 96.8296C92.8634 100.287 95.75 103.118 98.8515 104.926C103.476 107.624 108.853 108.88 114.04 110.414C119.228 111.948 124.497 113.908 128.255 117.625C132.012 121.342 133.85 127.241 131.282 131.799C128.036 137.561 120.003 138.606 113.196 139.58C97.2026 141.87 81.7505 147.58 68.3217 156.166C57.2348 163.255 46.9742 173.297 45.2585 185.847C44.4507 191.747 45.618 197.75 47.619 203.378C50.5204 211.553 55.2597 219.23 61.9593 225.059C68.6589 230.888 77.3965 234.768 86.501 235.149C91.6072 235.364 96.8728 234.445 101.227 231.888C105.584 229.332 108.923 225.018 109.486 220.201C110.035 215.551 107.693 210.811 103.873 207.94C99.4703 204.631 94.3308 205.168 89.0801 204.794C78.9788 204.075 71.3788 191.498 72.6609 182.579Z" fill="#E8E8E8"/>
<path d="M274.923 193.725C264.937 199.091 256.848 207.588 252.238 217.548C256.744 215.562 261.513 214.121 266.397 213.276C269.509 212.738 272.959 212.501 275.586 214.154C275.631 212.961 276.487 211.667 276.535 210.115C276.594 208.218 276.572 206.32 276.461 204.423C276.405 203.434 274.749 193.818 274.923 193.725Z" fill="#E5CAC6"/>
<path d="M340.144 263.604C339.347 255.841 335.942 248.348 330.543 242.483C330.969 242.946 343.027 237.643 344.339 237.158C345.243 236.824 349.163 234.801 349.849 235.542C350.342 236.079 349.134 238.788 349 239.463C347.281 248.134 345.21 256.019 340.148 263.604H340.144Z" fill="#E5CAC6"/>
<path d="M325.889 264.393C325.607 265.071 325.24 265.731 324.788 266.357C321.528 270.885 315.021 272.067 310.255 268.996C307.076 266.946 305.475 263.519 305.735 260.121C303.978 264.334 305.449 269.274 309.555 271.916C314.32 274.987 320.827 273.805 324.088 269.277C325.174 267.773 325.763 266.087 325.889 264.393Z" fill="#E9F1F4"/>
<path d="M323.999 269.614C320.738 274.143 314.231 275.325 309.466 272.253C304.701 269.181 303.485 263.022 306.746 258.494C310.007 253.966 316.518 252.784 321.279 255.856C326.045 258.928 327.26 265.086 323.999 269.614Z" fill="white"/>
<path d="M309.273 272.523C304.36 269.359 303.1 262.982 306.465 258.313C309.829 253.644 316.562 252.421 321.476 255.585C326.389 258.75 327.649 265.127 324.284 269.796C320.92 274.465 314.187 275.688 309.273 272.523ZM321.087 256.123C316.484 253.158 310.181 254.303 307.028 258.676C303.878 263.048 305.056 269.018 309.659 271.986C314.261 274.95 320.564 273.805 323.717 269.433C326.867 265.06 325.689 259.091 321.087 256.123Z" fill="#E0BA99"/>
<path d="M321.316 268.362C319.182 271.326 314.924 272.097 311.804 270.089C308.688 268.08 307.891 264.049 310.026 261.084C312.16 258.12 316.418 257.349 319.538 259.358C322.654 261.366 323.451 265.398 321.316 268.362Z" fill="#6B8C96"/>
<path d="M312.345 269.581C314.131 268.406 315.858 267.113 317.24 265.524C318.626 263.934 319.656 262.018 319.882 259.973C319.908 259.991 318.941 260.158 318.871 260.18C318.382 260.336 317.896 260.866 317.518 261.192C316.662 261.933 315.888 262.756 315.206 263.641C314.524 264.527 313.935 265.479 313.453 266.476C313.205 266.991 312.983 267.521 312.79 268.062C312.697 268.318 312.542 269.451 312.338 269.585L312.345 269.581Z" fill="#30211F"/>
<path d="M310.767 261.996C310.67 262.192 310.585 262.4 310.574 262.618C310.563 262.833 310.633 263.063 310.807 263.204C311.067 263.411 311.471 263.363 311.76 263.189C312.049 263.015 312.249 262.744 312.468 262.492C313.049 261.829 313.79 261.292 314.62 260.936C316.021 260.336 314.242 259.517 313.401 259.81C312.275 260.199 311.263 260.958 310.767 261.996Z" fill="white"/>
<path d="M316.092 260.362C316.288 260.536 316.581 260.591 316.847 260.562C317.118 260.532 317.37 260.425 317.611 260.306C317.737 260.243 317.881 260.143 317.855 260.01C317.848 259.962 317.818 259.921 317.785 259.884C317.5 259.55 316.77 259.265 316.31 259.409C315.873 259.543 315.743 260.054 316.092 260.362Z" fill="white"/>
<path d="M283.242 233.645C282.96 234.323 282.594 234.983 282.142 235.609C278.881 240.137 272.374 241.319 267.608 238.247C264.429 236.198 262.828 232.77 263.088 229.372C261.331 233.586 262.802 238.525 266.908 241.167C271.673 244.239 278.18 243.057 281.441 238.529C282.527 237.024 283.116 235.338 283.242 233.645Z" fill="#E9F1F4"/>
<path d="M281.352 238.866C278.091 243.394 271.584 244.576 266.819 241.504C262.054 238.432 260.838 232.274 264.099 227.746C267.36 223.218 273.871 222.036 278.632 225.107C283.398 228.179 284.613 234.338 281.352 238.866Z" fill="white"/>
<path d="M266.626 241.775C261.713 238.61 260.453 232.233 263.818 227.564C267.182 222.895 273.915 221.672 278.829 224.837C283.742 228.005 285.002 234.379 281.638 239.048C278.273 243.717 271.54 244.939 266.626 241.775ZM278.44 225.374C273.837 222.41 267.534 223.555 264.381 227.927C261.231 232.3 262.41 238.269 267.012 241.238C271.614 244.202 277.917 243.057 281.071 238.684C284.22 234.312 283.042 228.342 278.44 225.374Z" fill="#E0BA99"/>
<path d="M278.669 237.614C276.535 240.578 272.277 241.349 269.157 239.34C266.041 237.332 265.244 233.3 267.379 230.336C269.513 227.371 273.771 226.601 276.891 228.609C280.007 230.618 280.804 234.649 278.669 237.614Z" fill="#6B8C96"/>
<path d="M269.698 238.833C271.484 237.654 273.211 236.365 274.593 234.775C275.979 233.185 277.009 231.27 277.239 229.224C277.265 229.243 276.298 229.41 276.228 229.432C275.738 229.587 275.253 230.117 274.875 230.443C274.019 231.184 273.245 232.007 272.563 232.893C271.881 233.778 271.292 234.731 270.81 235.727C270.562 236.242 270.339 236.772 270.147 237.313C270.054 237.569 269.898 238.703 269.695 238.836L269.698 238.833Z" fill="#30211F"/>
<path d="M268.12 231.247C268.024 231.444 267.938 231.651 267.927 231.87C267.916 232.085 267.986 232.315 268.161 232.455C268.42 232.663 268.824 232.615 269.113 232.441C269.402 232.266 269.602 231.996 269.821 231.744C270.402 231.081 271.147 230.543 271.977 230.188C273.378 229.587 271.599 228.768 270.758 229.061C269.632 229.45 268.62 230.21 268.124 231.247H268.12Z" fill="white"/>
<path d="M273.445 229.613C273.641 229.787 273.934 229.843 274.201 229.813C274.467 229.784 274.723 229.676 274.96 229.558C275.086 229.495 275.231 229.395 275.205 229.261C275.197 229.213 275.168 229.172 275.134 229.135C274.849 228.802 274.119 228.516 273.66 228.661C273.222 228.794 273.093 229.306 273.441 229.613H273.445Z" fill="white"/>
<path d="M289.805 258.053C290.283 258.52 290.649 259.15 290.575 259.798C290.516 260.291 290.212 260.725 289.853 261.084C288.73 262.2 287.085 262.685 285.484 262.933C283.883 263.185 282.238 263.245 280.693 263.715C279.94 261.996 279.362 260.21 278.97 258.387C278.803 257.612 278.673 256.819 278.799 256.037C278.929 255.259 279.351 254.255 280.074 253.862C280.874 253.429 283.516 253.166 284.75 255.015C285.162 255.633 285.573 256.193 285.602 256.908C287.044 256.512 288.782 257.049 289.808 258.053H289.805Z" fill="#593E39"/>
<path d="M267.449 266.869C267.597 266.743 267.805 266.769 267.942 266.891C269.424 268.221 271.425 269.181 273.508 269.136C275.787 269.092 277.706 267.676 279.021 266.002C279.118 265.876 279.214 265.75 279.307 265.624C279.336 265.549 279.37 265.472 279.399 265.398C280.018 263.938 280.789 262.541 281.701 261.225C281.949 260.869 282.534 261.221 282.29 261.577C282.153 261.777 282.016 261.977 281.886 262.181C281.986 262.289 281.99 262.444 281.919 262.574C281.315 263.708 280.693 264.857 279.937 265.905C279.54 266.88 279.214 267.88 278.966 268.896C278.825 269.481 278.721 270.092 278.781 270.693C278.84 271.271 279.036 271.834 279.27 272.368C279.755 273.472 280.43 274.495 281.26 275.391C282.197 276.403 283.312 277.244 284.569 277.881C284.735 277.967 284.772 278.193 284.676 278.337C284.569 278.497 284.361 278.526 284.194 278.441C281.86 277.259 279.94 275.336 278.829 273.057C278.547 272.483 278.299 271.879 278.169 271.256C278.036 270.626 278.054 269.989 278.165 269.355C278.277 268.707 278.443 268.066 278.643 267.428C278.199 267.873 277.706 268.277 277.161 268.632C276.172 269.274 275.045 269.681 273.849 269.77C272.752 269.855 271.636 269.655 270.621 269.277C269.432 268.833 268.357 268.158 267.431 267.328C267.293 267.206 267.323 266.976 267.457 266.861L267.449 266.869Z" fill="#593E39"/>
<path d="M89.3098 205.942C88.4353 204.171 88.1722 202.167 88.2982 200.21C88.3945 198.731 88.7058 197.286 89.1986 195.893C103.413 185.555 121.659 180.33 139.627 180.393C150.103 180.43 160.467 182.164 170.42 185.217C171.335 187.204 173.636 188.645 175.434 189.823C179.439 192.462 184.034 194.374 187.41 197.794C192.142 202.589 193.635 209.518 193.735 216.096C193.78 219.038 193.576 222.039 192.46 224.792C191.371 227.479 189.44 229.828 187.102 231.674C181.344 236.224 172.988 237.591 165.977 235.153C160.33 233.189 155.839 229.08 151.863 224.811C147.887 220.542 144.192 215.947 139.39 212.523C134.588 209.1 128.344 206.936 122.504 208.37C117.687 209.552 113.729 213.001 108.89 214.098C104.288 215.14 99.3777 213.891 95.3127 211.623C92.8374 210.241 90.5289 208.407 89.3135 205.942H89.3098Z" fill="#E2881B"/>
<path d="M220.337 337.218C221.612 334.42 223.213 331.637 223.357 328.599C223.602 323.445 219.652 318.942 218.936 313.832C218.621 311.587 218.955 309.264 219.892 307.177C220.659 305.465 221.945 303.831 223.798 303.22C227.218 302.09 230.794 304.995 231.98 308.226C233.166 311.457 232.843 315.011 233.521 318.372C234.014 320.806 235.53 322.366 236.86 324.126C236.167 327.658 235.659 331.237 235.193 334.835C233.525 347.668 231.869 360.678 232.747 373.51C231.602 372.98 230.583 372.131 229.916 371.112C228.36 368.722 228.241 365.758 228.204 362.945C228.163 360.133 228.122 357.18 226.681 354.727C224.75 351.443 220.608 349.576 219.214 346.056C218.088 343.21 219.062 340.016 220.337 337.218Z" fill="#E2881B"/>
<path d="M60.7662 273.446C58.9764 268.692 57.6758 263.663 57.157 258.613C62.4003 255.752 68.0253 253.429 74.0616 254.551C79.4198 255.548 83.7219 259.295 87.168 263.304C90.6104 267.313 93.5526 271.778 97.6991 275.136C101.119 277.904 105.377 279.942 107.708 283.588C110.998 288.735 109.405 295.442 106.718 300.919C104.032 306.395 100.3 311.587 99.3888 317.556C98.707 322.014 99.5778 326.909 97.0877 330.756C95.309 333.498 91.8592 335.132 88.4946 335.013C85.6747 324.756 81.8098 314.759 76.9556 305.217C71.5603 294.616 64.9423 284.533 60.7699 273.442L60.7662 273.446Z" fill="#E2881B"/>
<path d="M279.277 247.092C278.536 245.514 279.47 243.639 280.774 242.427C282.079 241.215 283.746 240.389 285.028 239.148C287.27 236.98 288.07 233.575 287.007 230.721C286.121 228.353 284.098 226.419 283.587 223.951C283.123 221.717 283.987 219.419 285.076 217.381C285.562 216.474 286.106 215.577 286.714 214.732C293.884 216.359 301.77 219.03 309.477 223.629C308.34 225.797 308.521 228.746 309.507 231.04C310.163 232.57 311.2 233.934 311.815 235.479C312.86 238.106 312.564 241.186 311.03 243.602C309.496 246.014 306.757 247.711 303.815 248.071C299.32 248.623 294.792 246.229 290.357 247.103C288.363 247.496 286.558 248.526 284.565 248.93C282.575 249.334 280.107 248.849 279.281 247.092H279.277Z" fill="#494C56"/>
<path d="M133.435 207.128C138.134 208.266 142.477 211.234 144.355 215.469C145.749 218.612 145.726 222.165 146.857 225.4C148.909 231.27 154.731 236.224 153.964 242.379C153.352 247.289 148.443 250.924 143.351 252.002C138.256 253.08 132.968 252.173 127.829 251.372C122.689 250.572 117.312 249.897 112.34 251.405C106.515 253.173 101.542 257.842 95.435 257.72C89.647 257.605 84.8521 252.917 83.1327 247.685C81.4133 242.453 82.1396 236.795 83.1401 231.385C84.0442 226.508 85.1559 221.665 86.4788 216.874C87.5089 213.135 88.9652 209.055 92.5262 207.169C96.58 205.02 101.586 206.583 105.966 208.006C110.561 209.5 114.1 209.759 118.613 208.199C123.341 206.565 128.444 205.917 133.435 207.125V207.128Z" fill="#494C56"/>
<path d="M217.465 219.783C216.743 221.669 216.613 223.747 217.091 225.697C217.61 227.812 218.84 229.873 218.481 232.022C218.003 234.875 214.323 236.765 211.507 235.676C208.528 234.523 207.357 231.118 207.049 228.079C206.742 225.041 206.893 221.784 205.211 219.186C204.274 217.737 202.854 216.644 201.598 215.436C200.342 214.224 199.19 212.772 199.03 211.075C198.871 209.381 200.086 207.48 201.88 207.369C203.84 207.247 204.859 208.94 206.404 209.692C208.161 210.552 210.058 210.441 211.837 211.175C215.29 212.598 218.836 216.21 217.469 219.786L217.465 219.783Z" fill="#494C56"/>
<path d="M128.221 117.625C124.464 113.908 119.199 111.948 114.007 110.414C108.819 108.88 103.443 107.624 98.8182 104.926C95.7166 103.118 92.83 100.283 92.7967 96.8296C92.7485 91.8865 98.3846 88.6367 103.502 87.6547C110.869 86.2429 118.513 87.3101 125.787 89.048C135.103 91.275 144.381 94.7656 151.522 100.743C151.374 101.506 151.022 102.214 150.421 102.762C148.895 104.155 146.497 104.037 144.478 104.645C140.865 105.73 138.464 109.625 139.245 113.13C139.638 114.894 140.705 116.447 141.413 118.122C142.117 119.796 142.421 121.823 141.35 123.324C140.735 124.184 139.749 124.747 138.73 125.132C136.703 125.896 134.539 126.04 132.364 125.851C132.016 122.831 130.456 119.841 128.218 117.629L128.221 117.625Z" fill="#494C56"/>
<path d="M268.946 254.896C264.792 249.927 259.916 245.584 254.554 241.953C249.159 238.299 243.271 235.375 237.108 233.26C233.573 232.044 229.946 231.107 226.266 230.443C225.669 230.336 225.414 231.247 226.014 231.355C232.436 232.507 238.698 234.519 244.586 237.332C250.4 240.111 255.862 243.65 260.727 247.878C263.44 250.238 265.967 252.806 268.275 255.563C268.668 256.03 269.332 255.359 268.942 254.896H268.946Z" fill="#593E39"/>
<path d="M265.997 257.597C260.527 253.899 254.587 250.927 248.373 248.704C242.074 246.451 235.5 244.984 228.845 244.313C225.088 243.935 221.304 243.824 217.528 243.976C216.921 244.002 216.917 244.947 217.528 244.921C224.176 244.654 230.846 245.214 237.357 246.577C243.771 247.922 250.033 250.031 255.932 252.888C259.256 254.496 262.461 256.341 265.522 258.413C266.026 258.754 266.5 257.935 266 257.594L265.997 257.597Z" fill="#593E39"/>
<path d="M265.489 261.507C259.745 259.965 253.842 259.024 247.906 258.683C241.981 258.342 236.03 258.602 230.16 259.45C226.822 259.932 223.513 260.61 220.252 261.473C219.663 261.629 219.915 262.541 220.504 262.385C226.207 260.869 232.061 259.939 237.953 259.617C243.815 259.295 249.718 259.547 255.525 260.406C258.8 260.892 262.043 261.562 265.241 262.422C265.83 262.581 266.082 261.666 265.493 261.51L265.489 261.507Z" fill="#593E39"/>
<path d="M299.606 272.89C301.61 273.212 303.496 273.968 305.338 274.798C307.109 275.595 308.877 276.41 310.637 277.233C314.079 278.845 317.496 280.52 320.809 282.384C327.356 286.071 333.426 290.562 338.188 296.428C340.789 299.633 342.968 303.175 344.669 306.933C344.921 307.485 345.736 307.007 345.484 306.455C342.393 299.633 337.713 293.582 331.959 288.794C326.048 283.877 319.212 280.249 312.293 276.97C310.326 276.036 308.343 275.128 306.361 274.228C304.267 273.275 302.14 272.345 299.854 271.975C299.257 271.879 299.002 272.79 299.602 272.886L299.606 272.89Z" fill="#593E39"/>
<path d="M295.341 277.3C298.824 278.182 301.899 280.101 304.66 282.354C307.584 284.74 310.315 287.405 312.971 290.084C315.688 292.822 318.248 295.716 320.494 298.858C322.624 301.841 324.499 305.01 326.082 308.319C327.853 312.02 329.242 315.9 330.239 319.88C330.387 320.469 331.299 320.221 331.151 319.628C329.342 312.398 326.219 305.506 321.998 299.362C319.804 296.168 317.311 293.204 314.62 290.417C311.889 287.59 309.044 284.822 306.042 282.28C302.967 279.675 299.546 277.389 295.593 276.388C295.003 276.24 294.751 277.151 295.341 277.3Z" fill="#593E39"/>
<path d="M293.147 281.594C297.92 285.311 301.888 289.973 304.942 295.186C308.232 300.804 310.411 307.007 311.678 313.38C312.43 317.156 312.857 320.991 313.034 324.838C313.064 325.446 314.009 325.449 313.979 324.838C313.661 317.938 312.538 311.046 310.259 304.513C308.199 298.606 305.194 293.041 301.232 288.19C299.039 285.5 296.552 283.058 293.814 280.924C293.34 280.553 292.665 281.22 293.143 281.594H293.147Z" fill="#593E39"/>
</svg>
