<svg width="400" height="400" viewBox="0 0 400 400" fill="none" xmlns="http://www.w3.org/2000/svg">
<ellipse cx="178.5" cy="393.5" rx="119.5" ry="6.5" fill="#7295A0"/>
<path d="M271.482 246.814C276.379 240.146 274.803 230.669 271.191 223.227C267.579 215.785 262.182 209.207 259.537 201.37C256.195 191.465 257.784 180.029 263.693 171.41C269.526 162.9 278.963 157.487 288.679 154.012C298.394 150.537 308.625 148.731 318.501 145.752C327.64 142.994 336.476 139.225 344.793 134.541C349.961 131.631 355.157 128.119 357.821 122.818C360.486 117.517 359.615 110.023 354.512 107C370.766 116.614 378.925 136.557 378.405 155.435C378.235 161.598 377.215 167.879 374.228 173.273C370.036 180.839 362.348 185.935 354.246 188.954C346.143 191.973 337.5 193.183 329.007 194.811C324.419 195.69 319.735 196.75 315.857 199.346C310.838 202.708 307.722 208.304 305.843 214.044C303.969 219.784 303.159 225.815 301.671 231.668C298.93 242.452 293.851 252.635 286.885 261.31C282.289 267.034 275.96 272.464 268.631 272.033C267.539 271.968 266.41 271.75 265.531 271.097C264.737 270.505 264.225 269.606 263.85 268.687C261.754 263.583 263.286 257.726 265.507 252.679C267.733 247.632 270.667 242.762 271.457 237.304L271.486 246.809L271.482 246.814Z" fill="#E8E8E8"/>
<path d="M358.861 109.685C365.247 119.561 368.347 131.844 368.02 143.708C367.851 149.872 366.831 156.152 363.844 161.546C359.652 169.112 351.964 174.208 343.861 177.227C335.755 180.247 327.116 181.456 318.622 183.085C314.035 183.963 309.35 185.024 305.472 187.62C300.454 190.982 297.334 196.577 295.459 202.317C293.585 208.058 292.774 214.088 291.287 219.942C288.546 230.725 283.466 240.908 276.5 249.583C272.969 253.981 268.414 258.206 263.169 259.729C262.649 262.68 262.722 265.655 263.855 268.413C264.233 269.332 264.741 270.227 265.536 270.823C266.414 271.48 267.543 271.694 268.636 271.758C275.964 272.19 282.293 266.756 286.889 261.036C293.855 252.36 298.934 242.178 301.675 231.394C303.163 225.541 303.973 219.51 305.847 213.77C307.722 208.029 310.842 202.434 315.861 199.072C319.743 196.472 324.427 195.416 329.011 194.537C337.504 192.909 346.147 191.699 354.25 188.68C362.352 185.66 370.044 180.561 374.232 172.999C377.219 167.605 378.239 161.324 378.409 155.161C378.884 138.048 372.221 120.065 358.865 109.689L358.861 109.685Z" fill="#D8D8D8"/>
<path d="M202.145 283.272C201.786 292.471 205.007 301.23 209.381 309.091C212.578 314.844 216.444 320.278 221.358 324.744C227.175 330.037 234.302 333.843 241.147 337.926C250.697 343.622 259.908 350.028 266.93 358.377C273.949 366.725 278.665 377.23 278.286 388.34C278.222 390.231 278.044 392.263 279.072 393.803C280.1 395.342 281.938 395.435 283.269 393.399C283.015 394.911 283.736 395.774 284.865 396.06C287.191 396.032 288.098 394.778 288.356 392.561C288.634 393.682 289.207 395.064 290.146 394.947C291.77 394.625 292.424 392.9 293.028 391.412C295.39 385.611 295.499 381.834 295.274 376.323C294.621 360.432 292.919 344.658 290.186 329.122C287.715 315.07 284.397 301.206 280.056 287.698C276.428 276.406 271.703 264.857 262.081 257.678C241.34 242.21 203.242 255.279 202.149 283.263L202.145 283.272Z" fill="#D8D8D8"/>
<path d="M54.0234 330.319C56.2406 339.672 62.505 347.601 69.7168 353.95C71.8574 355.833 74.5301 357.719 77.3116 357.107C77.759 355.885 77.755 354.503 77.2995 353.285C78.6378 354.797 81.0767 355.192 82.8262 354.18C82.4917 353.394 82.153 352.608 81.8184 351.822C82.0119 353.221 84.1767 353.587 85.1321 352.543C86.0875 351.499 85.9141 349.79 85.1482 348.601C84.3863 347.412 83.1689 346.601 82.0321 345.759C78.5814 343.203 75.4814 339.914 74.1753 335.826C72.8652 331.738 73.7158 326.768 77.0334 324.047C82.149 319.846 90.7112 322.257 95.5325 317.722C98.6486 314.791 98.9913 309.736 97.3062 305.806C94.7182 299.771 87.3976 293.902 80.9679 292.612C75.2113 291.455 72.4177 294.289 68.6365 298.122C59.1874 307.705 50.4881 315.392 54.0275 330.319H54.0234Z" fill="#E8E8E8"/>
<path d="M63.9805 281.929C67.0119 294.615 71.4785 307.193 79.2667 317.166C88.482 328.969 101.809 336.314 115.62 339.902C129.431 343.489 143.802 343.574 157.98 342.772C184.311 341.284 210.498 336.802 235.987 329.416C244.823 326.857 253.72 323.874 261.327 318.335C278.016 306.177 285.97 282.949 285.107 261.048C284.817 253.695 283.422 245.866 278.637 240.686C275.863 237.683 272.211 235.869 268.547 234.406C247.053 225.815 223.446 227.48 200.581 228.528C177.716 229.58 153.771 229.657 133.337 218.394C126.581 214.673 120.332 209.763 113.189 207.046C102.821 203.103 90.9289 204.244 81.3468 210.102C58.236 224.227 58.0748 257.202 63.9845 281.929H63.9805Z" fill="#E8E8E8"/>
<path d="M226.074 314.606C224.164 316.541 222.241 318.488 220.04 320.088C216.48 322.676 212.308 324.285 208.099 325.571C201.964 327.449 195.651 328.703 189.334 329.82C177.894 331.839 166.381 333.415 154.863 334.939C150.203 335.556 145.338 336.237 141.476 338.922C140.017 339.938 138.751 341.341 137.743 342.965C144.898 343.348 152.102 343.171 159.257 342.768C185.589 341.28 211.78 336.798 237.265 329.412C237.281 329.408 237.301 329.4 237.317 329.396C241.115 319.568 241.139 308.378 239.466 297.86C236.249 304.274 231.121 309.494 226.082 314.602L226.074 314.606Z" fill="#D8D8D8"/>
<path d="M55.261 243.504C53.9025 254.436 56.3535 265.804 62.0939 275.205C62.4244 271.202 63.8595 267.3 66.2057 264.039C64.6899 271.545 67.9955 279.329 72.8813 285.223C77.7671 291.116 84.1364 295.555 90.0743 300.388C96.0122 305.221 101.745 310.744 104.631 317.835C109.964 304.012 120.804 291.967 121.844 277.188C123.977 281.502 125.109 286.307 125.129 291.116C129.274 284.344 133.418 277.571 137.562 270.799C138.799 273.234 139.521 275.927 139.662 278.652C148.2 268.61 154.464 256.65 157.855 243.915C158.995 239.634 159.818 235.159 159.153 230.782C158.101 223.86 153.368 217.89 147.535 214.012C141.706 210.134 134.849 208.102 128.004 206.631C111.178 203.007 92.5898 202.261 76.2715 208.541C63.9925 213.262 56.7727 231.318 55.257 243.508L55.261 243.504Z" fill="#D8D8D8"/>
<path d="M55.3859 151.887C52.6568 155.249 50.0688 158.785 48.3797 162.771C46.4045 167.435 45.7353 172.535 45.1427 177.566C44.0623 186.765 43.2239 196.311 46.1626 205.095C48.8393 213.085 54.5112 219.837 61.2553 224.892C80.2221 239.11 106.441 239.952 129.374 233.954C141.883 230.681 154.17 225.404 163.579 216.535C172.988 207.663 179.184 194.787 177.861 181.924C177.285 176.336 175.354 170.971 172.992 165.875C171.057 161.699 168.795 157.628 165.76 154.165C163.099 151.129 159.894 148.618 156.581 146.308C134.865 131.167 97.8303 119.279 73.6674 134.888C66.645 139.423 60.6305 145.421 55.3819 151.887H55.3859Z" fill="#E8E8E8"/>
<path d="M31.211 173.825C32.7549 174.119 34.2948 174.413 35.8388 174.708C27.0589 184.205 21.7135 196.819 21 209.735C22.2214 205.82 26.0591 202.87 30.1548 202.7C24.9022 212.911 24.0516 225.291 27.853 236.123C28.8931 232.39 30.8361 228.915 33.4684 226.069C33.4564 227.569 33.4443 229.064 33.4322 230.564C37.6044 225.771 44.6429 224.493 50.9517 225.259C57.2605 226.025 63.2226 228.484 69.4024 229.967C75.5822 231.451 82.4312 231.87 87.9781 228.778C91.5336 226.795 94.2184 223.55 96.4033 220.115C102.502 210.529 105.272 198.726 103.325 187.531C101.382 176.34 94.5489 165.936 84.6725 160.324C75.7757 155.269 63.404 154.048 54.0194 158.652C45.5862 162.792 40.7971 170.931 31.207 173.817L31.211 173.825Z" fill="#E8E8E8"/>
<path d="M175.209 159.131C173.617 160.437 171.702 161.248 169.726 161.449C174.749 163.017 178.502 167.577 181.651 172.18C189.677 183.915 195.683 197.331 199.251 211.5C196.743 208.497 193.414 206.34 189.818 205.385C191.035 208.03 192.253 210.674 193.47 213.314C187.693 211.061 181.497 210.13 175.39 210.593C178.107 213.846 180.599 217.329 182.84 221.002C178.019 217.741 171.867 217.878 166.405 219.486C160.942 221.095 155.879 224.021 150.558 226.125C141.589 229.673 131.507 230.794 122.582 227.121C111.79 222.683 103.805 211.275 101.902 198.717C99.9991 186.164 103.942 172.865 111.657 163.42C119.095 154.31 130.983 147.832 142.044 146.437C153.545 144.99 164.22 156.555 175.213 159.135L175.209 159.131Z" fill="#E8E8E8"/>
<path d="M47.9202 145.103C47.9202 141.721 47.9202 138.302 48.7265 135.021C48.8756 134.416 49.061 133.799 49.4642 133.332C50.3873 132.259 52.0522 132.332 53.4429 132.598C60.1992 133.888 66.2661 137.552 71.7808 141.664C74.6752 143.821 77.7228 146.651 77.6462 150.259C77.5938 152.722 76.0659 154.874 74.5422 156.813C70.2651 162.255 60.558 173.627 52.3424 170.052C44.8404 166.786 47.9242 151.399 47.9242 145.111L47.9202 145.103Z" fill="#E8E8E8"/>
<path d="M150.832 134.287C150.361 130.941 149.877 127.555 148.619 124.419C148.389 123.842 148.119 123.258 147.652 122.851C146.587 121.919 144.947 122.226 143.608 122.681C137.102 124.911 131.608 129.389 126.726 134.235C124.166 136.778 121.546 140.007 122.126 143.567C122.525 145.998 124.343 147.917 126.121 149.618C131.124 154.403 142.331 164.299 149.962 159.603C156.931 155.314 151.711 140.515 150.832 134.287Z" fill="#E8E8E8"/>
<path d="M51.9433 142.664C52.0038 141.842 52.1287 140.926 52.7697 140.414C53.6848 139.685 55.0312 140.201 56.0229 140.822C58.2602 142.22 60.2234 144.055 61.7673 146.191C62.0011 146.514 62.2309 146.856 62.2833 147.251C62.3357 147.654 62.1986 148.058 62.0495 148.437C61.1142 150.863 59.8041 153.141 58.1957 155.181C57.5063 156.055 53.9307 160.651 52.685 160.312C51.5362 159.998 51.7861 153.621 51.7458 152.496C51.6289 149.219 51.6974 145.937 51.9433 142.668V142.664Z" fill="#E5CAC6"/>
<path d="M142.036 127.099C142.56 126.753 143.153 126.414 143.778 126.495C144.765 126.62 145.31 127.684 145.62 128.627C147.196 133.432 147.007 138.617 146.797 143.672C145.757 144.297 144.423 143.93 143.294 143.486C140.69 142.458 138.223 141.088 135.969 139.427C135.054 138.75 133.409 137.568 133.454 136.274C133.49 135.101 135.042 133.767 135.756 132.929C137.61 130.748 139.642 128.692 142.032 127.104L142.036 127.099Z" fill="#E5CAC6"/>
<path d="M61.8963 172.257C61.7633 173.248 61.7391 174.268 61.8318 175.308C62.5091 182.802 69.1363 188.329 76.6343 187.652C81.637 187.2 85.7609 184.096 87.7523 179.852C86.9259 186.019 81.9313 191.018 75.4734 191.602C67.9794 192.28 61.3521 186.753 60.6709 179.259C60.4451 176.768 60.9047 174.369 61.8963 172.257Z" fill="#E9F1F4"/>
<path d="M60.5419 179.719C61.2191 187.212 67.8464 192.739 75.3444 192.062C82.8383 191.385 88.3651 184.757 87.6879 177.259C87.0106 169.766 80.3834 164.239 72.8854 164.916C65.3914 165.593 59.8646 172.221 60.5419 179.719Z" fill="white"/>
<path d="M60.0984 179.759C59.397 172.031 65.1172 165.174 72.845 164.473C80.5728 163.771 87.4298 169.491 88.1313 177.219C88.8327 184.947 83.1124 191.804 75.3847 192.505C67.6569 193.207 60.7998 187.487 60.0984 179.759ZM60.9893 179.678C61.6464 186.918 68.0681 192.272 75.304 191.619C82.5441 190.961 87.8975 184.54 87.2404 177.304C86.5833 170.064 80.1616 164.71 72.9256 165.367C65.6856 166.025 60.3322 172.446 60.9893 179.682V179.678Z" fill="#E0BA99"/>
<path d="M64.448 179.908C64.8915 184.814 69.229 188.43 74.135 187.986C79.0409 187.543 82.6569 183.205 82.2135 178.3C81.77 173.394 77.4325 169.778 72.5265 170.221C67.6206 170.664 64.0046 175.002 64.448 179.908Z" fill="#6B8C96"/>
<path d="M73.8568 187.031C72.6112 184.491 71.5067 181.851 70.9987 179.069C70.4868 176.288 70.5996 173.337 71.7122 170.737C71.6679 170.745 72.6596 171.551 72.7241 171.624C73.1756 172.12 73.3771 173.063 73.5867 173.688C74.0665 175.115 74.397 176.594 74.5784 178.086C74.7598 179.581 74.7921 181.093 74.6711 182.593C74.6107 183.371 74.5059 184.145 74.3607 184.915C74.2922 185.282 73.7117 186.741 73.8528 187.027L73.8568 187.031Z" fill="#30211F"/>
<path d="M80.7501 178.928C80.726 179.227 80.6856 179.529 80.5526 179.795C80.4196 180.061 80.1858 180.295 79.8915 180.351C79.4561 180.44 79.0248 180.126 78.8152 179.735C78.6055 179.344 78.5572 178.892 78.4766 178.457C78.2589 177.292 77.7711 176.179 77.0656 175.228C75.8724 173.623 78.4524 173.764 79.2143 174.643C80.2382 175.824 80.8791 177.372 80.7542 178.932L80.7501 178.928Z" fill="white"/>
<path d="M75.7757 173.603C75.433 173.688 75.0662 173.571 74.78 173.365C74.4938 173.16 74.2761 172.87 74.0826 172.575C73.9818 172.422 73.8851 172.208 74.002 172.063C74.0423 172.011 74.1068 171.983 74.1672 171.958C74.7195 171.737 75.7394 171.858 76.1707 172.321C76.5779 172.761 76.3844 173.454 75.7797 173.603H75.7757Z" fill="white"/>
<path d="M121.812 168.532C121.671 169.576 121.647 170.656 121.743 171.749C122.461 179.65 129.447 185.479 137.348 184.762C142.625 184.286 146.97 181.013 149.071 176.538C148.2 183.04 142.935 188.309 136.127 188.926C128.225 189.643 121.239 183.814 120.522 175.913C120.284 173.285 120.772 170.761 121.816 168.532H121.812Z" fill="#E9F1F4"/>
<path d="M120.381 176.401C121.094 184.302 128.084 190.131 135.985 189.414C143.887 188.696 149.716 181.71 148.998 173.809C148.281 165.908 141.295 160.079 133.393 160.796C125.492 161.514 119.663 168.5 120.381 176.401Z" fill="white"/>
<path d="M119.913 176.441C119.175 168.294 125.206 161.062 133.353 160.324C141.5 159.587 148.732 165.617 149.47 173.764C150.207 181.911 144.177 189.143 136.03 189.881C127.883 190.619 120.651 184.588 119.913 176.441ZM120.852 176.357C121.542 183.988 128.314 189.635 135.945 188.942C143.576 188.253 149.224 181.48 148.53 173.849C147.841 166.218 141.069 160.57 133.438 161.264C125.807 161.953 120.159 168.725 120.852 176.357Z" fill="#E0BA99"/>
<path d="M124.497 176.602C124.964 181.774 129.536 185.588 134.708 185.116C139.88 184.649 143.693 180.077 143.221 174.905C142.754 169.733 138.182 165.92 133.01 166.391C127.838 166.859 124.025 171.43 124.497 176.602Z" fill="#6B8C96"/>
<path d="M134.421 184.112C133.107 181.436 131.946 178.654 131.406 175.72C130.866 172.785 130.983 169.673 132.16 166.936C132.116 166.944 133.16 167.794 133.228 167.871C133.704 168.395 133.917 169.387 134.139 170.048C134.643 171.551 134.994 173.111 135.183 174.684C135.377 176.26 135.409 177.856 135.284 179.436C135.22 180.259 135.111 181.073 134.958 181.883C134.885 182.266 134.272 183.81 134.421 184.112Z" fill="#30211F"/>
<path d="M141.69 175.566C141.665 175.881 141.621 176.199 141.48 176.481C141.339 176.764 141.093 177.006 140.783 177.07C140.323 177.163 139.872 176.828 139.65 176.417C139.428 176.006 139.38 175.526 139.291 175.067C139.061 173.837 138.549 172.664 137.804 171.66C136.546 169.971 139.263 170.12 140.065 171.043C141.145 172.285 141.819 173.922 141.686 175.566H141.69Z" fill="white"/>
<path d="M136.445 169.951C136.082 170.04 135.695 169.919 135.393 169.701C135.091 169.483 134.865 169.181 134.659 168.871C134.55 168.709 134.45 168.484 134.575 168.33C134.619 168.278 134.683 168.246 134.748 168.218C135.328 167.984 136.405 168.113 136.86 168.601C137.288 169.064 137.086 169.794 136.445 169.951Z" fill="white"/>
<path d="M93.6742 210.674C93.7225 210.424 93.9564 210.295 94.1942 210.323C96.7903 210.63 99.6161 210.142 101.72 208.513C104.022 206.727 104.849 203.74 104.845 200.935C104.845 200.725 104.837 200.515 104.828 200.31C104.8 200.205 104.772 200.1 104.744 199.995C104.2 197.952 103.857 195.855 103.732 193.743C103.7 193.171 104.587 193.102 104.619 193.674C104.639 193.997 104.663 194.315 104.691 194.634C104.881 194.674 105.01 194.835 105.042 195.033C105.34 196.714 105.627 198.431 105.699 200.14C106.078 201.495 106.554 202.821 107.122 204.107C107.449 204.849 107.836 205.583 108.388 206.187C108.916 206.768 109.573 207.227 110.242 207.622C111.633 208.445 113.149 209.033 114.729 209.372C116.507 209.751 118.337 209.807 120.135 209.541C120.373 209.505 120.594 209.723 120.611 209.952C120.631 210.206 120.441 210.396 120.199 210.432C116.845 210.936 113.326 210.319 110.343 208.707C109.589 208.3 108.848 207.836 108.211 207.264C107.566 206.683 107.066 205.986 106.671 205.216C106.264 204.43 105.913 203.611 105.606 202.773C105.506 203.591 105.332 204.401 105.058 205.204C104.562 206.647 103.732 207.945 102.579 208.953C101.523 209.876 100.217 210.513 98.8704 210.876C97.2901 211.303 95.6414 211.392 94.0209 211.198C93.783 211.17 93.6258 210.9 93.6701 210.678L93.6742 210.674Z" fill="#593E39"/>
<path d="M109.492 184.145C110.359 184.286 111.246 184.685 111.693 185.443C112.032 186.015 112.072 186.721 111.992 187.382C111.742 189.438 110.444 191.215 109.005 192.703C107.566 194.19 105.929 195.509 104.72 197.194C102.559 195.912 100.519 194.424 98.6445 192.751C97.8504 192.042 97.0724 191.288 96.5725 190.349C96.0726 189.409 95.6978 188.007 96.121 187.031C96.5927 185.955 99.092 183.657 101.849 184.717C102.772 185.072 103.643 185.362 104.252 186.112C105.409 184.588 107.626 183.842 109.492 184.149V184.145Z" fill="#E5CAC6"/>
<path d="M212.667 318.101C213.304 320.802 214.178 323.495 215.759 325.776C217.339 328.058 219.705 329.9 222.446 330.356C227.634 331.218 232.399 326.949 234.673 322.205C237.289 316.746 237.737 310.28 235.894 304.516C234.052 298.751 229.944 293.741 224.647 290.81C208.514 281.877 210.764 310.018 212.667 318.101Z" fill="#D8D8D8"/>
<path d="M217.601 255.098C212.88 262.999 211.514 272.234 211.59 281.232C211.643 287.815 212.433 294.434 214.61 300.71C217.186 308.14 221.62 314.896 225.671 321.757C231.327 331.331 236.35 341.365 238.515 352.056C240.679 362.746 239.792 374.227 234.141 383.801C233.181 385.43 232.053 387.131 232.218 388.973C232.383 390.815 233.951 391.779 236.096 390.63C235.153 391.835 235.37 392.94 236.221 393.73C238.277 394.818 239.672 394.153 240.961 392.331C240.667 393.448 240.51 394.935 241.389 395.282C242.969 395.778 244.368 394.577 245.609 393.561C250.463 389.598 252.366 386.337 254.805 381.391C261.839 367.124 267.898 352.463 272.937 337.515C277.496 323.995 281.221 310.236 283.877 296.3C286.099 284.646 287.481 272.246 282.467 261.338C271.663 237.828 231.96 231.064 217.601 255.106V255.098Z" fill="#E8E8E8"/>
<path d="M157.222 316.936C158.117 320.987 159.012 325.035 159.906 329.086C160.539 331.952 161.152 335.04 159.995 337.733C157.996 342.381 147.785 344.098 150.397 337.108C151.59 333.911 153.844 331.166 155.037 327.905C156.323 324.39 157.073 320.677 157.222 316.932V316.936Z" fill="#D8D8D8"/>
<path d="M105.244 305.004C105.361 310.119 108.88 314.868 111.855 319.508C125.706 341.127 129.185 367.689 116.402 388.336C115.749 389.388 115.043 390.565 115.483 391.747C115.922 392.928 118.2 393.597 118.813 392.533C118.127 393.504 118.704 394.363 119.579 394.867C121.755 395.705 123.074 394.633 123.666 393.057C123.049 393.98 123.34 395.588 124.73 395.609C127.274 395.939 131.837 387.119 134.405 382.402C142.693 367.164 151.034 351.81 155.5 335.342C157.089 329.489 158.181 323.414 157.121 317.339C156.061 311.264 152.614 305.141 146.612 301.295C141.363 297.933 134.768 296.619 128.419 295.397C119.075 293.599 105.006 294.768 105.24 305.012L105.244 305.004Z" fill="#E8E8E8"/>
<path d="M144.947 149.396C143.04 150.444 141.137 151.496 139.235 152.544C146.793 150.146 155.371 151.19 162.128 155.334C157.093 154.092 151.715 154.254 146.765 155.793C150.062 155.785 153.352 156.967 155.891 159.075C153.432 158.523 150.949 157.97 148.43 157.998C145.91 158.027 143.318 158.688 141.399 160.32C141.153 160.53 134.312 158.873 133.256 158.893C130.346 158.95 127.572 159.635 124.888 160.732C127.645 158.083 129.822 155.281 133.252 153.387C136.872 151.387 140.916 150.222 144.947 149.392V149.396Z" fill="#D8D8D8"/>
<path d="M49.2102 165.275C53.3905 162.876 58.1796 161.546 62.9968 161.445C61.8601 160.256 60.3081 159.474 58.6795 159.26C61.3158 159.212 63.9603 159.55 66.504 160.26C63.4483 157.14 59.4373 154.971 55.1562 154.125C61.2836 153.355 67.7053 155.37 72.2928 159.502C73.2038 160.324 74.9493 162.977 75.3806 164.122C74.9654 163.021 71.418 163.904 67.9955 164.404C66.254 164.658 65.0487 166.295 63.3274 166.589C58.6391 167.391 53.6082 163.175 49.2102 165.271V165.275Z" fill="#D8D8D8"/>
</svg>
