<svg width="400" height="400" viewBox="0 0 400 400" fill="none" xmlns="http://www.w3.org/2000/svg">
<g clip-path="url(#clip0_1_401)">
<path d="M0.309601 357.856C-0.644916 363.672 0.491924 368.713 5.34673 372.367C11.0953 376.689 18.4847 379.488 25.4202 381.118C33.8607 383.102 42.5979 383.567 51.2422 383.542C60.891 383.514 70.547 382.988 80.1494 382.098C89.766 381.208 99.3505 379.917 108.864 378.226C117.511 376.689 126.156 374.898 134.507 372.145C142.229 369.6 149.786 366.218 156.293 361.284C158.212 359.829 161.419 357.18 160.708 354.349C160.139 352.082 157.404 351.446 155.42 351.149C151.695 350.595 147.863 350.753 144.113 350.913C133.663 351.36 123.253 352.465 112.789 352.601C108.106 352.662 103.337 352.615 98.7106 351.811C96.4941 351.425 94.2312 350.888 92.2471 349.787C90.6955 348.929 88.1537 347.238 89.1976 345.201C90.0771 343.485 92.6904 342.283 94.3098 341.354C101.624 337.157 109.932 334.969 118.216 333.686C127.121 332.309 136.319 331.798 145.317 332.155C155.006 332.542 163.95 334.729 172.68 338.937C180.302 342.609 187.763 346.409 195.735 349.29C211.476 354.978 228.139 358.092 244.845 358.878C261.722 359.672 278.764 358.063 295.155 353.938C303.202 351.911 311.532 349.508 318.889 345.597C325.217 342.233 331.727 336.406 331.584 328.616C331.441 320.766 323.891 316.54 317.399 314.123C310.166 311.431 302.448 310.019 294.751 309.633C279.418 308.861 263.56 312.221 250.207 319.901C245.427 322.65 235.639 328.08 238.635 334.998C241.377 341.322 250.983 341.382 256.663 340.918C265.715 340.178 274.37 337.332 282.993 334.669C292.07 331.862 301.268 329.621 310.692 328.33C327.727 325.996 346.946 325.306 363.14 332.016C370.162 334.926 378.716 340.228 380.264 348.314C381.827 356.483 373.44 361.338 367.041 363.883C359.233 366.99 350.846 368.978 342.641 370.704C333.808 372.563 324.842 373.822 315.818 374.208C297.815 374.976 280.287 371.906 264.217 363.587C248.523 355.461 234.023 344.428 216.341 340.911C202.721 338.201 184.896 340.21 176.144 352.386C174.01 355.353 172.784 359.071 174.364 362.568C175.765 365.667 178.733 367.769 181.804 369.024C185.818 370.661 190.308 370.783 194.577 370.511C199.428 370.2 204.265 369.535 209.095 369.006C228.925 366.829 248.752 364.656 268.582 362.478C278.417 361.399 288.252 360.283 298.094 359.247C307.385 358.267 316.937 357.438 326.204 359.079C328.638 359.508 337.458 360.659 335.906 364.734C334.523 368.366 328.946 370.29 325.714 371.752C317.967 375.252 309.734 377.651 301.39 379.241C264.918 386.191 228.196 377.601 192.571 370.054C158.08 362.747 121.73 356.43 86.9525 365.757C79.1412 367.852 71.1977 370.694 64.2014 374.805C61.6704 376.292 59.1715 378.873 60.5228 382.012C61.6918 384.733 64.9629 386.109 67.6227 386.86C71.4765 387.95 75.7057 388.054 79.6846 388.229C84.1426 388.422 88.6078 388.372 93.0657 388.154C102.082 387.711 111.048 386.595 119.992 385.408C137.624 383.067 155.506 380.282 173.324 382.098C177.535 382.527 182.297 382.92 186.254 384.518C187.502 385.022 190.355 386.302 189.272 387.982C188.239 389.584 184.892 390.599 183.212 391.353C175.519 394.793 166.628 397.459 158.13 397.363C154.82 397.327 151.259 396.891 148.349 395.204C147.109 394.485 146.097 393.563 145.36 392.329C145.178 392.022 144.989 391.7 144.828 391.378C144.846 391.414 144.71 391.089 144.713 391.107C144.688 390.974 144.738 390.792 144.749 390.771C144.964 390.395 145.014 390.317 145.464 389.956C146.179 389.384 147.43 388.812 148.435 388.433C157.104 385.194 166.989 384.557 176.116 383.728C188.467 382.602 200.869 382.019 213.263 381.63C226.534 381.215 239.818 381.297 253.081 380.743C270.191 380.028 287.515 378.326 303.917 373.16C311.879 370.654 319.472 367.258 326.64 362.982C334.215 358.46 341.565 353.763 350.356 352.011C366.622 348.768 383.764 354.07 397.871 362.053C399.466 362.954 400.899 360.501 399.305 359.601C385.105 351.56 368.274 346.395 351.865 348.876C343.26 350.177 335.806 354.109 328.452 358.571C321.07 363.047 313.573 366.944 305.372 369.707C276.161 379.549 244.812 377.844 214.443 378.759C202.045 379.131 189.644 379.699 177.288 380.789C167.829 381.622 157.808 382.33 148.732 385.333C146.526 386.062 143.637 387.053 142.379 389.191C140.806 391.868 143.441 395.089 145.435 396.662C150.462 400.623 157.994 400.652 164.022 399.812C172.569 398.621 181.153 395.926 188.757 391.815C191.385 390.395 193.698 387.818 191.588 384.876C189.529 382.001 185.486 381.204 182.258 380.571C173.724 378.902 164.994 378.48 156.318 378.78C138.293 379.399 120.539 382.942 102.611 384.625C93.7128 385.462 84.7432 385.855 75.8237 385.169C72.0843 384.879 67.7693 384.704 64.5804 382.462C60.176 379.37 66.8004 376.567 69.353 375.313C84.5752 367.812 101.671 364.727 118.52 364.087C156.096 362.664 192.264 373.9 228.904 380.339C262.165 386.184 298.973 388.225 330.108 372.806C333.246 371.251 337.129 369.292 338.527 365.839C339.76 362.789 337.955 360.072 335.22 358.703C331.631 356.909 327.312 356.29 323.369 355.822C318.771 355.275 314.128 355.25 309.509 355.471C299.881 355.933 290.286 357.263 280.709 358.314C270.795 359.4 260.878 360.491 250.965 361.577C241.052 362.664 231.135 363.755 221.221 364.841C216.263 365.385 211.308 365.928 206.349 366.475C201.588 366.997 196.79 367.719 191.996 367.787C187.627 367.848 182.905 367.262 179.391 364.423C175.53 361.306 176.03 357.105 178.904 353.416C183.359 347.699 190.552 344.704 197.494 343.399C214.969 340.117 231.657 348.189 246.36 356.723C254.186 361.266 261.912 366.025 270.248 369.593C278.078 372.942 286.314 375.087 294.751 376.199C312.229 378.505 330.079 376.564 347.178 372.621C355.068 370.801 363.205 368.831 370.591 365.446C376.375 362.793 382.42 358.46 383.203 351.643C384.079 344.014 378.012 337.514 372.149 333.6C365.636 329.253 357.971 326.814 350.306 325.488C332.653 322.432 313.895 324.108 296.514 328.034C287.44 330.086 278.717 333.285 269.737 335.663C265.218 336.86 260.617 337.818 255.941 338.14C252.13 338.401 248.062 338.39 244.519 336.749C243.243 336.159 241.867 335.294 241.263 333.964C240.333 331.916 241.692 329.9 243.079 328.466C245.749 325.699 249.338 323.626 252.681 321.777C259.441 318.049 266.809 315.496 274.37 313.977C282.182 312.411 290.229 311.993 298.158 312.726C305.88 313.441 314.11 315.16 321.02 318.799C324.445 320.605 327.959 323.286 328.631 327.351C329.285 331.308 327.208 335.294 324.527 338.065C318.589 344.196 309.398 346.863 301.454 349.258C268.958 359.05 233.072 358.632 200.822 348.053C192.8 345.422 185.175 342.012 177.635 338.233C169.499 334.154 161.43 330.976 152.335 329.871C143.373 328.784 134.196 329.142 125.226 329.993C116.922 330.783 108.574 332.209 100.759 335.209C97.059 336.628 93.4733 338.372 90.1736 340.582C87.546 342.341 84.8934 344.925 86.595 348.307C88.9259 352.937 95.2643 354.242 99.9476 354.86C110.075 356.197 120.496 355.271 130.639 354.588C135.54 354.26 140.438 353.888 145.346 353.713C148.764 353.591 152.417 353.362 155.789 354.095C156.768 354.31 157.555 354.71 157.891 354.932C157.923 354.953 158.019 354.946 157.948 355.225C157.948 355.225 157.826 355.618 157.587 356.015C156.461 357.849 154.523 359.139 152.796 360.326C149.429 362.643 145.811 364.588 142.079 366.243C134.206 369.728 125.795 371.931 117.39 373.704C107.88 375.709 98.2602 377.239 88.6113 378.376C78.8731 379.524 69.0813 380.253 59.2787 380.557C50.2591 380.839 41.1393 380.897 32.1947 379.538C24.4371 378.362 17.1406 375.956 10.2802 372.145C8.03153 370.897 5.6649 369.457 4.22419 367.262C2.53323 364.688 2.56183 361.556 3.04445 358.617C3.3376 356.83 0.599173 356.058 0.302451 357.863H0.309601V357.856Z" fill="#516889"/>
<path d="M3.12311 358.21C3.20534 357.774 3.31974 357.345 3.46988 356.926C3.48776 356.876 3.58428 356.58 3.51993 356.783C3.45916 356.984 3.55926 356.701 3.58428 356.648C3.67723 356.447 3.78091 356.251 3.89173 356.061C3.9954 355.883 4.10265 355.711 4.21705 355.543C4.27068 355.464 4.32788 355.389 4.3815 355.314C4.40653 355.278 4.47803 355.143 4.3815 355.307C4.27425 355.493 4.42083 355.26 4.44585 355.228C4.70325 354.91 4.98567 354.613 5.28239 354.331C5.43254 354.188 5.58627 354.052 5.74356 353.92C5.81506 353.859 5.89014 353.798 5.96521 353.738C6.21546 353.534 5.82579 353.834 6.01884 353.695C6.36918 353.441 6.72668 353.194 7.09848 352.972C7.47385 352.747 7.85637 352.54 8.24604 352.347C8.42122 352.261 8.59639 352.179 8.77156 352.097C8.87524 352.05 8.97891 352.007 9.08258 351.961C9.22916 351.896 8.96461 352.011 8.96461 352.011C9.02539 351.986 9.08258 351.961 9.14336 351.939C10.627 351.339 12.1892 350.917 13.7694 350.663C13.848 350.649 13.9302 350.638 14.0089 350.627C14.0697 350.617 14.4021 350.57 14.134 350.609C13.8766 350.645 14.1519 350.609 14.2127 350.602C14.2985 350.592 14.3878 350.581 14.4736 350.574C14.7847 350.542 15.0957 350.516 15.4103 350.502C15.8893 350.481 16.3719 350.481 16.8474 350.542C18.1451 350.706 19.7396 351.042 21.1374 351.324C22.6996 351.639 24.2619 351.939 25.842 352.15C28.6055 352.518 31.4047 352.536 34.1717 352.204C37.0102 351.864 39.7987 351.221 42.4728 350.202C45.129 349.19 47.5814 347.832 49.9874 346.337C51.1457 345.619 52.2968 344.89 53.4765 344.21C54.0521 343.878 54.6348 343.56 55.2283 343.259C55.525 343.109 55.8217 342.966 56.122 342.827C56.2615 342.762 56.4009 342.702 56.5403 342.641C56.5296 342.644 56.7619 342.548 56.6511 342.594C56.5582 342.634 56.8728 342.505 56.9049 342.494C59.6827 341.4 62.6928 341.079 65.6207 340.614C66.3679 340.496 67.1115 340.378 67.8587 340.26C68.5951 340.142 69.067 339.187 68.8525 338.512C68.5951 337.711 67.8944 337.393 67.1043 337.518C65.5564 337.765 64.0084 338.008 62.4604 338.254C60.9411 338.494 59.411 338.73 57.9274 339.152C55.2068 339.924 52.7187 341.311 50.3234 342.784C47.9461 344.246 45.6045 345.776 43.0484 346.916C42.4799 347.17 41.9544 347.381 41.2752 347.628C40.6353 347.86 39.9882 348.075 39.334 348.268C37.9755 348.672 36.592 348.986 35.1942 349.215C35.0118 349.244 34.8331 349.272 34.6508 349.301C34.5721 349.312 34.4935 349.322 34.4184 349.333C34.4541 349.33 34.5721 349.312 34.4077 349.333C34.043 349.38 33.6784 349.419 33.3137 349.455C32.6095 349.523 31.9016 349.566 31.1938 349.587C29.7781 349.63 28.3624 349.58 26.9503 349.44C24.1046 349.154 21.0945 348.346 18.163 347.885C17.3729 347.76 16.5864 347.639 15.7857 347.649C15.1064 347.66 14.4307 347.728 13.7586 347.821C12.1428 348.039 10.5519 348.407 9.01824 348.965C5.46829 350.259 2.08637 352.497 0.735032 356.183C0.581309 356.601 0.470485 357.03 0.388261 357.466C0.252412 358.196 0.588459 359.032 1.3821 359.214C2.07922 359.375 2.98369 359.003 3.13026 358.221L3.12311 358.21Z" fill="#516889"/>
<path d="M142.518 271.002C132.816 281.041 123.803 291.798 113.204 300.878C102.6 309.959 90.0807 317.412 76.2598 319.364C74.9014 319.557 73.3713 319.79 72.5812 320.909C71.7947 322.031 72.8529 324.105 74.1006 323.533C72.7707 324.001 72.0735 325.749 72.7135 327.008C73.357 328.266 75.1802 328.724 76.3421 327.919C75.3125 328.688 74.8799 330.168 75.3411 331.369C77.1393 332.438 79.4058 332.105 81.4614 331.719C98.8965 328.448 116.149 323.64 132.087 315.854C148.024 308.067 162.649 297.192 173.417 283.096C175.462 280.419 177.439 277.423 177.56 274.055C177.7 270.273 175.372 266.701 172.251 264.564C161.319 257.067 150.691 262.554 142.522 271.006L142.518 271.002Z" fill="#CCCCCC"/>
<path d="M158.409 298.833C158.366 298.565 158.309 298.297 158.252 298.036C157.934 296.592 157.566 295.112 156.69 293.918C155.646 292.495 153.966 291.633 152.239 291.269C150.512 290.904 148.721 290.993 146.966 291.165C141.16 291.733 135.479 293.185 129.827 294.629C127.74 295.162 125.555 295.748 123.993 297.232C122.431 298.712 121.78 301.396 123.189 303.027C123.846 303.792 124.819 304.192 125.727 304.635C127.336 305.418 128.991 306.63 129.23 308.403C129.441 309.98 128.415 311.499 127.125 312.425C125.834 313.355 124.286 313.844 122.838 314.502C121.823 314.963 120.847 315.514 119.925 316.143C119.549 316.401 119.163 316.694 118.988 317.116C118.849 317.455 118.866 317.838 118.892 318.206C118.956 319.082 119.009 320.301 119.22 321.431C123.596 319.761 127.9 317.913 132.112 315.857C141.507 311.267 150.448 305.601 158.409 298.837V298.833Z" fill="#494C56"/>
<path d="M277.902 179.422C269.033 184.985 263.32 194.691 260.853 204.862C258.383 215.032 258.866 225.7 260.231 236.078C261.597 246.456 263.835 256.716 264.843 267.138C266.723 286.507 264.278 306.308 257.557 324.573C256.992 326.103 255.988 327.991 257.647 328.745C259.005 329.242 259.738 328.395 260.07 327.383C259.355 331.212 263.695 332.134 264.661 328.019C262.927 329.052 264.811 332.066 266.799 331.73C268.786 331.394 269.966 329.36 270.749 327.501C273.105 321.91 274.417 315.943 276.061 310.101C281.445 290.972 290.54 272.897 302.688 257.17C309.509 248.34 317.306 240.211 323.154 230.705C329.003 221.199 332.828 209.824 330.633 198.881C328.438 187.948 320.162 180.198 309.405 178.36C298.119 176.43 288.91 172.519 277.906 179.419L277.902 179.422Z" fill="#CCCCCC"/>
<path d="M302.602 256.427C301.944 253.66 301.461 250.85 301.165 248.019C300.918 245.688 300.775 243.267 299.695 241.187C295.917 233.897 287.262 236.275 280.995 237.587C274.499 238.945 270.02 243.675 270.441 250.625C270.527 252.023 270.724 253.453 271.389 254.686C272.415 256.581 274.381 257.732 276.061 259.083C280.394 262.569 283.186 268.307 282.085 273.758C281.331 277.491 278.932 280.64 276.762 283.768C274.892 286.464 273.144 289.249 271.528 292.105C270.86 293.288 270.195 294.547 270.177 295.909C270.159 297.439 270.96 298.844 271.739 300.163C273.351 302.894 274.96 305.622 276.572 308.353C281.896 289.62 290.776 271.91 302.602 256.434V256.427Z" fill="#494C56"/>
<path d="M187.055 229.507C200.029 215.211 210.975 199.206 223.391 184.423C235.807 169.637 250.043 155.831 267.521 147.626C281.116 141.245 298.362 138.907 310.37 147.93C321.124 156.006 324.456 170.703 324.599 184.152C324.956 217.674 310.578 202.856 283.047 236.425C267.213 255.73 238.728 274.992 203.303 302.515C184.449 317.166 163.346 299.688 139.601 302.183C133.298 302.844 125.88 303.084 121.834 298.204C117.765 293.299 119.456 285.838 122.506 280.247C129.845 266.787 143.169 257.825 156.139 249.649C159.099 247.783 158.967 246.746 162.002 245.441C165.141 244.093 168.644 243.94 171.829 242.266C177.703 239.181 182.633 234.38 187.055 229.511V229.507Z" fill="#E8E8E8"/>
<path d="M206.271 236.986C209.653 236.178 212.584 234.148 215.666 232.539C218.747 230.93 222.322 229.704 225.661 230.669C227.499 231.198 229.104 232.353 230.924 232.939C235.929 234.548 241.248 231.563 245.116 228.002C247.279 226.011 249.349 223.555 249.528 220.624C249.649 218.589 248.824 216.598 247.69 214.904C244.948 210.792 240.526 208.136 237.187 204.497C233.848 200.854 231.674 195.13 234.466 191.051C236.722 187.755 241.148 186.976 244.709 185.171C252.842 181.049 256.51 169.92 252.424 161.769C251.787 160.503 251.001 159.331 250.093 158.258C240.179 165.744 231.403 174.878 223.388 184.423C213.646 196.024 204.805 208.372 195.181 220.062C195.667 221.718 195.953 223.437 195.957 225.253C195.961 228.253 195.399 231.502 196.969 234.055C198.788 237.015 202.885 237.801 206.267 236.99L206.271 236.986Z" fill="#494C56"/>
<path d="M295.456 219.848C294.748 219.758 294.068 220.116 293.461 220.484C288.881 223.244 285.12 227.148 281.324 230.912C258.959 253.091 233.383 272.035 205.649 286.964C200.336 289.824 195.918 291.576 192.386 296.592C189.93 300.077 187.888 303.86 186.319 307.824C192.854 308.021 199.142 306.634 205.198 301.929C240.623 274.405 269.108 255.143 284.942 235.839C289.385 230.419 293.489 226.261 297.239 222.958C297.322 221.564 296.778 220.023 295.456 219.855V219.848Z" fill="#D8D8D8"/>
<path d="M331.452 150.19C335.045 145.142 335.095 138.353 333.826 132.286C330.551 116.613 319.898 103.715 311.997 89.7869C307.038 81.0425 303.038 70.575 306.452 61.1228C309.763 51.9494 319.597 46.2545 329.328 45.5896C339.06 44.9246 348.623 48.4817 357.17 53.1864C363.073 56.4324 368.782 60.3685 372.704 65.8453C375.428 69.6491 377.019 75.3333 373.783 78.7152C371.524 81.0783 367.792 81.2713 364.585 80.6243C359.798 79.659 355.458 77.2388 351.057 75.1295C346.656 73.0167 341.93 71.1506 337.054 71.4187C332.178 71.6868 327.148 74.6326 325.879 79.348C324.273 85.3075 328.871 90.9345 332.707 95.7678C341.723 107.118 348.165 120.503 351.415 134.631C354.096 146.296 354.325 159.495 347.318 169.198C344.025 173.759 339.367 177.188 334.408 179.848C327.205 183.712 319.118 186.114 310.942 186.039C302.766 185.964 294.515 183.305 288.295 178.003C284.806 175.028 281.946 171.178 280.741 166.752C279.536 162.327 280.144 157.311 282.893 153.643C285.546 150.1 290.157 148.263 294.526 148.617C299.56 149.024 302.584 152.535 306.273 155.488C313.37 161.165 326.508 157.136 331.448 150.197L331.452 150.19Z" fill="#E8E8E8"/>
<path d="M372.707 65.8453C368.785 60.3685 363.076 56.436 357.174 53.1863C348.626 48.4853 339.063 44.9246 329.332 45.5895C319.601 46.2545 309.766 51.9494 306.456 61.1228C304.293 67.1144 305.108 73.5136 307.256 79.6197C309.355 79.6697 311.489 79.3587 313.459 80.3633C316.04 81.6753 317.248 84.4816 318.986 86.6373C321.578 89.8477 325.628 91.8067 329.747 91.9176C326.937 88.0351 324.684 83.7774 325.882 79.3372C327.151 74.6219 332.181 71.6761 337.057 71.408C341.934 71.1398 346.66 73.0095 351.06 75.1188C355.461 77.2316 359.805 79.6483 364.588 80.6135C367.795 81.2606 371.527 81.0711 373.787 78.7045C377.022 75.3226 375.431 69.6384 372.707 65.8346V65.8453Z" fill="#494C56"/>
<path d="M72.424 237.497C81.2435 236.164 90.4812 237.487 98.7179 241.262C99.6796 241.702 100.648 242.191 101.399 242.953C102.472 244.043 102.99 245.57 103.387 247.06C105.078 253.381 105.21 259.97 104.538 266.408C104.202 269.622 103.662 272.807 103.022 275.964C102.522 278.445 102.293 283.389 100.727 285.352C95.2752 292.173 81.7547 263.666 79.7491 259.147C78.9877 257.435 71.8878 237.58 72.424 237.497Z" fill="#E8E8E8"/>
<path d="M176.087 290.722C177.532 289.713 178.951 288.645 180.134 287.34C181.385 285.967 182.351 284.362 183.23 282.724C190.137 269.858 191.488 253.224 183.516 240.99C182 238.666 180.159 236.514 177.871 234.941C174.314 232.492 169.87 231.588 165.552 231.649C157.254 231.767 149.343 235.217 142.254 239.532C133.649 244.769 125.695 251.586 121.018 260.51C118.033 266.204 116.553 272.804 117.186 279.228C117.858 286.046 115.892 292.223 119.653 297.678C122.302 301.522 129.534 302.533 134.475 302.923C141.174 303.452 148.299 302.319 154.752 300.588C162.352 298.551 169.617 295.226 176.08 290.725L176.087 290.722Z" fill="#CCCCCC"/>
<path d="M90.3095 269.293C91.6823 280.304 97.7097 290.714 106.497 297.257C108.899 299.044 111.516 300.567 114.337 301.461C121.508 303.742 129.202 301.797 136.123 299.066C146.587 294.94 156.504 288.891 163.825 280.19C167.2 276.175 169.978 271.663 172.652 267.116C175.326 262.572 177.953 257.889 179.155 252.691C180.363 247.461 180.066 241.916 178.958 236.611C177.553 229.893 174.582 223.087 169.052 219.19C163.042 214.954 155.352 210.671 148.274 211.915C136.116 214.049 110.916 218.221 95.2716 244.19C90.8493 251.526 89.2299 260.606 90.3167 269.293H90.3095Z" fill="#E8E8E8"/>
<path d="M137.495 186.297C147.062 192.41 155.524 200.253 163.217 208.748C168.197 214.249 173.006 220.288 174.997 227.491C176.988 234.695 175.465 243.339 169.652 247.629C163.228 252.366 153.704 250.21 147.577 244.808C143.551 241.262 140.674 236.607 138.343 231.77C136.048 227.008 135.84 223.383 135.222 218.296C134.56 212.844 134.271 207.428 134.671 201.962C134.775 200.543 137.485 186.293 137.499 186.3L137.495 186.297Z" fill="#E8E8E8"/>
<path d="M140.18 195.259C149.507 199.574 157.372 206.982 162.238 216.037C158.062 214.5 153.694 213.499 149.264 213.066C146.444 212.791 143.341 212.827 141.117 214.585C140.988 213.463 140.127 212.305 139.969 210.846C139.773 209.062 139.651 207.268 139.608 205.473C139.583 204.533 140.341 195.338 140.18 195.263V195.259Z" fill="#E5CAC6"/>
<path d="M87.1207 266.086C87.253 258.704 89.734 251.379 94.1205 245.437C93.7737 245.906 82.6019 241.809 81.3936 241.448C80.5606 241.198 76.907 239.585 76.3493 240.34C75.9489 240.883 77.2323 243.346 77.4039 243.975C79.5918 252.026 82.0299 259.312 87.1243 266.09L87.1207 266.086Z" fill="#E5CAC6"/>
<path d="M99.9226 265.758C100.226 266.376 100.602 266.97 101.052 267.527C104.306 271.556 110.211 272.182 114.24 268.929C116.929 266.755 118.101 263.402 117.619 260.216C119.503 264.059 118.559 268.828 115.088 271.631C111.059 274.884 105.156 274.259 101.9 270.23C100.816 268.889 100.166 267.345 99.9226 265.758Z" fill="#E9F1F4"/>
<path d="M102.003 270.544C105.256 274.573 111.162 275.199 115.191 271.946C119.22 268.693 119.846 262.787 116.593 258.758C113.339 254.729 107.434 254.103 103.405 257.356C99.3756 260.61 98.7499 266.515 102.003 270.544Z" fill="white"/>
<path d="M101.764 270.738C98.4068 266.583 99.0574 260.474 103.212 257.117C107.366 253.76 113.475 254.411 116.832 258.565C120.189 262.719 119.538 268.828 115.384 272.185C111.23 275.542 105.121 274.892 101.764 270.738ZM102.243 270.351C105.385 274.241 111.109 274.849 114.998 271.706C118.888 268.564 119.496 262.84 116.353 258.951C113.211 255.061 107.491 254.454 103.598 257.596C99.7081 260.738 99.1004 266.462 102.243 270.351Z" fill="#E0BA99"/>
<path d="M104.309 269.161C106.44 271.796 110.301 272.207 112.939 270.076C115.574 267.945 115.985 264.084 113.854 261.446C111.723 258.811 107.863 258.4 105.224 260.531C102.589 262.662 102.178 266.526 104.309 269.161Z" fill="#6B8C96"/>
<path d="M112.413 269.636C110.73 268.66 109.089 267.574 107.734 266.176C106.379 264.782 105.314 263.048 104.956 261.135C104.935 261.157 105.81 261.239 105.875 261.253C106.322 261.364 106.797 261.825 107.158 262.104C107.977 262.737 108.731 263.455 109.407 264.242C110.083 265.028 110.68 265.879 111.184 266.784C111.445 267.252 111.684 267.735 111.895 268.228C111.995 268.464 112.224 269.522 112.413 269.633V269.636Z" fill="#30211F"/>
<path d="M113.257 262.365C113.357 262.544 113.447 262.733 113.475 262.937C113.504 263.141 113.457 263.362 113.311 263.509C113.096 263.723 112.728 263.709 112.46 263.566C112.192 263.423 111.988 263.184 111.777 262.962C111.209 262.379 110.504 261.929 109.736 261.654C108.438 261.192 109.968 260.288 110.74 260.499C111.777 260.781 112.735 261.425 113.261 262.365H113.257Z" fill="white"/>
<path d="M108.377 261.221C108.213 261.4 107.959 261.475 107.716 261.468C107.473 261.46 107.24 261.378 107.015 261.282C106.897 261.232 106.761 261.146 106.776 261.021C106.779 260.974 106.804 260.935 106.829 260.896C107.062 260.56 107.691 260.238 108.113 260.338C108.513 260.434 108.667 260.903 108.377 261.221Z" fill="white"/>
<path d="M135.737 233.547C136.04 234.166 136.416 234.759 136.866 235.317C140.119 239.346 146.025 239.971 150.054 236.718C152.743 234.545 153.915 231.191 153.433 228.006C155.317 231.849 154.373 236.618 150.902 239.421C146.873 242.674 140.97 242.048 137.714 238.019C136.63 236.679 135.98 235.134 135.737 233.547Z" fill="#E9F1F4"/>
<path d="M137.813 238.334C141.067 242.363 146.973 242.989 151.002 239.735C155.031 236.482 155.656 230.576 152.403 226.547C149.15 222.518 143.244 221.893 139.215 225.146C135.186 228.399 134.56 234.305 137.813 238.334Z" fill="white"/>
<path d="M137.574 238.527C134.217 234.373 134.868 228.263 139.022 224.906C143.176 221.55 149.286 222.2 152.639 226.354C155.996 230.508 155.345 236.618 151.191 239.975C147.037 243.332 140.927 242.681 137.571 238.527H137.574ZM138.053 238.141C141.196 242.031 146.919 242.638 150.809 239.496C154.698 236.353 155.306 230.63 152.164 226.74C149.021 222.851 143.298 222.243 139.408 225.385C135.519 228.528 134.911 234.251 138.053 238.141Z" fill="#E0BA99"/>
<path d="M140.119 236.95C142.25 239.585 146.115 239.996 148.749 237.866C151.384 235.735 151.795 231.874 149.665 229.236C147.534 226.601 143.673 226.19 141.035 228.321C138.4 230.451 137.989 234.316 140.119 236.95Z" fill="#6B8C96"/>
<path d="M148.227 237.426C146.544 236.45 144.903 235.363 143.548 233.965C142.193 232.571 141.128 230.837 140.77 228.925C140.749 228.946 141.624 229.028 141.689 229.043C142.136 229.153 142.611 229.615 142.972 229.893C143.791 230.526 144.545 231.245 145.221 232.031C145.897 232.818 146.494 233.669 146.998 234.573C147.259 235.041 147.498 235.524 147.709 236.017C147.809 236.253 148.038 237.312 148.227 237.422V237.426Z" fill="#30211F"/>
<path d="M149.071 230.154C149.171 230.333 149.261 230.523 149.289 230.726C149.318 230.93 149.268 231.152 149.125 231.298C148.91 231.513 148.542 231.499 148.274 231.356C148.006 231.213 147.802 230.973 147.591 230.751C147.023 230.169 146.318 229.718 145.55 229.443C144.252 228.982 145.782 228.077 146.554 228.288C147.591 228.571 148.549 229.214 149.075 230.154H149.071Z" fill="white"/>
<path d="M144.188 229.007C144.023 229.186 143.77 229.261 143.526 229.254C143.283 229.246 143.051 229.164 142.826 229.068C142.708 229.018 142.572 228.932 142.586 228.807C142.59 228.76 142.615 228.721 142.64 228.682C142.872 228.346 143.501 228.024 143.923 228.124C144.324 228.22 144.481 228.689 144.188 229.007Z" fill="white"/>
<path d="M131.697 257.074C131.307 257.553 131.025 258.172 131.139 258.779C131.229 259.237 131.532 259.627 131.883 259.938C132.97 260.906 134.478 261.239 135.926 261.357C137.378 261.475 138.85 261.41 140.266 261.736C140.809 260.059 141.192 258.329 141.407 256.577C141.496 255.837 141.557 255.076 141.381 254.35C141.21 253.624 140.756 252.709 140.08 252.394C139.333 252.044 136.952 251.994 135.987 253.831C135.665 254.446 135.34 255.004 135.368 255.68C134.049 255.412 132.537 256.052 131.697 257.078V257.074Z" fill="#593E39"/>
<path d="M152.339 263.713C152.196 263.602 152.014 263.645 151.899 263.77C150.673 265.136 148.961 266.19 147.094 266.308C145.053 266.437 143.233 265.246 141.932 263.766C141.836 263.656 141.743 263.545 141.65 263.43C141.618 263.362 141.585 263.294 141.55 263.227C140.888 261.897 140.095 260.635 139.183 259.462C138.936 259.144 138.436 259.519 138.682 259.837C138.822 260.016 138.954 260.195 139.09 260.377C139.008 260.485 139.019 260.631 139.09 260.753C139.712 261.775 140.356 262.812 141.113 263.748C141.542 264.639 141.907 265.557 142.204 266.498C142.375 267.041 142.511 267.606 142.504 268.181C142.497 268.732 142.361 269.279 142.193 269.797C141.843 270.877 141.317 271.892 140.642 272.8C139.88 273.826 138.943 274.702 137.871 275.396C137.728 275.489 137.714 275.707 137.81 275.832C137.917 275.975 138.107 275.986 138.246 275.893C140.245 274.602 141.814 272.647 142.636 270.412C142.844 269.847 143.022 269.261 143.09 268.664C143.162 268.06 143.101 267.459 142.955 266.869C142.804 266.269 142.608 265.672 142.383 265.089C142.815 265.472 143.283 265.818 143.798 266.115C144.728 266.648 145.768 266.944 146.844 266.941C147.827 266.941 148.81 266.666 149.69 266.233C150.719 265.725 151.631 265.007 152.396 264.152C152.51 264.027 152.464 263.813 152.339 263.713Z" fill="#593E39"/>
<path d="M140.288 245.938C140.831 244.394 139.859 242.695 138.6 241.648C137.342 240.601 135.79 239.946 134.553 238.874C132.387 236.997 131.418 233.844 132.155 231.073C132.77 228.771 134.435 226.794 134.707 224.427C134.954 222.282 134.01 220.184 132.884 218.343C132.383 217.521 131.829 216.72 131.222 215.965C124.937 218.035 118.087 221.153 111.545 226.065C112.725 228.024 112.782 230.819 112.074 233.057C111.602 234.548 110.776 235.914 110.344 237.419C109.607 239.975 110.104 242.86 111.656 245.023C113.207 247.186 115.781 248.58 118.437 248.698C122.495 248.88 126.363 246.281 130.396 246.774C132.208 246.996 133.899 247.833 135.708 248.065C137.517 248.297 139.687 247.654 140.291 245.934L140.288 245.938Z" fill="#494C56"/>
<path d="M150.802 253.038C154.066 248.154 158.023 243.75 162.503 239.95C166.978 236.15 171.98 232.968 177.317 230.516C180.338 229.128 183.473 227.988 186.676 227.098C187.216 226.948 186.988 226.108 186.444 226.258C180.692 227.856 175.172 230.272 170.081 233.393C164.994 236.514 160.325 240.329 156.271 244.708C153.994 247.168 151.91 249.81 150.047 252.598C149.736 253.066 150.491 253.503 150.798 253.038H150.802Z" fill="#593E39"/>
<path d="M153.494 255.53C158.023 251.697 163.057 248.476 168.415 245.927C173.771 243.382 179.455 241.523 185.282 240.404C188.582 239.771 191.921 239.389 195.278 239.246C195.835 239.224 195.839 238.352 195.278 238.373C189.25 238.624 183.259 239.664 177.496 241.451C171.737 243.239 166.199 245.756 161.076 248.941C158.202 250.728 155.463 252.727 152.879 254.911C152.45 255.272 153.068 255.887 153.494 255.526V255.53Z" fill="#593E39"/>
<path d="M153.951 259.348C163.822 255.644 174.45 254.085 184.968 254.786C187.974 254.986 190.963 255.372 193.923 255.941C194.47 256.044 194.706 255.208 194.155 255.101C183.638 253.077 172.716 253.345 162.306 255.866C159.392 256.57 156.525 257.456 153.722 258.508C153.2 258.704 153.426 259.544 153.955 259.348H153.951Z" fill="#593E39"/>
<path d="M123.789 270.963C122.027 271.417 120.4 272.257 118.831 273.161C117.3 274.044 115.781 274.949 114.265 275.86C111.227 277.684 108.217 279.568 105.328 281.627C99.608 285.702 94.4422 290.504 90.6098 296.431C88.4791 299.723 86.7738 303.28 85.5226 306.995C85.3439 307.528 86.184 307.756 86.3627 307.227C88.5685 300.699 92.2292 294.711 97.0269 289.767C101.846 284.801 107.623 280.915 113.507 277.337C115.166 276.329 116.839 275.342 118.512 274.359C120.264 273.329 122.041 272.318 124.021 271.806C124.565 271.667 124.336 270.827 123.789 270.966V270.963Z" fill="#593E39"/>
<path d="M127.929 274.806C124.837 275.914 122.213 277.923 119.903 280.222C117.401 282.71 115.13 285.47 112.925 288.223C110.647 291.068 108.528 294.032 106.715 297.196C104.981 300.227 103.508 303.413 102.314 306.691C100.952 310.43 99.9619 314.302 99.3542 318.235C99.2684 318.782 100.108 319.021 100.194 318.467C101.249 311.642 103.462 305.014 106.744 298.937C108.435 295.802 110.419 292.842 112.599 290.028C114.759 287.247 117.025 284.512 119.438 281.945C121.909 279.314 124.719 276.876 128.161 275.639C128.687 275.449 128.458 274.609 127.929 274.799V274.806Z" fill="#593E39"/>
<path d="M129.841 278.935C125.734 282.917 122.491 287.733 120.143 292.942C117.586 298.608 116.096 304.689 115.438 310.856C115.048 314.509 114.952 318.192 115.08 321.863C115.102 322.421 115.971 322.424 115.953 321.863C115.724 315.468 116.192 309.033 117.697 302.801C119.056 297.185 121.265 291.769 124.418 286.914C126.156 284.244 128.172 281.766 130.46 279.55C130.864 279.16 130.245 278.542 129.845 278.935H129.841Z" fill="#593E39"/>
<path d="M178.111 283.629C168.408 293.667 159.396 304.424 148.796 313.505C138.192 322.585 125.673 330.039 111.852 331.991C110.494 332.184 108.964 332.416 108.173 333.535C107.387 334.658 108.445 336.731 109.693 336.159C108.363 336.628 107.666 338.376 108.306 339.634C108.949 340.893 110.772 341.35 111.934 340.546C110.905 341.315 110.476 342.795 110.933 343.992C112.732 345.061 114.998 344.729 117.054 344.343C134.489 341.071 151.742 336.263 167.679 328.477C183.616 320.691 198.241 309.816 209.009 295.719C211.054 293.042 213.031 290.046 213.152 286.678C213.292 282.896 210.965 279.325 207.844 277.183C196.911 269.686 186.283 275.174 178.114 283.625L178.111 283.629Z" fill="#E8E8E8"/>
<path d="M208.316 277.441C209.846 279.228 210.857 281.423 210.933 283.761C211.04 287.129 209.274 290.253 207.415 293.067C197.637 307.867 183.791 319.718 168.423 328.577C168.308 328.645 168.19 328.709 168.076 328.774C168.101 328.763 168.126 328.749 168.151 328.738C184.088 320.952 198.713 310.076 209.481 295.98C211.526 293.303 213.503 290.307 213.624 286.939C213.764 283.157 211.437 279.586 208.316 277.444V277.441Z" fill="#D8D8D8"/>
<path d="M274.345 200.825C275.589 212.301 278.864 223.58 284.012 234.116C284.563 235.242 285.142 236.507 284.659 237.665C284.366 238.363 283.733 238.895 283.118 239.399C280.544 241.509 275.196 248.083 271.796 244.587C269.147 241.866 269.362 233.34 269.172 229.851C268.904 224.928 269.201 219.98 270.066 215.104C270.509 212.609 271.099 210.131 271.839 207.689C272.375 205.916 274.538 202.545 274.352 200.822L274.345 200.825Z" fill="#D8D8D8"/>
<path d="M286.318 183.061C278.467 189.983 274.399 200.486 273.609 210.925C272.819 221.364 275.017 231.81 278.045 241.83C281.073 251.851 284.938 261.614 287.623 271.731C292.61 290.543 293.403 310.477 289.721 329.589C289.414 331.19 288.724 333.214 290.483 333.693C291.905 333.964 292.492 333.006 292.653 331.959C292.563 335.852 297 336.059 297.286 331.844C295.745 333.142 298.09 335.816 299.996 335.162C301.905 334.508 302.738 332.313 303.21 330.35C304.629 324.451 304.958 318.353 305.637 312.322C307.857 292.573 316.355 257.978 323.78 239.546C337.955 204.354 327.602 158.155 316.687 158.08C305.237 158.001 296.063 174.471 286.321 183.061H286.318Z" fill="#E8E8E8"/>
<path d="M167.547 328.548C172.441 326.157 177.21 323.472 181.782 320.497C180.123 319.539 178.096 319.175 176.155 318.982C170.103 318.381 163.94 318.967 158.109 320.694C154.47 321.774 150.676 323.307 147.001 322.353C144.856 321.799 143.012 320.444 140.974 319.586C132.176 325.817 122.334 330.561 111.72 332.055C110.362 332.248 108.831 332.481 108.041 333.6C107.255 334.722 108.313 336.796 109.561 336.224C108.231 336.692 107.534 338.44 108.174 339.699C108.817 340.957 110.64 341.415 111.802 340.61C110.773 341.379 110.344 342.859 110.801 344.06C112.599 345.129 114.866 344.797 116.922 344.41C134.357 341.139 151.61 336.331 167.547 328.545V328.548Z" fill="#494C56"/>
<path d="M262.18 161.34C261.347 162.019 260.442 162.845 260.428 163.917C260.389 166.466 264.471 166.323 266.312 168.086C267.846 169.555 267.438 172.222 266.109 173.881C264.779 175.536 262.798 176.501 261.014 177.656C255.713 181.095 251.848 186.683 250.507 192.857C250.107 194.698 249.975 196.793 251.104 198.301C253.01 200.84 257 200.085 259.852 198.698C266.77 195.338 272.572 189.793 279.836 187.269C287.101 184.745 297.082 186.901 299.163 194.305C299.931 197.043 299.463 199.957 298.988 202.759C298.391 206.299 297.79 209.841 297.193 213.381C296.306 218.625 296.424 225.664 301.49 227.294C306.384 228.867 310.592 223.594 312.841 218.972C316.937 210.549 320.284 200.804 317.159 191.974C315.901 188.413 313.634 185.196 312.951 181.481C312.183 177.295 313.516 173.023 313.516 168.769C313.516 164.514 311.335 159.563 307.117 159.013C305.226 158.766 303.356 159.477 301.479 159.824C293.507 161.297 288.928 155.881 281.989 154.129C274.288 152.184 267.875 156.678 262.18 161.34Z" fill="#494C56"/>
<path d="M81.5365 325.098C81.9654 336.02 73.457 345.218 62.5391 345.647C51.6175 346.076 42.4191 337.568 41.9901 326.65C41.5611 315.728 50.0696 306.53 60.9875 306.101C71.9091 305.672 81.1075 314.181 81.5365 325.098Z" fill="#6784B2"/>
<path d="M42.5443 331.044C50.4092 326.671 57.6271 321.095 63.844 314.588C65.5993 312.751 67.2688 310.838 68.8597 308.861C69.3244 308.282 69.4674 307.41 68.8597 306.852C68.3449 306.376 67.3475 306.233 66.8505 306.852C64.0692 310.316 61.0305 313.573 57.763 316.579C56.1363 318.074 54.4561 319.511 52.7258 320.88C51.9143 321.524 51.1493 322.099 50.2234 322.775C49.3189 323.433 48.4037 324.072 47.4778 324.695C45.4114 326.082 43.2879 327.379 41.1143 328.588C40.4637 328.949 40.1956 329.896 40.6031 330.532C41.0285 331.19 41.8508 331.43 42.5479 331.044H42.5443Z" fill="#516889"/>
<path d="M43.5952 336.581C46.1764 336.202 48.3392 334.554 50.3698 333.031C52.4183 331.494 54.4167 329.893 56.3507 328.212C60.1509 324.913 63.7116 321.33 66.9863 317.509C68.8882 315.289 70.6971 312.986 72.4131 310.62C72.8492 310.016 72.5346 309.011 71.9019 308.675C71.1654 308.285 70.4254 308.539 69.9571 309.186C67.1579 313.051 63.9869 316.808 60.562 320.322C58.8604 322.07 57.0943 323.754 55.2747 325.377C54.3452 326.207 53.3978 327.015 52.4397 327.808C52 328.173 51.5567 328.53 51.1098 328.888C50.8667 329.081 50.6236 329.274 50.377 329.467C50.2554 329.564 50.1303 329.66 50.0087 329.753C49.8729 329.86 49.8443 329.882 49.9265 329.817C49.8443 329.882 49.7621 329.943 49.6798 330.007C48.6145 330.822 47.5456 331.641 46.4159 332.366C45.204 333.146 44.2459 333.628 42.8374 333.832C42.1009 333.939 41.629 334.912 41.8435 335.58C42.1045 336.388 42.8016 336.689 43.5917 336.574L43.5952 336.581Z" fill="#516889"/>
<path d="M46.6592 340.739C49.2153 339.935 51.4676 338.501 53.5839 336.885C55.7146 335.259 57.7988 333.564 59.8759 331.866C63.9263 328.555 67.8838 325.106 71.4087 321.234C73.4322 319.01 75.3126 316.644 76.9714 314.138C77.3825 313.516 77.1144 312.54 76.4602 312.193C75.7452 311.817 74.9551 312.039 74.5154 312.704C71.7591 316.865 68.3271 320.583 64.5841 324.055C60.8554 327.512 56.8801 330.697 52.894 333.846C50.8777 335.437 48.3645 337.225 45.8978 337.997C45.1899 338.219 44.6644 338.998 44.9039 339.745C45.1327 340.457 45.8906 340.975 46.6521 340.739H46.6592Z" fill="#516889"/>
<path d="M51.278 343.52C59.6363 337.486 67.6764 330.994 75.2911 324.044C77.3181 322.192 79.27 320.247 80.7679 317.927C81.1719 317.301 80.9145 316.329 80.2567 315.982C79.5488 315.611 78.7445 315.825 78.3119 316.494C77.0964 318.37 75.4662 320.015 73.7431 321.606C71.9234 323.29 70.0609 324.927 68.1876 326.546C64.4339 329.792 60.4871 333.028 56.619 336.006C54.3846 337.725 52.1253 339.413 49.8408 341.061C49.2403 341.493 48.8863 342.316 49.3332 343.005C49.7157 343.602 50.6309 343.981 51.278 343.517V343.52Z" fill="#516889"/>
<path d="M45.8868 312.339C45.179 318.242 47.2847 324.123 49.5405 329.478C50.6559 332.13 51.9536 334.654 53.7232 336.932C55.2568 338.905 57.0908 340.61 59.1285 342.058C61.4237 343.688 64.0155 344.918 66.7218 345.694C67.4368 345.898 68.3019 345.444 68.4699 344.7C68.6415 343.942 68.2411 343.174 67.4761 342.952C66.9184 342.791 66.3643 342.612 65.8173 342.412C65.5563 342.316 65.2953 342.212 65.0379 342.108C64.8842 342.047 65.0272 342.108 65.0558 342.119C64.9915 342.09 64.9271 342.065 64.8628 342.037C64.7126 341.972 64.5661 341.904 64.4159 341.836C63.3613 341.35 62.3424 340.785 61.3665 340.153C60.8803 339.835 60.4048 339.498 59.94 339.152C59.8113 339.055 59.9257 339.141 59.9508 339.162C59.8971 339.12 59.8399 339.077 59.7863 339.034C59.6755 338.948 59.5682 338.859 59.461 338.769C59.2286 338.576 58.9962 338.379 58.771 338.179C57.9023 337.407 57.0872 336.574 56.3401 335.684C56.1613 335.469 55.9861 335.255 55.8145 335.033C55.9397 335.194 55.7323 334.922 55.6966 334.876C55.6 334.744 55.5035 334.615 55.4106 334.483C55.0495 333.975 54.7099 333.457 54.3917 332.924C53.6767 331.73 53.0547 330.482 52.4934 329.21C52.2253 328.606 52.0429 328.162 51.7784 327.508C51.5174 326.861 51.2672 326.214 51.0205 325.56C50.5236 324.23 50.0588 322.889 49.6692 321.524C48.7933 318.463 48.3428 315.532 48.7218 312.336C48.8112 311.596 48.0068 310.884 47.3025 310.917C46.4553 310.956 45.9762 311.542 45.8833 312.336L45.8868 312.339Z" fill="#516889"/>
<path d="M49.7763 308.471C49.333 310.076 49.4796 311.725 49.8085 313.337C50.0981 314.753 50.4842 316.154 50.8703 317.545C51.6532 320.369 52.6005 323.157 53.8732 325.799C55.1352 328.416 56.7797 330.861 58.8174 332.938C60.9338 335.098 63.4756 336.821 66.1354 338.244C69.1348 339.852 72.5453 341.1 76.0023 340.696C76.7387 340.61 77.4609 340.103 77.4215 339.277C77.3894 338.58 76.7924 337.765 76.0023 337.858C74.5937 338.022 73.4462 337.933 72.1771 337.629C71.4835 337.464 70.8007 337.246 70.1358 336.992C69.5638 336.774 69.0561 336.549 68.4233 336.235C65.9209 334.998 63.5471 333.5 61.5594 331.644C59.5574 329.775 58.0953 327.769 56.8118 325.327C56.5008 324.737 56.2113 324.137 55.9396 323.533C55.8752 323.393 55.8144 323.25 55.7537 323.111C55.7215 323.039 55.6929 322.968 55.6607 322.9C55.675 322.932 55.7179 323.036 55.6536 322.886C55.5177 322.553 55.3819 322.217 55.2532 321.881C54.7634 320.601 54.338 319.3 53.9483 317.988C53.5229 316.547 53.1368 315.092 52.7829 313.63C52.6863 313.23 52.5934 312.829 52.5147 312.422C52.479 312.232 52.4432 312.043 52.4146 311.853C52.386 311.682 52.386 311.66 52.3646 311.417C52.2931 310.577 52.3217 309.937 52.5183 309.229C52.7149 308.514 52.2752 307.653 51.5245 307.481C50.7737 307.309 49.9872 307.706 49.7763 308.475V308.471Z" fill="#516889"/>
<path d="M54.3989 307.202C54.4168 309.987 55.3213 312.622 56.5082 315.11C57.6665 317.541 58.982 319.979 60.6372 322.106C63.5044 325.788 67.6049 328.295 71.9663 329.832C74.4545 330.708 77.0356 331.237 79.6525 331.544C80.3925 331.63 81.1039 330.829 81.0718 330.125C81.0324 329.281 80.4461 328.799 79.6525 328.706C79.5167 328.691 79.3772 328.673 79.2414 328.656C78.7909 328.602 79.5202 328.699 79.0698 328.631C78.7945 328.591 78.5192 328.548 78.2475 328.502C77.697 328.409 77.1536 328.305 76.6066 328.187C75.5627 327.962 74.5296 327.687 73.5107 327.358C73.0245 327.201 72.5419 327.033 72.0664 326.854C71.8054 326.754 71.5481 326.654 71.2907 326.546C71.0261 326.439 71.1906 326.503 71.2478 326.528C71.0797 326.457 70.9081 326.382 70.7401 326.303C69.7784 325.867 68.8454 325.374 67.9445 324.823C67.4797 324.537 67.0221 324.233 66.5788 323.915C66.3929 323.783 66.2106 323.647 66.0319 323.511C66.2535 323.683 65.8996 323.404 65.8925 323.397C65.753 323.282 65.61 323.168 65.4742 323.05C64.677 322.374 63.9334 321.638 63.2541 320.841C63.0897 320.651 62.9324 320.455 62.7751 320.258C62.6142 320.054 62.9645 320.519 62.7036 320.165C62.6178 320.047 62.5284 319.929 62.4426 319.808C62.0565 319.264 61.699 318.703 61.3594 318.131C60.7159 317.051 60.1153 315.947 59.5397 314.831C58.2992 312.429 57.2589 309.848 57.241 307.199C57.2374 306.455 56.5904 305.744 55.8218 305.779C55.0567 305.815 54.3953 306.405 54.4025 307.199L54.3989 307.202Z" fill="#516889"/>
</g>
<defs>
<clipPath id="clip0_1_401">
<rect width="400" height="400" fill="white"/>
</clipPath>
</defs>
</svg>
