<svg width="400" height="400" viewBox="0 0 400 400" fill="none" xmlns="http://www.w3.org/2000/svg">
<g clip-path="url(#clip0_1_446)">
<path d="M179.629 400.417C278.006 400.417 357.757 391.418 357.757 380.316C357.757 369.214 278.006 360.214 179.629 360.214C81.2511 360.214 1.50037 369.214 1.50037 380.316C1.50037 391.418 81.2511 400.417 179.629 400.417Z" fill="#7295A0"/>
<path d="M202.269 251.007C187.656 242.482 174.849 231.199 160.607 222.065C144.768 211.907 126.985 204.415 108.315 202.046C89.6452 199.677 70.0514 202.649 53.7643 212.08C29.1486 226.341 14.3937 254.177 11.0275 282.42C9.71939 293.388 9.9618 304.648 12.921 315.291C20.0011 340.739 42.5724 360.173 67.952 367.514C81.7555 371.507 96.2542 372.321 110.602 373.112C179.295 376.89 248.742 380.627 316.438 368.355C326.271 366.572 336.219 364.39 344.905 359.45C353.59 354.506 360.949 346.36 362.687 336.522C363.822 330.105 362.509 323.464 360.208 317.363C354.624 302.53 343.318 290.287 329.994 281.706C316.671 273.121 301.395 267.976 285.917 264.582C271.611 261.445 259.687 260.69 245.499 262.51C230.534 264.431 214.961 258.412 202.269 251.007Z" fill="#E2881B"/>
<path d="M400.37 287.272C388.387 285.868 376.203 286.216 364.32 288.302C362.093 288.69 359.783 289.189 358.031 290.616C355.42 292.743 354.683 296.383 354.313 299.731C353.238 309.496 353.796 319.522 356.065 329.085C358.731 340.323 363.876 337.725 370.979 331.016C383.85 318.849 394.004 303.807 400.37 287.277V287.272Z" fill="#E2881B"/>
<path d="M271.949 212.863C277.044 223.798 280.539 235.475 282.29 247.412C282.62 249.649 282.876 252 282.071 254.108C280.872 257.26 277.648 259.098 274.584 260.502C265.651 264.591 255.955 267.208 246.162 268.054C234.655 269.051 235.506 263.347 239.649 254.497C247.16 238.457 258.255 224.096 271.949 212.858V212.863Z" fill="#E2881B"/>
<path d="M242.115 368.465C229.898 366.421 217.531 363.736 206.81 357.529C196.089 351.323 179.377 322.499 189.919 296.983C200.036 272.486 218.862 264.372 224.424 263.123C252.781 256.77 272.699 280.33 301.02 286.861C315.244 290.14 330.008 295.679 338.497 307.552C342.197 312.725 344.452 318.79 346.185 324.91C348.614 333.49 350.068 342.765 348.385 351.62C346.812 359.903 344.168 362.487 336.558 364.907C317.183 371.063 297.306 373.194 277.021 372.312C265.322 371.799 253.668 370.4 242.124 368.47L242.115 368.465Z" fill="#B76B18"/>
<path d="M323.651 250.102C333.987 252.393 345.339 262.497 352.726 270.089C361.064 278.66 365.715 290.355 367.215 302.219C368.715 314.079 367.252 326.149 364.627 337.812C363.561 342.546 362.234 347.39 359.22 351.195C354.679 356.93 341.044 364.216 333.886 365.73C292.627 374.443 280.616 374.932 255.383 365.204C240.212 359.354 222.196 346.607 206.399 318.223C199.803 306.368 199.913 290.922 207.482 279.666C216.872 265.707 235.926 253.994 252.506 251.149C275.32 247.234 300.764 245.03 323.651 250.106V250.102Z" fill="#E2881B"/>
<path d="M293.171 310.992C294.045 311.865 294.726 313.045 294.612 314.276C294.525 315.209 293.99 316.041 293.359 316.732C291.383 318.872 288.447 319.833 285.579 320.345C282.716 320.857 279.766 321.017 277.003 321.941C275.59 318.708 274.492 315.332 273.728 311.888C273.404 310.429 273.138 308.924 273.344 307.447C273.545 305.965 274.268 304.058 275.558 303.294C276.976 302.453 281.714 301.886 283.992 305.362C284.751 306.523 285.506 307.571 285.588 308.925C288.158 308.138 291.301 309.112 293.176 310.992H293.171Z" fill="#593E39"/>
<path d="M253.348 328.239C253.609 327.992 253.984 328.038 254.231 328.267C256.938 330.75 260.561 332.516 264.297 332.383C268.391 332.241 271.784 329.511 274.085 326.309C274.254 326.071 274.419 325.829 274.584 325.587C274.638 325.445 274.689 325.298 274.744 325.157C275.8 322.38 277.136 319.709 278.727 317.198C279.157 316.521 280.228 317.166 279.793 317.848C279.551 318.227 279.317 318.616 279.089 319.005C279.272 319.206 279.285 319.499 279.162 319.75C278.119 321.909 277.04 324.105 275.718 326.113C275.041 327.965 274.488 329.868 274.08 331.802C273.847 332.918 273.683 334.071 273.811 335.21C273.934 336.303 274.309 337.364 274.748 338.37C275.658 340.447 276.902 342.368 278.426 344.051C280.141 345.944 282.176 347.513 284.449 348.684C284.751 348.839 284.824 349.269 284.655 349.544C284.467 349.85 284.097 349.905 283.795 349.754C279.56 347.572 276.052 343.982 273.98 339.692C273.458 338.608 272.992 337.474 272.731 336.298C272.471 335.104 272.48 333.902 272.653 332.699C272.836 331.468 273.111 330.247 273.449 329.04C272.663 329.89 271.798 330.673 270.829 331.359C269.077 332.598 267.064 333.394 264.924 333.6C262.962 333.787 260.949 333.44 259.115 332.744C256.966 331.935 255.013 330.682 253.32 329.127C253.073 328.898 253.115 328.463 253.348 328.244V328.239Z" fill="#593E39"/>
<path d="M309.788 327.681C312.084 331.656 316.406 334.254 320.943 334.954C325.48 335.653 330.182 334.579 334.257 332.47C338.145 330.458 341.708 327.224 342.718 322.966C341.712 324.443 339.979 325.23 338.296 325.829C332.615 327.846 326.166 328.491 320.646 326.076C315.125 323.661 310.963 317.624 312.052 311.696C311.672 313.754 308.964 316.265 308.411 318.685C307.72 321.703 308.242 325.01 309.792 327.686L309.788 327.681Z" fill="#593E39"/>
<path d="M239.174 282.255C240.843 286.532 244.726 289.751 249.103 291.128C253.48 292.505 258.292 292.153 262.637 290.68C266.781 289.276 270.792 286.618 272.434 282.562C271.217 283.87 269.383 284.386 267.631 284.725C261.713 285.864 255.241 285.525 250.146 282.305C245.051 279.086 241.849 272.486 243.821 266.791C243.135 268.772 240.079 270.844 239.165 273.149C238.026 276.026 238.044 279.374 239.169 282.255H239.174Z" fill="#593E39"/>
<path d="M351.271 272.28C351.605 271.374 351.934 270.441 352.204 269.499C352.378 269.677 352.552 269.851 352.721 270.025C355.474 272.856 357.825 276.03 359.792 279.438C356.403 283.952 351.605 288.256 348.033 291.457C343.738 295.309 338.89 298.551 333.672 301.007C342.856 294.252 347.338 282.982 351.271 272.28Z" fill="#B76B18"/>
<path d="M315.029 296.983C322.882 285.118 324.721 270.071 332.491 258.152C333.2 257.063 333.964 255.984 334.669 254.877C339.288 257.754 343.761 261.449 347.662 265.072C333.822 271.617 327.584 288.187 315.034 296.983H315.029Z" fill="#B76B18"/>
<path d="M315.45 248.542C318.212 248.949 320.943 249.443 323.641 250.038C325.622 250.477 327.639 251.204 329.656 252.142C329.18 252.563 328.736 253.02 328.334 253.5C326.193 256.043 324.922 259.181 323.577 262.218C318.876 272.829 312.856 282.854 305.699 291.993C307.354 278.592 309.047 265.035 313.895 252.43C314.398 251.126 314.928 249.832 315.454 248.538L315.45 248.542Z" fill="#B76B18"/>
<path d="M295.024 249.759C295.321 248.862 295.65 247.97 296.016 247.092C299.391 247.129 302.753 247.257 306.092 247.509C300.219 256.112 295.742 265.662 292.906 275.687C292.156 266.988 292.284 258.051 295.019 249.759H295.024Z" fill="#B76B18"/>
<path d="M270.641 231.56C270.454 230.833 270.225 230.051 269.626 229.602C268.766 228.958 267.526 229.269 266.598 229.804C264.531 230.993 263.145 233.06 261.882 235.086C258.319 240.808 255.173 246.79 252.47 252.965C252.634 252.585 256.042 252.357 256.545 252.274C258.004 252.041 259.463 251.817 260.926 251.611C263.849 251.195 266.781 250.834 269.722 250.518C271.56 250.321 273.266 250.134 273.678 248.048C274.103 245.894 273.216 243.264 272.809 241.169C272.182 237.945 271.46 234.739 270.641 231.56Z" fill="#E5CAC6"/>
<path d="M387.317 299.027C379.281 298.62 371.204 298.945 363.227 299.997C365.665 309.075 365.738 319.028 363.099 328.075C367.595 324.608 371.377 319.526 374.972 315.136C377.113 312.519 379.194 309.848 381.238 307.159C381.988 306.171 386.343 298.981 387.317 299.032V299.027Z" fill="#E5CAC6"/>
<path d="M104.656 248.135C113.996 254.305 121.254 263.393 125.887 273.583C130.521 283.774 132.592 295.03 132.638 306.221C132.661 311.124 132.295 316.06 131.101 320.816C128.408 331.542 121.702 340.73 116.475 350.477C128.037 342.775 134.015 329.159 138.607 316.041C143.464 302.169 147.466 287.007 143.172 272.952C139.119 259.688 127.982 249.397 115.295 243.795C102.607 238.196 90.839 233.6 76.9714 233.65C72.5075 233.668 61.805 237.245 60.1218 242.514C61.8736 243.035 64.3068 241.7 66.0539 241.142C69.6032 240.008 72.9283 239.226 76.6787 239.331C86.5717 239.614 96.4006 242.674 104.661 248.131L104.656 248.135Z" fill="#CE781B"/>
<path d="M3.6362 338.672C10.387 358.238 25.9788 374.26 44.7677 382.936C75.1098 396.946 110.396 392.116 143.427 387.016C198.545 378.5 256.6 370.29 308.749 390.067C310.643 390.785 312.555 391.544 314.572 391.704C322.503 392.335 328.325 382.877 326.715 375.083C325.105 367.29 318.578 361.49 311.818 357.292C296.149 347.559 277.552 343.36 259.129 342.432C240.706 341.499 222.288 343.676 203.97 345.844C184.884 348.103 165.802 350.367 146.716 352.626C125.311 355.16 103.632 357.694 82.2768 354.753C60.9221 351.812 39.5902 342.724 26.2213 325.815C13.799 310.1 9.58204 288.983 12.7516 269.421C10.57 280.682 4.64242 289.87 1.92563 300.888C-1.12962 313.288 -0.539607 326.597 3.62706 338.672H3.6362Z" fill="#F2AE25"/>
<path d="M311.823 357.292C305.209 353.184 298.07 350.065 290.646 347.76C290.843 348.13 290.985 348.524 291.058 348.949C291.374 350.733 290.422 352.462 289.562 354.053C285.149 362.204 282.231 371.155 280.987 380.339C280.909 380.915 280.845 381.5 280.79 382.095C290.258 383.993 299.597 386.595 308.749 390.067C310.643 390.785 312.555 391.544 314.572 391.704C322.502 392.335 328.325 382.877 326.715 375.083C325.105 367.29 318.578 361.49 311.818 357.292H311.823Z" fill="#B76B18"/>
<path d="M30.7721 330.952C29.1759 329.323 27.6574 327.617 26.2304 325.815C24.0305 323.03 22.0912 320.071 20.3989 316.988C12.6419 321.603 6.60002 331.061 3.65454 338.727C5.87737 345.158 9.06526 351.204 12.9987 356.734C14.5812 351.547 16.3375 346.438 19.132 341.814C21.8854 337.254 26.0155 333.197 30.7721 330.956V330.952Z" fill="#B76B18"/>
<path d="M105.397 386.312C103.842 379.913 103.394 373.245 104.08 366.691C104.464 363.032 105.26 359.29 106.893 356.029C101.166 356.148 95.4445 356.029 89.7457 355.563C85.3686 367.189 83.7541 380.508 87.2804 392.079C93.7202 392.271 100.229 392.061 106.751 391.595C106.335 389.829 105.827 388.064 105.402 386.316L105.397 386.312Z" fill="#B76B18"/>
<path d="M48.9069 384.72C50.0823 375.888 51.6603 367.166 55.8544 359.391C57.6701 356.025 60.1994 352.919 63.154 350.344C57.2997 348.409 51.642 345.94 46.3593 342.898C45.5864 344.151 44.7082 345.363 43.8804 346.498C37.6647 355.009 33.4751 364.98 31.7417 375.376C35.8443 378.29 40.2122 380.833 44.7677 382.937C46.1352 383.568 47.5165 384.162 48.9069 384.72Z" fill="#B76B18"/>
<path d="M151.322 385.809C150.832 376.757 150.348 367.706 149.858 358.655C149.744 356.532 149.652 354.323 149.995 352.238C148.907 352.366 147.818 352.494 146.725 352.626C140.793 353.331 134.838 354.031 128.874 354.616C130.429 359.203 129.839 365.085 129.34 370.158C128.728 376.369 128.947 383.001 130.79 388.905C135.03 388.306 139.247 387.666 143.427 387.021C146.053 386.614 148.683 386.211 151.322 385.809Z" fill="#B76B18"/>
<path d="M248.879 378.212C248.879 374.278 248.472 370.299 248.916 366.389C249.867 358.042 254.939 350.262 262.198 346.027C264.325 344.787 266.625 343.868 269.008 343.259C265.724 342.871 262.427 342.596 259.134 342.432C248.71 341.906 238.291 342.372 227.89 343.269C228.352 344.517 228.654 345.825 228.782 347.12C229.295 352.183 227.868 357.209 227.086 362.24C226.281 367.432 226.162 372.728 226.733 377.947C234.147 377.764 241.538 377.832 248.879 378.212Z" fill="#B76B18"/>
<path d="M210.336 366.553C208.864 360.233 206.472 353.884 207.295 347.444C207.382 346.758 207.528 346.077 207.72 345.4C206.472 345.546 205.223 345.693 203.974 345.844C196.272 346.754 188.575 347.669 180.873 348.579C182.455 352.91 182.341 358.284 182.487 363.068C182.67 369.174 183.717 375.253 185.57 381.075C194.319 380.046 203.087 379.191 211.837 378.623C211.805 374.571 211.256 370.491 210.336 366.553Z" fill="#B76B18"/>
</g>
<defs>
<clipPath id="clip0_1_446">
<rect width="400" height="400" fill="white"/>
</clipPath>
</defs>
</svg>
