<svg width="400" height="400" viewBox="0 0 400 400" fill="none" xmlns="http://www.w3.org/2000/svg">
<path d="M280.805 389.832C280.805 395.25 252.423 399.64 217.417 399.64C182.411 399.64 154.03 395.25 154.03 389.832C154.03 384.415 182.411 380.024 217.417 380.024C252.423 380.024 280.805 384.415 280.805 389.832Z" fill="#7295A0"/>
<path d="M250.509 103.782C249.225 95.3065 252.816 86.2643 259.566 80.9825C266.316 75.7006 275.954 74.3825 283.872 77.668C287.797 72.4927 295.022 69.6482 301.133 71.8579C307.243 74.0675 310.994 81.8886 307.99 87.6502C311.643 87.8538 313.398 92.2246 313.814 95.8638C315.636 111.656 308.687 127.23 299.689 140.333C286.528 159.508 268.594 175.383 247.965 186.121C241.922 189.266 233.796 191.708 228.912 186.955C218.338 176.652 231.49 154.735 231.034 141.937C230.535 128.006 231.194 104.518 250.504 103.787L250.509 103.782Z" fill="#2D4934"/>
<path d="M83.5723 116.642C81.2318 112.935 78.8622 109.156 77.7137 104.921C76.5653 100.69 76.8076 95.859 79.3904 92.3119C74.157 88.8811 69.0059 85.0965 65.3522 80.0182C61.6985 74.9398 59.7166 68.3253 61.432 62.3117C63.1474 56.2981 69.224 51.4136 75.4169 52.3101C72.7517 46.9119 74.2733 39.4979 79.3952 36.3384C84.5172 33.179 92.5176 35.8684 93.9131 41.7269C98.6668 37.5256 105.621 35.9604 111.717 37.7291C117.812 39.493 122.852 44.5326 124.626 50.6237C137.351 48.8696 150.541 54.3404 159.346 63.6976C168.15 73.0548 172.763 85.9058 173.374 98.7374C173.534 102.052 173.481 105.546 175.114 108.434C176.301 110.532 178.244 112.068 180.018 113.701C193.828 126.426 198.213 146.458 198.708 165.226C199.134 181.498 196.934 198.517 187.863 212.031C178.792 225.546 161.458 234.467 145.869 229.796C135.921 226.816 128.056 218.874 122.939 209.841C117.822 200.804 115.099 190.642 112.424 180.607C109.473 169.539 107.927 155.578 102.432 145.567C97.0193 135.711 89.5956 126.256 83.582 116.638L83.5723 116.642Z" fill="#2D4934"/>
<path d="M205.73 61.3377C210.808 52.7365 217.859 44.9057 225.539 37.545C234.712 45.2255 240.251 55.1691 243.372 65.3597C246.492 75.5503 247.34 86.0657 248.169 96.5277C248.552 101.373 248.93 106.297 247.49 111.026C246.051 115.756 242.509 120.345 236.898 122.52C231.199 124.73 224.134 124.095 218.59 121.692C213.047 119.288 208.875 115.32 205.773 111.026C194.744 95.7523 196.552 76.8878 205.725 61.3426L205.73 61.3377Z" fill="#EACEA4"/>
<path d="M124.064 51.9418C132.093 53.6281 138.998 57.8052 145.06 62.4329C150.405 66.5178 155.314 71.0874 158.628 76.4274C161.943 81.7675 163.571 87.9555 162.18 93.848C161.1 98.4272 158.275 102.619 154.921 106.384C150.749 111.075 145.443 115.271 139.168 118.019C135.32 119.705 125.314 123.485 122.164 119.501C120.284 117.122 120.546 111.937 120.153 109.151C119.644 105.536 119.276 101.906 119.053 98.2722C118.607 91.0035 118.738 83.7058 119.441 76.4468C120.24 68.1993 121.781 59.9954 124.064 51.9321V51.9418Z" fill="#EACEA4"/>
<path d="M130.843 178.785C131.018 198.681 136.28 218.278 143.985 236.624C147.828 245.777 152.324 254.737 158.406 262.582C164.434 270.36 171.974 276.95 180.488 281.883C184.738 284.345 189.264 286.409 194.046 287.528C210.73 291.424 228.514 283.012 239.66 270.001C250.805 256.99 256.334 240.108 259.896 223.351C264.325 202.514 266.079 180.621 260.559 160.046C255.04 139.471 241.375 120.33 221.735 112.083C215.053 109.277 207.891 107.78 200.7 106.888C190.47 105.618 179.921 105.565 170.045 108.516C160.397 111.399 151.031 117.51 146.141 126.533C146.064 126.038 145.933 125.631 145.817 125.215C134.012 138.342 130.698 161.849 130.843 178.789V178.785Z" fill="#EACEA4"/>
<path d="M135.747 83.6621C131.526 87.4564 127.659 91.74 124.975 96.7409C116.373 112.771 121.931 133.826 134.734 146.749C147.536 159.673 166.033 165.517 184.161 167.063C200.632 168.468 218.415 166.263 231.15 155.724C242.853 146.037 248.566 130.535 249.336 115.363C250.063 101.005 246.225 85.5908 235.463 76.0591C227.429 68.9456 216.564 65.9363 205.928 64.502C180.081 61.013 155.542 65.8733 135.747 83.6621Z" fill="#EACEA4"/>
<path d="M370.883 151.949C375.118 153.412 379.397 155.733 381.437 159.721C383.477 163.709 382.134 169.597 377.88 171.007C388.022 168.827 398.794 178.683 397.525 188.98C396.25 199.277 383.404 206.212 374.095 201.628C376.038 204.627 374.885 208.886 372.278 211.329C369.671 213.776 366.003 214.73 362.451 215.108C356.098 215.787 349.581 214.866 343.659 212.463C344.163 218.786 338.799 224.374 332.761 226.322C326.723 228.27 320.191 227.441 313.901 226.593C315.234 232.393 310.824 238.276 305.378 240.68C299.931 243.078 293.733 242.85 287.787 242.579C288.301 255.052 280.073 266.701 269.383 273.151C258.698 279.601 245.915 281.621 233.447 282.179C230.966 282.29 228.306 282.3 226.246 280.914C224.671 279.858 223.688 278.132 222.888 276.417C216.86 263.503 218.42 248.069 223.838 234.884C229.26 221.704 238.186 210.316 247.034 199.142C260.622 181.992 275.678 163.952 296.742 158.045C308.697 154.691 321.373 155.409 333.502 152.797C346.004 150.102 358.376 147.626 370.883 151.949Z" fill="#2D4934"/>
<path d="M216.104 200.101C218.246 197.198 220.688 194.495 222.433 191.335C225.098 186.499 225.96 180.907 227.661 175.654C231.993 162.261 242.189 150.883 255.03 145.121C257.671 143.934 260.515 142.907 262.459 140.765C263.908 139.17 264.707 137.111 265.608 135.158C272.921 119.322 289.348 108.104 306.759 107.053C308.896 106.922 311.062 106.932 313.121 106.36C315.103 105.807 316.891 104.741 318.733 103.83C333.469 96.5374 352.774 99.9536 364.113 111.86C368.266 116.221 371.488 121.987 370.97 127.986C370.456 133.985 365.073 139.718 359.098 138.967C360.532 147.558 355.41 156.213 348.364 161.34C341.324 166.467 332.645 168.73 324.136 170.615C322.401 170.997 320.482 171.492 319.513 172.979C318.941 173.856 318.8 174.942 318.597 175.969C316.629 185.859 307.272 192.905 297.494 195.357C293.694 196.312 289.735 196.728 286.121 198.231C282.501 199.733 279.143 202.64 278.503 206.502C278.188 208.402 278.556 210.369 278.261 212.274C277.355 218.156 270.944 221.204 265.468 223.535C259.992 225.871 253.775 229.786 254.008 235.732C254.119 238.606 255.762 241.77 254.134 244.139C253.048 245.719 250.969 246.165 249.172 246.814C244.757 248.413 241.128 252.038 239.519 256.448C238.191 260.092 238.206 264.133 236.786 267.743C235.356 271.392 232.57 274.333 229.677 276.97C222.258 283.725 210.943 289.161 202.691 280.328C197.167 274.411 200.108 268.698 201.576 261.749C206.131 240.151 201.988 219.242 216.104 200.101Z" fill="#3E664A"/>
<path d="M142.521 254.17C135.165 243.941 119.814 243.863 109.759 236.27C99.5684 228.575 96.1085 214.159 85.6707 206.798C76.7351 200.498 63.6515 200.096 57.2745 191.214C52.9133 185.137 53.1217 176.778 49.2451 170.387C46.0372 165.095 40.4597 161.805 35.3668 158.287C27.2792 152.695 19.9282 146.037 13.5705 138.536C6.34548 129.997 0.138051 119.065 2.4834 108.133C4.58647 98.3206 13.619 90.8581 23.485 89.0167C33.3509 87.1754 43.687 90.3251 51.9975 95.9559C60.3031 101.587 66.7964 109.514 72.3788 117.854C73.4981 119.526 74.6514 121.28 76.4104 122.259C78.906 123.645 81.9685 123.136 84.8227 122.927C98.2358 121.939 111.925 129.203 118.622 140.866C122.503 147.626 124.199 155.656 129.195 161.645C135.524 169.234 146.33 172.495 151.433 180.96C157.33 190.744 153.957 204.918 161.938 213.093C164.24 215.452 167.239 216.979 169.992 218.791C179.756 225.231 186.438 235.286 192.854 245.065C195.994 249.853 199.188 254.757 200.583 260.31C201.979 265.863 201.262 272.288 197.327 276.446C194.385 279.552 190.097 280.996 185.891 281.796C163.552 286.031 153.7 269.701 142.536 254.17H142.521Z" fill="#3E664A"/>
<path d="M312.874 137.121C317.933 133.874 323.719 130.681 329.626 131.785C327.353 135.323 323.312 137.208 319.6 139.18C302.79 148.111 289.212 161.975 276.032 175.703C265.831 186.325 255.655 197.048 247.049 208.998C238.443 220.948 231.402 234.235 228.136 248.593C226.682 254.984 226.057 262.093 222.651 267.84C218.508 274.828 216.39 266.449 217.335 262.137C220.044 249.785 225.771 237.414 231.46 226.191C243.226 202.994 259.27 182.036 278.188 164.218C288.883 154.144 300.508 145.058 312.869 137.121H312.874Z" fill="#2D4934"/>
<path d="M39.8055 127.449C98.2357 166.05 146.471 219.949 178.365 282.295C181.181 287.8 183.986 293.523 188.629 297.608C189.501 298.378 190.596 299.12 191.735 298.887C194.327 298.359 193.562 294.443 192.161 292.195C183.57 278.38 174.983 264.564 166.396 250.749C156.346 234.584 146.228 218.326 133.576 204.099C127.112 196.83 120.032 190.143 112.957 183.466C106.275 177.156 99.5974 170.852 92.9151 164.543C84.057 156.179 75.199 147.815 65.9242 139.917C59.5956 134.528 53.0829 129.358 46.3957 124.42C44.5398 123.049 40.7843 119.332 38.0562 120.64C34.3249 122.428 37.7218 126.072 39.8006 127.444L39.8055 127.449Z" fill="#2D4934"/>
<path d="M166.478 347.209C168.707 359.696 170.505 373.105 178.854 382.651C185.488 390.234 195.538 394.247 205.569 395.134C215.605 396.02 225.689 394.053 235.361 391.247C238.288 390.399 241.278 389.425 243.584 387.438C247.175 384.342 248.445 379.409 249.53 374.796C257.986 338.835 266.442 302.87 274.893 266.91C233.02 267.869 191.129 268.833 149.257 267.976C148.704 267.966 148.084 267.976 147.696 268.373C147.279 268.795 147.309 269.473 147.372 270.064C148.743 282.736 153.54 294.802 156.986 307.038C160.712 320.286 164.055 333.655 166.474 347.209H166.478Z" fill="#876249"/>
<path d="M149.262 268.223C148.709 268.213 148.089 268.223 147.702 268.62C147.285 269.047 147.314 269.72 147.377 270.311C147.677 273.098 148.147 275.855 148.729 278.588C150.822 279.514 153.26 279.693 155.586 279.819C168.592 280.526 181.69 280.899 194.429 283.603C207.169 286.302 219.71 291.526 228.989 300.665C232.493 304.115 235.521 308.142 237.271 312.741C238.758 316.651 239.282 320.853 239.776 325.006C241.419 338.797 242.877 352.68 242.204 366.558C241.874 373.299 240.832 380.494 236.282 385.476C233.767 388.228 230.399 390.041 227.032 391.635C224.415 392.871 221.755 394.009 219.051 395.046C224.565 394.349 230.036 393.055 235.376 391.504C238.303 390.656 241.293 389.682 243.599 387.695C247.19 384.599 248.46 379.666 249.545 375.053C258.001 339.092 266.457 303.127 274.908 267.167C233.036 268.126 191.144 269.09 149.267 268.233L149.262 268.223Z" fill="#6D503C"/>
<path d="M147.847 273.427C168.136 277.677 189.016 277.968 209.742 278.249C223.727 278.438 237.711 278.627 251.701 278.811C258.078 278.898 264.513 278.976 270.769 277.711C273.551 277.149 276.366 276.272 278.522 274.43C280.679 272.584 282.036 269.58 281.251 266.856C279.879 262.108 273.677 261.129 268.729 261.143C247.975 261.211 227.283 262.956 206.573 264.07C187.18 265.117 166.551 266.827 147.566 262.558C144.513 261.87 141.159 262.146 140.161 265.965C138.94 270.631 144.261 272.671 147.852 273.422L147.847 273.427Z" fill="#876249"/>
<path d="M263.438 299.788C260.719 301.644 257.938 303.902 254.647 303.931C249.666 303.98 246.022 298.969 241.147 297.947C233.534 296.348 227.065 304.784 219.288 304.813C211.665 304.842 205.894 296.881 198.281 296.542C188.774 296.12 181.171 307.682 171.882 305.608C167.351 304.595 164.119 300.53 159.782 298.877C157.994 298.194 155.958 298.029 153.904 298.267C154.829 301.223 155.755 304.174 156.608 307.134C157.339 306.834 158.11 306.621 158.919 306.534C165.442 305.802 170.525 312.92 177.076 313.313C185.091 313.792 190.635 304.314 198.625 303.539C207.159 302.71 214.195 312.092 222.728 311.244C229.624 310.56 235.642 303.248 242.203 305.482C246.361 306.897 249.307 311.951 253.659 311.365C257.758 310.812 259.813 305.467 263.883 304.736C264.697 304.59 265.255 304.542 266.03 304.731C266.602 302.303 267.145 299.992 267.716 297.564C266.117 298.015 264.814 298.863 263.447 299.798L263.438 299.788Z" fill="#AD7F60"/>
<path d="M263.408 299.73C260.69 301.586 257.908 303.844 254.618 303.873C249.637 303.922 245.993 298.911 241.118 297.889C237.038 297.031 233.282 299.061 229.478 301.131C231.116 302.797 232.643 304.59 233.961 306.519C236.669 305.254 239.368 304.474 242.164 305.424C246.322 306.839 249.268 311.893 253.62 311.307C257.719 310.754 259.774 305.409 263.844 304.673C264.586 304.537 265.313 304.571 266.02 304.721C266.582 302.332 267.144 299.943 267.707 297.554C266.19 298.02 264.707 298.843 263.403 299.73H263.408Z" fill="#8E6950"/>
<path d="M141.116 309.121C139.178 315.77 139.134 322.873 140.312 329.696C142.085 339.969 146.897 350.068 155.207 356.363C164.807 363.631 177.474 364.92 189.356 366.849C196.198 367.958 202.987 369.359 209.708 371.05C212.208 371.68 214.902 372.339 217.296 371.38C219.966 370.309 221.527 367.44 222.016 364.605C223.29 357.225 218.503 349.826 212.126 345.896C205.749 341.966 198.073 340.837 190.615 340.129C183.158 339.422 175.535 339.024 168.548 336.316C166.944 335.695 165.345 334.925 164.153 333.679C162.791 332.26 162.084 330.35 161.526 328.465C159.239 320.712 158.968 312.508 157.112 304.644C156.395 301.601 155.498 298.509 154.233 295.645C152.615 291.996 151.568 292.728 149.01 295.345C145.269 299.168 142.613 304.004 141.121 309.121H141.116Z" fill="#EACEA4"/>
<path d="M229.023 84.5538C229.241 85.489 229.362 86.4679 229.372 87.4709C229.42 94.7105 223.596 100.622 216.351 100.676C211.52 100.71 207.275 98.1219 204.978 94.2453C206.345 100.07 211.598 104.392 217.834 104.349C225.074 104.295 230.903 98.3884 230.855 91.144C230.835 88.7357 230.171 86.4872 229.028 84.5538H229.023Z" fill="#E9F1F4"/>
<path d="M227.891 100.169C232.586 94.6545 231.921 86.3787 226.407 81.6841C220.893 76.9895 212.617 77.6539 207.923 83.1681C203.228 88.6823 203.892 96.9581 209.407 101.653C214.921 106.347 223.197 105.683 227.891 100.169Z" fill="white"/>
<path d="M218.004 105.206C210.536 105.26 204.421 99.2268 204.368 91.7594C204.314 84.2921 210.347 78.1767 217.815 78.1234C225.282 78.0701 231.397 84.1031 231.451 91.5704C231.504 99.0378 225.471 105.153 218.004 105.206ZM217.82 78.9811C210.827 79.0296 205.177 84.7573 205.225 91.7497C205.274 98.7422 211.002 104.392 217.999 104.344C224.991 104.295 230.642 98.5677 230.593 91.5753C230.545 84.5829 224.817 78.9327 217.824 78.9811H217.82Z" fill="#E0BA99"/>
<path d="M227.298 92.1229C227.332 96.862 223.518 100.729 218.779 100.763C214.04 100.797 210.173 96.9832 210.139 92.244C210.105 87.5049 213.919 83.6379 218.658 83.604C223.397 83.5701 227.264 87.3837 227.298 92.1229Z" fill="#593E39"/>
<path d="M218.953 99.8228C219.908 97.2739 220.717 94.6427 220.945 91.9339C221.173 89.2202 220.79 86.4049 219.482 84.0207C219.525 84.0207 218.648 84.8881 218.595 84.9657C218.212 85.4842 218.105 86.4049 217.96 87.0251C217.635 88.4352 217.456 89.8841 217.422 91.3282C217.388 92.777 217.5 94.2308 217.752 95.6554C217.883 96.3968 218.052 97.1285 218.265 97.8457C218.367 98.1898 219.055 99.532 218.949 99.8228H218.953Z" fill="#30211F"/>
<path d="M211.593 92.7044C211.646 92.9854 211.714 93.2713 211.864 93.5136C212.014 93.7559 212.262 93.9546 212.547 93.9836C212.974 94.0273 213.357 93.6832 213.521 93.2907C213.686 92.8982 213.691 92.4572 213.725 92.0356C213.822 90.9017 214.185 89.7872 214.776 88.8132C215.77 87.1656 213.313 87.5436 212.664 88.4546C211.796 89.6806 211.326 91.2216 211.593 92.7044Z" fill="white"/>
<path d="M215.857 87.1414C216.191 87.1899 216.536 87.0445 216.787 86.8216C217.044 86.5987 217.224 86.3031 217.379 86.0027C217.461 85.8428 217.534 85.6344 217.408 85.5084C217.364 85.4648 217.301 85.4406 217.238 85.4212C216.691 85.2613 215.721 85.4745 215.353 85.9542C215.004 86.4097 215.251 87.059 215.847 87.1463L215.857 87.1414Z" fill="white"/>
<path d="M163.469 94.1823C163.687 95.1176 163.808 96.0964 163.818 97.0995C163.871 104.339 158.042 110.251 150.798 110.304C145.966 110.338 141.721 107.75 139.425 103.874C140.791 109.698 146.044 114.021 152.28 113.977C159.52 113.929 165.349 108.017 165.301 100.773C165.282 98.3642 164.618 96.1158 163.474 94.1823H163.469Z" fill="#E9F1F4"/>
<path d="M165.466 101.199C165.519 108.439 159.69 114.35 152.445 114.404C145.206 114.457 139.294 108.628 139.241 101.383C139.187 94.1436 145.017 88.2317 152.261 88.1784C159.501 88.13 165.413 93.9546 165.466 101.199Z" fill="white"/>
<path d="M152.445 114.835C144.978 114.888 138.862 108.855 138.809 101.388C138.756 93.9207 144.789 87.8053 152.256 87.752C159.724 87.6987 165.839 93.7317 165.892 101.199C165.945 108.666 159.913 114.782 152.445 114.835ZM152.261 88.6097C145.269 88.6582 139.618 94.3859 139.667 101.378C139.715 108.371 145.443 114.021 152.435 113.972C159.428 113.924 165.078 108.196 165.03 101.204C164.981 94.2114 159.253 88.5612 152.261 88.6097Z" fill="#E0BA99"/>
<path d="M161.744 101.747C161.778 106.486 157.965 110.353 153.225 110.387C148.486 110.42 144.619 106.607 144.585 101.868C144.552 97.1286 148.365 93.2616 153.104 93.2277C157.843 93.1938 161.71 97.0074 161.744 101.747Z" fill="#593E39"/>
<path d="M153.395 109.447C154.35 106.898 155.159 104.266 155.387 101.558C155.614 98.844 155.232 96.0286 153.923 93.6445C153.967 93.6445 153.09 94.5118 153.037 94.5894C152.654 95.1079 152.547 96.0286 152.402 96.6488C152.077 98.059 151.898 99.5078 151.864 100.952C151.83 102.401 151.941 103.854 152.193 105.279C152.324 106.021 152.494 106.752 152.707 107.469C152.809 107.813 153.497 109.156 153.39 109.447H153.395Z" fill="#30211F"/>
<path d="M146.039 102.333C146.093 102.614 146.16 102.9 146.311 103.142C146.461 103.384 146.708 103.583 146.994 103.612C147.42 103.656 147.803 103.312 147.968 102.919C148.133 102.527 148.137 102.086 148.171 101.664C148.268 100.53 148.632 99.4158 149.223 98.4418C150.216 96.7942 147.759 97.1722 147.11 98.0832C146.238 99.3092 145.773 100.85 146.039 102.333Z" fill="white"/>
<path d="M150.304 96.7651C150.638 96.8136 150.982 96.6682 151.234 96.4453C151.491 96.2224 151.67 95.9268 151.825 95.6264C151.908 95.4664 151.98 95.2581 151.854 95.1321C151.811 95.0885 151.748 95.0642 151.685 95.0449C151.137 94.885 150.168 95.0933 149.8 95.5779C149.451 96.0334 149.698 96.6827 150.294 96.77L150.304 96.7651Z" fill="white"/>
<path d="M184.776 112.083C184.025 112.388 183.308 112.931 183.066 113.706C182.881 114.292 182.988 114.937 183.201 115.513C183.851 117.311 185.387 118.644 186.996 119.686C188.599 120.727 190.349 121.575 191.783 122.84C193.465 121.241 194.991 119.477 196.333 117.583C196.9 116.783 197.448 115.94 197.7 114.99C197.952 114.04 198.005 112.698 197.419 111.908C196.774 111.036 194.046 109.485 191.783 111.007C191.027 111.516 190.3 111.957 189.908 112.761C188.551 111.627 186.399 111.419 184.781 112.078L184.776 112.083Z" fill="#593E39"/>
<path d="M204.509 132.696C204.412 132.483 204.174 132.411 203.966 132.488C201.693 133.302 199.047 133.448 196.813 132.415C194.371 131.286 193.01 128.767 192.433 126.237C192.389 126.048 192.351 125.859 192.317 125.67C192.317 125.568 192.326 125.471 192.331 125.37C192.399 123.417 192.273 121.459 191.948 119.531C191.861 119.007 191.047 119.128 191.134 119.652C191.183 119.942 191.226 120.238 191.265 120.534C191.105 120.606 191.023 120.781 191.032 120.965C191.115 122.54 191.207 124.144 191.498 125.699C191.435 126.998 191.284 128.287 191.037 129.566C190.897 130.303 190.698 131.044 190.33 131.698C189.976 132.328 189.477 132.876 188.958 133.375C187.878 134.402 186.632 135.25 185.281 135.88C183.759 136.592 182.126 137.019 180.449 137.15C180.226 137.169 180.071 137.411 180.105 137.615C180.139 137.848 180.352 137.978 180.57 137.959C183.696 137.717 186.734 136.437 189.084 134.363C189.676 133.84 190.252 133.273 190.708 132.624C191.168 131.97 191.473 131.238 191.672 130.463C191.876 129.673 192.021 128.859 192.123 128.045C192.38 128.762 192.704 129.455 193.121 130.119C193.867 131.315 194.885 132.314 196.13 132.982C197.274 133.598 198.577 133.898 199.866 133.947C201.378 134.005 202.88 133.743 204.3 133.234C204.509 133.162 204.596 132.885 204.509 132.692V132.696Z" fill="#593E39"/>
<path d="M227.177 48.7823C231.819 56.1576 232.051 65.3694 234.237 73.8059C234.091 73.2389 230.932 72.2649 230.355 72.0323C228.897 71.4411 227.409 70.913 225.897 70.4623C223.038 69.6046 219.646 69.6434 216.913 68.6306C213.061 67.2011 219.636 58.0232 220.964 55.9928C222.704 53.3325 224.734 50.8418 227.172 48.7872L227.177 48.7823Z" fill="#FFE0B6"/>
<path d="M127.088 64.8461C133.542 67.1769 138.276 72.6768 142.376 78.1816C136.58 84.1371 131.376 90.5238 125.988 96.833C126.235 91.8176 125.164 86.8604 125.14 81.8111C125.135 80.3767 126.651 64.691 127.083 64.8509L127.088 64.8461Z" fill="#FFE0B6"/>
<path d="M153.206 157.046C167.928 164.116 185.314 164.868 201.005 160.332C216.691 155.796 230.685 146.206 241.612 134.068C238.414 141.259 234.276 147.995 230.021 154.619C225.321 161.931 220.267 169.345 212.993 174.104C204.339 179.768 193.315 181.014 183.129 179.226C172.938 177.442 163.445 172.858 154.539 167.601C149.325 164.519 144.106 161.015 140.321 156.208C139.498 155.161 135.994 150.95 137.07 149.579C138.087 148.285 141.717 150.379 142.676 150.926C146.209 152.961 149.519 155.263 153.211 157.037L153.206 157.046Z" fill="#DBC09C"/>
<path d="M160.688 76.9314C161.463 78.1816 162.616 79.1411 163.542 80.2798C164.593 81.5785 165.349 83.1146 165.732 84.7379C166.546 88.1978 165.95 92.496 168.766 94.6717C169.081 94.914 169.531 95.1176 169.851 94.8801C170.093 94.7008 170.127 94.3519 170.142 94.0466C170.268 90.7661 170.37 87.3546 169.042 84.3551C168.145 82.3393 166.629 80.5803 166.144 78.4239C165.538 75.7151 166.672 72.8125 165.916 70.1376C165.616 69.0716 165.02 68.0782 164.748 67.017C162.863 67.5694 160.993 68.1896 159.152 68.8874C159.418 71.6059 159.312 74.6975 160.693 76.9265L160.688 76.9314Z" fill="#FFE0B6"/>
<path d="M192.278 77.0574C193.542 73.2195 191.706 69.1443 190.363 65.3306C190.179 64.8073 190.044 64.187 190.029 63.6007C188.415 63.6007 186.807 63.6298 185.212 63.7025C185.75 64.4535 186.104 65.3839 186.24 66.2949C186.526 68.1993 186.167 70.1473 186.351 72.0614C186.584 74.4407 187.65 76.7376 187.461 79.1217C187.291 81.2684 186.109 83.2794 186.172 85.4357C186.259 88.4159 188.706 91.0859 188.275 94.037C188.11 95.1612 187.669 96.6198 188.648 97.1964C190.383 94.8801 191.182 91.8806 190.829 89.007C190.557 86.7974 189.637 84.6071 190.029 82.412C190.373 80.5027 191.667 78.8988 192.273 77.0574H192.278Z" fill="#FFE0B6"/>
<path d="M194.599 63.717C195.403 65.0593 195.766 66.7262 195.907 68.3156C196.12 70.7143 196.004 73.205 196.929 75.4292C197.288 76.2918 198.039 77.2028 198.955 77.0332C199.784 76.8781 200.205 75.8896 200.108 75.0512C200.011 74.2129 199.566 73.4667 199.275 72.6768C198.277 69.9487 199.221 66.9685 199.41 64.0417C197.797 63.8963 196.193 63.7897 194.599 63.717Z" fill="#FFE0B6"/>
<path d="M183.453 93.2956C183.289 92.0938 182.048 91.4057 181.181 90.5577C179.029 88.4595 179.039 84.9948 179.722 82.0679C180.226 79.9261 180.997 77.6195 180.1 75.6085C179.233 73.6702 176.965 72.4685 176.587 70.38C176.35 69.0571 176.95 67.7487 177.551 66.547C177.949 65.7522 178.428 64.9188 178.995 64.1919C176.548 64.4681 174.125 64.8412 171.732 65.3161C172.26 67.5985 170.99 70.3073 171.48 72.735C172.003 75.3372 174.416 77.0962 175.628 79.4512C177.624 83.3424 176.093 88.2027 177.517 92.341C178.002 93.7559 178.961 95.1467 180.401 95.5392C181.845 95.9317 183.662 94.7784 183.458 93.3004L183.453 93.2956Z" fill="#FFE0B6"/>
<path d="M212.126 345.896C206.025 342.14 198.742 340.938 191.594 340.226C187.49 342.644 184.369 346.39 183.211 351.589C182.043 356.847 183.758 362.585 187.388 366.534C188.047 366.636 188.701 366.742 189.355 366.849C196.198 367.958 202.986 369.359 209.708 371.055C212.208 371.685 214.902 372.344 217.296 371.384C219.966 370.314 221.526 367.445 222.016 364.61C223.29 357.23 218.503 349.83 212.126 345.901V345.896Z" fill="#FFE0B6"/>
</svg>
