<?xml version="1.0" encoding="UTF-8"?>
<svg id="Layer_2" data-name="Layer 2" xmlns="http://www.w3.org/2000/svg" xmlns:xlink="http://www.w3.org/1999/xlink" viewBox="0 0 514.45 395.21">
  <defs>
    <style>
      .cls-1 {
        fill: #fff;
      }

      .cls-1, .cls-2, .cls-3, .cls-4, .cls-5 {
        fill-rule: evenodd;
      }

      .cls-2, .cls-6 {
        fill: #383c47;
      }

      .cls-7 {
        clip-path: url(#clippath-1);
      }

      .cls-3, .cls-8 {
        fill: #c60a01;
      }

      .cls-6, .cls-8 {
        clip-rule: evenodd;
      }

      .cls-9 {
        fill: #70788f;
      }

      .cls-10 {
        clip-path: url(#clippath);
      }

      .cls-4 {
        fill: #ff275a;
      }
    </style>
    <clipPath id="clippath">
      <path class="cls-6" d="M310.62,116.93c83.39,3.48,110.96,15.09,153.26,52.02,33.37,29.13,45,97.11,28.56,141.8-16.45,44.69-109.83,50.45-202.44,50.95s-213.31,7.79-254.95-29.14c-22.61-20.05-45.3-67.29-25.66-138.68,12.6-45.77,39.97-73.14,72.54-74.52,46.14-1.95,163.37-5.16,228.69-2.43Z"/>
    </clipPath>
    <clipPath id="clippath-1">
      <path class="cls-8" d="M159.6,275.85c4.96,10.89-.78,62.97-36.94,61.5-33.23-1.35-35.91-55.07-29.75-65.32,6.16-10.25,61.74-7.06,66.7,3.82Z"/>
    </clipPath>
  </defs>
  <g id="_5" data-name="5">
    <g>
      <g>
        <path class="cls-2" d="M281.68,245.98c-15.87,18.21-28.06,49.69-2.35,80.16,11.77,13.95,15.65,22.68,2.62,23.31-13.03,.62-47.94,1.27-44.81,24.28,2.7,19.86,147.66-3.57,169.76-5.7,16.27-1.57,14.25-9.93,12.42-17.39-2.08-8.43-14.09-11.61-7.41-18.67,8.23-8.71,12.23-26.27,13.56-42.51,.82-10.08,2.53-18.51-2.21-27.51-19.09-36.21-111.97-49.95-141.56-15.97Z"/>
        <path d="M269.53,383.56c-21.21,0-33.5-2.82-34.42-9.58-.76-5.58,.5-10.38,3.74-14.27,8.85-10.61,29.93-11.56,41.25-12.07l1.58-.07c2.42-.12,5.45-.6,6.16-2.23,1.14-2.62-2.26-8.67-10.13-17.99-25.24-29.92-15.32-62.29,2.37-82.6,.68-.78,1.86-.86,2.65-.18,.78,.68,.86,1.86,.18,2.64-8.09,9.29-32.18,42.35-2.34,77.72,9.48,11.24,12.58,17.59,10.7,21.91-1.21,2.77-4.29,4.24-9.42,4.48l-1.59,.07c-9.98,.45-30.75,1.38-38.54,10.72-2.58,3.09-3.53,6.8-2.91,11.36,.37,2.7,6.58,8.64,56.23,5.34,31.25-2.07,67.35-6.9,91.24-10.09,9.22-1.23,16.51-2.21,20.24-2.57,5.59-.54,9.24-1.95,10.83-4.2,1.95-2.75,.93-6.88-.05-10.87-.71-2.89-2.88-5.15-4.97-7.34-3.21-3.36-7.21-7.54-1.98-13.07,13.39-14.16,13.86-46.97,14.21-70.92,.02-1.04,.88-1.84,1.9-1.85,1.04,.02,1.86,.87,1.85,1.9-.46,31.85-1.92,59.36-15.23,73.44-2.65,2.81-1.64,4.13,1.97,7.9,2.32,2.42,4.95,5.17,5.9,9.03,1.13,4.59,2.41,9.79-.53,13.94-2.28,3.22-6.71,5.11-13.53,5.77-3.66,.35-10.92,1.32-20.11,2.55-49.87,6.66-90.61,11.11-117.26,11.12Z"/>
      </g>
      <g>
        <path class="cls-2" d="M96.88,321.51s-6.79,25.95,9.27,29.9c27.03,6.66,34.97,18.53,33.56,25.52-1.7,8.4-8.98,12.5-49.29,7.65-40.31-4.84-55.2-18.39-57.17-30.52-1.73-10.64,1.57-36.54,1.57-36.54l62.06,3.99Z"/>
        <path d="M117.84,388.5c-7.19,0-16.29-.69-27.64-2.05-49.33-5.93-57.55-24.41-58.79-32.09-1.75-10.79,1.42-36.01,1.56-37.08,.13-1.03,1.06-1.76,2.1-1.62,1.03,.13,1.75,1.07,1.62,2.1-.03,.26-3.25,25.75-1.58,36,1.11,6.84,8.74,23.34,55.54,28.96,25.63,3.08,39.89,2.65,44.87-1.34,1.4-1.12,2.12-2.55,2.33-4.64,.36-3.57-.9-15.81-32.14-23.51-3.98-.98-7.04-3.23-9.1-6.7-5.64-9.48-1.71-24.85-1.54-25.5,.26-1,1.28-1.6,2.29-1.34,1,.26,1.6,1.29,1.34,2.29-.04,.14-3.7,14.52,1.14,22.64,1.55,2.6,3.77,4.23,6.77,4.97,34.17,8.42,35.41,23.2,34.98,27.52-.31,3.08-1.53,5.44-3.72,7.19-3.5,2.81-9.85,4.19-20.03,4.19Z"/>
      </g>
      <g>
        <path class="cls-2" d="M20.55,164.85c6.98-31.49,25.88-79.75,32.98-80.52,7.1-.77,20.25,21.45,26.22,37.54,0,0-66.18,74.46-59.2,42.97Z"/>
        <path d="M22.81,174.5c-.89,0-1.58-.2-2.15-.5-3.65-1.86-2.37-7.65-1.95-9.56,3.35-15.12,9.69-35.08,16.53-52.07,7.81-19.39,13.89-29.45,18.08-29.9,9.28-.99,23.14,25.18,28.18,38.76,.24,.65,.1,1.38-.36,1.9-.12,.14-12.45,13.99-25.75,27.08-20.24,19.93-28.49,24.29-32.59,24.29Zm31.13-88.31c-.07,0-.14,0-.21,.01-1.18,.23-6.22,5.7-15.14,27.91-6.72,16.74-12.93,36.34-16.22,51.15h0c-.88,3.99-.31,5.25-.01,5.41,.46,.24,5.27,1.61,30.39-23.12,11.33-11.16,21.96-22.88,24.83-26.07-6.62-17.29-18.67-35.29-23.65-35.29ZM20.55,164.85h0Z"/>
      </g>
      <g>
        <path class="cls-2" d="M447.98,161.27s23.97-28.62,33.19-68.74c12.15-52.86,3.57-90.49,16.04-90.65,19.07-.24,17.53,40.36,10.68,91.84-5.96,44.77-23.84,91.53-38.14,110.44l-21.77-42.88Z"/>
        <path d="M469.75,206.03c-.05,0-.11,0-.17,0-.64-.06-1.21-.44-1.51-1.02l-21.77-42.88c-.34-.67-.25-1.48,.23-2.05,.24-.28,23.79-28.77,32.8-67.96,5.58-24.26,6.77-45.5,7.64-61C488.07,11.78,488.73,.11,497.19,0c.06,0,.13,0,.2,0,3.85,0,7.11,1.47,9.68,4.37,8.9,10.04,9.71,36.83,2.69,89.59-6.11,45.89-24.37,92.64-38.5,111.32-.36,.47-.91,.74-1.5,.74Zm-19.55-44.52l19.83,39.05c13.55-19.71,30.23-63.72,36-107.09,4.56-34.25,8.48-75.05-1.77-86.61-1.89-2.13-4.22-3.16-7.02-3.11-4.96,.06-5.57,11-6.5,27.57-.88,15.64-2.08,37.06-7.73,61.63-8.28,36-28.56,63.17-32.8,68.55Z"/>
      </g>
      <g>
        <g>
          <path class="cls-2" d="M310.62,116.93c83.39,3.48,110.96,15.09,153.26,52.02,33.37,29.13,45,97.11,28.56,141.8-16.45,44.69-109.83,50.45-202.44,50.95s-213.31,7.79-254.95-29.14c-22.61-20.05-45.3-67.29-25.66-138.68,12.6-45.77,39.97-73.14,72.54-74.52,46.14-1.95,163.37-5.16,228.69-2.43Z"/>
          <g class="cls-10">
            <g>
              <path class="cls-1" d="M90.27,114.19s-9.97,56.94,2.51,56.77c10.92-.15,15.71-48.74,25.1-55.09,9.39-6.35-6.58,74.91,7.33,76.13,13.92,1.23,17.88-73.25,26.75-78.75,8.87-5.49-5.56,56.53,12.95,58.21,15.17,1.37,26.58-68.29,26.58-68.29,0,0-84.27-2.35-101.22,11.02Z"/>
              <path d="M125.6,193.89c-.18,0-.36,0-.54-.02-8.87-.78-8.41-20.01-6.71-49.26,.62-10.59,1.38-23.6,.2-26.88-3.56,3.05-6.88,14.7-9.83,25.02-4.59,16.09-8.56,30-15.91,30.1-.03,0-.05,0-.08,0-1.7,0-3.22-.74-4.41-2.13-7.94-9.32-.74-52,.11-56.84,.08-.45,.32-.86,.69-1.15,17.29-13.64,98.97-11.52,102.44-11.43,.54,.02,1.05,.26,1.39,.68,.34,.42,.49,.96,.41,1.5-.03,.17-2.92,17.71-7.64,34.85-6.67,24.22-13.52,35.68-20.96,35-12.73-1.15-12.11-23.76-11.61-41.93,.17-6.33,.39-14.09-.44-16.36-3,2.66-6.16,18.87-8.7,31.97-5.49,28.23-9.77,46.88-18.4,46.88Zm-6.76-80.25c.62,0,1.11,.2,1.42,.38,3.23,1.84,3.08,9.47,1.83,30.8-.61,10.41-1.29,22.21-.86,31.18,.61,12.48,3.1,14.04,4.15,14.13,6.27,.53,11.5-26.16,14.93-43.83,3.84-19.76,6.41-32,10.67-34.64,1.62-1,2.87-.58,3.47-.23,2.82,1.62,2.79,7.33,2.44,20.08-.41,14.84-1.03,37.26,8.2,38.09,9.06,.86,19.41-36.58,24.21-64.6-13.06-.24-81.42-.95-97.3,10.25-2.25,13.2-6.47,46.39-.82,53.02,.62,.73,1.19,.83,1.59,.81,4.56-.06,9.06-15.85,12.35-27.38,3.7-12.94,6.89-24.12,11.72-27.39,.75-.51,1.43-.68,2-.68Z"/>
            </g>
          </g>
        </g>
        <path d="M202.5,364.47c-70.31,0-139.02-4.2-168.7-30.52-7.75-6.88-21.87-22.65-29.24-51.02-6.97-26.8-5.95-56.94,3.02-89.56,12.68-46.09,40.45-74.46,74.27-75.89,46.54-1.97,163.72-5.15,228.84-2.43,43.53,1.82,70.35,5.75,92.58,13.57,24.01,8.45,42.08,21.66,61.83,38.91,16.18,14.13,28.1,37.61,33.57,66.13,5.25,27.4,3.62,55.73-4.48,77.74-7.74,21.03-31.97,35.17-74.07,43.24-38.95,7.47-87.64,8.71-130.13,8.93-11.96,.06-24.16,.24-37.07,.42-16.56,.24-33.54,.48-50.43,.48Zm44.76-246.72c-61.07,0-131.62,2.06-165.25,3.48-32.11,1.36-58.58,28.7-70.82,73.14-8.8,31.98-9.81,61.46-3.01,87.62,7.13,27.4,20.67,42.56,28.1,49.16,35.71,31.68,131.8,30.3,216.59,29.1,12.92-.18,25.13-.36,37.11-.42,94.92-.51,184.93-6.88,200.69-49.72,16.8-45.66,3.44-112.27-28.03-139.74-41.46-36.2-67.85-48.04-152.11-51.56h0c-17.98-.75-39.94-1.05-63.28-1.05Z"/>
      </g>
      <g>
        <path class="cls-9" d="M210.43,285.71c-.19,0-.38-.03-.56-.09l-26.79-8.41c-.99-.31-1.54-1.36-1.23-2.35,.31-.99,1.37-1.54,2.35-1.23l26.79,8.41c.99,.31,1.54,1.36,1.23,2.35-.25,.8-.99,1.31-1.79,1.31Z"/>
        <path class="cls-9" d="M203.39,297.92c-.19,0-.39-.03-.58-.09l-22.39-7.31c-.98-.32-1.52-1.38-1.2-2.36,.32-.98,1.38-1.52,2.36-1.2l22.39,7.31c.98,.32,1.52,1.38,1.2,2.36-.26,.79-.99,1.29-1.78,1.29Z"/>
      </g>
      <g>
        <path class="cls-9" d="M46.4,285.71c-.8,0-1.54-.51-1.79-1.31-.31-.99,.24-2.04,1.23-2.35l26.79-8.41c.98-.31,2.04,.24,2.35,1.23,.31,.99-.24,2.04-1.23,2.35l-26.79,8.41c-.19,.06-.38,.09-.56,.09Z"/>
        <path class="cls-9" d="M53.43,297.92c-.79,0-1.52-.5-1.78-1.29-.32-.98,.22-2.04,1.2-2.36l22.39-7.31c.99-.32,2.04,.22,2.36,1.2,.32,.98-.22,2.04-1.2,2.36l-22.39,7.31c-.19,.06-.39,.09-.58,.09Z"/>
      </g>
      <g>
        <g>
          <path class="cls-1" d="M21.67,223.57c-1.26-16.41,10.16-49.85,36.32-52.55,32.82-3.38,48.39,18.9,49.68,43.48,1.28,24.57-13.47,49.81-44.71,49.07-23.6-.56-39.22-12.87-41.3-40Z"/>
          <path d="M64.29,264.62c-.45,0-.89,0-1.34-.02-25.67-.61-40.3-14.77-42.3-40.96-.72-9.38,2.42-21.94,8-32,5.01-9.02,14.15-20.1,29.25-21.66,14.14-1.45,26.31,1.8,35.19,9.41,9.31,7.97,14.86,20.42,15.62,35.04,.77,14.67-3.98,28.42-13.03,37.72-7.93,8.16-18.76,12.45-31.39,12.45Zm.24-92.91c-2.08,0-4.22,.11-6.43,.34-25.26,2.6-36.63,35.34-35.4,51.44h0c1.91,24.96,15.84,38.46,40.29,39.04,12.63,.29,23.4-3.78,31.21-11.81,8.64-8.89,13.18-22.08,12.44-36.17-.74-14.06-6.03-25.98-14.9-33.58-7.19-6.16-16.32-9.26-27.21-9.26Z"/>
        </g>
        <path class="cls-5" d="M54.61,212.08c.5-12.88,4.39-34.84,11.72-32.87,7.24,1.94,8.3,17.86,7.42,37.04-.88,19.18-5.67,36.89-12.14,33.16-5.12-2.95-7.83-16.05-7-37.33Z"/>
      </g>
      <g>
        <g>
          <path class="cls-1" d="M161.01,223.57c-1.26-16.41,10.16-49.85,36.32-52.55,32.82-3.38,48.39,18.9,49.68,43.48,1.28,24.57-13.47,49.81-44.71,49.07-23.6-.56-39.22-12.87-41.3-40Z"/>
          <path d="M203.63,264.62c-.45,0-.89,0-1.34-.02-25.67-.61-40.3-14.78-42.3-40.96h0c-.72-9.38,2.42-21.94,8-32,5.01-9.02,14.15-20.1,29.25-21.66,14.14-1.46,26.31,1.8,35.19,9.41,9.31,7.97,14.86,20.42,15.62,35.04,.77,14.67-3.98,28.42-13.02,37.72-7.93,8.16-18.77,12.45-31.39,12.45Zm.25-92.91c-2.08,0-4.22,.11-6.43,.34-25.26,2.6-36.63,35.34-35.4,51.44h0c1.91,24.96,15.84,38.46,40.29,39.04,12.63,.29,23.41-3.78,31.21-11.81,8.64-8.89,13.18-22.08,12.44-36.17-.74-14.06-6.03-25.98-14.9-33.58-7.19-6.16-16.32-9.26-27.2-9.26Z"/>
        </g>
        <path class="cls-5" d="M193.95,212.08c.5-12.88,4.39-34.84,11.72-32.87,7.24,1.94,8.3,17.86,7.42,37.04-.88,19.18-5.67,36.89-12.14,33.16-5.12-2.95-7.83-16.05-7-37.33Z"/>
      </g>
      <g>
        <path class="cls-2" d="M229.79,122.23c4.36-16.59,23.28-45.91,31.33-47.02,9.56-1.32,25.67,37.77,28.04,68.12,1.8,23.09-63.74-4.51-59.37-21.1Z"/>
        <path d="M289.17,145.2c-.97,0-1.79-.75-1.87-1.73-2.09-26.78-14.45-58.23-23.1-65.2-1.11-.89-2.08-1.31-2.82-1.21-6.35,.87-25.21,28.31-29.78,45.64-.26,1-1.29,1.6-2.29,1.34-1-.26-1.6-1.29-1.34-2.29,4.17-15.83,23.06-47.05,32.89-48.41,1.8-.25,3.72,.43,5.68,2.01,10.33,8.32,22.46,41.92,24.48,67.83,.08,1.03-.69,1.93-1.72,2.02-.05,0-.1,0-.15,0Z"/>
      </g>
      <g>
        <path class="cls-2" d="M204.59,329.91s2.9,26.66-13.57,28.21c-27.72,2.61-52.53,7.57-51.26,19.68,1.5,14.35,21.36,14.3,61.94,15.45,40.59,1.14,57.31-10.07,61.04-21.78,3.28-10.27,3.83-36.37,3.83-36.37l-61.97-5.19Z"/>
        <path d="M207.29,395.21c-1.82,0-3.7-.03-5.64-.08l-4.77-.13c-38.2-1.05-57.38-1.58-58.99-16.99-.29-2.75,.51-5.29,2.37-7.56,5.7-6.96,21.78-11.47,50.58-14.18,3.08-.29,5.51-1.57,7.43-3.92,5.98-7.32,4.47-22.08,4.46-22.23-.11-1.03,.63-1.95,1.66-2.06,1.02-.11,1.95,.63,2.07,1.66,.07,.67,1.7,16.45-5.28,25-2.55,3.12-5.91,4.9-9.99,5.28-27.36,2.58-43.07,6.77-48.03,12.82-1.22,1.49-1.72,3.06-1.54,4.79,1.27,12.14,19.35,12.64,55.36,13.63l4.77,.13c47.12,1.32,57.1-13.87,59.2-20.47,3.16-9.89,3.73-35.58,3.74-35.84,.02-1.02,.86-1.84,1.87-1.84,.01,0,.03,0,.04,0,1.04,.02,1.86,.88,1.84,1.91-.02,1.08-.59,26.49-3.91,36.9-2.27,7.12-12.38,23.16-57.23,23.16Z"/>
      </g>
      <g>
        <g>
          <path class="cls-4" d="M127.39,265.8s-20.66-12.03-16.08-21c4.53-8.86,36.04-8.71,36.22,3.43,.12,8.36-20.14,17.58-20.14,17.58Z"/>
          <path d="M127.39,267.67c-.33,0-.65-.09-.94-.25-2.27-1.32-22.05-13.21-16.8-23.48,3.35-6.56,17.57-8.73,28.04-6.28,7.38,1.72,11.65,5.56,11.72,10.54,.13,9.31-19.05,18.32-21.24,19.31-.25,.11-.51,.17-.78,.17Zm1.57-27.22c-7.34,0-14.36,2.04-15.97,5.19-2.92,5.72,9.04,14.66,14.52,18.03,7.41-3.53,18.23-10.45,18.16-15.43-.06-4.42-6.19-6.33-8.82-6.94-2.5-.58-5.21-.85-7.88-.85Z"/>
        </g>
        <g>
          <g>
            <path class="cls-3" d="M159.6,275.85c4.96,10.89-.78,62.97-36.94,61.5-33.23-1.35-35.91-55.07-29.75-65.32,6.16-10.25,61.74-7.06,66.7,3.82Z"/>
            <g class="cls-7">
              <g>
                <g>
                  <path class="cls-4" d="M163.65,336.29s-12.99-24.51-34.28-27.82c-21.29-3.31-37.72,14.49-41.62,26.25,23.99,6.03,47.96,12.1,75.9,1.57Z"/>
                  <path d="M132.12,342.9c-15.51,0-30.09-3.66-44.38-7.25l-.21-.05c-.24-.06-.45-.22-.57-.44-.12-.22-.14-.48-.07-.72,3.68-11.1,19.96-30.37,42.61-26.86,21.49,3.34,34.4,27.27,34.94,28.28,.12,.23,.14,.5,.05,.74s-.28,.43-.52,.52c-11.13,4.2-21.69,5.77-31.85,5.77Zm-43.19-8.81c22.87,5.74,46.53,11.51,73.41,1.72-2.58-4.41-14.81-23.61-33.11-26.45-20.98-3.26-36.23,14.03-40.3,24.73Z"/>
                </g>
                <g>
                  <path class="cls-1" d="M163.65,272.77s-12.14,21.99-15.62,19.21c-3.48-2.78-.02-26.18-.02-26.18-12.42-3.09-24.61-3.37-36.62-1.46,0,0-6.36,23.39-11.06,24.01-4.69,.61-10.06-23.66-10.06-23.66,0,0,24.29-7.55,43.58-5.78,17.08,1.56,29.8,13.87,29.8,13.87Z"/>
                  <path d="M148.75,294.09c-.7,0-1.35-.22-1.89-.65-3.54-2.83-2.24-16.95-.95-26.22-10.84-2.49-21.68-2.89-33.03-1.22-2.59,9.27-7.35,23.55-12.3,24.2-.13,.02-.25,.02-.38,.02-5.11,0-9.2-13.58-11.76-25.13-.21-.95,.34-1.91,1.27-2.2,1.01-.31,24.87-7.63,44.31-5.86,17.54,1.61,30.39,13.87,30.93,14.39,.61,.59,.75,1.51,.34,2.25-2.5,4.53-11.04,19.39-15.89,20.35-.22,.04-.44,.07-.66,.07Zm1.13-28.46c.01,.14,0,.29-.01,.44-1.64,11.12-1.99,21.76-.84,24.15,2.12-1.13,7.42-8.49,12.26-17.05-1.83-1.56-5.89-4.76-11.4-7.53Zm-57.38,.35c2.41,10.24,5.86,19.46,7.68,20.46,1.98-.92,6.35-11.37,9.4-22.6,.19-.71,.79-1.24,1.51-1.36,10.88-1.73,21.66-1.61,32.14,.36-2.97-1-6.18-1.76-9.55-2.07-15.85-1.45-35.43,3.6-41.19,5.22Z"/>
                </g>
              </g>
            </g>
          </g>
          <path d="M124.12,339.25c-.51,0-1.02-.01-1.54-.03-11.18-.46-20.31-6.66-26.39-17.95-9.15-16.97-9.51-42.52-4.89-50.21,4.94-8.23,30.41-7.21,35.46-6.92,5.07,.29,30.56,2.17,34.55,10.93,3.28,7.21,2.39,31.66-8.85,48.38-6.97,10.36-16.74,15.8-28.34,15.8Zm-4.91-71.58c-12.81,0-22.72,2.04-24.7,5.32-3.62,6.03-4.02,29.82,4.98,46.5,5.5,10.2,13.32,15.58,23.24,15.98,11.06,.46,20.01-4.3,26.61-14.12,10.73-15.96,11.21-38.9,8.55-44.73h0c-1.86-4.07-15.33-7.83-31.35-8.74-2.52-.14-4.98-.21-7.34-.21Z"/>
        </g>
      </g>
      <g>
        <path class="cls-2" d="M355.02,254.14c-15.87,18.21-28.06,49.69-2.35,80.16,11.77,13.95,15.65,22.68,2.62,23.31-13.03,.62-47.94,1.27-44.81,24.28,2.7,19.86,147.66-3.57,169.76-5.7,16.27-1.57,14.25-9.93,12.42-17.39-2.08-8.43-14.09-11.61-7.41-18.67,8.23-8.71,12.23-26.27,13.56-42.51,.82-10.08,2.53-18.51-2.21-27.51-19.09-36.21-111.97-49.95-141.56-15.97Z"/>
        <path d="M342.87,391.73c-21.21,0-33.5-2.82-34.42-9.58-.76-5.58,.5-10.38,3.74-14.27,8.85-10.61,29.93-11.56,41.25-12.07l1.58-.07c2.42-.12,5.45-.6,6.16-2.23,1.14-2.62-2.26-8.67-10.13-17.99-25.24-29.92-15.32-62.29,2.37-82.6,.68-.78,1.86-.86,2.65-.18,.78,.68,.86,1.86,.18,2.65-8.09,9.29-32.18,42.35-2.34,77.72,9.48,11.24,12.58,17.59,10.7,21.91-1.21,2.77-4.29,4.24-9.42,4.48l-1.59,.07c-9.98,.45-30.75,1.38-38.54,10.72-2.58,3.09-3.53,6.8-2.91,11.36,.37,2.7,6.58,8.63,56.23,5.34,31.24-2.07,67.35-6.9,91.24-10.09,9.23-1.23,16.52-2.21,20.25-2.57,5.59-.54,9.24-1.95,10.83-4.2,1.95-2.75,.93-6.88-.05-10.87-.71-2.89-2.88-5.15-4.97-7.34-3.21-3.36-7.21-7.54-1.98-13.07,13.39-14.16,13.86-46.97,14.21-70.92,.01-1.03,.85-1.85,1.87-1.85h.03c1.04,.02,1.86,.87,1.85,1.9-.46,31.85-1.93,59.37-15.23,73.44-2.65,2.81-1.64,4.13,1.97,7.9,2.32,2.42,4.95,5.17,5.9,9.03,1.13,4.59,2.41,9.79-.53,13.94-2.28,3.22-6.71,5.11-13.53,5.77-3.66,.35-10.92,1.32-20.11,2.55-49.87,6.66-90.6,11.11-117.26,11.11Z"/>
      </g>
    </g>
  </g>
</svg>