<?xml version="1.0" encoding="UTF-8"?>
<svg id="Layer_2" data-name="Layer 2" xmlns="http://www.w3.org/2000/svg" xmlns:xlink="http://www.w3.org/1999/xlink" viewBox="0 0 542.18 410.47">
  <defs>
    <style>
      .cls-1 {
        fill: #282b33;
      }

      .cls-1, .cls-2, .cls-3, .cls-4, .cls-5 {
        fill-rule: evenodd;
      }

      .cls-2 {
        fill: #fff;
      }

      .cls-3, .cls-6 {
        fill: #383c47;
      }

      .cls-7 {
        clip-path: url(#clippath-1);
      }

      .cls-4, .cls-8 {
        fill: #c60a01;
      }

      .cls-6, .cls-8 {
        clip-rule: evenodd;
      }

      .cls-9 {
        fill: #70788f;
      }

      .cls-10 {
        clip-path: url(#clippath);
      }

      .cls-5 {
        fill: #ff275a;
      }
    </style>
    <clipPath id="clippath">
      <path class="cls-6" d="M431.2,373.77c-40.08,7.7-151.58-3.35-204.14,5.09-62.57,10.05-118.15,15.17-155.4-11.99-37.24-27.17-44.51-77.32-42.55-116.71,1.97-39.52-5.68-107.53,119.19-143.2,124.87-35.67,196.53-24.69,261.88,2.3,31.81,13.14,48.05,47.03,47.29,89.82-.53,29.82,4.25,168.83-26.27,174.69Z"/>
    </clipPath>
    <clipPath id="clippath-1">
      <path class="cls-8" d="M176.3,260.48c21.23,.11,42.45,6.43,39.71,32.47-2.99,28.44-43.39,17.73-43.39,17.73-1.23-17.95-22.43-27.54-22.43-27.54,0,0,24.06,1.53,26.11-22.66Z"/>
    </clipPath>
  </defs>
  <g id="_9" data-name="9">
    <g>
      <g>
        <path class="cls-3" d="M411.44,248.08s59.25,6.93,69.84-28.61c10.59-35.53,12.54-85.79-12.97-111.8-25.51-26.01-63.55-67-42.92-94.2,20.62-27.2,52.35-1.66,59.42,26.61,7.06,28.28,20.94,36.63,44.04,88.63,23.1,52.01,8.74,100.54-21.46,131.77-30.19,31.23-90.62,24.27-95.95,30.73-5.33,6.46,0-43.14,0-43.14Z"/>
        <path d="M410.59,293.67c-.4,0-.73-.1-.93-.19-1.52-.64-3.41-1.43-1.92-24.24,.69-10.65,1.83-21.26,1.84-21.37,.05-.5,.3-.95,.69-1.26,.39-.31,.89-.46,1.39-.4,.58,.07,57.81,6.33,67.83-27.28,11.06-37.1,11.48-85.49-12.51-109.95-21.3-21.72-65.63-66.91-43.08-96.65C433.33-.11,444.02-.95,451.32,.55c15.34,3.14,30.52,19.94,35.3,39.08,3.65,14.6,9.22,23.92,16.94,36.82,7.13,11.92,16,26.75,27,51.5,11.12,25.03,14.27,50.19,9.38,74.8-4.38,22.03-15.17,42.44-31.21,59.03-21.18,21.91-57.01,25.46-78.41,27.58-7.62,.75-16.25,1.61-17.44,3.04-.83,1-1.66,1.26-2.3,1.26Zm1.01-3.27h0Zm1.51-40.28c-1.68,16.2-2.71,33.52-1.9,38.87,2.79-1.7,8.55-2.35,18.74-3.36,20.89-2.07,55.86-5.53,76.09-26.45,33.77-34.92,41.66-83.41,21.09-129.7-10.91-24.55-19.71-39.27-26.79-51.1-7.88-13.18-13.58-22.7-17.36-37.84-4.45-17.83-18.39-33.44-32.41-36.31-8.97-1.84-17.15,1.75-23.69,10.38-20.59,27.16,22.2,70.79,42.77,91.76,25.06,25.55,24.8,75.49,13.43,113.65-9.95,33.4-59.45,31.02-69.97,30.12Z"/>
      </g>
      <g>
        <path class="cls-3" d="M47.96,324.13c-14.5,9.17-47.43,42.18-46.06,50.19,1.63,9.51,64.71,12.13,94.36,5.24,12.83-2.98-42.05-59.39-48.3-55.44Z"/>
        <path d="M53.03,385.36c-22.09,0-43.38-2.47-50.16-6.98-1.63-1.08-2.58-2.34-2.82-3.74-1.7-9.95,33.94-43.9,46.9-52.1h0c1.78-1.12,4.39-.36,8.72,2.58,12.73,8.62,46.21,42.69,44.31,52.92-.32,1.74-1.5,2.93-3.3,3.35-11.61,2.7-27.84,3.97-43.66,3.97Zm-4.21-59.56c-15.01,9.57-46.17,41.79-45.07,48.2,.04,.25,.38,.71,1.2,1.25,10.82,7.19,64.34,8.66,90.89,2.48,.35-.08,.62-.15,.43-1.32-.83-5.05-9.78-17.11-22.27-30.02-13.71-14.17-23.03-20.6-25.17-20.6h0Zm-.09,0s0,0,0,0h0Z"/>
      </g>
      <g>
        <g>
          <path class="cls-3" d="M431.2,373.77c-40.08,7.7-151.58-3.35-204.14,5.09-62.57,10.05-118.15,15.17-155.4-11.99-37.24-27.17-44.51-77.32-42.55-116.71,1.97-39.52-5.68-107.53,119.19-143.2,124.87-35.67,196.53-24.69,261.88,2.3,31.81,13.14,48.05,47.03,47.29,89.82-.53,29.82,4.25,168.83-26.27,174.69Z"/>
          <g class="cls-10">
            <g>
              <path class="cls-2" d="M29.93,326.76s59.15-15.22,58.38-25.93c-.68-9.37-48.02-7.05-54.8-14.76-6.78-7.71,76.58-7.26,77.12-19.28,.54-12.02-67.41-14.21-73.31-21.52-5.9-7.31,50.3-5.03,51.06-21.02,.62-13.12-65.66-24.87-65.66-24.87,0,0-6.92,113.58,7.22,127.39Z"/>
              <path d="M29.93,327.72c-.25,0-.49-.1-.67-.27-14.3-13.96-7.79-123.48-7.51-128.14,.02-.27,.15-.53,.37-.7,.21-.17,.49-.24,.76-.19,6.87,1.22,67.1,12.3,66.45,25.87-.48,10.06-19.73,13.21-35.2,15.74-6.98,1.14-15.67,2.56-16.28,4.16-.05,.13,.13,.37,.21,.47,2.25,2.78,16.37,5.06,30.02,7.26,21.56,3.48,43.86,7.08,43.51,14.91-.31,6.82-19.78,9.59-47.26,12.76-12.51,1.45-29.65,3.43-30.25,5.62h0s.03,.08,.15,.22c2.89,3.29,14.75,4.71,26.22,6.09,15.24,1.83,28.4,3.41,28.82,9.24,.81,11.19-52.96,25.36-59.1,26.93-.08,.02-.16,.03-.24,.03Zm-6.32-127.21c-.65,11.53-5.85,111,6.63,125.18,22.59-5.86,57.63-17.63,57.11-24.79-.31-4.24-15.18-6.03-27.13-7.46-12.37-1.48-24.06-2.89-27.44-6.73-.81-.93-.67-1.77-.5-2.19,1.22-3.16,11.75-4.52,31.83-6.84,19.12-2.21,45.3-5.23,45.56-10.94,.28-6.12-24.1-10.05-41.89-12.92-17.67-2.85-28.63-4.76-31.21-7.95-.79-.98-.72-1.83-.51-2.37,.96-2.52,6.75-3.58,17.77-5.38,14-2.29,33.18-5.42,33.59-13.93,.47-9.87-44.89-20.25-63.8-23.69Z"/>
            </g>
          </g>
        </g>
        <path d="M147.52,388.82c-2.6,0-5.17-.04-7.72-.12-29.16-.95-51.81-7.59-69.25-20.31-41.32-30.14-44.88-87.07-43.32-118.32,.14-2.86,.24-5.86,.33-9.04,1.25-40.79,3.13-102.43,120.22-135.87,59.01-16.86,109.34-24.18,153.85-22.42,37.69,1.5,71.39,9.14,109.26,24.79,31.59,13.05,49.25,46.43,48.44,91.59-.07,3.7-.05,9.02-.03,15.75,.24,76.81-2.88,155.97-27.76,160.74-19.68,3.78-56.04,3.09-94.54,2.36-40.72-.77-82.83-1.57-109.66,2.74-26.44,4.25-54.24,8.11-79.84,8.11ZM288.86,86.33c-37.9,0-83.34,6.24-140.05,22.44C34.36,141.46,32.53,201.45,31.31,241.15c-.1,3.19-.19,6.21-.33,9.11-1.52,30.49,1.88,85.99,41.78,115.1,37.74,27.52,96.77,20.85,154,11.66,27.17-4.36,69.44-3.56,110.33-2.79,38.29,.72,74.46,1.41,93.76-2.3h0c25.18-4.83,24.84-115.42,24.72-157.05-.02-6.76-.04-12.09,.03-15.83,.78-43.53-16.03-75.63-46.13-88.05-32.63-13.48-69.87-24.67-120.6-24.67Z"/>
      </g>
      <g>
        <path class="cls-9" d="M136.78,233.19c-.24,0-.48-.05-.71-.14-.96-.39-1.42-1.49-1.02-2.45l10.68-25.97c.39-.96,1.49-1.41,2.45-1.02,.96,.39,1.42,1.49,1.02,2.45l-10.68,25.97c-.3,.72-1,1.16-1.74,1.16Z"/>
        <path class="cls-9" d="M149.81,236.95c-.24,0-.49-.05-.73-.15-.95-.4-1.4-1.5-.99-2.46l9.2-21.68c.4-.95,1.5-1.4,2.46-.99,.95,.4,1.4,1.5,.99,2.46l-9.2,21.68c-.3,.71-1,1.14-1.73,1.14Z"/>
      </g>
      <g>
        <path class="cls-9" d="M142.86,362.86c-.86,0-1.63-.59-1.83-1.47l-6.08-27.41c-.22-1.01,.41-2.01,1.42-2.24,1.01-.22,2.01,.41,2.24,1.42l6.08,27.41c.22,1.01-.41,2.01-1.42,2.24-.14,.03-.27,.04-.41,.04Z"/>
        <path class="cls-9" d="M155.63,356.9c-.85,0-1.62-.58-1.82-1.45l-5.36-22.94c-.24-1.01,.39-2.02,1.4-2.25,1.01-.23,2.02,.39,2.25,1.4l5.36,22.94c.24,1.01-.39,2.02-1.4,2.25-.14,.03-.29,.05-.43,.05Z"/>
      </g>
      <g>
        <path class="cls-2" d="M298.83,333.77c-15.63-1.12-53.51-11.87-52.33-51.05,.91-30.13,36.62-54.79,77.67-54.35,44.32,.47,73.83,21.17,70.87,62.14-2.11,29.17-25.07,48.36-96.21,43.25Z"/>
        <path d="M320.52,336.48c-6.79,0-14.05-.28-21.82-.84-19.21-1.38-55.23-14.22-54.07-52.97,.92-30.63,36.74-56.17,78.48-56.17,.36,0,.72,0,1.08,0,26.42,.28,46.97,7.59,59.46,21.15,10.07,10.94,14.53,25.41,13.26,43-1.21,16.67-8.8,28.45-23.22,36-12.54,6.57-30.05,9.82-53.17,9.82Zm2.58-106.23c-39.75,0-73.86,23.89-74.72,52.54-1.08,35.91,32.62,47.83,50.59,49.12h0c7.72,.55,14.81,.81,21.32,.81,62.08,0,71.53-23.67,72.88-42.33,1.19-16.52-2.94-30.04-12.28-40.19-11.76-12.78-31.38-19.68-56.74-19.94-.35,0-.7,0-1.05,0Z"/>
      </g>
      <g>
        <path class="cls-3" d="M410.58,330.05s-22.96,68.5-7.08,77.28c17.43,9.64,43.9-63.01,43.9-63.01l-36.82-14.27Z"/>
        <path d="M406.38,409.79c-1.24,0-2.45-.24-3.6-.73-7.73-3.24-8.92-17.4-3.62-43.28,3.76-18.37,9.58-36.14,9.64-36.32,.32-.98,1.38-1.52,2.37-1.2,.98,.32,1.52,1.38,1.2,2.37-8.75,26.63-18.71,70.53-8.13,74.97,1.56,.66,3.26,.57,5.19-.26,17.13-7.39,38.85-64.86,39.07-65.44,.36-.97,1.45-1.46,2.41-1.1,.97,.36,1.46,1.44,1.1,2.41-.91,2.43-22.51,59.55-41.09,67.57-1.55,.67-3.07,1.01-4.53,1.01Z"/>
      </g>
      <g>
        <path class="cls-1" d="M212.19,189.49s5.93,68.06,22.23,74.35c16.31,6.29,17.25-74.84,17.25-74.84l-39.49,.48Z"/>
        <g>
          <path class="cls-3" d="M212.19,189.49s5.93,68.06,22.23,74.35c16.31,6.29,17.25-74.84,17.25-74.84"/>
          <path d="M236.19,266.06c-.8,0-1.62-.16-2.44-.47-16.91-6.52-22.81-68.85-23.43-75.94-.09-1.03,.67-1.94,1.71-2.03,1.03-.09,1.94,.67,2.03,1.7,1.62,18.61,8.57,67.95,21.04,72.77,.96,.37,1.76,.28,2.61-.29,9.3-6.3,11.88-54.7,12.1-72.81,.01-1.04,.87-1.84,1.9-1.85,1.04,.01,1.87,.86,1.85,1.9-.08,6.87-1.15,67.34-13.74,75.88-1.14,.77-2.36,1.16-3.63,1.16Z"/>
        </g>
      </g>
      <g>
        <path class="cls-1" d="M217.17,367.06s49.5,47.09,65.88,41.02c16.39-6.08-36.6-67.52-36.6-67.52l-29.28,26.5Z"/>
        <g>
          <path class="cls-3" d="M217.17,367.06s49.5,47.09,65.88,41.02c16.39-6.08-36.6-67.52-36.6-67.52"/>
          <path d="M279.84,410.47c-19.18,0-59.16-37.48-63.96-42.05-.75-.71-.78-1.9-.07-2.65,.71-.75,1.9-.78,2.65-.07,13.53,12.88,51.41,45.27,63.94,40.62,.96-.36,1.51-.96,1.76-1.95,2.8-10.88-27.3-48.87-39.13-62.59-.68-.78-.59-1.97,.2-2.64,.78-.68,1.97-.59,2.64,.2,4.49,5.2,43.71,51.24,39.92,65.97-.56,2.18-1.97,3.74-4.09,4.53-1.16,.43-2.46,.63-3.86,.63Z"/>
        </g>
      </g>
      <g>
        <path class="cls-3" d="M399.79,194.24s10.02,91.81,28.65,79.55c18.63-12.26,17.06-95.52,17.06-95.52l-45.7,15.98Z"/>
        <path d="M425.03,276.79c-1.05,0-2.09-.24-3.12-.72-15.46-7.28-23.17-74.04-23.99-81.62-.11-1.03,.63-1.96,1.66-2.07,1.02-.11,1.95,.63,2.07,1.66,2.19,20.04,10.38,73.23,21.86,78.64,1.27,.6,2.51,.46,3.89-.45,14.57-9.59,16.65-71.05,16.21-93.92-.02-1.04,.8-1.89,1.84-1.91h.04c1.02,0,1.85,.82,1.87,1.84,.06,3.44,1.37,84.44-17.9,97.12-1.45,.95-2.95,1.43-4.43,1.43Z"/>
      </g>
      <path d="M118.71,359.15c-.38,0-32.46-.31-34.42-29.52-1.67-24.86,24.68-32.08,24.95-32.15,1-.26,2.03,.34,2.29,1.34,.26,1-.33,2.03-1.33,2.29h0c-.96,.26-23.62,6.53-22.16,28.27,1.73,25.69,29.31,26.02,30.66,26.02,0,0,0,0,.02,0,1.03,0,1.87,.84,1.88,1.87,0,1.04-.84,1.88-1.87,1.88h0Z"/>
      <path d="M114.54,249.95c-.2,0-.41-.03-.61-.1-.26-.09-26.01-9.22-22.53-33.89,4.1-29.01,36.17-26.94,36.49-26.92,1.03,.08,1.81,.98,1.73,2.01-.08,1.03-.96,1.79-2.01,1.73-1.18-.09-28.89-1.81-32.5,23.7-3.05,21.58,19.09,29.49,20.03,29.82,.98,.34,1.5,1.4,1.16,2.38-.27,.78-.99,1.26-1.77,1.26Z"/>
      <g>
        <g>
          <g>
            <path class="cls-4" d="M176.3,260.48c21.23,.11,42.45,6.43,39.71,32.47-2.99,28.44-43.39,17.73-43.39,17.73-1.23-17.95-22.43-27.54-22.43-27.54,0,0,24.06,1.53,26.11-22.66Z"/>
            <g class="cls-7">
              <g>
                <path class="cls-5" d="M209.28,324.26s-18.72-14.54-20.57-32.64c-1.84-18.1,27.53-33.45,27.53-33.45,0,0,13.65,17.15,12.56,35.55-1.09,18.41-19.52,30.54-19.52,30.54Z"/>
                <path d="M209.28,326.13c-.41,0-.81-.13-1.15-.39-.79-.61-19.38-15.25-21.28-33.93-1.95-19.14,27.28-34.66,28.53-35.31,.8-.42,1.78-.21,2.34,.49,.58,.72,14.09,17.93,12.97,36.83-1.13,19.12-19.58,31.47-20.36,31.99-.31,.21-.67,.31-1.03,.31Zm6.43-65.52c-5.68,3.27-26.61,16.37-25.14,30.82,1.49,14.62,14.87,27.1,18.79,30.46,3.9-2.93,16.7-13.62,17.57-28.28,.87-14.66-8.22-28.77-11.22-33Z"/>
              </g>
            </g>
          </g>
          <path d="M188.77,314.55c-8.71,0-16.11-1.91-16.64-2.05-.78-.21-1.33-.88-1.39-1.68-1.14-16.6-21.13-25.87-21.33-25.96-.82-.37-1.26-1.28-1.04-2.16,.22-.88,1.03-1.48,1.94-1.42,.9,.06,22.26,1.08,24.13-20.95,.08-.97,.89-1.72,1.87-1.72h0c16.75,.09,28.66,3.95,35.39,11.46,5.11,5.7,7.19,13.47,6.17,23.08-.75,7.17-3.81,12.65-9.09,16.29-5.76,3.97-13.28,5.11-20,5.11Zm-14.42-5.38c4.79,1.05,22.16,4.19,32.31-2.82,4.33-2.99,6.85-7.56,7.48-13.59,.9-8.51-.87-15.3-5.24-20.18-5.78-6.45-16.18-9.88-30.93-10.19-2.13,16.12-13.96,20.8-21.52,22.13,6.44,4.13,16.38,12.4,17.89,24.65Z"/>
        </g>
        <path d="M160.96,337.19c-.68,0-1.34-.37-1.67-1.02-.47-.92-.1-2.05,.81-2.52,.49-.25,11.78-6.31,10.65-22.84-1.14-16.6-21.13-25.87-21.33-25.96-.82-.37-1.26-1.28-1.04-2.16,.22-.88,1.03-1.48,1.94-1.42,.9,.06,22.26,1.08,24.13-20.95,1.07-12.57-11.02-23.75-11.14-23.87-.76-.7-.82-1.88-.12-2.65,.7-.76,1.88-.82,2.65-.12,.55,.5,13.58,12.53,12.35,26.96-1.49,17.53-13.88,22.49-21.71,23.87,6.68,4.29,17.13,13.02,18.02,26.04,1.31,19.08-12.11,26.14-12.68,26.43-.27,.14-.56,.2-.85,.2Z"/>
        <g>
          <path class="cls-5" d="M152.95,283.04s-13.22,19.26-20.84,14.63c-7.52-4.57-5.35-32.36,5.37-31.73,7.38,.44,15.47,17.1,15.47,17.1Z"/>
          <path d="M134.68,300.26c-1.23,0-2.42-.3-3.54-.98-5.65-3.43-6.68-16.24-3.82-25.39,2.03-6.5,5.78-10.07,10.27-9.81,8.24,.49,16.17,16.34,17.05,18.15,.29,.61,.24,1.32-.14,1.88-1.27,1.85-11.37,16.16-19.82,16.16Zm2.46-32.45c-3.61,0-5.56,5-6.24,7.19-2.51,8.07-1.39,18.9,2.19,21.08,4.38,2.66,13.39-7.22,17.69-13.19-3.12-6.07-9.08-14.81-13.41-15.06-.08,0-.16,0-.23,0Z"/>
        </g>
      </g>
      <g>
        <path class="cls-3" d="M49.81,176.41c-14.49-9.18-36.71-36.08-35.33-44.1,1.64-9.51,43.77-13.03,73.41-6.1,12.83,3-31.84,54.16-38.08,50.2Z"/>
        <path d="M49.81,178.28c-.34,0-.69-.09-1-.29-13.82-8.76-37.86-36.22-36.18-46,.31-1.81,1.6-3.44,3.82-4.85,11.43-7.22,50.09-9.12,78.93-1.05,1,.28,1.58,1.31,1.3,2.31-.28,1-1.31,1.58-2.31,1.3-27.48-7.69-65.34-6.07-75.91,.61-1.25,.79-2.01,1.61-2.13,2.31-1.09,6.32,19.35,32.6,34.49,42.2,.87,.55,1.13,1.71,.58,2.59-.36,.56-.96,.87-1.59,.87Z"/>
      </g>
    </g>
  </g>
</svg>