<?xml version="1.0" encoding="UTF-8"?>
<svg id="Layer_2" data-name="Layer 2" xmlns="http://www.w3.org/2000/svg" xmlns:xlink="http://www.w3.org/1999/xlink" viewBox="0 0 396.81 545.39">
  <defs>
    <style>
      .cls-1 {
        fill: #282b33;
      }

      .cls-1, .cls-2, .cls-3, .cls-4, .cls-5, .cls-6 {
        fill-rule: evenodd;
      }

      .cls-2 {
        fill: #fff;
      }

      .cls-3, .cls-7 {
        fill: #383c47;
      }

      .cls-8 {
        clip-path: url(#clippath-1);
      }

      .cls-4, .cls-9 {
        fill: #c60a01;
      }

      .cls-7, .cls-9 {
        clip-rule: evenodd;
      }

      .cls-10 {
        fill: #70788f;
      }

      .cls-11 {
        clip-path: url(#clippath);
      }

      .cls-5 {
        fill: #ff275a;
      }
    </style>
    <clipPath id="clippath">
      <path class="cls-7" d="M354.44,478.35c11.1-39.28,12.08-141.99,13.01-195.21,1.32-75.25,7.86-121.92-16.01-161.36-23.88-39.43-103.98-51.52-143.39-52.93-39.54-1.42-110.94,21.96-140.97,119.71-34.96,113.79-48.69,171.63-30.65,248.67,11.03,47.11,72.07,51.66,114.77,54.57,29.76,2.03,194.79,16.46,203.24-13.44Z"/>
    </clipPath>
    <clipPath id="clippath-1">
      <path class="cls-9" d="M270,281.7s4.77-31.92,8.37-52.05c-7.03,.84-10.91,7.93-13.66,7.94-1.88,.01-7.1-13.04-10.41-14-3.29-.96-13.33,11.89-16.38,11.48-3.11-.42-11.79-13.8-14.12-14.31-5.84-1.27-15.57,9.09-19.05,8.89-2.35-.14-8.74-9.82-12.67-12.44-6.05,17.78-11.54,53.02-11.54,53.02,1.89,.1,12.71-8.07,15.22-7.86,2.48,.22,8.51,9.45,11.08,9.97,3.47,.71,15.4-10.39,18.41-9.28,3.61,1.34,10.81,13.79,13.95,13.96,3.37,.18,13.58-10.05,17.29-9.63,3.58,.4,9.53,10.26,13.52,14.32Z"/>
    </clipPath>
  </defs>
  <g id="_4" data-name="4">
    <g>
      <g>
        <path class="cls-3" d="M63.09,372.22s-23.16-29.28-31.27-69.64c-10.67-53.18-1.05-90.56-13.51-91.06C-.74,210.74-.33,251.38,5.09,303.02c4.71,44.92,21.28,92.15,35.05,111.46l22.95-42.26Z"/>
        <path d="M40.14,416.35c-.6,0-1.17-.29-1.53-.79-13.6-19.07-30.56-66.3-35.39-112.35-5.55-52.93-4-79.7,5.18-89.48,2.7-2.88,6.07-4.25,10-4.09,8.45,.34,8.78,12.02,9.33,31.38,.44,15.52,1.04,36.78,5.94,61.19,7.92,39.42,30.67,68.56,30.9,68.85,.47,.59,.54,1.4,.18,2.06l-22.95,42.26c-.31,.57-.89,.94-1.53,.98-.04,0-.08,0-.11,0ZM17.79,213.38c-2.63,0-4.81,.96-6.65,2.92-10.57,11.27-7.79,52.16-4.18,86.52,4.56,43.51,20.01,87.97,33.01,108.05l20.91-38.49c-4.08-5.5-23.61-33.23-30.88-69.44-4.96-24.72-5.57-46.16-6.01-61.82-.47-16.58-.78-27.54-5.73-27.74-.15,0-.3,0-.45,0Z"/>
      </g>
      <g>
        <g>
          <path class="cls-3" d="M354.44,478.35c11.1-39.28,12.08-141.99,13.01-195.21,1.32-75.25,7.86-121.92-16.01-161.36-23.88-39.43-103.98-51.52-143.39-52.93-39.54-1.42-110.94,21.96-140.97,119.71-34.96,113.79-48.69,171.63-30.65,248.67,11.03,47.11,72.07,51.66,114.77,54.57,29.76,2.03,194.79,16.46,203.24-13.44Z"/>
          <g class="cls-11">
            <g>
              <path class="cls-2" d="M304.07,84.1s-15.86,34.25-24.81,32.21c-8.95-2.04-1.39-41.03-1.39-41.03l-10.81-3.71s-7.73,39.56-16.49,38.19c-8.76-1.37-3.04-40.97-3.04-40.97l-8.83-2.51s-8.21,36.94-19.38,37.46c-11.18,.52-11.84-42.63-11.84-42.63,0,0,26.76-4.32,54.92,2.59,28.16,6.91,41.67,20.4,41.67,20.4Z"/>
              <path d="M279.95,118.25c-.38,0-.75-.04-1.11-.12-9.44-2.15-5.16-30.57-3.12-41.61l-7.27-2.49c-.74,3.46-2.38,10.66-4.57,17.7-4.46,14.31-8.77,20.64-13.61,19.88-4.85-.76-6.88-8.04-6.39-22.91,.25-7.66,1.15-15.3,1.56-18.55l-5.37-1.53c-2.01,8.33-9.61,36.48-20.68,36.99-1.74,.08-3.37-.56-4.82-1.92-8.21-7.72-8.92-39.01-8.98-42.55-.01-.93,.66-1.73,1.58-1.88,1.11-.18,27.46-4.3,55.67,2.62,28.34,6.95,41.98,20.32,42.54,20.89,.56,.56,.71,1.4,.38,2.11-2.65,5.73-15.97,33.37-25.82,33.37Zm-12.9-48.57c.2,0,.41,.03,.61,.1l10.81,3.71c.88,.3,1.41,1.21,1.23,2.13-3.48,17.97-4.33,37.87-.03,38.85,4.46,1.02,14.81-14.51,22.11-29.92-3.52-3.05-16.68-13.35-39.83-19.03-23.56-5.78-46.41-3.56-52.56-2.79,.3,10.23,2.11,32.91,7.76,38.22,.91,.86,1.62,.93,2.07,.91,7.1-.33,14.59-22.25,17.64-35.99,.11-.5,.43-.94,.87-1.2,.44-.26,.98-.33,1.47-.19l8.83,2.51c.9,.26,1.48,1.14,1.34,2.07-.01,.1-1.42,9.94-1.74,19.79-.59,17.94,2.83,19,3.22,19.06,.4,.06,4.03,.1,9.44-17.26,2.96-9.51,4.9-19.34,4.92-19.43,.1-.53,.43-.99,.9-1.26,.29-.17,.61-.25,.94-.25Z"/>
            </g>
          </g>
        </g>
        <path d="M264.22,498.98c-33.75,0-71.79-2.28-105.18-4.74-3.24-.24-5.92-.44-7.97-.58-41.82-2.85-105.02-7.15-116.47-56.01-18.02-76.95-4.49-135.16,30.68-249.64,13.49-43.9,36.25-76.88,67.66-98.05,32.66-22.01,63.43-23.41,75.17-22.98,42.65,1.53,121.17,14.6,144.92,53.84,20.14,33.26,18.98,70.42,17.22,126.66-.35,11.32-.72,23.03-.94,35.7-.06,3.44-.12,7.09-.18,10.92-.91,55.28-2.44,147.8-12.89,184.77-4.37,15.46-43.8,20.12-92.02,20.12ZM204.86,70.66c-13.09,0-40.64,2.75-69.81,22.4-30.68,20.67-52.95,52.99-66.17,96.04-34.96,113.81-48.43,171.64-30.62,247.69,10.81,46.16,72.35,50.35,113.07,53.12,2.05,.14,4.75,.34,7.99,.58,22.29,1.64,68.65,5.05,110.94,4.64,64.23-.65,80.25-9.76,82.38-17.3h0c10.32-36.5,11.84-128.72,12.75-183.82,.06-3.83,.12-7.48,.18-10.92,.22-12.7,.59-24.42,.94-35.75,1.73-55.57,2.88-92.28-16.68-124.6-22.93-37.87-99.95-50.53-141.85-52.03-.92-.03-1.97-.05-3.12-.05Z"/>
      </g>
      <g>
        <path class="cls-10" d="M314.33,236.85c-.19,0-.38-.03-.56-.09l-26.79-8.41c-.99-.31-1.54-1.36-1.23-2.35,.31-.99,1.37-1.54,2.35-1.23l26.79,8.41c.99,.31,1.54,1.36,1.23,2.35-.25,.8-.99,1.31-1.79,1.31Z"/>
        <path class="cls-10" d="M307.3,249.06c-.19,0-.39-.03-.58-.09l-22.39-7.31c-.98-.32-1.52-1.38-1.2-2.36,.32-.98,1.38-1.52,2.36-1.2l22.39,7.31c.98,.32,1.52,1.38,1.2,2.36-.26,.79-.99,1.29-1.78,1.29Z"/>
      </g>
      <g>
        <path class="cls-10" d="M152.75,229.16c-.8,0-1.54-.51-1.79-1.31-.31-.99,.24-2.04,1.23-2.35l26.79-8.41c.98-.31,2.04,.24,2.35,1.23,.31,.99-.24,2.04-1.23,2.35l-26.79,8.41c-.19,.06-.38,.09-.56,.09Z"/>
        <path class="cls-10" d="M159.78,241.36c-.79,0-1.52-.5-1.78-1.29-.32-.98,.22-2.04,1.2-2.36l22.39-7.31c.99-.32,2.04,.22,2.36,1.2,.32,.98-.22,2.04-1.2,2.36l-22.39,7.31c-.19,.06-.39,.09-.58,.09Z"/>
      </g>
      <g>
        <path class="cls-2" d="M272.55,351.8c.22-15.67-7.24-54.33-46.37-56.51-30.1-1.68-57.72,31.79-60.81,72.72-3.33,44.2,14.77,75.37,55.84,75.93,29.24,.4,50.33-20.83,51.34-92.15Z"/>
        <path d="M222.02,445.83c-.28,0-.56,0-.84,0-17.64-.24-31.67-5.93-41.71-16.9-12.44-13.6-17.96-34.71-15.98-61.05,3.17-42.08,31.91-76.19,62.78-74.45,38.71,2.16,48.42,39.15,48.14,58.41-.49,34.32-5.52,58.51-15.38,73.95-8.62,13.49-20.73,20.05-37.03,20.05Zm2-148.72c-28.08,0-53.83,31.91-56.78,71.05-1.91,25.28,3.28,45.42,15.01,58.24,9.31,10.18,22.43,15.45,38.99,15.68,20.67,.29,48.28-8.77,49.44-90.3h0c.26-18.01-8.73-52.61-44.6-54.61-.69-.04-1.38-.06-2.06-.06Z"/>
      </g>
      <g>
        <path class="cls-3" d="M342.4,465.04s11.48,67.35-2.71,77.56c-14.19,10.21-35.62-68.04-35.62-68.04l38.33-9.52Z"/>
        <path d="M337.01,545.39c-.74,0-1.5-.13-2.26-.4-14.34-5.07-30.67-63.31-32.48-69.93-.27-1,.31-2.03,1.31-2.3,.99-.27,2.03,.31,2.3,1.31,4.79,17.47,19.53,63.64,30.12,67.39,.96,.34,1.76,.22,2.6-.38,10.85-7.81,5.09-57.31,1.95-75.72-.17-1.02,.51-1.99,1.53-2.16,1.02-.18,1.99,.51,2.16,1.53,1.19,7.01,11.25,68.81-3.46,79.4-1.17,.84-2.45,1.27-3.78,1.27Z"/>
      </g>
      <g>
        <path class="cls-1" d="M82.14,247.14s42.97-53.12,60-49.22c17.04,3.9-27.53,71.69-27.53,71.69l-32.47-22.48Z"/>
        <g>
          <path class="cls-3" d="M82.14,247.14s42.97-53.12,60-49.22c17.04,3.9-27.53,71.69-27.53,71.69"/>
          <path d="M114.61,271.49c-.35,0-.71-.1-1.03-.31-.87-.57-1.11-1.73-.54-2.6,9.95-15.14,34.86-56.71,30.68-67.14-.38-.95-1-1.47-2-1.7-13.04-2.99-46.38,34.05-58.12,48.57-.65,.81-1.83,.93-2.64,.28-.81-.65-.93-1.83-.28-2.64,4.47-5.53,44.19-53.91,61.88-49.87,2.2,.5,3.8,1.87,4.64,3.96,5.67,14.12-27.25,64.85-31.02,70.59-.36,.55-.96,.85-1.57,.85Z"/>
        </g>
      </g>
      <g>
        <path class="cls-3" d="M89.01,466.06s-35.4,85.3-49.84,68.3c-14.44-17,10.46-96.47,10.46-96.47l39.38,28.17Z"/>
        <path d="M43.57,538.47c-2.21,0-4.21-.99-5.83-2.9-14.93-17.58,9.07-94.96,10.1-98.24,.31-.99,1.36-1.54,2.35-1.23,.99,.31,1.54,1.36,1.23,2.35-6.84,21.83-22.11,81.4-10.82,94.69,1.07,1.26,2.21,1.75,3.61,1.53,12.54-1.96,35.34-50.71,43.07-69.33,.4-.96,1.49-1.41,2.45-1.01,.96,.4,1.41,1.49,1.01,2.45-2.93,7.05-29.08,68.96-45.96,71.6-.41,.06-.81,.1-1.21,.1Z"/>
      </g>
      <g>
        <g>
          <path class="cls-2" d="M229.4,177.37c2.03-7.4-51.26-66.79-58.99-65.81-16.29,2.07-30.22,24.52-27.13,43.76,3.16,19.7,13.94,41.28,43.16,46.44,19.51,3.44,37.61-4.89,42.96-24.38Z"/>
          <path d="M194.89,203.61c-2.8,0-5.69-.25-8.65-.78-31.01-5.47-41.07-28.77-44.05-47.34-1.69-10.53,1.62-22.9,8.64-32.28,5.48-7.32,12.38-11.84,19.44-12.74,.09-.01,.18-.02,.27-.02,6.12,0,27.56,22.82,38.2,35.07,6.98,8.04,23.06,27.25,21.72,32.14h0c-4.44,16.2-18.23,25.95-35.56,25.95Zm-24.22-90.97s-.08,0-.12,0c-6.46,.82-12.84,5.04-17.96,11.88-6.68,8.92-9.83,20.65-8.23,30.61,2.87,17.87,12.53,40.28,42.27,45.53,20.42,3.6,36.79-5.66,41.71-23.59,.58-2.12-6.53-13.15-21.26-30.11-17.98-20.71-33.19-34.32-36.41-34.32Zm58.73,64.73h0Z"/>
        </g>
        <path class="cls-6" d="M195.45,166.6c2.86-9.16,4.88-25.82-2.5-26.97-7.3-1.14-12.41,9.6-16.54,23.29-4.13,13.69-4.21,27.69,2.82,27.32,5.57-.29,11.5-8.5,16.22-23.63Z"/>
      </g>
      <g>
        <g>
          <path class="cls-2" d="M255.47,185.25c-.41-7.67,64.32-54.33,71.67-51.72,15.48,5.5,24.3,30.4,17.18,48.53-7.29,18.57-22.43,37.36-52.07,36.17-19.8-.8-35.71-12.8-36.77-32.98Z"/>
          <path d="M294.94,219.38c-.9,0-1.8-.02-2.73-.06-21.59-.87-36.8-14.54-37.83-34.02h0c-.27-5.05,19.53-20.39,28.06-26.75,13.21-9.86,39.65-27.99,45.08-26.06,6.71,2.38,12.48,8.28,16.27,16.59,4.86,10.66,5.46,23.45,1.56,33.38-6.67,17-20.81,36.92-50.41,36.92Zm-38.36-34.19c.98,18.57,15,31.11,35.72,31.94,30.18,1.22,44.39-18.62,51-35.47,3.69-9.39,3.11-21.53-1.51-31.66-3.54-7.77-8.87-13.25-15.01-15.43-2.79-1-20.75,9.12-43.03,25.75-17.99,13.43-27.29,22.68-27.18,24.88h0Z"/>
        </g>
        <path class="cls-6" d="M290.94,181.96c-.84-9.56,.74-26.27,8.19-25.82,7.37,.44,10.08,12.02,11.2,26.28,1.12,14.25-1.79,27.95-8.58,26.09-5.38-1.48-9.43-10.75-10.81-26.55Z"/>
      </g>
      <g>
        <path d="M232.49,239.41c-.1,0-.21,0-.32-.03-1.02-.17-1.71-1.14-1.53-2.16l2.82-16.55c.17-1.02,1.14-1.71,2.16-1.53,1.02,.17,1.71,1.14,1.53,2.16l-2.82,16.55c-.16,.91-.95,1.56-1.85,1.56Z"/>
        <g>
          <path class="cls-5" d="M235.31,220.99s20.86-7.1,20.16-17.15c-.65-9.27-33.37-13.67-35.17-3.22-1.42,8.23,15.01,20.37,15.01,20.37Z"/>
          <path d="M235.31,222.86c-.4,0-.79-.13-1.11-.37-1.78-1.31-17.32-13.09-15.75-22.2,.9-5.23,7.38-8.05,17.31-7.56,10.12,.51,21.13,4.53,21.57,10.96,.78,11.18-19.15,18.29-21.42,19.06-.2,.07-.4,.1-.6,.1Zm-1.7-26.43c-6.47,0-10.99,1.73-11.47,4.5-.85,4.94,7.52,13.35,13.49,17.95,5.93-2.19,18.43-8.23,17.96-14.92-.24-3.45-8.83-7.01-18.02-7.48-.67-.03-1.32-.05-1.96-.05Z"/>
        </g>
        <g>
          <g>
            <path class="cls-4" d="M270,281.7s4.77-31.92,8.37-52.05c-7.03,.84-10.91,7.93-13.66,7.94-1.88,.01-7.1-13.04-10.41-14-3.29-.96-13.33,11.89-16.38,11.48-3.11-.42-11.79-13.8-14.12-14.31-5.84-1.27-15.57,9.09-19.05,8.89-2.35-.14-8.74-9.82-12.67-12.44-6.05,17.78-11.54,53.02-11.54,53.02,1.89,.1,12.71-8.07,15.22-7.86,2.48,.22,8.51,9.45,11.08,9.97,3.47,.71,15.4-10.39,18.41-9.28,3.61,1.34,10.81,13.79,13.95,13.96,3.37,.18,13.58-10.05,17.29-9.63,3.58,.4,9.53,10.26,13.52,14.32Z"/>
            <g class="cls-8">
              <g>
                <g>
                  <path class="cls-5" d="M283.53,291.27s-4.43-21.08-21.74-31.91c-2.9-1.81-12,4.44-15.26,2.83-4.76-2.35-8.85-7.94-14.42-9.11-5.42-1.14-11.62,4.25-17.74,3.58-6.93-.77-13.74-7.45-18.63-5.93-16.44,5.11-23.31,20.05-27.24,28.88,36.25,10.4,72.48,20.86,115.04,11.66Z"/>
                  <path d="M250.33,296.67c-29.22,0-55.95-7.67-82.05-15.16l-.31-.09c-.52-.15-.95-.52-1.18-1.01-.23-.49-.23-1.06-.01-1.56,3.81-8.55,10.91-24.47,28.4-29.91,3.4-1.06,7.03,.76,10.87,2.68,2.81,1.41,5.73,2.87,8.53,3.18,2.57,.28,5.39-.78,8.12-1.8,3.2-1.2,6.51-2.44,9.8-1.75,3.78,.79,6.78,3.23,9.67,5.58,1.79,1.45,3.48,2.83,5.2,3.68,.9,.44,4.24-.8,6.23-1.55,3.58-1.33,6.95-2.59,9.19-1.19,17.79,11.12,22.4,32.23,22.58,33.12,.21,1.01-.43,2-1.44,2.22-11.6,2.51-22.77,3.56-33.6,3.56Zm-79.24-18.26c34.22,9.82,69.64,19.64,110.12,11.43-1.51-5.23-6.92-20.44-20.42-28.89-.78-.38-4.1,.86-5.89,1.52-3.53,1.31-6.86,2.56-9.21,1.39-2.1-1.04-4.03-2.61-5.9-4.13-2.55-2.07-5.19-4.22-8.07-4.82-2.23-.47-4.89,.53-7.71,1.59-3.15,1.18-6.4,2.4-9.85,2.02-3.47-.38-6.83-2.07-9.8-3.55-3.14-1.57-6.12-3.06-8.07-2.45-14.65,4.55-21.43,17.6-25.2,25.88Z"/>
                </g>
                <g>
                  <path class="cls-2" d="M274.49,225.45s-5.6,28.55-9.61,24.97c-4.01-3.59-13.54-29.45-13.54-29.45l-33.76-6.51s-8.69,27.81-14.38,28.24c-5.7,.43-7.47-28.38-7.47-28.38,0,0,17.03-7.64,39.94-2.96,27.22,5.56,38.81,14.09,38.81,14.09Z"/>
                  <path d="M265.61,252.61c-.71,0-1.4-.27-1.98-.79-3.89-3.48-11.44-23.18-13.69-29.21l-31.08-5.99c-3.02,9.38-9.6,27.51-15.52,27.95-.71,.05-1.75-.08-2.82-1.01-4.9-4.27-6.41-25.02-6.67-29.13-.05-.78,.39-1.51,1.11-1.83,.72-.32,17.84-7.83,41.09-3.09,27.31,5.58,39.06,14.06,39.55,14.42,.59,.43,.87,1.16,.73,1.87-1.83,9.33-5.54,25.21-9.8,26.64-.3,.1-.61,.15-.92,.15Zm-48.03-40.02c.12,0,.24,.01,.36,.03l33.76,6.51c.65,.12,1.18,.58,1.41,1.19,3.43,9.3,9.64,24.54,12.56,28.19,1.86-2.42,4.81-12.73,6.74-22.19-3.29-2.06-14.99-8.61-37.1-13.12-18.68-3.82-33.42,.81-37.6,2.36,.91,12.84,3.39,24.49,5.44,25.28,2.31-.31,8.26-12.89,12.65-26.93,.25-.8,.98-1.32,1.79-1.32Z"/>
                </g>
              </g>
            </g>
          </g>
          <path d="M270,283.58c-.5,0-.98-.2-1.34-.56-1.43-1.45-3.02-3.51-4.71-5.69-2.28-2.96-6.11-7.9-7.68-8.08-1.25-.12-5.57,3.01-7.9,4.7-4.34,3.14-7.08,5.08-9.28,4.94-2.36-.13-4.66-2.85-8.5-7.67-1.96-2.45-4.62-5.78-5.9-6.37-1.22,.08-5.14,2.71-7.51,4.3-5.1,3.42-8.34,5.5-10.72,5.02-1.78-.36-3.62-2.34-6.48-5.54-1.34-1.51-3.57-4-4.44-4.39-1.07,.17-5.05,2.62-7.44,4.1-4.6,2.84-6.33,3.82-7.66,3.75-.53-.03-1.02-.28-1.36-.69-.34-.41-.48-.95-.4-1.47,.23-1.45,5.58-35.6,11.62-53.33,.19-.55,.62-.99,1.17-1.17,.55-.19,1.16-.11,1.65,.22,2.04,1.36,4.45,4.17,6.79,6.89,1.64,1.9,4.09,4.75,5.04,5.23,.96-.13,3.68-1.99,5.5-3.24,4.46-3.06,9.51-6.52,13.75-5.6,1.55,.34,3.16,2.16,7.04,6.88,2.09,2.55,5.55,6.77,6.88,7.37,1.12-.36,4.1-3.1,6.09-4.94,4.87-4.49,7.98-7.21,10.61-6.45,2.37,.69,4.47,4.09,7.4,9.19,.92,1.6,2.13,3.71,2.84,4.58,.61-.36,1.61-1.25,2.39-1.94,2.49-2.22,5.9-5.26,10.7-5.83,.59-.07,1.18,.14,1.59,.58,.41,.43,.59,1.03,.48,1.62-3.56,19.88-8.31,51.68-8.36,52-.11,.7-.6,1.29-1.28,1.51-.19,.06-.39,.09-.58,.09Zm-13.75-18.09c.15,0,.3,0,.45,.02,2.94,.33,5.83,3.82,10.23,9.51,.63,.81,1.24,1.6,1.83,2.35,1.32-8.71,4.54-29.66,7.26-45.18-2.41,.97-4.39,2.74-6.07,4.23-1.91,1.7-3.41,3.04-5.23,3.05h-.01c-1.86,0-3.04-1.92-5.74-6.62-1.38-2.4-3.91-6.81-5.12-7.42-1.29,.22-4.9,3.56-7.09,5.57-4.32,3.99-6.88,6.23-9.09,5.94-2.19-.3-4.65-3.02-9.34-8.75-1.77-2.15-4.17-5.09-5.04-5.61-2.66-.46-7.31,2.72-10.71,5.05-3.74,2.57-5.93,4.02-7.94,3.9-1.97-.11-3.95-2.32-7.58-6.54-1.33-1.55-2.78-3.23-4.07-4.52-4.5,14.55-8.59,37.88-10.04,46.61,1.03-.6,2.19-1.32,3.17-1.92,5.31-3.28,7.97-4.81,9.79-4.65,1.91,.17,3.86,2.25,6.88,5.64,1.36,1.53,3.64,4.09,4.46,4.37,0,0,.02,0,.03,0,1.16,0,5.31-2.79,7.81-4.46,5.36-3.6,8.51-5.6,10.81-4.74,2.07,.77,4.26,3.38,7.62,7.59,1.78,2.23,4.77,5.96,5.85,6.27,.97-.04,4.48-2.57,6.8-4.25,4.61-3.33,7.67-5.41,10.08-5.41Z"/>
        </g>
      </g>
      <g>
        <path class="cls-3" d="M180.36,86.57c-6.61-15.82-47.42-42.26-55.55-42.25-9.65,.01-21.78,51.46-19.94,81.85,.8,13.15,78.35-32.78,75.49-39.6Z"/>
        <path d="M104.68,125.74c-.98,0-1.81-.77-1.87-1.76-1.61-26.68,7.51-68.76,17.12-78.99,1.59-1.69,3.22-2.54,4.87-2.55h0c8.92,0,39.91,22.15,52.64,36.08,.7,.76,.65,1.95-.12,2.65-.77,.7-1.95,.64-2.65-.12-12.82-14.01-42.63-34.86-49.87-34.86h0c-.56,0-1.32,.48-2.14,1.36-8.14,8.66-17.78,48.67-16.11,76.2,.06,1.03-.72,1.92-1.76,1.98-.04,0-.08,0-.12,0Z"/>
      </g>
      <g>
        <path class="cls-3" d="M323.21,108.09c13.82-10.15,62.42-11.78,69.38-7.58,8.26,4.99-7.86,55.32-25.1,80.42-7.46,10.86-50.25-68.47-44.29-72.84Z"/>
        <path d="M365.36,185.9c-.4,0-.79-.12-1.13-.38-.82-.63-.98-1.8-.36-2.63,18.67-24.54,31.23-66.13,28.92-78.25-.35-1.85-.93-2.38-1.16-2.52-6.19-3.73-42.5-1.24-60.71,4.17-.99,.3-2.04-.27-2.33-1.26-.29-.99,.27-2.04,1.26-2.33,18.09-5.37,56.08-8.39,63.71-3.78,1.46,.88,2.44,2.57,2.91,5.02,2.76,14.45-11.38,57.25-29.62,81.22-.37,.48-.93,.74-1.49,.74Z"/>
      </g>
      <g>
        <path d="M293.2,71.23c-.47,0-.95-.18-1.31-.53-.75-.73-.76-1.92-.04-2.67,.14-.15,14.27-14.77,16.1-23.58,1.12-5.38-13.75-12.91-24.67-16.54-.99-.33-1.52-1.4-1.2-2.38,.33-.99,1.39-1.53,2.38-1.19,4.92,1.63,29.37,10.32,27.17,20.88-2.05,9.88-16.47,24.81-17.09,25.45-.37,.38-.86,.57-1.35,.57Z"/>
        <path d="M315.61,75.41c-.08,0-.17,0-.25-.02-1.03-.14-1.76-1.09-1.62-2.12,.29-2.14,3.01-21.05,10.71-26.24,1.92-1.29,4.07-1.68,6.23-1.13,11.25,2.89,23.42,17.02,23.94,17.62,.68,.79,.58,1.98-.21,2.66-.79,.68-1.98,.58-2.66-.21-.12-.14-11.92-13.83-22.01-16.42-1.14-.29-2.15-.1-3.19,.6-5.34,3.6-8.36,18.26-9.08,23.61-.13,.95-.94,1.64-1.87,1.64Z"/>
        <path d="M358.9,52.08c-.32,0-.64-.08-.94-.25-.54-.31-13.36-7.76-19.68-17.25-6.86-10.32,9.03-28.78,9.71-29.56,.69-.79,1.87-.87,2.66-.18,.79,.68,.87,1.87,.18,2.66-4.1,4.72-13.79,18.41-9.41,24.99,5.83,8.77,18.29,16,18.42,16.07,.9,.52,1.21,1.67,.69,2.57-.35,.61-.98,.95-1.64,.95Z"/>
        <path d="M313.67,22.2c-9.44,0-21.15-6.6-22.79-7.55-.9-.52-1.21-1.68-.68-2.58,.52-.9,1.68-1.21,2.58-.69,5.15,2.98,19.85,9.84,26,5.8,7.6-4.99,8.77-15.4,8.78-15.5,.11-1.03,1.03-1.78,2.07-1.68,1.04,.11,1.79,1.03,1.68,2.06-.05,.5-1.33,12.28-10.46,18.27-2.02,1.33-4.51,1.85-7.17,1.85Z"/>
      </g>
      <g>
        <path d="M218.7,64.71c-.78,0-1.5-.49-1.77-1.26-1.17-3.39-5-12.81-8.6-15.68-2.07-1.65-9.92,3.56-15.66,9.26-.73,.73-1.92,.73-2.65,0-.73-.73-.73-1.92,0-2.65,3.4-3.38,14.94-14.07,20.63-9.54,5.2,4.14,9.63,16.85,9.81,17.39,.34,.98-.18,2.04-1.16,2.38-.2,.07-.41,.1-.61,.1Z"/>
        <path d="M227.53,53.12c-.36,0-.73-.11-1.06-.33-1.16-.8-11.39-7.96-12.17-14.14-.21-1.66,.24-3.19,1.31-4.41,5.03-5.74,16.8-8.67,17.3-8.79,1.01-.25,2.02,.37,2.26,1.37,.25,1-.37,2.02-1.37,2.26-.11,.03-11.12,2.77-15.37,7.62-.36,.41-.49,.87-.41,1.47,.43,3.41,6.71,8.87,10.57,11.52,.85,.58,1.07,1.75,.49,2.6-.36,.53-.95,.81-1.55,.81Z"/>
        <path d="M211.09,27.8c-7.78,0-13.31-12.99-13.93-14.52-.39-.96,.07-2.05,1.03-2.44,.96-.39,2.05,.07,2.44,1.03,1.36,3.33,6.29,12.72,10.86,12.16,6.51-.78,14.12-5.73,14.19-5.77,.86-.57,2.03-.33,2.59,.54,.57,.86,.33,2.02-.54,2.59-.34,.22-8.41,5.48-15.8,6.36-.28,.03-.56,.05-.83,.05Z"/>
        <path d="M186.15,49.27c-.61,0-1.21-.3-1.57-.85-.56-.87-.32-2.03,.55-2.59,4.29-2.8,10.94-8.68,10.51-12.53-.62-5.45-5.96-8.96-6.02-8.99-.87-.56-1.12-1.72-.56-2.59,.56-.87,1.71-1.12,2.58-.57,.28,.18,6.89,4.47,7.72,11.72,.83,7.38-10.85,15.22-12.18,16.09-.32,.21-.67,.3-1.02,.3Z"/>
      </g>
      <g>
        <path class="cls-1" d="M358.9,274.72s-22.52-64.5-39.87-66.58c-17.35-2.07,1.72,76.78,1.72,76.78l38.15-10.2Z"/>
        <g>
          <path class="cls-3" d="M358.9,274.72s-22.52-64.5-39.87-66.58c-17.35-2.07,1.72,76.78,1.72,76.78"/>
          <path d="M320.75,286.79c-.85,0-1.61-.58-1.82-1.43-1.62-6.68-15.48-65.54-5.38-76.92,1.49-1.68,3.47-2.43,5.71-2.16,17.99,2.15,39.08,61.11,41.42,67.82,.34,.98-.17,2.05-1.15,2.39-.98,.34-2.05-.17-2.39-1.15-6.16-17.63-25.05-63.75-38.32-65.34-1.02-.12-1.78,.16-2.46,.93-7.46,8.4,1.96,55.94,6.22,73.55,.24,1.01-.38,2.02-1.38,2.26-.15,.04-.3,.05-.44,.05Z"/>
        </g>
      </g>
    </g>
  </g>
</svg>