<?xml version="1.0" encoding="UTF-8"?>
<svg id="Layer_2" data-name="Layer 2" xmlns="http://www.w3.org/2000/svg" xmlns:xlink="http://www.w3.org/1999/xlink" viewBox="0 0 633.64 476.83">
  <defs>
    <style>
      .cls-1 {
        fill: #fff;
      }

      .cls-1, .cls-2, .cls-3, .cls-4, .cls-5, .cls-6 {
        fill-rule: evenodd;
      }

      .cls-2, .cls-7 {
        fill: #383c47;
      }

      .cls-8 {
        clip-path: url(#clippath-1);
      }

      .cls-3, .cls-9 {
        fill: #c60a01;
      }

      .cls-7, .cls-9 {
        clip-rule: evenodd;
      }

      .cls-10 {
        fill: #70788f;
      }

      .cls-11 {
        clip-path: url(#clippath);
      }

      .cls-4 {
        fill: #faa7de;
      }

      .cls-5 {
        fill: #ff275a;
      }
    </style>
    <clipPath id="clippath">
      <path class="cls-7" d="M326.75,467.93c56.26-2.72,114.44,7.23,163.24-21.67,36.34-21.52,41.19-129.2,24.75-173.89-16.45-44.69-109.83-50.45-202.44-50.95-92.61-.5-199.14-18.71-248.79,27.64-22.09,20.62-51.46,68.79-31.82,140.19,12.6,45.77,39.97,73.14,72.54,74.52,46.14,1.95,160.94,7.15,222.52,4.17Z"/>
    </clipPath>
    <clipPath id="clippath-1">
      <path class="cls-9" d="M135.68,310.24c-4.85-10.93,1.38-62.96,37.53-61.14,33.21,1.67,35.38,55.41,29.12,65.6s-61.8,6.47-66.66-4.46Z"/>
    </clipPath>
  </defs>
  <g id="_6" data-name="6">
    <g>
      <g>
        <path class="cls-2" d="M305.99,239.26s1.79-24.94,11.01-48.13c9.35-23.5,30.38-45.47,39.5-41.04,10.1,4.91-2.3,25.44-7.72,46.17-5.69,21.76-.37,44.66-.37,44.66l-42.41-1.67Z"/>
        <g>
          <path class="cls-2" d="M305.99,239.26s1.79-24.94,11.01-48.13c9.35-23.5,30.38-45.47,39.5-41.04,10.1,4.91-2.3,25.44-7.72,46.17-5.69,21.76-.37,44.66-.37,44.66"/>
          <path d="M348.4,242.8c-.85,0-1.62-.58-1.82-1.45-.22-.95-5.36-23.6,.39-45.56,1.62-6.2,3.8-12.23,5.91-18.06,4.51-12.46,8.4-23.23,2.8-25.95-1.25-.61-2.97-.5-5.09,.32-9.16,3.55-24.14,20.36-31.84,39.72-9.01,22.65-10.86,47.32-10.88,47.57-.07,1.03-.98,1.8-2,1.74-1.03-.07-1.81-.97-1.74-2,.02-.25,1.91-25.5,11.14-48.69,7.43-18.68,22.67-37.45,33.97-41.83,3.14-1.22,5.86-1.28,8.09-.2,8.64,4.2,4.21,16.43-.92,30.6-2.08,5.75-4.23,11.7-5.81,17.73-5.51,21.07-.41,43.54-.36,43.76,.23,1.01-.39,2.02-1.4,2.25-.14,.03-.29,.05-.43,.05Z"/>
        </g>
      </g>
      <g>
        <path class="cls-2" d="M42.84,418.27c-11.59,18.59-43.49,29.9-40.8,44.86,1.26,7.03,94.03,14.21,100-1.89,0,0-42.14-70.35-59.2-42.97Z"/>
        <path d="M58.66,472.79c-13.88,0-25.83-1.03-26.98-1.13-8.38-.74-15.68-1.76-21.12-2.94-8.62-1.87-10.08-3.63-10.37-5.26-1.73-9.63,8.62-17.49,19.57-25.81,8.19-6.22,16.66-12.65,21.48-20.38,3.01-4.83,6.98-7.27,11.76-7.21,20.44,.18,49.42,48.17,50.64,50.21,.29,.49,.35,1.08,.15,1.62-3.32,8.96-26.05,10.9-45.13,10.9Zm-54.82-10.22c4.19,4.16,53.82,9.4,81.39,4.66,10.1-1.74,13.53-4.22,14.66-5.9-8.52-13.99-32.02-47.37-46.93-47.5h-.09c-3.41,0-6.17,1.78-8.45,5.44h0c-5.18,8.32-14.33,15.26-22.4,21.38-9.91,7.52-19.28,14.64-18.19,21.93Zm.04,.23h0Zm38.96-44.53h0Z"/>
      </g>
      <g>
        <path class="cls-2" d="M92.41,232.86s4.79-24.54,16.76-46.44c12.13-22.2,35.66-41.45,44.18-35.95,9.43,6.1-5.36,24.97-13.26,44.9-8.29,20.91-5.78,44.28-5.78,44.28l-41.9-6.79Z"/>
        <path d="M134.31,241.53c-.1,0-.2,0-.3-.02l-41.9-6.79c-.5-.08-.95-.36-1.24-.78-.29-.42-.4-.93-.3-1.43,.05-.25,4.99-25.08,16.95-46.98,9.64-17.65,27.04-34.43,38.79-37.41,3.26-.83,5.97-.57,8.05,.78,8.06,5.21,2.19,16.82-4.62,30.26-2.76,5.46-5.62,11.1-7.92,16.9-8.01,20.22-5.68,43.16-5.66,43.39,.06,.58-.15,1.16-.58,1.56-.35,.33-.81,.51-1.29,.51Zm-39.65-10.2l37.59,6.09c-.41-6.6-.8-25.35,6.09-42.74,2.36-5.96,5.26-11.68,8.06-17.21,5.99-11.83,11.15-22.04,5.93-25.42-1.17-.76-2.88-.86-5.1-.29-9.52,2.42-26.43,17.29-36.42,35.57-9.79,17.92-14.77,37.87-16.15,44.01Z"/>
      </g>
      <g>
        <path class="cls-2" d="M488.4,303.66s47.34,10.04,61.55-28.6c18.72-50.91-13.76-126.71-1.37-125.3,18.95,2.16,41.01,79.65,27.72,129.84-11.56,43.66-42.75,76.3-79.47,75.79l-8.43-51.73Z"/>
        <path d="M497.68,357.28c-.29,0-.58,0-.87,0-.91-.01-1.68-.68-1.82-1.57l-8.43-51.73c-.1-.61,.11-1.23,.56-1.66,.45-.43,1.08-.61,1.68-.48,.12,.02,11.74,2.42,24.85,.16,17.29-2.98,28.92-12.25,34.55-27.57,11.13-30.25,3.82-69.79-1.02-95.96-3.34-18.09-4.7-26.23-1.76-29.37,.6-.65,1.68-1.37,3.39-1.18,4.12,.47,8.29,3.75,12.38,9.73,14.5,21.24,28.32,79.5,16.95,122.45-12.25,46.29-44.51,77.19-80.44,77.19Zm-7.01-51.35l7.76,47.59c33.9-.43,64.34-30.1,76.06-74.39,10.93-41.3-2.64-99.21-16.42-119.38-3.4-4.98-6.75-7.79-9.71-8.12-.15-.02-.21,0-.21,0-1.88,1.36,.66,15.1,2.7,26.14,4.91,26.57,12.33,66.73,.85,97.94-12.62,34.3-50.62,31.64-61.04,30.22Z"/>
      </g>
      <g>
        <g>
          <path class="cls-2" d="M326.75,467.93c56.26-2.72,114.44,7.23,163.24-21.67,36.34-21.52,41.19-129.2,24.75-173.89-16.45-44.69-109.83-50.45-202.44-50.95-92.61-.5-199.14-18.71-248.79,27.64-22.09,20.62-51.46,68.79-31.82,140.19,12.6,45.77,39.97,73.14,72.54,74.52,46.14,1.95,160.94,7.15,222.52,4.17Z"/>
          <g class="cls-11">
            <g>
              <g>
                <path class="cls-1" d="M116.27,479.95s13.92-61.78,19.97-61.68c16.31,.28,2.26,50.66,13.23,54.87,10.58,4.06,10.58-68.13,24.49-69.35,13.92-1.23,3.83,67.44,12.7,72.93,8.87,5.5,11.48-54.45,21.44-52.92,13.75,2.12,12.01,63.67,12.01,63.67,0,0-86.88,5.85-103.84-7.53Z"/>
                <path d="M179.54,490.64c-25.38,0-54.94-1.74-64.42-9.22-.57-.45-.83-1.18-.67-1.88,.03-.16,3.54-15.67,7.74-30.96,8.85-32.27,12-32.21,14.09-32.18,10.82,.19,10.61,16.21,10.42,31.71-.12,9.74-.28,21.85,3.46,23.28,.16,.06,.22,.05,.35-.02,3.04-1.73,5.62-16.67,7.68-28.67,3.54-20.58,6.89-40.01,15.62-40.78,1.62-.13,3.13,.38,4.37,1.5,5.5,4.97,5.75,22.17,6.01,40.39,.18,12.42,.42,29.43,3.47,31.32,.11,.07,.16,.08,.16,.08,2.39-.66,5.45-15.01,7.27-23.59,3.51-16.48,6.54-30.71,13.3-29.67,6.77,1.04,10.93,12.27,12.74,34.33,1.28,15.58,.86,31.09,.86,31.25-.03,.97-.78,1.75-1.75,1.82-1.62,.11-19.74,1.29-40.7,1.29Zm-61.16-11.49c16.84,10.95,87.94,7.27,99.91,6.56,.53-24.76-2.3-58.8-10.46-60.06-.18-.03-1.84-.07-4.27,7.23-1.76,5.27-3.3,12.51-4.79,19.51-3.23,15.14-5.41,24.51-9.5,26.25-1.16,.5-2.43,.38-3.58-.33-4.57-2.83-4.97-14.94-5.25-34.46-.22-15.05-.48-33.78-4.77-37.66-.47-.43-.95-.6-1.53-.55-5.86,.52-9.56,22-12.26,37.68-3.06,17.78-5.16,28.81-9.53,31.29-1.11,.63-2.34,.72-3.55,.26-6.17-2.37-6.03-13.7-5.86-26.83,.16-12.88,.35-27.46-6.49-27.91-3.54,2.63-11.86,31.65-18.07,59Z"/>
              </g>
              <g>
                <path class="cls-1" d="M227.24,203.9c-1.3,16.04-7.02,33.12,23.08,38.47,30.1,5.35,144.12,9.63,157.44-4.44,13.32-14.07-8.28-30.82-8.28-30.82,0,0-170.94-19.25-172.25-3.21Z"/>
                <path d="M334.68,249.38c-33.9,0-69.58-2.48-84.68-5.17-28.5-5.06-26.72-21.05-25.16-35.16,.19-1.75,.39-3.55,.54-5.3,.07-.84,.44-2.09,1.84-3.24,15.25-12.56,156.44,2.93,172.49,4.73,.34,.04,.67,.17,.94,.38,.51,.39,12.44,9.77,13.3,20.91,.36,4.67-1.26,8.94-4.8,12.68-7.18,7.58-39.9,10.16-74.45,10.16Zm-71.7-50c-17.18,0-29.85,1.11-33.38,4.03-.17,.14-.46,.41-.48,.65h0c-.15,1.81-.35,3.64-.55,5.41-1.58,14.28-2.95,26.61,22.09,31.06,32.58,5.79,143.47,9.09,155.75-3.88,2.82-2.98,4.06-6.19,3.79-9.81-.64-8.45-9.48-16.27-11.46-17.92-30.54-3.42-95.53-9.53-135.75-9.53Zm-35.73,4.52h0Z"/>
              </g>
            </g>
          </g>
        </g>
        <path d="M280.91,470.71c-57.73,0-129.83-3.07-169.11-4.75l-7.65-.33c-33.82-1.43-61.59-29.8-74.27-75.89-8.83-32.1-8.74-62.45,.28-90.21,8.89-27.37,23.91-44.23,32.06-51.84,17.78-16.59,44.41-26.47,81.42-30.19,32.81-3.3,70.76-1.58,107.46,.08,20.27,.92,41.22,1.86,61.2,1.97,42.49,.23,91.17,1.47,130.13,8.93,42.1,8.07,66.33,22.21,74.07,43.24,8.35,22.68,11.3,60.55,7.53,96.48-4.28,40.72-16.34,69.76-33.08,79.67-37.24,22.05-80.59,21.75-122.5,21.46-13.67-.1-27.82-.19-41.61,.47h0c-13.27,.64-28.98,.91-45.92,.91Zm-93.29-251.31c-50.1,0-95.69,5.7-122.84,31.04-26.67,24.89-48.9,74.3-31.29,138.32,12.23,44.44,38.7,71.78,70.81,73.14l7.65,.33c50.76,2.16,156.37,6.67,214.7,3.84h0c13.9-.67,28.09-.57,41.81-.48,43.31,.31,84.22,.59,120.56-20.93,34.76-20.58,40.58-126.42,23.94-171.63-15.76-42.84-105.77-49.21-200.69-49.72-20.05-.11-41.05-1.06-61.35-1.97-21.22-.96-42.65-1.93-63.31-1.93Z"/>
      </g>
      <g>
        <path class="cls-10" d="M222.89,297.88c-.86,0-1.64-.6-1.83-1.48-.22-1.01,.42-2.01,1.43-2.23l27.43-5.97c1.01-.22,2.01,.42,2.23,1.43,.22,1.01-.42,2.01-1.43,2.23l-27.43,5.97c-.13,.03-.27,.04-.4,.04Z"/>
        <path class="cls-10" d="M221.46,284.38c-.85,0-1.63-.59-1.83-1.46-.23-1.01,.4-2.01,1.41-2.25l22.96-5.27c1.01-.24,2.01,.4,2.25,1.41,.23,1.01-.4,2.01-1.41,2.25l-22.96,5.27c-.14,.03-.28,.05-.42,.05Z"/>
      </g>
      <g>
        <path class="cls-10" d="M106.68,286.64c-.24,0-.48-.05-.72-.14l-25.92-10.79c-.96-.4-1.41-1.5-1.01-2.45,.4-.96,1.49-1.41,2.45-1.01l25.92,10.79c.96,.4,1.41,1.5,1.01,2.45-.3,.72-1,1.16-1.73,1.16Z"/>
        <path class="cls-10" d="M110.5,273.63c-.25,0-.5-.05-.74-.15l-21.64-9.29c-.95-.41-1.39-1.51-.98-2.46,.41-.95,1.51-1.39,2.46-.98l21.64,9.29c.95,.41,1.39,1.51,.98,2.46-.3,.71-1,1.13-1.72,1.13Z"/>
      </g>
      <g>
        <g>
          <path class="cls-1" d="M45.94,350.27c-4.76,22.3,4.38,54.06,37.26,60.25,32.51,6.12,51.01-6.8,57.21-40.27,6.2-33.47-9.48-56-38.81-61.57-23.45-4.45-48.33,7.27-55.66,41.59Z"/>
          <path d="M97.8,413.89c-4.61,0-9.58-.51-14.95-1.52-13.32-2.51-24.08-9.42-31.11-20-7.8-11.72-10.73-28.01-7.63-42.49,3.51-16.42,11.31-29.05,22.58-36.5,10.01-6.63,22.54-8.95,35.26-6.54,31.05,5.89,46.5,30.32,40.3,63.75-3.26,17.59-9.75,29.5-19.85,36.42-6.7,4.59-14.83,6.88-24.6,6.88Zm-5.44-104.2c-18.1,0-38.06,10.44-44.58,40.98h0c-2.89,13.53-.17,28.72,7.09,39.63,6.46,9.71,16.38,16.07,28.68,18.39,15.72,2.96,27.74,1.4,36.74-4.77,9.23-6.33,15.21-17.45,18.28-34.01,5.86-31.64-8.09-53.84-37.31-59.39-2.86-.54-5.85-.84-8.89-.84Zm-46.41,40.58h0Z"/>
        </g>
        <path class="cls-6" d="M71.56,334.84c-1.26,10.79,3.9,24.09,18.72,28.18,22.05,6.09,31.81-4.7,35.73-20.45,3.44-13.8-9.14-33.45-27.96-34.18-14.91-.57-24.79,11.77-26.5,26.44Z"/>
      </g>
      <g>
        <g>
          <path class="cls-1" d="M185.77,369.4c-1.75,22.74,11.55,52.99,44.96,54.75,33.04,1.73,49.64-13.54,51.33-47.54,1.68-34-16.87-54.24-46.67-55.85-23.84-1.28-46.93,13.65-49.61,48.64Z"/>
          <path d="M235.72,426.16c-1.65,0-3.34-.05-5.08-.14-13.53-.71-25.12-6.13-33.5-15.67-9.29-10.58-14.36-26.33-13.23-41.09h0c1.29-16.74,7.34-30.3,17.51-39.19,9.04-7.91,21.14-11.88,34.07-11.18,31.56,1.7,50.12,23.85,48.44,57.81-.88,17.86-5.73,30.53-14.81,38.74-7.97,7.2-18.93,10.72-33.4,10.72Zm-3-103.59c-19.69,0-42.4,12.14-45.08,46.98h0c-1.06,13.8,3.66,28.49,12.31,38.33,7.7,8.76,18.38,13.74,30.88,14.4,15.98,.84,27.67-2.31,35.77-9.62,8.31-7.5,12.75-19.32,13.58-36.14,1.59-32.14-15.19-52.28-44.9-53.88-.85-.05-1.71-.07-2.57-.07Zm-46.94,46.84h0Z"/>
        </g>
        <path class="cls-6" d="M209.1,350.69c.19,10.86,7.08,23.35,22.32,25.44,22.67,3.1,30.9-8.9,32.69-25.03,1.57-14.13-13.52-31.94-32.27-30.14-14.85,1.42-23,14.97-22.73,29.74Z"/>
      </g>
      <g>
        <g>
          <path class="cls-5" d="M167.07,319.41s22.84,14.48,16.85,24.46c-5.12,8.53-36.38,6.25-36.44-5.89-.04-8.36,19.6-18.58,19.6-18.58Z"/>
          <path d="M168.76,350.85c-3.69,0-7.48-.48-10.86-1.41-7.79-2.14-12.27-6.31-12.3-11.45-.04-9.24,18.49-19.15,20.6-20.25,.59-.31,1.3-.28,1.87,.08,2.5,1.58,24.19,15.78,17.45,27.01-2.46,4.11-9.42,6.01-16.77,6.01Zm-1.78-29.27c-7.21,3.92-17.65,11.37-17.62,16.39,.02,4.73,6.68,7.07,9.54,7.85,9.39,2.58,20.99,1.13,23.42-2.92,3.94-6.56-8.98-17.09-15.34-21.33Z"/>
        </g>
        <g>
          <g>
            <path class="cls-3" d="M135.68,310.24c-4.85-10.93,1.38-62.96,37.53-61.14,33.21,1.67,35.38,55.41,29.12,65.6s-61.8,6.47-66.66-4.46Z"/>
            <g class="cls-8">
              <g>
                <g>
                  <path class="cls-5" d="M132.21,249.77s12.75,24.63,34.01,28.15c21.26,3.51,37.86-14.13,41.87-25.85-23.93-6.26-47.84-12.56-75.88-2.3Z"/>
                  <path d="M171.82,279.28c-1.87,0-3.79-.15-5.75-.48-21.46-3.54-34.13-27.6-34.66-28.62-.12-.23-.13-.5-.04-.74,.09-.24,.29-.43,.53-.52,28.22-10.33,52.62-3.95,76.21,2.22l.2,.05c.24,.06,.45,.22,.57,.45,.12,.22,.14,.48,.06,.72-3.46,10.1-17.49,26.92-37.12,26.92Zm-38.32-29.02c2.54,4.43,14.58,23.75,32.86,26.77,20.95,3.46,36.37-13.68,40.54-24.34-22.81-5.96-46.42-11.95-73.39-2.43Z"/>
                </g>
                <g>
                  <path class="cls-1" d="M131.59,313.29s12.35-21.88,15.8-19.06c3.45,2.82-.23,26.18-.23,26.18,12.39,3.21,24.58,3.61,36.6,1.82,0,0,6.59-23.33,11.29-23.9,4.69-.57,9.84,23.75,9.84,23.75,0,0-24.36,7.31-43.63,5.36-17.06-1.73-29.66-14.15-29.66-14.15Z"/>
                  <path d="M168.29,329.65c-2.44,0-4.86-.1-7.22-.34-17.52-1.77-30.26-14.16-30.79-14.68-.6-.59-.73-1.52-.32-2.26,2.55-4.51,11.23-19.29,16.08-20.2,.94-.17,1.84,.04,2.54,.61,3.51,2.86,2.08,16.97,.7,26.23,10.82,2.59,21.65,3.1,33.02,1.54,2.68-9.25,7.58-23.48,12.53-24.08,5.29-.67,9.39,13.36,11.89,25.22,.2,.95-.36,1.9-1.3,2.18-.89,.27-19.47,5.77-37.14,5.77Zm-16.37-6.23c2.96,1.03,6.16,1.82,9.53,2.16,15.82,1.6,35.46-3.26,41.24-4.82-2.31-10.27-5.67-19.52-7.49-20.53-1.99,.91-6.45,11.3-9.62,22.51-.2,.71-.8,1.24-1.53,1.34-10.89,1.62-21.67,1.4-32.13-.67Zm-17.95-10.5c1.81,1.57,5.85,4.81,11.33,7.64-.01-.14,0-.29,.02-.44,1.75-11.1,2.2-21.74,1.07-24.14-2.13,1.11-7.5,8.42-12.42,16.93Z"/>
                </g>
              </g>
            </g>
          </g>
          <path d="M176.96,322.54c-3.91,0-7.09-.17-8.56-.27-5.07-.34-30.54-2.46-34.45-11.27h0c-3.21-7.24-2.08-31.68,9.32-48.29,7.38-10.75,17.76-16.08,30.02-15.48,11.17,.56,20.24,6.86,26.22,18.2,8.99,17.06,9.1,42.62,4.41,50.25-3.56,5.81-17.42,6.86-26.97,6.86Zm-39.57-13.06c1.82,4.09,15.26,7.98,31.27,9.05,16.22,1.08,29.71-.94,32.08-4.8,3.68-6,4.3-29.78-4.53-46.54-5.4-10.25-13.17-15.7-23.09-16.2-11.06-.57-20.04,4.11-26.74,13.86-10.88,15.85-11.58,38.79-8.98,44.65h0Z"/>
        </g>
      </g>
      <g>
        <path class="cls-2" d="M282.16,411.97c4.15-.28,52.05,35.96,51.68,51.16-.31,12.63-93.18,19.3-100-1.89,0,0,28.7-47.92,48.32-49.27Z"/>
        <path d="M281.05,476.83c-22.86,0-45.44-3.97-48.99-15.02-.32-.99,.22-2.04,1.21-2.36,.98-.32,2.04,.22,2.36,1.21,3.7,11.5,41.54,15.04,72.9,10.51,16.99-2.45,23.39-6.26,23.43-8.09,.34-13.61-44.77-48.15-49.82-49.24-.97,0-1.79-.76-1.85-1.75-.07-1.03,.71-1.93,1.74-2,.03,0,.07,0,.11,0,4.1,0,23.22,14.63,35.3,26.19,12.28,11.75,18.43,20.8,18.28,26.89-.16,6.53-14.58,9.97-26.65,11.71-8.41,1.21-18.24,1.94-28.02,1.94Zm1.24-62.99s0,0,0,0c0,0,0,0,0,0Z"/>
      </g>
      <g>
        <path class="cls-2" d="M326.47,273.25s1.2-24.98-5.19-49.1c-6.48-24.45-24.74-48.77-34.32-45.46-10.61,3.67-.75,25.53,2.16,46.76,3.05,22.29-4.96,44.38-4.96,44.38l42.31,3.41Z"/>
        <g>
          <path class="cls-2" d="M326.47,273.25s1.2-24.98-5.19-49.1c-6.48-24.45-24.74-48.77-34.32-45.46-10.61,3.67-.75,25.53,2.16,46.76,3.05,22.29-4.96,44.38-4.96,44.38"/>
          <path d="M326.47,275.12s-.06,0-.09,0c-1.03-.05-1.83-.93-1.78-1.96,.01-.25,1.11-24.98-5.13-48.53-5.34-20.14-18.21-38.62-26.88-43.24-2.01-1.07-3.7-1.39-5.02-.93-5.89,2.04-3.3,13.19-.31,26.1,1.4,6.04,2.85,12.29,3.72,18.64,3.08,22.49-4.72,44.36-5.05,45.28-.35,.97-1.43,1.47-2.4,1.12-.97-.35-1.48-1.43-1.12-2.4,.08-.22,7.82-21.94,4.86-43.49-.85-6.18-2.27-12.34-3.65-18.3-3.4-14.68-6.33-27.35,2.74-30.49,2.34-.81,5.04-.42,8.01,1.16,10.7,5.7,23.59,26.15,28.74,45.58,6.39,24.12,5.26,49.42,5.25,49.67-.05,1-.88,1.79-1.87,1.79Z"/>
        </g>
      </g>
      <g>
        <path class="cls-2" d="M451.54,247.39s-1.79-24.94-11.01-48.13c-9.35-23.5-30.38-45.47-39.5-41.04-10.1,4.91,2.3,25.44,7.72,46.17,5.69,21.76,.37,44.66,.37,44.66l42.41-1.67Z"/>
        <g>
          <path class="cls-2" d="M451.54,247.39s-1.79-24.94-11.01-48.13c-9.35-23.5-30.38-45.47-39.5-41.04-10.1,4.91,2.3,25.44,7.72,46.17,5.69,21.76,.37,44.66,.37,44.66"/>
          <path d="M409.13,250.93c-.14,0-.28-.02-.43-.05-1.01-.23-1.64-1.24-1.4-2.25,.05-.22,5.14-22.72-.36-43.76-1.58-6.03-3.73-11.98-5.81-17.74-5.12-14.16-9.55-26.4-.92-30.6,2.23-1.08,4.95-1.02,8.09,.2,11.3,4.38,26.54,23.15,33.97,41.83,9.22,23.19,11.12,48.44,11.14,48.69,.07,1.03-.7,1.93-1.74,2-1.04,.07-1.93-.7-2-1.74-.02-.25-1.88-24.94-10.88-47.57-7.7-19.36-22.68-36.17-31.84-39.72-2.13-.82-3.84-.93-5.09-.32-5.6,2.72-1.71,13.49,2.8,25.95,2.11,5.83,4.29,11.86,5.91,18.06,5.74,21.96,.61,44.6,.39,45.56-.2,.87-.97,1.45-1.82,1.45Z"/>
        </g>
      </g>
      <g>
        <g>
          <path class="cls-4" d="M156.97,96.78C149.29,52.95,189.33-5.97,270.06,2.73c80.72,8.7,92.99,107.01,58.14,140.53-34.85,33.53-150.56,71.55-171.23-46.48Z"/>
          <path d="M240.2,178.75c-9.63,0-19.16-1.29-28.18-4.24-30.07-9.82-49.75-36.59-56.9-77.41-3.9-22.29,4.46-47.66,21.82-66.21C198.92,7.41,232.07-3.25,270.26,.87c34.85,3.75,61.35,24.98,72.72,58.23,10.81,31.64,5.14,67.6-13.48,85.51-17.45,16.79-54.02,34.13-89.3,34.13ZM254.48,3.75c-30.46,0-56.64,10.3-74.8,29.7-16.58,17.71-24.57,41.85-20.87,63h0c6.99,39.93,25.29,64.99,54.37,74.49,40.69,13.29,92.18-8.32,113.71-29.03,17.63-16.96,22.9-51.27,12.53-81.6-10.88-31.82-36.23-52.13-69.57-55.72-5.23-.56-10.36-.84-15.38-.84Z"/>
        </g>
        <path d="M267,68.22c-.6,0-1.19-.29-1.55-.82-30.11-44.41-71.32-40.15-71.73-40.1-1.03,.12-1.96-.62-2.08-1.64-.12-1.03,.62-1.96,1.64-2.08,.45-.05,11.17-1.23,25.86,3.33,13.51,4.19,33.04,14.25,49.41,38.4,.58,.86,.36,2.02-.5,2.6-.32,.22-.69,.32-1.05,.32Z"/>
        <path d="M291.36,60.54c-.69,0-1.35-.38-1.68-1.04C266.76,13.29,215.92,15,215.41,15.03c-1.04,.04-1.91-.75-1.96-1.79-.05-1.03,.75-1.91,1.79-1.96,.55-.03,13.61-.55,29.79,4.89,14.97,5.03,35.45,16.34,48.01,41.66,.46,.93,.08,2.05-.85,2.51-.27,.13-.55,.2-.83,.2Z"/>
        <path d="M320.94,56.45c-.78,0-1.51-.49-1.78-1.28C303.94,10,251.49,3.94,250.96,3.88c-1.03-.11-1.78-1.03-1.67-2.06,.11-1.03,1.03-1.77,2.06-1.67,.56,.06,13.99,1.53,29.57,8.86,14.45,6.79,33.42,20.11,41.8,44.96,.33,.98-.2,2.04-1.18,2.38-.2,.07-.4,.1-.6,.1Z"/>
        <path d="M556.97,185.99c-3.62,0-7.44-.99-11.56-3.45-14.57-8.72-25.76-21.48-36.58-33.82-15.15-17.29-29.47-33.62-52.34-39.85-9.69-2.64-21.02-4.65-31.53,.53-3.13,1.54-5.94,3.76-8.92,6.1-3.08,2.42-6.27,4.93-9.88,6.66-19.14,9.18-45.04-.05-60.72-13.92-.78-.69-.85-1.87-.16-2.65,.69-.78,1.87-.85,2.65-.16,14.4,12.73,39.14,21.73,56.62,13.34,3.24-1.55,6.13-3.83,9.18-6.23,3-2.36,6.1-4.8,9.58-6.51,11.7-5.77,24.41-3.45,34.17-.79,23.96,6.53,39.32,24.05,54.17,41,10.63,12.12,21.62,24.66,35.68,33.07,10.6,6.34,18.68,1.2,28.05-4.75,5.94-3.78,12.09-7.69,19.15-8.45,6.97-.75,14.82,1.51,22.4,3.7,5.32,1.53,10.34,2.98,15.01,3.45,1.03,.1,1.78,1.02,1.68,2.05-.1,1.03-1.04,1.78-2.05,1.68-5.01-.5-10.43-2.07-15.68-3.58-7.23-2.09-14.71-4.24-20.96-3.57-6.19,.67-11.96,4.34-17.54,7.89-6.42,4.08-12.98,8.26-20.43,8.26Z"/>
        <path d="M165.48,116.97c-.99,0-1.82-.78-1.87-1.79-1.48-30.74,8.97-50.56,17.99-61.77,9.82-12.21,19.92-17.05,20.34-17.25,.94-.44,2.05-.04,2.5,.9s.04,2.05-.9,2.5c-.17,.08-9.89,4.8-19.14,16.36-8.56,10.69-18.46,29.62-17.05,59.08,.05,1.03-.75,1.91-1.78,1.96-.03,0-.06,0-.09,0Z"/>
        <path d="M183.74,156.85c-.88,0-1.66-.62-1.84-1.51-7.12-35.98,5.2-63.21,16.78-79.72,12.53-17.85,26.54-27.09,27.13-27.47,.87-.57,2.03-.32,2.59,.55,.57,.87,.32,2.03-.55,2.59-.14,.09-14.08,9.29-26.19,26.6-11.12,15.89-22.94,42.1-16.09,76.72,.2,1.02-.46,2-1.48,2.2-.12,.02-.25,.04-.37,.04Z"/>
        <path d="M214.62,175.23c-.94,0-1.75-.7-1.86-1.66-4.55-38.62,5.76-66.65,15.21-83.36,10.27-18.17,21.5-27.07,21.97-27.43,.81-.64,1.99-.49,2.63,.32,.64,.82,.49,1.99-.32,2.63-.11,.09-11.21,8.91-21.11,26.49-9.12,16.2-19.07,43.4-14.66,80.92,.12,1.03-.61,1.96-1.64,2.08-.07,0-.15,.01-.22,.01Z"/>
        <path d="M240.04,93.49c-.44,0-.89-.16-1.25-.47-.77-.69-.84-1.87-.15-2.65,.38-.43,9.53-10.59,26.87-19.05,15.97-7.79,42.15-15.46,76.21-7.8,1.01,.23,1.65,1.23,1.42,2.24-.23,1.01-1.24,1.65-2.24,1.42-32.92-7.4-58.19-.04-73.59,7.44-16.73,8.12-25.78,18.15-25.87,18.25-.37,.41-.88,.63-1.4,.63Z"/>
        <path d="M230.67,128.42c-.45,0-.9-.16-1.26-.48-.77-.69-.83-1.88-.13-2.65,.4-.44,9.92-10.83,28.87-19.44,17.41-7.91,46.39-15.68,85.57-7.72,1.01,.21,1.67,1.2,1.46,2.21-.21,1.01-1.2,1.67-2.21,1.46-73-14.83-110.54,25.6-110.91,26.01-.37,.41-.88,.62-1.39,.62Z"/>
        <path d="M224.14,164.08c-.47,0-.93-.17-1.3-.52-.75-.71-.77-1.9-.06-2.65,.38-.39,9.41-9.73,27.57-17.72,16.67-7.34,44.51-14.83,82.45-8.82,1.02,.16,1.72,1.12,1.56,2.14-.16,1.02-1.13,1.73-2.15,1.56-70.66-11.18-106.37,25.07-106.72,25.43-.37,.38-.86,.58-1.35,.58Z"/>
      </g>
    </g>
  </g>
</svg>