<?xml version="1.0" encoding="UTF-8"?>
<svg id="Layer_2" data-name="Layer 2" xmlns="http://www.w3.org/2000/svg" xmlns:xlink="http://www.w3.org/1999/xlink" viewBox="0 0 423.96 500.65">
  <defs>
    <style>
      .cls-1 {
        fill: #282b33;
      }

      .cls-1, .cls-2, .cls-3, .cls-4, .cls-5, .cls-6 {
        fill-rule: evenodd;
      }

      .cls-2 {
        fill: #fff;
      }

      .cls-3, .cls-7 {
        fill: #383c47;
      }

      .cls-8 {
        clip-path: url(#clippath-1);
      }

      .cls-4, .cls-9 {
        fill: #c60a01;
      }

      .cls-7, .cls-9 {
        clip-rule: evenodd;
      }

      .cls-10 {
        fill: #70788f;
      }

      .cls-11 {
        clip-path: url(#clippath);
      }

      .cls-5 {
        fill: #ff275a;
      }
    </style>
    <clipPath id="clippath">
      <path class="cls-7" d="M58.75,444.76c-11.1-39.28-9.66-151.31-22.57-202.95-15.38-61.48-25.24-116.42-1.37-155.86,23.88-39.43,73.22-50.98,112.63-52.39,39.55-1.42,103.05-13.36,159.11,103.79,51.37,107.38,61.31,187.02,43.27,264.05-11.03,47.11-72.07,51.66-114.77,54.57-29.76,2.03-167.85,18.71-176.29-11.2Z"/>
    </clipPath>
    <clipPath id="clippath-1">
      <path class="cls-9" d="M80.89,170.22s21.6-40.36,42.59-41.49c20.99-1.13,31.77,48.94,31.77,48.94,1.98-4.73-47.3-15.95-74.35-7.45Z"/>
    </clipPath>
  </defs>
  <g id="_2" data-name="2">
    <g>
      <g>
        <path class="cls-3" d="M326.83,354.57s30.08-22.11,48.58-58.89c24.37-48.46,24.98-87.05,37.12-84.24,18.58,4.3,7.43,43.38-11.46,91.74-16.43,42.07-44.91,83.24-63.3,98.21l-10.95-46.82Z"/>
        <path d="M337.79,403.27c-.2,0-.41-.03-.61-.1-.61-.21-1.07-.72-1.22-1.35l-10.95-46.82c-.17-.73,.11-1.49,.71-1.94,.3-.22,29.95-22.29,48.02-58.22,11.18-22.24,17.39-42.58,21.92-57.44,5.65-18.52,9.06-29.69,17.3-27.79,3.84,.89,6.72,3.1,8.56,6.59,6.26,11.87,.67,38.08-18.69,87.66-16.84,43.13-45.69,84.19-63.86,98.98-.34,.28-.76,.42-1.18,.42Zm-8.85-47.95l9.98,42.65c17.85-15.92,44.51-54.71,60.42-95.46,12.57-32.19,26.07-70.88,18.86-84.55-1.33-2.52-3.32-4.05-6.08-4.69-4.83-1.11-8.03,9.37-12.87,25.23-4.57,14.98-10.83,35.5-22.16,58.03-16.6,33-42.76,54.57-48.15,58.79Z"/>
      </g>
      <g>
        <path class="cls-3" d="M222.7,47.86c7.91-15.22,32.8-39.67,40.91-38.98,9.61,.82,16.73,42.49,12.37,72.62-1.89,13.04-56.69-27.08-53.28-33.64Z"/>
        <path d="M274.9,90.48c-.12,0-.23-.01-.35-.03-1.02-.19-1.69-1.17-1.49-2.19,5.31-28.04,.44-65.62-7.12-75.58-.89-1.18-1.78-1.86-2.49-1.92-.08,0-.15,0-.23,0-6.73,0-30.69,22.27-38.85,37.99-.48,.92-1.61,1.28-2.53,.8-.92-.48-1.28-1.61-.8-2.53,7.54-14.52,32.88-40.83,42.73-39.99,1.83,.16,3.57,1.3,5.16,3.39,8.17,10.77,13.39,49.13,7.81,78.55-.17,.9-.96,1.53-1.84,1.53Z"/>
      </g>
      <g>
        <path class="cls-3" d="M100.94,46.23C95.26,30.05,74.05,2.34,65.92,1.88c-9.63-.54-22.54,39.71-22.46,70.16,.04,13.17,59.94-18.83,57.48-25.81Z"/>
        <path d="M42.66,78.81c-1.02,0-1.86-.82-1.87-1.85-.4-29.51,10.55-65.62,19.8-74.48C62.41,.74,64.24-.09,66.03,0c9.91,.56,31.26,30.16,36.68,45.6,.34,.98-.17,2.05-1.15,2.39-.98,.34-2.05-.17-2.39-1.15C93.23,29.94,72.22,4.11,65.82,3.75c-.7-.05-1.63,.47-2.64,1.44-8.53,8.17-19.02,43.58-18.64,71.72,.01,1.04-.81,1.89-1.85,1.9h-.03Z"/>
      </g>
      <g>
        <path class="cls-3" d="M58.75,444.76c-11.1-39.28-9.66-151.31-22.57-202.95-15.38-61.48-25.24-116.42-1.37-155.86,23.88-39.43,73.22-50.98,112.63-52.39,39.55-1.42,103.05-13.36,159.11,103.79,51.37,107.38,61.31,187.02,43.27,264.05-11.03,47.11-72.07,51.66-114.77,54.57-29.76,2.03-167.85,18.71-176.29-11.2Z"/>
        <g class="cls-11">
          <g>
            <path class="cls-2" d="M112.71,29.9s-11.62,22.43-2.46,22.9c9.17,.48,20.56-23.44,20.56-23.44l11.41-.62s-13.55,22.9-4.75,23.97c8.8,1.07,24.31-25.7,24.31-25.7l9.4-.54s-14.83,16.45-4.23,20c10.61,3.55,21.93-20.14,21.93-20.14,0,0-10.83-7.77-39.81-8.8-28.98-1.03-36.37,12.36-36.37,12.36Z"/>
            <path d="M110.5,54.69c-.12,0-.23,0-.35,0-2.5-.13-3.77-1.46-4.4-2.56-3.33-5.82,3.82-20.25,5.29-23.09,0-.01,.02-.03,.02-.04,.32-.59,8.27-14.38,38.08-13.33,29.21,1.04,40.38,8.82,40.84,9.15,.74,.53,.99,1.51,.6,2.33-1.13,2.37-10.65,21.57-21.37,21.57-.94,0-1.89-.15-2.84-.47-3.27-1.09-4.45-3.2-4.86-4.78-1.23-4.69,2.66-11.01,5.55-14.88l-4.15,.24c-3.63,6.13-16.61,26.85-25.65,25.75-2.32-.28-3.43-1.62-3.96-2.7-2.4-4.88,2.64-15.53,5.63-21.08l-6.9,.37c-2.49,5.02-12.31,23.51-21.51,23.51Zm3.85-23.88c-3.26,6.3-7.06,16.47-5.35,19.46,.19,.32,.48,.63,1.34,.67,.06,0,.12,0,.18,0,5.76,0,14.43-13.66,18.59-22.38,.29-.62,.91-1.03,1.59-1.07l11.42-.62c.68-.04,1.35,.31,1.7,.9,.36,.59,.36,1.33,.01,1.93-3.92,6.63-8.74,17.38-7.19,20.52,.13,.26,.32,.54,1.05,.63,5.19,.62,16.28-14.11,22.47-24.78,.32-.55,.89-.9,1.52-.93l9.4-.54c.76-.05,1.47,.38,1.8,1.06,.33,.69,.21,1.5-.3,2.07-3.39,3.77-8.42,11.11-7.45,14.79,.17,.64,.6,1.57,2.43,2.18,6.84,2.29,15.31-10.77,18.87-17.63-3.68-1.95-15.05-6.86-37.42-7.65-26.81-.95-34.35,10.88-34.66,11.39Z"/>
          </g>
        </g>
      </g>
      <path d="M128.79,464.24c-38.78,0-67.79-4.64-71.84-18.97h0c-5.45-19.29-7.88-55.57-10.46-93.99-2.72-40.63-5.54-82.65-12.13-109.02-7.16-28.61-13.99-58.9-15.46-86.55-1.55-29.13,3.12-52.27,14.3-70.73,26.49-43.75,82.9-52.17,114.17-53.3,2.65-.09,5.41-.24,8.26-.39,39.73-2.06,99.78-5.16,152.6,105.24,25.41,53.11,41.06,100.19,47.83,143.93,6.43,41.51,4.98,81.21-4.42,121.36-11.44,48.86-74.64,53.16-116.47,56.01-3.69,.25-8.99,.72-15.7,1.32-31.52,2.81-63.5,5.09-90.68,5.09ZM173.59,34.45c-6.27,0-12.22,.31-17.76,.59-2.88,.15-5.65,.29-8.32,.39-30.51,1.1-85.52,9.25-111.09,51.49-24.19,39.96-12.48,98.2,1.59,154.43,6.68,26.69,9.5,68.88,12.23,109.68,2.56,38.21,4.98,74.31,10.32,93.22h0c6.97,24.68,117.12,14.86,158.58,11.16,6.73-.6,12.05-1.07,15.78-1.33,40.72-2.77,102.26-6.96,113.07-53.12,18.77-80.16,5.47-161.22-43.14-262.81-44.34-92.67-93.68-103.71-131.26-103.71Z"/>
      <g>
        <path class="cls-10" d="M195.62,146.99c-.19,0-.38-.03-.56-.09l-26.79-8.41c-.99-.31-1.54-1.36-1.23-2.35,.31-.99,1.37-1.54,2.35-1.23l26.79,8.41c.99,.31,1.54,1.36,1.23,2.35-.25,.8-.99,1.31-1.79,1.31Z"/>
        <path class="cls-10" d="M188.59,159.2c-.19,0-.39-.03-.58-.09l-22.39-7.31c-.98-.32-1.52-1.38-1.2-2.36,.32-.98,1.38-1.52,2.36-1.2l22.39,7.31c.98,.32,1.52,1.38,1.2,2.36-.26,.79-.99,1.29-1.78,1.29Z"/>
      </g>
      <g>
        <path class="cls-10" d="M45.32,146.99c-.8,0-1.54-.51-1.79-1.31-.31-.99,.24-2.04,1.23-2.35l26.79-8.41c.99-.31,2.04,.24,2.35,1.23,.31,.99-.24,2.04-1.23,2.35l-26.79,8.41c-.19,.06-.38,.09-.56,.09Z"/>
        <path class="cls-10" d="M52.35,159.2c-.79,0-1.52-.5-1.78-1.29-.32-.98,.22-2.04,1.2-2.36l22.39-7.31c.98-.32,2.04,.22,2.36,1.2,.32,.98-.22,2.04-1.2,2.36l-22.39,7.31c-.19,.06-.39,.09-.58,.09Z"/>
      </g>
      <g>
        <path class="cls-2" d="M87.26,309.45c-.22-15.67,7.24-54.33,46.37-56.51,30.1-1.68,57.72,31.79,60.81,72.72,3.33,44.2-14.77,75.37-55.84,75.93-29.24,.4-50.33-20.83-51.34-92.15Z"/>
        <path d="M137.79,403.48c-16.29,0-28.41-6.56-37.03-20.05-9.86-15.44-14.89-39.63-15.38-73.95h0c-.28-19.26,9.43-56.25,48.14-58.41,30.85-1.7,59.61,32.38,62.78,74.45,1.99,26.34-3.54,47.45-15.98,61.05-10.04,10.97-24.07,16.66-41.71,16.9-.28,0-.56,0-.84,0Zm-2-148.72c-.68,0-1.37,.02-2.06,.06-35.87,2-44.86,36.6-44.6,54.61h0c1.14,80.35,27.98,90.3,48.54,90.3,.3,0,.6,0,.89,0,16.56-.23,29.68-5.5,38.99-15.68,11.72-12.81,16.91-32.95,15.01-58.24-2.95-39.14-28.69-71.05-56.78-71.05Z"/>
      </g>
      <g>
        <path class="cls-3" d="M53.55,416.51s-6.14,68.05,8.8,77.1c14.95,9.06,30.15-70.63,30.15-70.63l-38.96-6.47Z"/>
        <path d="M64.76,496.2c-1.16,0-2.3-.33-3.38-.99-15.5-9.39-10.34-71.79-9.7-78.88,.09-1.03,1-1.8,2.04-1.7,1.03,.09,1.79,1,1.7,2.04-1.68,18.6-3.53,68.4,7.91,75.33,.88,.53,1.69,.58,2.62,.17,10.26-4.57,21.32-51.75,24.72-69.55,.19-1.02,1.18-1.68,2.19-1.49,1.02,.19,1.68,1.18,1.49,2.19-1.29,6.75-12.98,66.09-26.88,72.27-.9,.4-1.81,.6-2.7,.6Z"/>
      </g>
      <g>
        <path class="cls-1" d="M239.52,227.1s-42.97-53.12-60-49.22c-17.04,3.9,27.53,71.69,27.53,71.69l32.47-22.48Z"/>
        <g>
          <path class="cls-3" d="M239.52,227.1s-42.97-53.12-60-49.22c-17.04,3.9,27.53,71.69,27.53,71.69"/>
          <path d="M207.05,251.45c-.61,0-1.21-.3-1.57-.85-3.77-5.74-36.69-56.47-31.02-70.59,.84-2.09,2.44-3.46,4.64-3.96,17.68-4.04,57.4,44.34,61.88,49.87,.65,.81,.53,1.99-.28,2.64-.81,.65-1.99,.53-2.64-.28-11.75-14.52-45.08-51.54-58.12-48.57-1,.23-1.62,.75-2,1.7-4.19,10.42,20.72,52,30.68,67.14,.57,.87,.33,2.03-.54,2.6-.32,.21-.67,.31-1.03,.31Z"/>
        </g>
      </g>
      <g>
        <path class="cls-1" d="M72.4,231.37S20.89,186.49,4.79,193.28c-16.1,6.79,39.53,65.84,39.53,65.84l28.09-27.76Z"/>
        <g>
          <path class="cls-3" d="M72.4,231.37S20.89,186.49,4.79,193.28c-16.1,6.79,39.53,65.84,39.53,65.84"/>
          <path d="M44.32,261c-.5,0-1-.2-1.37-.59C38.24,255.41-2.97,211.15,.17,196.26c.46-2.2,1.81-3.83,3.89-4.7,16.7-7.05,64.22,33.73,69.58,38.4,.78,.68,.86,1.86,.18,2.65-.68,.78-1.86,.86-2.65,.18-14.08-12.27-53.34-42.97-65.66-37.77-.95,.4-1.46,1.02-1.67,2.02-2.32,10.99,29.42,47.62,41.84,60.81,.71,.75,.67,1.94-.08,2.65-.36,.34-.82,.51-1.29,.51Z"/>
        </g>
      </g>
      <g>
        <path class="cls-3" d="M281.2,419.14s13.6,91.34,31.73,78.37c18.14-12.97,13.31-96.12,13.31-96.12l-45.05,17.75Z"/>
        <path d="M309.38,500.65c-.96,0-1.92-.2-2.87-.6-15.73-6.67-26.04-73.07-27.16-80.62-.15-1.02,.55-1.98,1.58-2.13,1.02-.16,1.98,.55,2.13,1.58,2.97,19.94,13.23,72.77,24.92,77.72,1.3,.55,2.52,.36,3.87-.6,14.18-10.15,13.86-71.64,12.53-94.48-.06-1.03,.73-1.92,1.76-1.98,1.03-.05,1.92,.73,1.98,1.76,.2,3.44,4.66,84.33-14.1,97.75-1.5,1.07-3.07,1.61-4.64,1.61Z"/>
      </g>
      <g>
        <g>
          <path class="cls-2" d="M150.43,88.05c2.9-13.01,21.79-35.67,54.63-29.94,31.72,5.53,37.88,24.74,32.95,44.08-4.93,19.34-28.59,32.05-57.69,26.22-23.05-4.62-34.7-18.85-29.9-40.36Z"/>
          <path d="M194.21,130.91c-4.56,0-9.29-.46-14.1-1.43-12.69-2.54-22.11-8.06-27.24-15.95-4.57-7.03-5.75-15.68-3.51-25.72h0c3.04-13.6,22.54-36.6,55.89-30.79,14.76,2.57,25.07,8.25,30.65,16.87,4.91,7.58,6.01,17.46,3.18,28.57-4.45,17.48-22.66,28.45-44.86,28.45Zm.65-72.61c-25.77,0-40.8,18.51-43.36,29.99h0c-2.11,9.44-1.03,17.53,3.21,24.05,4.8,7.38,13.74,12.57,25.83,14.99,27.08,5.43,51.33-5.5,56.41-25.41,2.67-10.5,1.67-19.77-2.9-26.83-5.23-8.09-15.05-13.44-29.18-15.9-3.5-.61-6.83-.89-10.01-.89Zm-44.43,29.75h0Z"/>
        </g>
        <path class="cls-6" d="M178.79,90.03c2.07-11.24,8.61-29.98,15.62-27.24,6.93,2.71,6.04,16.84,2.82,33.56-3.22,16.72-10.12,31.6-16.07,27.43-4.71-3.3-5.8-15.18-2.37-33.76Z"/>
      </g>
      <g>
        <g>
          <path class="cls-2" d="M37.3,98.89c.66-12.74,9.86-36.52,38.66-36.37,21.5,.11,32.11,16.43,31.25,35.96-.89,19.94-15.93,31.79-41.56,31.34-23.5-.41-29.16-14.89-28.34-30.94Z"/>
          <path d="M67,130.94c-.46,0-.91,0-1.38-.01-10.08-.17-17.7-2.94-22.64-8.23-5.03-5.39-7.32-13.42-6.78-23.86h0c.67-12.97,9.79-37.41,39.47-37.41,.1,0,.19,0,.28,0,9.49,.05,17.52,3.25,23.23,9.24,6.37,6.7,9.61,16.59,9.11,27.87-.9,20.36-16.31,32.4-41.3,32.4Zm-28.6-31.99h0c-.5,9.82,1.58,17.31,6.19,22.25,4.52,4.84,11.6,7.37,21.07,7.54,24.81,.41,39.57-10.61,40.45-30.29,.47-10.67-2.55-19.99-8.5-26.25-5.28-5.55-12.77-8.51-21.65-8.56-.09,0-.18,0-.27,0-28.05,0-36.65,23.08-37.29,35.33Z"/>
        </g>
        <path class="cls-6" d="M65.96,92.86c.28-10.89,3.78-29.52,11.13-28,7.27,1.5,8.62,14.93,8.07,31.16-.54,16.22-5.02,31.27-11.55,28.25-5.17-2.4-8.11-13.41-7.66-31.41Z"/>
      </g>
      <g>
        <g>
          <path class="cls-5" d="M123.75,129.18s-19.76-13.45-14.56-22.09c5.14-8.52,36.57-6.15,35.89,5.97-.47,8.35-21.33,16.11-21.33,16.11Z"/>
          <path d="M123.75,131.06c-.37,0-.74-.11-1.06-.32-2.17-1.48-21.06-14.74-15.11-24.6,3.81-6.3,18.14-7.46,28.42-4.29,7.24,2.23,11.23,6.37,10.95,11.34-.52,9.3-20.3,16.93-22.55,17.77-.21,.08-.43,.12-.65,.12Zm.56-27.14c-6.27,0-11.91,1.51-13.51,4.15-3.32,5.5,7.99,15.26,13.21,19.01,7.64-2.99,18.92-9.13,19.2-14.11,.25-4.42-5.73-6.75-8.31-7.54-3.32-1.03-7.06-1.51-10.59-1.51Z"/>
        </g>
        <g>
          <g>
            <path class="cls-4" d="M80.89,170.22s21.6-40.36,42.59-41.49c20.99-1.13,31.77,48.94,31.77,48.94,1.98-4.73-47.3-15.95-74.35-7.45Z"/>
            <g class="cls-8">
              <g>
                <g>
                  <path class="cls-5" d="M68.18,175.42s21.38-21.79,48.64-21.21c27.26,.57,44,21.03,46.38,33.3-31.2,1.62-62.39,3.29-95.02-12.09Z"/>
                  <path d="M134.26,190.38c-21.78,0-44.06-2.52-66.88-13.27-.55-.26-.94-.77-1.05-1.37-.11-.6,.08-1.21,.51-1.64,.9-.91,22.31-22.34,50.02-21.78,27.14,.56,45.42,20.58,48.18,34.82,.1,.53-.03,1.08-.36,1.51-.33,.43-.84,.69-1.38,.72h-.27c-9.49,.51-19.08,1.01-28.77,1.01Zm-62.75-15.5c30.52,13.57,60.38,12.37,89.31,10.87-3.49-11.15-18.48-29.14-44.04-29.67-21.45-.44-39.43,13.65-45.27,18.8Z"/>
                </g>
                <g>
                  <path class="cls-2" d="M98.53,131.49s9.65,20,13.55,17.86,7.24-28.16,7.24-28.16l16.45,4.57s-6.73,24.86-2.21,26.27c4.51,1.41,19.87-22.3,19.87-22.3,0,0-10.17-12.06-29.54-12.57-23.01-.6-25.35,14.34-25.35,14.34Z"/>
                  <path d="M134.02,153.97c-.38,0-.72-.06-1.03-.16-3.12-.97-3.66-5.54-1.87-15.78,.77-4.39,1.78-8.65,2.37-10.97l-12.59-3.5c-1.22,8.92-3.97,25.27-7.91,27.42-.56,.31-1.48,.59-2.67,.21-4.78-1.53-11.52-14.85-13.47-18.89-.17-.34-.22-.73-.16-1.1,.03-.17,2.9-16.57,27.25-15.93,19.98,.52,30.49,12.72,30.93,13.23,.53,.63,.59,1.54,.14,2.23-.04,.06-3.93,6.06-8.33,11.8-7.18,9.37-10.51,11.43-12.64,11.43Zm-14.71-34.66c.17,0,.34,.02,.5,.07l16.45,4.56c.99,.28,1.58,1.3,1.31,2.3-2.94,10.88-4.46,21.77-3.38,23.92,2.45-.73,9.87-9.64,16.84-20.22-2.87-2.78-12.19-10.53-27.21-10.92-18.81-.5-22.66,9.72-23.33,12.24,4.02,8.22,8.91,15.59,10.81,16.33,1.88-1.92,4.67-15.13,6.14-26.64,.07-.54,.37-1.02,.82-1.32,.31-.21,.67-.31,1.04-.31Z"/>
                </g>
              </g>
            </g>
          </g>
          <path d="M155.25,179.55c-.06,0-.12,0-.17,0-.82-.08-1.49-.67-1.66-1.47-.03-.16-.07-.31-.1-.47-4.52-4.23-47.39-13.27-71.85-5.58-.73,.23-1.52,0-2.01-.59-.49-.59-.57-1.41-.21-2.08,.9-1.69,22.35-41.3,44.14-42.48,20.62-1.13,31.47,40.88,33.4,49.1,.63,1.08,.36,2.03,.19,2.44-.29,.7-.98,1.15-1.73,1.15Zm-50.06-14.26c18.6,0,38.22,3.86,46.95,7.54-4.16-15.59-14.45-43-28.56-42.23-15.97,.86-32.88,26.69-38.82,36.65,6.2-1.39,13.24-1.97,20.43-1.97Z"/>
        </g>
      </g>
    </g>
  </g>
</svg>