<?xml version="1.0" encoding="UTF-8"?>
<svg id="Layer_2" data-name="Layer 2" xmlns="http://www.w3.org/2000/svg" xmlns:xlink="http://www.w3.org/1999/xlink" viewBox="0 0 486.22 332.99">
  <defs>
    <style>
      .cls-1 {
        fill: #fff;
      }

      .cls-1, .cls-2, .cls-3, .cls-4 {
        fill-rule: evenodd;
      }

      .cls-2, .cls-5 {
        fill: #383c47;
      }

      .cls-5 {
        clip-rule: evenodd;
      }

      .cls-6 {
        fill: #70788f;
      }

      .cls-7 {
        clip-path: url(#clippath);
      }

      .cls-3 {
        fill: #ff275a;
      }
    </style>
    <clipPath id="clippath">
      <path class="cls-5" d="M288.51,43.06c75.29,3.18,116.41,.61,141.17,25.05,27.64,27.28,34.15,125.82,20.05,170.51-14.11,44.69-94.19,50.45-173.62,50.95s-182.94,7.79-218.65-29.14c-19.39-20.05-38.85-67.29-22-138.68,10.8-45.77,34.28-73.14,62.21-74.52,39.57-1.95,134.8-6.53,190.83-4.17Z"/>
    </clipPath>
  </defs>
  <g id="_3" data-name="3">
    <g>
      <g>
        <path class="cls-2" d="M301.02,262.24c1.79,23.14,16.46,19.44,7.02,25.03-21.41,12.69-25.89,15.85-22.77,27.42,4.28,15.88,45.98,9.08,63.84-11.38,15.44-17.68,17.63-60.21,17.63-60.21,0,0-67.86-8.57-65.72,19.13Z"/>
        <path d="M302.69,325.3c-2.88,0-5.55-.27-7.93-.83-6.15-1.44-10.06-4.65-11.31-9.29-3.61-13.38,3.25-17.45,23.62-29.52,1.14-.68,1.72-1.1,2.02-1.36-.24-.26-.6-.61-.91-.9-2.79-2.66-8-7.62-9.03-21.02-.08-1.03,.69-1.93,1.72-2.01,1.02-.07,1.93,.69,2.01,1.73,.92,11.96,5.45,16.28,7.88,18.59,1.32,1.26,2.46,2.34,2.27,3.99-.18,1.62-1.62,2.77-4.04,4.21-21.67,12.85-24.61,15.35-21.91,25.32,1.1,4.07,5.25,5.84,8.55,6.61,13.89,3.25,39.12-4.07,52.08-18.75,17.3-19.59,15.85-62.34,15.84-62.77-.04-1.03,.77-1.91,1.8-1.95,1.07-.04,1.91,.77,1.95,1.8,.07,1.81,1.52,44.68-16.77,65.4-11.62,13.15-32.57,20.74-47.82,20.74Zm6.66-40.66h0Z"/>
      </g>
      <g>
        <path class="cls-2" d="M118.06,259.35s-2.37,14.49,1.18,28.63c5.18,20.62,25.03,35.6,12.91,41.28-15.15,7.09-33.75-6.6-46.79-26.8-13.88-21.48-8.19-48.55-8.19-48.55l40.89,5.44Z"/>
        <path d="M123.67,332.99c-12.93,0-27.72-10.67-39.89-29.52-14.13-21.88-8.69-48.82-8.45-49.96,.21-1.01,1.2-1.66,2.22-1.45,1.01,.21,1.66,1.21,1.45,2.22-.05,.26-5.35,26.59,7.93,47.15,10.73,16.62,28.81,33.43,44.42,26.12,1.47-.69,2.33-1.51,2.64-2.51,.87-2.89-2.25-8.01-5.86-13.94-3.8-6.23-8.52-13.99-10.71-22.67-3.6-14.35-1.32-28.78-1.22-29.39,.17-1.02,1.13-1.71,2.15-1.55,1.02,.17,1.72,1.13,1.55,2.15-.02,.14-2.26,14.3,1.15,27.87,2.04,8.13,6.41,15.3,10.27,21.63,4.25,6.97,7.6,12.48,6.25,16.97-.62,2.05-2.18,3.68-4.64,4.83-2.93,1.37-6.04,2.04-9.28,2.04Z"/>
      </g>
      <g>
        <path class="cls-2" d="M423.99,71.69s40.89-16.9,31.79-33.95c-10.97-20.54-29.87,10.17-46.85,1.81-40.92-20.13,39.81-63.62,70.32-16.77,16.63,25.53-9.91,61.44-40.14,86.63l-15.12-37.73Z"/>
        <path d="M439.12,111.3c-.15,0-.31-.02-.46-.06-.58-.15-1.06-.56-1.28-1.12l-15.12-37.73c-.38-.95,.07-2.04,1.02-2.43,.27-.11,26.84-11.23,31.34-23.8,.96-2.67,.8-5.13-.49-7.54-4.96-9.3-11.03-6.78-21.33-1.53-7.63,3.89-16.28,8.29-24.7,4.15-11.11-5.47-12.82-12.1-12.3-16.71,1.09-9.65,13.15-19.07,29.33-22.9,17.84-4.22,41.83-1.15,55.69,20.14,17.22,26.44-9.64,63.36-40.51,89.1-.34,.28-.77,.43-1.2,.43Zm-12.7-38.61l13.48,33.63c28.8-24.59,53.32-58.66,37.79-82.5C461.58-.92,434.05,3.37,426,5.28c-14.44,3.42-25.57,11.69-26.47,19.67-.7,6.18,5.18,10.44,10.23,12.92,6.74,3.32,14.16-.47,21.34-4.12,9.09-4.63,19.4-9.89,26.34,3.11,1.79,3.35,2.02,6.9,.71,10.57-4.4,12.27-25.5,22.47-31.74,25.26Z"/>
      </g>
      <g>
        <g>
          <path class="cls-2" d="M288.51,43.06c75.29,3.18,116.41,.61,141.17,25.05,27.64,27.28,34.15,125.82,20.05,170.51-14.11,44.69-94.19,50.45-173.62,50.95s-182.94,7.79-218.65-29.14c-19.39-20.05-38.85-67.29-22-138.68,10.8-45.77,34.28-73.14,62.21-74.52,39.57-1.95,134.8-6.53,190.83-4.17Z"/>
          <g class="cls-7">
            <g>
              <path class="cls-1" d="M107.99,31.6s1.56,57.79,5.89,61.12,9.53-49.53,17.58-55.88c8.05-6.34-5.44,71.34,6.5,72.57,11.93,1.23,15.33-73.25,22.94-78.75,7.61-5.49,2.51,59.26,11.1,58.21,8.59-1.06,22.8-68.29,22.8-68.29,0,0-72.27-2.35-86.81,11.02Z"/>
              <path d="M138.28,110.32c-.14,0-.27,0-.41-.02-6.93-.71-6.53-19.57-5.21-46.15,.57-11.41,1.27-25.59-.38-26.78,0,.02-.1,.06-.25,.18-4.06,3.2-7.62,20.28-10.48,34-3.22,15.44-4.63,21.35-6.74,22.13-.5,.18-1.02,.1-1.47-.24-4.44-3.42-5.98-52.09-6.24-61.81,0-.26,.1-.51,.29-.69,14.65-13.47,84.48-11.36,87.45-11.26,.27,0,.51,.13,.68,.34,.16,.21,.23,.48,.17,.74-2.39,11.33-14.78,67.92-23.57,69-.73,.09-1.43-.13-2.03-.64-3.29-2.77-4.1-14.49-4.95-32.06-.51-10.47-1.21-24.81-3.31-25.82-.1-.05-.29,.07-.39,.15-2.94,2.13-5.54,17.73-8.06,32.82-4.63,27.77-8.21,46.11-15.09,46.11Zm-5.96-74.75c.33,0,.59,.09,.76,.18,2.47,1.28,2.33,9.24,1.37,28.49-.86,17.39-2.17,43.68,3.6,44.27,6.01,.64,10.36-25.51,13.54-44.6,3.25-19.48,5.41-31.55,8.78-33.98,.95-.68,1.73-.55,2.23-.31,2.92,1.41,3.52,10.83,4.33,27.35,.61,12.61,1.38,28.29,4.32,30.77,.28,.24,.5,.25,.65,.23,5.72-.7,16.29-40.72,21.8-66.53-8.97-.21-71.01-1.26-84.79,10.55,.75,27.23,2.88,57.01,5.4,59.89,1.46-1.44,3.68-12.09,5.48-20.7,3.07-14.74,6.55-31.44,11.13-35.05,.54-.43,1.02-.56,1.41-.56Z"/>
            </g>
          </g>
        </g>
        <path d="M201.04,291.43c-60.18,0-118.97-4.18-144.26-30.34-21.44-22.18-38.55-70.49-22.25-139.57,10.79-45.71,34.38-73.84,63.1-75.26,36.55-1.8,133.65-6.58,190.92-4.17,10.78,.46,20.71,.79,30.3,1.11,56.14,1.88,90.02,3.01,111.5,24.21,12.77,12.6,22.23,41.51,25.96,79.32,3.44,34.86,1.27,70.18-5.67,92.17-14.04,44.5-92.18,51.11-174.53,51.62-10.26,.06-20.72,.24-31.8,.42-14.21,.24-28.79,.48-43.28,.48ZM251.3,43.35c-55.49,0-124.16,3.38-153.58,4.83-27.82,1.37-50.74,28.95-61.32,73.78-16.12,68.33,.67,115.98,21.76,137.79,30.8,31.86,113.32,30.49,186.13,29.27,11.08-.18,21.55-.36,31.82-.42,81.62-.51,159.03-6.95,172.71-50.27,14.58-46.19,6.65-143.42-19.81-169.54-20.94-20.67-54.55-21.8-110.21-23.66-9.6-.32-19.53-.65-30.32-1.11-11.12-.47-23.77-.67-37.17-.67Z"/>
      </g>
      <g>
        <path class="cls-6" d="M88.84,256.94c-.8,0-1.54-.51-1.79-1.31-.31-.99,.24-2.04,1.23-2.35l26.79-8.41c.99-.31,2.04,.24,2.35,1.23,.31,.99-.24,2.04-1.23,2.35l-26.79,8.41c-.19,.06-.38,.09-.56,.09Z"/>
        <path class="cls-6" d="M95.86,269.15c-.79,0-1.52-.5-1.78-1.29-.32-.98,.22-2.04,1.2-2.36l22.39-7.31c.98-.32,2.04,.22,2.36,1.2,.32,.98-.22,2.04-1.2,2.36l-22.39,7.31c-.19,.06-.39,.09-.58,.09Z"/>
      </g>
      <g>
        <path class="cls-6" d="M228.88,256.94c-.19,0-.38-.03-.56-.09l-26.79-8.41c-.99-.31-1.54-1.36-1.23-2.35,.31-.99,1.37-1.54,2.35-1.23l26.79,8.41c.99,.31,1.54,1.36,1.23,2.35-.25,.8-.99,1.31-1.79,1.31Z"/>
        <path class="cls-6" d="M221.85,269.15c-.19,0-.39-.03-.58-.09l-22.39-7.31c-.98-.32-1.52-1.38-1.2-2.36,.32-.98,1.38-1.52,2.36-1.2l22.39,7.31c.98,.32,1.52,1.38,1.2,2.36-.26,.79-.99,1.29-1.78,1.29Z"/>
      </g>
      <g>
        <g>
          <path class="cls-1" d="M170.74,178.65c-.05-6.13,.22-13.72,2.9-21.03,4.19-11.44,90.24,17.32,88.61,35.74-3,33.91-22.81,51.34-52.73,47.67-23.7-2.91-38.47-24.68-38.79-62.38Z"/>
          <path d="M217.07,243.37c-2.52,0-5.12-.16-7.78-.49-25.37-3.12-40.11-26.52-40.43-64.22-.06-6.5,.26-14.16,3.02-21.69,1.62-4.44,9.91-5.02,24.62-1.74,24.3,5.42,68.95,23.35,67.63,38.29-1.59,18.01-7.98,32.02-18.46,40.5-7.64,6.18-17.41,9.36-28.59,9.36Zm-35.99-86.51c-4.01,0-5.48,.83-5.68,1.39-2.55,6.97-2.84,14.21-2.79,20.37h0c.3,35.61,13.84,57.67,37.14,60.53,13.59,1.66,24.88-1.05,33.55-8.06,9.67-7.83,15.58-20.94,17.08-37.91,.91-10.3-35.42-27.76-64.71-34.3-6.81-1.52-11.47-2.02-14.59-2.02Z"/>
        </g>
        <path class="cls-4" d="M197.44,220.51c.21-5.9,5.04-14.34,16.04-13.69,10.88,.64,14.52,6.92,14.42,14.52-.1,7.82-7.48,15.86-17.22,14.49-7.71-1.09-13.55-6.68-13.24-15.32Z"/>
      </g>
      <g>
        <g>
          <path class="cls-1" d="M141.24,178.65c.05-6.13-.22-13.72-2.9-21.03-4.19-11.44-90.24,17.32-88.61,35.74,3,33.91,22.81,51.34,52.73,47.67,23.7-2.91,38.47-24.68,38.79-62.38Z"/>
          <path d="M94.9,243.37c-11.18,0-20.96-3.18-28.59-9.36-10.48-8.48-16.87-22.49-18.46-40.5-1.32-14.93,43.32-32.86,67.62-38.29,14.71-3.28,23-2.7,24.62,1.74,2.76,7.53,3.07,15.19,3.02,21.69-.32,37.7-15.06,61.11-40.43,64.22-2.66,.33-5.25,.49-7.77,.49Zm35.99-86.51c-3.12,0-7.79,.5-14.6,2.02-29.28,6.54-65.61,23.99-64.7,34.3,1.5,16.98,7.41,30.09,17.08,37.92,8.67,7.02,19.96,9.73,33.55,8.06,23.3-2.86,36.84-24.92,37.14-60.53h0c.05-6.16-.24-13.4-2.79-20.37-.21-.56-1.68-1.39-5.68-1.39Z"/>
        </g>
        <path class="cls-4" d="M119.98,220.51c-.21-5.9-5.04-14.34-16.04-13.69-10.88,.64-14.52,6.92-14.42,14.52,.1,7.82,7.48,15.86,17.22,14.49,7.71-1.09,13.55-6.68,13.24-15.32Z"/>
      </g>
      <g>
        <path class="cls-2" d="M223.27,41.63c13.81-5.84,29.75-6.11,43.28,.29,37.27,17.61,55.41,54.2,50.41,81.88-2.44,13.51-60.21,.69-64.85-4.95-10.98-13.33-28.84-77.22-28.84-77.22Z"/>
        <path d="M300.91,131.64c-18.5,0-46.38-6.91-50.24-11.59-.66-.8-.55-1.98,.25-2.64,.8-.66,1.98-.55,2.64,.25,2.92,3.54,41.22,13.35,56.68,9.31,2.96-.77,4.6-1.95,4.88-3.5,3.9-21.59-9.43-51.17-31-68.79-18.72-15.29-40.08-19.31-60.16-11.3-.96,.38-2.05-.09-2.44-1.05-.38-.96,.08-2.05,1.05-2.44,21.4-8.53,44.1-4.31,63.92,11.88,22.91,18.72,36.5,49.15,32.31,72.36-.56,3.11-3.12,5.29-7.62,6.46-2.78,.73-6.32,1.04-10.28,1.04Z"/>
      </g>
      <g>
        <path class="cls-2" d="M96.3,50.87c-13.81-5.84-29.74-6.11-43.28,.29C15.74,68.77-2.4,105.36,2.6,133.04c1.68,9.31,29.66,6.11,48.4,1.38,8.44-2.13,45.3-83.55,45.3-83.55Z"/>
        <path d="M18.65,140.91c-6.08,0-11.36-.78-14.57-2.85-1.86-1.2-2.98-2.78-3.33-4.68-4.19-23.21,9.4-53.64,32.31-72.36,19.82-16.19,42.52-20.42,63.92-11.88,.96,.38,1.43,1.47,1.05,2.44-.38,.96-1.48,1.43-2.44,1.05-20.08-8-41.44-3.99-60.16,11.3C13.87,81.54,.55,111.11,4.45,132.71c.15,.86,.7,1.57,1.67,2.2,6.56,4.22,27.38,2.02,44.55-2.34,1.01-.25,2.02,.35,2.28,1.36,.25,1-.35,2.02-1.36,2.28-8.62,2.18-22.05,4.71-32.94,4.71Z"/>
      </g>
      <g>
        <path class="cls-2" d="M245.85,257.29s2.37,14.49-1.18,28.63c-5.18,20.62-25.03,35.6-12.91,41.28,15.15,7.09,33.75-6.6,46.79-26.8,13.88-21.48,8.19-48.55,8.19-48.55l-40.89,5.44Z"/>
        <path d="M240.24,330.94c-3.23,0-6.34-.67-9.27-2.04-2.46-1.15-4.02-2.78-4.64-4.83-1.35-4.49,2-10,6.25-16.97,3.86-6.33,8.23-13.51,10.27-21.64,3.41-13.57,1.18-27.73,1.15-27.87-.17-1.02,.53-1.99,1.55-2.15,1.02-.17,1.98,.53,2.15,1.55,.1,.61,2.39,15.04-1.22,29.39-2.18,8.68-6.91,16.44-10.71,22.67-3.61,5.93-6.73,11.05-5.86,13.94,.3,1,1.16,1.82,2.64,2.51,15.61,7.31,33.69-9.5,44.42-26.12,13.28-20.56,7.98-46.89,7.93-47.15-.21-1.01,.44-2.01,1.45-2.22,1.02-.21,2.01,.44,2.22,1.45,.24,1.14,5.69,28.08-8.45,49.96-12.17,18.84-26.96,29.52-39.89,29.52Z"/>
      </g>
      <g>
        <path class="cls-2" d="M383.38,262.24c1.79,23.14,16.46,19.44,7.02,25.03-21.41,12.69-25.89,15.85-22.77,27.42,4.28,15.88,45.98,9.08,63.84-11.38,15.44-17.68,17.63-60.21,17.63-60.21,0,0-67.86-8.57-65.72,19.13Z"/>
        <path d="M385.06,325.3c-2.88,0-5.55-.27-7.93-.83-6.15-1.44-10.06-4.65-11.31-9.29-3.62-13.38,3.25-17.45,23.62-29.52,1.14-.68,1.72-1.1,2.02-1.36-.24-.26-.6-.61-.91-.9-2.8-2.66-8-7.62-9.03-21.02-.08-1.03,.69-1.93,1.72-2.01,1.02-.07,1.93,.69,2.01,1.73,.92,11.96,5.45,16.28,7.88,18.59,1.32,1.26,2.46,2.34,2.27,3.99-.18,1.62-1.62,2.77-4.04,4.21-21.67,12.85-24.61,15.35-21.91,25.32,1.1,4.07,5.25,5.84,8.54,6.61,13.89,3.25,39.12-4.07,52.08-18.75,17.3-19.59,15.85-62.34,15.84-62.77-.04-1.03,.77-1.91,1.8-1.95,1.06-.04,1.91,.77,1.95,1.8,.07,1.81,1.53,44.68-16.77,65.4-11.62,13.15-32.57,20.74-47.82,20.74Zm6.66-40.66h0Z"/>
      </g>
      <g>
        <g>
          <path class="cls-3" d="M159.59,255.09s-20.12-12.91-15.15-21.68c4.91-8.65,36.39-7.14,36.04,4.99-.24,8.35-20.89,16.69-20.89,16.69Z"/>
          <path d="M159.59,256.97c-.35,0-.71-.1-1.01-.3-2.21-1.42-21.45-14.16-15.77-24.19,3.63-6.4,17.93-7.96,28.29-5.06,7.29,2.04,11.39,6.06,11.25,11.03-.27,9.31-19.83,17.47-22.06,18.37-.23,.09-.46,.14-.7,.14Zm.94-27.16c-6.69,0-12.85,1.69-14.46,4.53-3.17,5.59,8.4,15.04,13.72,18.64,7.56-3.2,18.66-9.64,18.81-14.63,.13-4.42-5.91-6.59-8.51-7.31-3.01-.84-6.35-1.23-9.56-1.23Z"/>
        </g>
        <path d="M180.48,275.92c-.58,0-1.15-.27-1.52-.77-5.07-6.94-14.83-18.01-19.44-18.19-.05,0-.1,0-.15,0-5.13,0-13.96,9.92-18.36,16.24-.59,.85-1.76,1.06-2.61,.47-.85-.59-1.06-1.76-.47-2.61,1.28-1.84,12.68-17.85,21.46-17.85,.09,0,.18,0,.27,0,7.93,.3,20.88,17.74,22.33,19.72,.61,.84,.43,2.01-.41,2.62-.33,.24-.72,.36-1.1,.36Z"/>
      </g>
    </g>
  </g>
</svg>