<?xml version="1.0" encoding="UTF-8"?>
<svg id="Layer_2" data-name="Layer 2" xmlns="http://www.w3.org/2000/svg" xmlns:xlink="http://www.w3.org/1999/xlink" viewBox="0 0 535.53 536.03">
  <defs>
    <style>
      .cls-1 {
        fill: #fff;
      }

      .cls-1, .cls-2, .cls-3, .cls-4, .cls-5 {
        fill-rule: evenodd;
      }

      .cls-2, .cls-6 {
        fill: #383c47;
      }

      .cls-7 {
        clip-path: url(#clippath-1);
      }

      .cls-3, .cls-8 {
        fill: #c60a01;
      }

      .cls-6, .cls-8 {
        clip-rule: evenodd;
      }

      .cls-9 {
        fill: #70788f;
      }

      .cls-10 {
        clip-path: url(#clippath);
      }

      .cls-4 {
        fill: #ff275a;
      }
    </style>
    <clipPath id="clippath">
      <path class="cls-6" d="M313.02,238.32c9.16-14.24,20.92-24.87,26.35-23.1,7.92,2.59-4.5,18.18,5.52,21.82,10.01,3.64,13.42-28.47,25.22-29.72,11.8-1.26,5.74,36.02,15.8,29.72,10.06-6.3,11.77-35.46,24.74-25.17,9.98,7.92-1.02,21.5,12.56,26.11,8.47,2.88,11.67-14.94,22.58-12.12,5.21,1.34,7.05,10.6,5.97,23.61,8.68,3.02,16.17,6.86,21.95,11.75,32.24,27.27,35.17,127.84,18.72,172.53-16.45,44.69-109.83,50.45-202.44,50.95-92.61,.49-213.31,7.79-254.95-29.14-22.61-20.05-45.3-67.29-25.66-138.68,12.6-45.77,39.97-73.14,72.54-74.52,46.14-1.95,170.75-5.22,222.52-4.17,2.76,.06,5.62,.09,8.57,.12Z"/>
    </clipPath>
    <clipPath id="clippath-1">
      <path class="cls-8" d="M97.75,457.9s20.11-54.83,41.07-56.53c20.95-1.7,32.28,58.93,32.28,58.93,1.85-4.77-46.55-11.63-73.35-2.4Z"/>
    </clipPath>
  </defs>
  <g id="_1" data-name="1">
    <g>
      <g>
        <path class="cls-2" d="M20.55,287.86c6.98-31.49,25.88-79.75,32.98-80.52,7.1-.77,20.25,21.45,26.22,37.54,0,0-66.18,74.46-59.2,42.97Z"/>
        <path d="M22.81,297.51c-.89,0-1.58-.2-2.15-.5-3.65-1.86-2.37-7.65-1.94-9.56,3.35-15.12,9.69-35.08,16.53-52.07,7.81-19.39,13.89-29.45,18.08-29.9,9.28-1,23.14,25.18,28.18,38.76,.24,.65,.1,1.38-.36,1.9-.12,.14-12.45,13.99-25.75,27.08-20.24,19.93-28.49,24.29-32.59,24.29Zm31.13-88.31c-.07,0-.14,0-.21,.01-1.18,.23-6.22,5.7-15.14,27.91-6.72,16.74-12.93,36.34-16.22,51.15h0c-.88,3.99-.31,5.25-.01,5.41,.46,.24,5.28,1.61,30.39-23.12,11.33-11.16,21.96-22.88,24.83-26.07-6.62-17.29-18.66-35.29-23.65-35.29Zm-33.39,78.66h0Z"/>
      </g>
      <g>
        <path class="cls-2" d="M46.67,441.17s-25.06,92.48-10.86,92.29c14.2-.19,48.04-76.53,48.04-76.53l-37.18-15.76Z"/>
        <path d="M35.76,535.33c-1.52,0-2.85-.67-3.84-1.95-8.78-11.32,10.68-84.41,12.93-92.71,.14-.52,.5-.96,.99-1.2,.49-.24,1.05-.25,1.55-.04l37.18,15.76c.46,.2,.83,.57,1.01,1.04,.18,.47,.17,.99-.03,1.45-.09,.19-8.6,19.37-18.75,38.32-20.99,39.19-28.5,39.29-30.97,39.33-.02,0-.05,0-.07,0Zm12.15-91.6c-8.23,30.83-18.65,80.1-13.03,87.35,.36,.47,.66,.51,.89,.5,9.28-.12,32.51-44.52,45.57-73.67l-33.44-14.18Z"/>
      </g>
      <g>
        <path class="cls-2" d="M469.07,276.04s23.97-28.62,33.19-68.74c12.15-52.86,3.57-90.49,16.03-90.65,19.07-.24,17.53,40.36,10.68,91.84-5.96,44.77-23.83,91.53-38.14,110.44l-21.77-42.88Z"/>
        <path d="M490.84,320.8c-.06,0-.11,0-.17,0-.64-.06-1.21-.44-1.51-1.02l-21.77-42.88c-.34-.67-.25-1.48,.23-2.05,.24-.28,23.79-28.77,32.8-67.96,5.58-24.26,6.77-45.5,7.64-61,1.09-19.33,1.74-31,10.2-31.11,3.95-.02,7.26,1.42,9.88,4.37,8.9,10.04,9.71,36.83,2.68,89.59-6.11,45.89-24.37,92.64-38.5,111.32-.36,.47-.91,.74-1.5,.74Zm-19.55-44.52l19.83,39.05c13.55-19.71,30.23-63.72,36-107.09,4.56-34.25,8.48-75.05-1.77-86.61-1.89-2.13-4.15-3.17-7.02-3.11-4.96,.06-5.57,11-6.5,27.57-.88,15.64-2.08,37.06-7.73,61.63-8.28,36-28.56,63.17-32.8,68.55Z"/>
      </g>
      <g>
        <path class="cls-2" d="M320.2,448.69s-2.63,92.31,17.5,82.72c20.13-9.59,29.96-92.29,29.96-92.29l-47.46,9.57Z"/>
        <path d="M334.87,533.98c-1.38,0-2.71-.4-3.95-1.2-14.32-9.32-12.82-76.51-12.6-84.14,.02-.87,.65-1.61,1.5-1.78l47.46-9.57c.59-.12,1.2,.05,1.64,.46,.44,.41,.66,1,.59,1.6-.41,3.42-10.19,83.84-31.02,93.76-1.23,.59-2.45,.88-3.63,.88Zm-12.84-83.75c-.49,21.19,.56,72.64,10.94,79.4,1.18,.77,2.42,.79,3.92,.08,15.18-7.23,25.45-63.84,28.59-88.25l-43.44,8.76Z"/>
      </g>
      <g>
        <path class="cls-2" d="M313.02,238.32c9.16-14.24,20.92-24.87,26.35-23.1,7.92,2.59-4.5,18.18,5.52,21.82,10.01,3.64,13.42-28.47,25.22-29.72,11.8-1.26,5.74,36.02,15.8,29.72,10.06-6.3,11.77-35.46,24.74-25.17,9.98,7.92-1.02,21.5,12.56,26.11,8.47,2.88,11.67-14.94,22.58-12.12,5.21,1.34,7.05,10.6,5.97,23.61,8.68,3.02,16.17,6.86,21.95,11.75,32.24,27.27,35.17,127.84,18.72,172.53-16.45,44.69-109.83,50.45-202.44,50.95-92.61,.49-213.31,7.79-254.95-29.14-22.61-20.05-45.3-67.29-25.66-138.68,12.6-45.77,39.97-73.14,72.54-74.52,46.14-1.95,170.75-5.22,222.52-4.17,2.76,.06,5.62,.09,8.57,.12Z"/>
        <g class="cls-10">
          <g>
            <path class="cls-1" d="M107.08,226.74s1.82,57.79,6.87,61.12,11.11-49.53,20.5-55.88c9.39-6.34-6.34,71.34,7.57,72.57,13.92,1.23,17.88-73.25,26.75-78.75,8.87-5.49,2.92,59.26,12.95,58.21,10.02-1.06,26.58-68.29,26.58-68.29,0,0-84.27-2.35-101.22,11.02Z"/>
            <path d="M142.4,306.44c-.18,0-.36,0-.54-.02-8.86-.78-8.47-19.19-6.85-47.18,.58-10.02,1.29-22.32,.14-25.44-4.31,3.64-8.44,20.65-11.48,33.15-3.88,15.97-5.49,21.65-8.27,22.75-.82,.33-1.73,.23-2.48-.27-1.27-.84-3.92-2.59-6.17-33.24-1.08-14.73-1.54-29.24-1.55-29.39-.02-.59,.25-1.16,.71-1.53,17.29-13.64,98.97-11.52,102.44-11.43,.57,.02,1.1,.29,1.44,.74,.34,.45,.46,1.03,.33,1.58-.04,.17-4.22,17.06-9.57,33.87-9.89,31.06-15.16,35.47-18.64,35.84-1.15,.12-2.24-.23-3.16-1.02-3.94-3.35-4.85-14.55-5.87-32.59-.52-9.09-1.29-22.7-3.18-24.83-3.06,2.09-6.3,18.74-8.9,32.13-5.49,28.23-9.77,46.88-18.4,46.88Zm-6.96-76.7c.62,0,1.12,.2,1.43,.38,3.18,1.81,3.06,9.06,1.89,29.33-.57,9.93-1.23,21.2-.76,29.77,.64,11.88,3.15,13.37,4.2,13.46,.07,0,.13,0,.19,0,6.22,0,11.34-26.35,14.74-43.84,3.84-19.76,6.41-32,10.67-34.64,1.58-.98,2.87-.57,3.5-.24,3.68,1.91,4.39,11.43,5.34,28.09,.66,11.56,1.55,27.39,4.56,29.94,.19,.16,.28,.15,.34,.15,.84-.09,5.54-2.11,15.45-33.23,4.16-13.08,7.61-26.22,8.93-31.37-13.46-.24-80.78-.89-96.92,10.13,.82,25.04,3.04,51.95,5.51,57.74,1.56-2.97,3.74-11.96,5.54-19.35,4.53-18.63,8.14-32.09,13.37-35.63,.77-.52,1.46-.69,2.04-.69Z"/>
          </g>
        </g>
      </g>
      <path d="M202.51,487.48c-70.31,0-139.02-4.2-168.7-30.52-7.76-6.88-21.87-22.65-29.24-51.02-6.97-26.8-5.95-56.94,3.02-89.56,12.68-46.09,40.45-74.46,74.27-75.89,47.68-2.01,171.48-5.21,222.63-4.17,2.43,.05,4.94,.08,7.52,.11,8.74-13.28,20.96-25.28,27.94-22.99,5.29,1.73,4.24,7.32,3.39,11.8-1.11,5.88-1.25,8.79,2.19,10.04,3.45,1.26,6.63-5.63,9.71-12.29,3.82-8.26,7.78-16.8,14.67-17.53,7.83-.83,9.35,9.65,10.69,18.9,.62,4.3,1.57,10.79,3.09,11.5,.21,.1,.68-.06,1.23-.4,3.45-2.16,5.98-7.84,8.43-13.34,2.96-6.64,5.75-12.91,10.62-14.1,2.45-.6,5.09,.2,7.85,2.39,5.27,4.18,5.44,9.67,5.6,14.5,.17,5.36,.3,9.23,6.4,11.31,2.69,.91,4.74-1.28,7.87-4.93,3.44-4.01,7.72-9,14.58-7.24,5.79,1.49,8.43,10.04,7.48,24.13,8.68,3.15,15.8,7.05,21.19,11.61,32.85,27.79,35.98,129.2,19.27,174.61-7.74,21.03-31.97,35.17-74.07,43.24-38.95,7.47-87.64,8.71-130.13,8.93-11.96,.06-24.16,.24-37.08,.42-16.55,.24-33.54,.48-50.43,.48Zm77.79-247.61c-58.78,0-157.03,2.62-198.28,4.37-32.11,1.36-58.58,28.7-70.81,73.14-8.8,31.98-9.81,61.46-3.01,87.62,7.13,27.4,20.67,42.56,28.1,49.16,35.71,31.68,131.81,30.3,216.58,29.1,12.92-.18,25.13-.36,37.11-.42,94.92-.51,184.93-6.88,200.69-49.72,8.04-21.84,11.49-57.95,8.79-92-3.01-37.9-12.83-66.5-26.96-78.45-5.31-4.49-12.5-8.33-21.36-11.41-.81-.28-1.32-1.07-1.25-1.93,1.02-12.36-.73-20.65-4.57-21.64-4.28-1.1-7.05,1.68-10.79,6.04-3.14,3.66-6.7,7.81-11.92,6.04-8.57-2.91-8.77-9.19-8.94-14.74-.14-4.41-.27-8.58-4.18-11.69-1.83-1.45-3.34-2-4.62-1.69-3.08,.75-5.63,6.46-8.09,11.99-2.68,6.01-5.45,12.22-9.87,14.99-2.16,1.35-3.8,1.09-4.8,.63-3.36-1.56-4.18-7.21-5.22-14.36-1.05-7.2-2.37-16.15-6.58-15.71-4.78,.51-8.44,8.41-11.67,15.38-3.79,8.2-7.72,16.67-14.39,14.24-6.8-2.48-5.52-9.29-4.59-14.26,.97-5.13,.97-6.94-.87-7.55-3.84-1.25-14.72,7.61-24.19,22.33-.35,.54-.94,.86-1.58,.86h-.02c-2.95-.03-5.82-.06-8.59-.12-6.85-.14-15.02-.2-24.12-.2Z"/>
      <g>
        <path class="cls-9" d="M220.4,436.24c-.19,0-.38-.03-.56-.09l-26.79-8.41c-.99-.31-1.54-1.36-1.23-2.35,.31-.99,1.37-1.54,2.35-1.23l26.79,8.41c.99,.31,1.54,1.36,1.23,2.35-.25,.8-.99,1.31-1.79,1.31Z"/>
        <path class="cls-9" d="M213.37,448.45c-.19,0-.39-.03-.58-.09l-22.39-7.31c-.98-.32-1.52-1.38-1.2-2.36,.32-.98,1.38-1.52,2.36-1.2l22.39,7.31c.98,.32,1.52,1.38,1.2,2.36-.26,.79-.99,1.29-1.78,1.29Z"/>
      </g>
      <g>
        <path class="cls-9" d="M50.07,436.98c-.8,0-1.54-.51-1.79-1.31-.31-.99,.24-2.04,1.23-2.35l26.79-8.41c.99-.31,2.04,.24,2.35,1.23,.31,.99-.24,2.04-1.23,2.35l-26.79,8.41c-.19,.06-.38,.09-.56,.09Z"/>
        <path class="cls-9" d="M57.1,449.18c-.79,0-1.52-.5-1.78-1.29-.32-.98,.22-2.04,1.2-2.36l22.39-7.31c.99-.32,2.04,.22,2.36,1.2,.32,.98-.22,2.04-1.2,2.36l-22.39,7.31c-.19,.06-.39,.09-.58,.09Z"/>
      </g>
      <g>
        <g>
          <g>
            <path class="cls-4" d="M219.3,121.56c.69,8.4,21.99,12.21,25.19,2.29,6.04-18.74,20.77-91.64,21.31-110.87,.37-13.35-39.85-15.13-41.59-2.77-2.75,19.49-7.26,82.54-4.92,111.34Z"/>
            <path d="M233.78,131.64c-.88,0-1.78-.05-2.71-.16-6.25-.72-13.18-4.09-13.64-9.77h0c-2.43-29.85,2.29-93.07,4.93-111.76,1.13-8.06,13.74-10.71,24.97-9.77,9.53,.8,20.58,4.65,20.36,12.85-.56,20.13-15.44,92.9-21.4,111.39-1.46,4.53-6.23,7.21-12.49,7.21Zm-12.62-10.23c.24,2.92,4.78,5.7,10.33,6.35,4.34,.5,9.88-.37,11.2-4.48,5.76-17.86,20.68-90.97,21.22-110.35,.15-5.2-8.67-8.31-16.92-9.01-10.91-.92-20.3,2.02-20.94,6.55-2.55,18.04-7.27,81.83-4.9,110.93h0Z"/>
          </g>
          <g>
            <path class="cls-4" d="M214.72,151.62s1.59-16.8,14.85-18.3c13.26-1.5,17.94,14.51,14.06,23.85-4.58,11.01-28.02,14.68-28.91-5.56Z"/>
            <path d="M228.37,168c-1.03,0-2.05-.09-3.06-.26-7.53-1.33-12.07-7.18-12.46-16.03,0-.09,0-.17,0-.26,.6-6.34,4.82-18.67,16.51-19.99,5.43-.62,10.21,1.41,13.44,5.71,4.17,5.55,5.25,14.27,2.56,20.73-2.46,5.92-9.8,10.11-16.99,10.11Zm-11.77-16.33c.35,6.97,3.67,11.36,9.36,12.37,6.34,1.12,13.78-2.42,15.93-7.59,2.17-5.23,1.27-12.56-2.09-17.04-1.7-2.26-4.81-4.82-10.02-4.23-11.15,1.26-13.01,14.93-13.18,16.49Z"/>
          </g>
        </g>
        <g>
          <g>
            <path class="cls-4" d="M283.13,132.99c-.16,8.43,20.65,14.37,24.83,4.82,7.9-18.03,29.91-89.08,32.39-108.15,1.72-13.24-38.12-19.07-41.1-6.95-4.71,19.12-15.55,81.38-16.12,110.28Z"/>
            <path d="M298.6,144.59c-1.5,0-3.1-.18-4.75-.54-6.14-1.35-12.7-5.4-12.59-11.09h0c.6-29.95,11.67-92.36,16.18-110.69,1.94-7.9,14.75-9.27,25.82-7.2,9.4,1.76,20.01,6.7,18.96,14.84-2.59,19.97-24.73,90.87-32.53,108.67-1.69,3.86-5.83,6.02-11.09,6.02Zm-13.59-11.56h0c-.06,2.92,4.18,6.16,9.64,7.36,4.27,.94,9.86,.63,11.6-3.32,7.53-17.19,29.75-88.41,32.25-107.64,.67-5.16-7.79-9.15-15.93-10.67-10.76-2.01-20.4-.03-21.49,4.41-4.36,17.69-15.49,80.68-16.07,109.87Z"/>
          </g>
          <g>
            <path class="cls-4" d="M275.55,162.44s3.27-16.55,16.62-16.71c13.34-.16,16.39,16.24,11.58,25.15-5.67,10.49-29.36,11.78-28.2-8.44Z"/>
            <path d="M289.41,180.21c-1.67,0-3.34-.21-4.94-.67-7.36-2.09-11.29-8.36-10.78-17.21,0-.09,.02-.17,.03-.26,1.23-6.24,6.68-18.08,18.44-18.22,5.48-.09,10.01,2.43,12.79,7.03,3.59,5.94,3.78,14.72,.46,20.89-2.77,5.13-9.43,8.44-16,8.44Zm-11.99-17.53c-.36,6.97,2.5,11.67,8.07,13.25,6.19,1.76,13.96-1.02,16.62-5.94,2.69-4.99,2.53-12.36-.37-17.16-1.46-2.42-4.28-5.26-9.54-5.22-11.22,.13-14.45,13.54-14.78,15.07Z"/>
          </g>
        </g>
        <g>
          <g>
            <path class="cls-4" d="M342.74,143.33c-1.7,8.26,17.68,17.9,23.53,9.28,11.06-16.28,45.69-82.11,51.61-100.41,4.11-12.7-34-25.72-39.14-14.34-8.12,17.93-30.16,77.17-36.01,105.48Z"/>
            <path d="M358.95,157.86c-2.38,0-5-.56-7.7-1.7-5.79-2.45-11.5-7.63-10.35-13.21h0c6.06-29.33,28.35-88.67,36.14-105.87,3.35-7.41,16.19-6.42,26.71-2.36,8.92,3.45,18.45,10.24,15.93,18.05-6.2,19.16-40.93,84.82-51.85,100.89-1.88,2.76-5.07,4.19-8.88,4.19Zm-14.37-14.15c-.59,2.86,2.98,6.81,8.13,8.99,4.02,1.7,9.58,2.42,12.01-1.15,10.54-15.52,45.41-81.49,51.38-99.94,1.6-4.95-5.98-10.42-13.71-13.4-10.21-3.94-20.05-3.76-21.94,.41-7.52,16.6-29.98,76.5-35.88,105.08h0Z"/>
          </g>
          <g>
            <path class="cls-4" d="M329.9,170.9s6.25-15.68,19.4-13.39c13.14,2.28,13.14,18.96,6.79,26.84-7.49,9.28-31.01,6.21-26.18-13.46Z"/>
            <path d="M344,191.24c-2.92,0-5.86-.61-8.46-1.9-6.85-3.4-9.57-10.28-7.46-18.89,.02-.08,.05-.17,.08-.25,2.36-5.91,9.87-16.56,21.46-14.54,5.39,.94,9.4,4.22,11.29,9.25,2.44,6.5,1.03,15.17-3.37,20.62-2.97,3.68-8.22,5.71-13.54,5.71Zm-12.31-19.76c-1.62,6.79,.33,11.93,5.51,14.5,5.77,2.86,13.91,1.55,17.42-2.8,3.56-4.41,4.75-11.69,2.78-16.94-.99-2.64-3.26-5.98-8.42-6.88-10.98-1.92-16.72,10.8-17.29,12.12Z"/>
          </g>
        </g>
      </g>
      <g>
        <g>
          <path class="cls-1" d="M31.45,345.96c1.98-22.72,19.12-61.5,52.39-58.1,32.91,3.36,38.11,31.43,34.55,65.28-3.56,33.85-24.86,65.13-54.29,58.62-23.31-5.16-35.93-28.24-32.65-65.8Z"/>
          <path d="M71.77,414.49c-2.67,0-5.36-.3-8.08-.9-24.96-5.52-37.39-30.24-34.11-67.79h0c1.36-15.62,9.67-38.1,24.7-50.52,8.8-7.28,18.81-10.4,29.76-9.28,11.82,1.21,20.92,5.65,27.07,13.22,8.97,11.04,11.88,28.24,9.16,54.13-2.42,23.06-12.74,43.74-26.93,53.96-6.61,4.76-13.95,7.19-21.56,7.19Zm8.02-124.96c-8.41,0-16.17,2.9-23.12,8.64-14.19,11.74-22.05,33.09-23.35,47.96h0c-3.1,35.48,8.27,58.73,31.19,63.8,9.52,2.1,18.48,.2,26.63-5.68,13.35-9.61,23.08-29.27,25.39-51.31,2.57-24.49-.15-41.29-8.34-51.37-5.57-6.86-13.59-10.73-24.53-11.85-1.3-.13-2.59-.2-3.87-.2Zm-48.34,56.44h0Z"/>
        </g>
        <path class="cls-5" d="M65.62,342.21c1.91-19.89,8.2-53.62,15.29-50.09,7.01,3.48,6.33,28.18,3.35,57.81-2.98,29.62-9.7,56.7-15.74,50.51-4.79-4.9-6.06-25.35-2.9-58.23Z"/>
      </g>
      <g>
        <g>
          <path class="cls-1" d="M171.67,346.17c1.98-22.72,19.12-61.5,52.4-58.1,32.91,3.36,38.11,31.43,34.55,65.28-3.56,33.85-24.86,65.13-54.29,58.62-23.31-5.16-35.93-28.24-32.65-65.8Z"/>
          <path d="M211.99,414.7c-2.67,0-5.36-.3-8.08-.9-24.96-5.52-37.4-30.23-34.11-67.79,1.36-15.62,9.67-38.1,24.7-50.52,8.8-7.28,18.81-10.4,29.76-9.28,11.82,1.21,20.92,5.65,27.07,13.22,8.97,11.04,11.88,28.24,9.16,54.13-2.42,23.06-12.74,43.74-26.93,53.96-6.61,4.76-13.95,7.19-21.56,7.19Zm8.02-124.96c-8.41,0-16.17,2.9-23.12,8.64-14.19,11.74-22.05,33.09-23.35,47.96h0c-3.1,35.48,8.27,58.73,31.19,63.8,9.52,2.1,18.48,.2,26.63-5.68,13.35-9.62,23.08-29.27,25.39-51.31,2.57-24.49-.15-41.29-8.34-51.37-5.57-6.86-13.59-10.73-24.54-11.85-1.3-.13-2.59-.2-3.87-.2Zm-48.34,56.44h0Z"/>
        </g>
        <path class="cls-5" d="M205.84,342.42c1.91-19.89,8.2-53.62,15.29-50.09,7.01,3.48,6.33,28.18,3.35,57.81-2.98,29.62-9.7,56.7-15.74,50.51-4.79-4.9-6.06-25.35-2.9-58.23Z"/>
      </g>
      <g>
        <path class="cls-2" d="M229.79,245.25c4.36-16.59,23.28-45.91,31.34-47.02,9.56-1.32,25.67,37.77,28.04,68.12,1.8,23.09-63.74-4.51-59.37-21.1Z"/>
        <path d="M289.17,268.22c-.97,0-1.79-.75-1.87-1.73-2.09-26.78-14.45-58.23-23.1-65.2-1.11-.9-2.09-1.32-2.82-1.21-6.35,.87-25.21,28.31-29.78,45.64-.26,1-1.29,1.6-2.29,1.34-1-.26-1.6-1.29-1.34-2.29,4.17-15.83,23.06-47.05,32.89-48.41,1.8-.25,3.72,.43,5.68,2.01,10.33,8.32,22.46,41.92,24.48,67.83,.08,1.03-.69,1.93-1.72,2.02-.05,0-.1,0-.15,0Z"/>
      </g>
      <g>
        <path class="cls-2" d="M220.08,458.88s5.22,68.12,21.46,74.58c16.24,6.46,18.03-74.65,18.03-74.65l-39.49,.07Z"/>
        <path d="M243.34,535.7c-.82,0-1.66-.17-2.49-.5-16.84-6.7-22.09-69.09-22.63-76.18-.08-1.03,.69-1.93,1.73-2.01,1.04-.08,1.93,.69,2.01,1.73,1.43,18.62,7.86,68.04,20.28,72.98,.96,.38,1.76,.3,2.61-.27,9.36-6.2,12.45-54.57,12.86-72.68,.02-1.04,.88-1.89,1.92-1.83,1.04,.02,1.86,.88,1.83,1.92-.15,6.87-1.85,67.32-14.53,75.73-1.13,.75-2.33,1.12-3.57,1.12Z"/>
      </g>
      <g>
        <path class="cls-2" d="M420.24,450.74s-2.63,92.31,17.5,82.72c20.13-9.59,29.96-92.29,29.96-92.29l-47.46,9.57Z"/>
        <path d="M434.91,536.03c-1.38,0-2.71-.4-3.95-1.2-14.32-9.32-12.82-76.51-12.6-84.14,.03-1.04,.88-1.85,1.93-1.82,1.04,.03,1.85,.89,1.82,1.93-.57,20.15,.27,73.96,10.9,80.89,1.18,.77,2.42,.79,3.92,.08,15.74-7.5,26.2-68.1,28.91-90.82,.12-1.03,1.06-1.76,2.08-1.64,1.03,.12,1.76,1.05,1.64,2.08-.41,3.42-10.19,83.84-31.02,93.76-1.23,.59-2.45,.88-3.63,.88Z"/>
      </g>
      <g>
        <g>
          <path class="cls-4" d="M139.1,401.81s-20.12-12.91-15.15-21.68c4.91-8.65,36.39-7.14,36.04,4.99-.24,8.35-20.89,16.69-20.89,16.69Z"/>
          <path d="M139.1,403.68c-.35,0-.71-.1-1.01-.3-2.21-1.42-21.45-14.16-15.77-24.19,3.63-6.4,17.93-7.95,28.29-5.06,7.29,2.04,11.39,6.06,11.25,11.03-.27,9.31-19.83,17.47-22.06,18.37-.23,.09-.46,.14-.7,.14Zm.94-27.16c-6.69,0-12.85,1.69-14.46,4.53-3.17,5.59,8.4,15.04,13.72,18.64,7.56-3.2,18.66-9.64,18.81-14.63,.13-4.42-5.91-6.59-8.51-7.31-3.01-.84-6.35-1.23-9.56-1.23Z"/>
        </g>
        <g>
          <g>
            <path class="cls-3" d="M97.75,457.9s20.11-54.83,41.07-56.53c20.95-1.7,32.28,58.93,32.28,58.93,1.85-4.77-46.55-11.63-73.35-2.4Z"/>
            <g class="cls-7">
              <g>
                <g>
                  <path class="cls-4" d="M86.4,458.34s20.78-22.36,48.05-22.53c27.27-.17,44.55,19.83,47.27,32.03-31.14,2.47-62.28,4.98-95.32-9.51Z"/>
                  <path d="M145.97,471.6c-19.59,0-39.65-2.48-60.32-11.55-.56-.24-.96-.74-1.08-1.34-.12-.59,.05-1.21,.46-1.66,.87-.94,21.65-22.95,49.41-23.12,27.15-.17,45.96,19.35,49.11,33.5,.12,.53,0,1.08-.32,1.52-.32,.44-.82,.71-1.36,.75l-.27,.02c-11.71,.93-23.59,1.87-35.63,1.87Zm-56.25-13.89c30.88,12.74,60.69,10.72,89.57,8.44-3.77-11-19.12-28.47-44.48-28.47-.12,0-.23,0-.35,0-21.46,.13-39.05,14.72-44.74,20.03Z"/>
                </g>
                <g>
                  <path class="cls-1" d="M113.95,404.8s10.18,19.73,14.03,17.48c3.85-2.25,6.47-28.35,6.47-28.35l16.56,4.12s-6.05,25.03-1.5,26.32c4.55,1.29,19.26-22.83,19.26-22.83,0,0-10.5-11.78-29.87-11.76-23.02,.02-24.95,15.03-24.95,15.03Z"/>
                  <path d="M149.95,426.31c-.34,0-.65-.05-.95-.14-3.14-.89-3.81-5.44-2.3-15.72,.65-4.41,1.55-8.69,2.07-11.03l-12.68-3.15c-.98,8.95-3.28,25.36-7.16,27.63-.55,.32-1.46,.63-2.67,.28-4.82-1.4-11.92-14.53-13.98-18.52-.17-.34-.24-.72-.19-1.1,.02-.17,2.43-16.64,26.81-16.66h.05c19.96,0,30.78,11.89,31.23,12.39,.55,.62,.63,1.52,.2,2.22-.04,.06-3.77,6.16-8.01,12.02-7.02,9.7-10.29,11.77-12.42,11.77Zm-15.5-34.25c.15,0,.3,.02,.45,.06l16.56,4.12c1,.25,1.61,1.26,1.37,2.26-2.65,10.96-3.87,21.88-2.73,24,2.43-.8,9.6-9.9,16.29-20.67-2.95-2.7-12.45-10.18-27.45-10.18h-.04c-18.79,.02-22.39,10.33-22.99,12.87,4.25,8.1,9.33,15.34,11.25,16.03,1.82-1.97,4.26-15.25,5.42-26.8,.05-.54,.34-1.03,.79-1.35,.32-.22,.7-.34,1.08-.34Z"/>
                </g>
              </g>
            </g>
          </g>
          <path d="M171.1,462.17c-.06,0-.12,0-.17,0-.83-.08-1.52-.7-1.67-1.52-.02-.09-.03-.18-.05-.27-4.35-3.3-45.65-9.38-70.85-.7-.69,.23-1.44,.06-1.95-.46-.51-.52-.67-1.28-.42-1.96,.84-2.29,20.78-55.98,42.67-57.75,20.92-1.73,32.27,50.42,34.05,59.27,.5,.96,.28,1.83,.14,2.21-.28,.73-.98,1.2-1.75,1.2Zm-38.99-10.68c14.98,0,29.23,1.9,36.17,4.4-4.09-18.59-14.86-53.84-29.32-52.66-15.04,1.22-31.44,34.96-38.09,51.74,9.12-2.49,20.37-3.48,31.24-3.48Z"/>
        </g>
      </g>
    </g>
  </g>
</svg>