<?xml version="1.0" encoding="UTF-8"?>
<svg id="Layer_2" data-name="Layer 2" xmlns="http://www.w3.org/2000/svg" xmlns:xlink="http://www.w3.org/1999/xlink" viewBox="0 0 459.59 319.31">
  <defs>
    <style>
      .cls-1 {
        fill: #fff;
      }

      .cls-1, .cls-2, .cls-3 {
        fill-rule: evenodd;
      }

      .cls-2, .cls-4 {
        fill: #383c47;
      }

      .cls-4 {
        clip-rule: evenodd;
      }

      .cls-5 {
        fill: #70788f;
      }

      .cls-6 {
        clip-path: url(#clippath);
      }

      .cls-3 {
        fill: #ff275a;
      }
    </style>
    <clipPath id="clippath">
      <path class="cls-4" d="M240.48,38.08c60.48-.1,142.18,11.98,171.94,63.71,18.62,32.36,30.09,109.31,3.44,150.12-25.19,38.56-134.93,42.17-199.98,42.67-65.04,.49-150.69-1.2-184.41-34C12.68,242.28-10.39,205.17,7.4,122.18,19.11,67.5,60.38,45.81,82.8,41.08c54.31-11.48,111.73-2.91,157.68-2.99Z"/>
    </clipPath>
  </defs>
  <g id="_8" data-name="8">
    <g>
      <g>
        <g>
          <path class="cls-2" d="M240.48,38.08c60.48-.1,142.18,11.98,171.94,63.71,18.62,32.36,30.09,109.31,3.44,150.12-25.19,38.56-134.93,42.17-199.98,42.67-65.04,.49-150.69-1.2-184.41-34C12.68,242.28-10.39,205.17,7.4,122.18,19.11,67.5,60.38,45.81,82.8,41.08c54.31-11.48,111.73-2.91,157.68-2.99Z"/>
          <g class="cls-6">
            <g>
              <path class="cls-1" d="M100.87,30.92s13.22,21.5,20.04,46.19c9.14,33.08,16.48,50.36,21.62,50.16,14.47-.54-2.51-72.58,7.65-75.99,6.27-2.1,7.16,17.19,11.16,37.84,4.86,25.02,12.62,50.43,26.32,50.84,7.59,.23,10.82-24.89,7.23-51.27-2.31-16.97-4.38-28.3,.51-30.87,3.42-1.8,6.93,15.63,10.9,29.93,5.86,21.13,8.22,29.09,16.63,30.39,8.02,1.23,7.65-21.02,1.54-48.36-5.44-24.32-14.33-38.71-14.33-38.71,0,0-94.69-19.78-109.28-.15Z"/>
              <path d="M187.77,140.72s-.08,0-.13,0c-11.54-.35-20.38-17.18-27.03-51.45-1-5.13-1.82-10.28-2.54-14.83-1.76-11.04-3.28-20.58-6.12-22.31-.47-.28-.96-.33-1.54-.13-4.11,1.38-2.99,18.54-2,33.69,1.14,17.41,2.32,35.41-2.47,40.71-.94,1.04-2.08,1.59-3.39,1.64-3.53,.16-9.73-4.98-22.37-50.71-6.72-24.3-19.83-45.79-19.96-46-.16-.26-.15-.59,.04-.84,14.71-19.78,106.15-.94,110.03-.13,.2,.04,.38,.17,.48,.34,.09,.14,9.01,14.77,14.42,38.94,4.32,19.31,6.98,42.03,1.48,47.91-1.04,1.12-2.38,1.59-3.86,1.36-9.05-1.4-11.45-10.04-17.24-30.93-.82-2.94-1.62-6.04-2.39-9.03-2.37-9.15-5.06-19.52-7.15-20.45-.11-.05-.18-.05-.29,0-4,2.1-2.62,12.05-.71,25.82,.19,1.38,.39,2.81,.59,4.29,3.07,22.57,1.24,44.2-4.27,50.32-1.08,1.2-2.29,1.81-3.59,1.81Zm-36.69-90.33c.58,0,1.12,.16,1.64,.47,3.43,2.08,4.85,11,6.82,23.35,.72,4.53,1.54,9.67,2.53,14.78,6.5,33.48,14.88,49.92,25.61,50.24,.93,.02,1.75-.4,2.56-1.31,5.16-5.73,6.87-27.3,3.9-49.12-.2-1.47-.4-2.9-.59-4.28-2.07-14.91-3.44-24.75,1.49-27.35,.51-.27,1.06-.29,1.59-.05,2.62,1.16,4.74,8.9,7.99,21.44,.77,2.99,1.57,6.07,2.39,9.01,6.03,21.73,8.3,28.66,16.03,29.85,1,.15,1.84-.14,2.55-.9,4.13-4.42,3.39-23.13-1.85-46.56-4.95-22.11-12.84-36.11-14.07-38.21-6.02-1.22-93.22-18.58-107.9-.76,1.92,3.22,13.62,23.37,19.86,45.94,11.9,43.07,18.13,49.62,20.81,49.62,.02,0,.04,0,.06,0,.91-.03,1.67-.41,2.34-1.15,4.36-4.83,3.15-23.31,2.09-39.61-1.17-17.95-2.19-33.46,3.01-35.2,.39-.13,.77-.2,1.14-.2Z"/>
            </g>
          </g>
        </g>
        <path d="M202.36,295.67c-72.45,0-141.48-5.04-171.62-34.35C.97,232.34-7.23,185.46,6.38,121.96,20.73,54.97,76.29,41.38,82.58,40.05c38.74-8.19,79.56-6.19,115.58-4.42,14.69,.72,28.59,1.4,41.65,1.4,.22,0,.45,0,.67,0h0c.25,0,.51,0,.77,0,25.43,0,62.64,2.19,97.03,12.46,36.28,10.84,61.53,28.26,75.05,51.77,19.05,33.11,30.12,110.31,3.41,151.21-24.49,37.49-126.35,42.58-200.84,43.14-4.51,.03-9.03,.05-13.53,.05ZM149.01,36.14c-21.86,0-44.28,1.36-66,5.95-6.15,1.3-60.51,14.59-74.59,80.3-13.45,62.74-5.45,108.98,23.78,137.42,31.46,30.61,106.85,34.28,183.67,33.71,74.01-.56,175.17-5.55,199.11-42.2,26.3-40.25,15.33-116.35-3.47-149.02-13.25-23.03-38.1-40.13-73.84-50.81-34.14-10.2-71.14-12.37-96.43-12.37-.25,0-.51,0-.76,0h0c-.22,0-.45,0-.67,0-13.11,0-27.03-.68-41.75-1.41-15.63-.77-32.17-1.58-49.04-1.58Z"/>
      </g>
      <g>
        <path class="cls-5" d="M298.25,237.18c-.16,0-.33-.03-.5-.08l-23.69-7.44c-.87-.27-1.36-1.21-1.08-2.08,.27-.87,1.2-1.36,2.08-1.08l23.69,7.44c.87,.27,1.36,1.2,1.08,2.08-.22,.71-.88,1.16-1.58,1.16Z"/>
        <path class="cls-5" d="M292.04,247.97c-.17,0-.34-.03-.51-.08l-19.8-6.46c-.87-.28-1.35-1.22-1.06-2.09s1.22-1.35,2.09-1.06l19.8,6.46c.87,.28,1.35,1.22,1.06,2.09-.23,.7-.88,1.14-1.58,1.14Z"/>
      </g>
      <g>
        <path class="cls-5" d="M99.73,234.53c-.71,0-1.36-.45-1.58-1.16-.27-.87,.21-1.8,1.08-2.08l23.69-7.44c.88-.27,1.81,.21,2.08,1.08,.27,.87-.21,1.8-1.08,2.08l-23.69,7.44c-.17,.05-.33,.08-.5,.08Z"/>
        <path class="cls-5" d="M105.95,245.33c-.7,0-1.35-.44-1.58-1.14-.28-.87,.19-1.81,1.06-2.09l19.8-6.46c.87-.29,1.81,.19,2.09,1.06s-.19,1.81-1.06,2.09l-19.8,6.46c-.17,.06-.34,.08-.52,.08Z"/>
      </g>
      <path d="M121.53,216.05c-37.04,0-41.93-30.42-41.98-30.74-.08-.52,.28-1,.8-1.07,.52-.07,1,.28,1.07,.8,.19,1.31,5.2,31.97,45.53,28.91,35.13-2.68,33.52-34.48,33.44-35.84-.03-.52,.36-.97,.88-1,.52-.04,.97,.36,1,.88,.02,.35,1.83,35.02-35.18,37.84-1.93,.15-3.78,.22-5.56,.22Z"/>
      <path d="M264.56,216.11c-31.5,0-35.66-30.49-35.7-30.81-.07-.55,.32-1.05,.87-1.12,.57-.06,1.06,.32,1.12,.88,.16,1.3,4.39,31.88,38.26,28.84,29.53-2.66,28.17-34.43,28.1-35.78-.03-.56,.4-1.03,.95-1.06,.55-.03,1.03,.4,1.06,.95,.02,.35,1.55,35.06-29.93,37.9-1.65,.15-3.23,.22-4.75,.22Z"/>
      <g>
        <path class="cls-2" d="M231.07,46.12c2.38-14.98,16.43-42.47,23.42-44.15,8.3-2,25.93,30.97,30.7,57.47,3.63,20.16-56.5,1.66-54.12-13.32Z"/>
        <path d="M285.19,61.31c-.89,0-1.68-.64-1.84-1.54-4.2-23.33-17.8-49.85-26-55.19-.99-.64-1.85-.92-2.42-.79-5.46,1.32-19.54,27.02-22.01,42.63-.16,1.02-1.12,1.72-2.14,1.56-1.02-.16-1.72-1.12-1.56-2.14,2.27-14.35,16.23-43.61,24.83-45.68,1.63-.39,3.43,.04,5.34,1.29,9.87,6.43,23.56,35,27.64,57.67,.18,1.02-.49,1.99-1.51,2.18-.11,.02-.22,.03-.33,.03Z"/>
      </g>
      <g>
        <path class="cls-2" d="M91.31,48.44c-5.06-14.3-23.88-38.76-31.07-39.15-8.52-.46-19.86,35.17-19.72,62.1,.1,20.49,55.85-8.65,50.79-22.95Z"/>
        <path d="M40.52,73.26c-1.03,0-1.87-.83-1.87-1.86-.12-23.03,8.14-53.61,16.67-61.74,1.66-1.58,3.35-2.34,5.02-2.25,8.83,.48,27.89,26.71,32.73,40.4,.35,.98-.17,2.05-1.14,2.39-.97,.35-2.05-.16-2.39-1.14-5.27-14.89-23.79-37.6-29.4-37.91-.58-.04-1.38,.4-2.23,1.22-7.08,6.75-15.63,35.3-15.51,59,0,1.04-.83,1.88-1.86,1.88h0Z"/>
      </g>
      <g>
        <path d="M161.65,248c-11.95,0-17.03-6.13-17.3-6.48-.65-.81-.51-1.99,.29-2.63,.81-.64,1.98-.51,2.63,.29,.33,.4,7.91,9.18,27.73,2.71,16.1-5.25,24.62-23.21,24.7-23.39,.36-.77,1.2-1.21,2.04-1.05,.84,.15,1.47,.85,1.53,1.7,.05,.65,1.58,16.14,23.19,22.73,13.08,3.99,26.95-2.96,27.09-3.04,.93-.47,2.05-.1,2.52,.82,.47,.92,.11,2.05-.82,2.52-.62,.32-15.37,7.72-29.89,3.28-16.53-5.05-22.51-15.02-24.65-21.06-3.75,6.11-11.9,16.92-24.55,21.05-5.67,1.85-10.48,2.55-14.51,2.55Z"/>
        <g>
          <path class="cls-3" d="M201.71,222.04s-20.18-11.77-16.12-19.71c4.01-7.84,31.88-7.71,32.04,3.03,.11,7.39-15.92,16.68-15.92,16.68Z"/>
          <path d="M201.71,223.91c-.33,0-.65-.08-.94-.26-2.22-1.3-21.57-12.93-16.84-22.18,3.01-5.89,15.71-7.85,25.05-5.67,6.63,1.54,10.47,5.02,10.53,9.53,.12,8.25-15.11,17.33-16.85,18.33-.29,.17-.62,.25-.94,.25Zm-.56-25.22c-6.4,0-12.49,1.76-13.89,4.48-2.33,4.56,8.18,12.82,14.45,16.68,5.83-3.56,14.1-10.13,14.04-14.47-.05-3.76-5.36-5.4-7.63-5.93-2.22-.52-4.61-.76-6.97-.76Z"/>
        </g>
      </g>
      <g>
        <path class="cls-2" d="M177.33,306.05c-15.08-2.95-8.08-30.17,24.29-36.11,32.37-5.94,91.42-19.3,96.44,14.08,5.02,33.37-92.39,27.57-120.74,22.03Z"/>
        <path d="M230.09,312.22c-21.16,0-41.78-2.12-53.12-4.33-5.65-1.1-9.15-5.42-9.11-11.27,.06-10.87,11.8-24.56,33.43-28.52,1.98-.36,4.07-.76,6.23-1.16,27.29-5.13,64.67-12.17,82.66,.62,5.43,3.86,8.7,9.3,9.74,16.18,.85,5.64-.88,10.56-5.14,14.64-11.01,10.54-38.27,13.84-64.69,13.84Zm29.51-48.1c-16.88,0-36.41,3.67-51.39,6.49-2.17,.41-4.26,.8-6.25,1.17-22.03,4.04-30.31,17.39-30.36,24.86-.01,2.38,.76,6.53,6.08,7.57h0c24.15,4.72,95.92,9.24,114.5-8.54,3.37-3.23,4.69-6.95,4.03-11.38-.89-5.92-3.57-10.4-8.2-13.69-6.75-4.79-16.97-6.48-28.41-6.48Z"/>
      </g>
      <g>
        <path class="cls-2" d="M161.14,302.2c15.08-2.94,8.09-30.17-24.28-36.12-32.37-5.96-91.42-19.34-96.45,14.03-5.03,33.37,92.38,27.62,120.73,22.09Z"/>
        <path d="M108.53,308.35c-26.47,0-53.8-3.31-64.83-13.88-4.26-4.08-5.98-9-5.13-14.64,1.04-6.88,4.32-12.33,9.75-16.18,18-12.78,55.37-5.73,82.66-.58,2.17,.41,4.25,.8,6.23,1.17,21.63,3.98,33.36,17.67,33.41,28.54,.03,5.85-3.46,10.16-9.12,11.26-11.31,2.2-31.87,4.31-52.97,4.31Zm-29.69-48.11c-11.42,0-21.62,1.69-28.36,6.47-4.63,3.29-7.32,7.76-8.21,13.68-.67,4.42,.65,8.15,4.02,11.38,18.57,17.79,90.35,13.3,114.49,8.59h0c5.33-1.04,6.1-5.18,6.09-7.56-.04-7.47-8.31-20.82-30.34-24.87-1.99-.37-4.08-.76-6.25-1.17-14.99-2.83-34.55-6.52-51.44-6.52Z"/>
      </g>
      <g>
        <path class="cls-2" d="M429.17,155.66c.87,16.78,5.41,37.24-17.25,67.71-28.63,38.49-146.45,21.77-134.23,76.75,8.42,37.88,148.05,9.99,171.73-48.29,19.86-48.9,1.36-106.91-28.99-132.11,0,0,8.13,24.08,8.74,35.94Z"/>
        <path d="M316.92,319.31c-3.12,0-6.13-.12-9.02-.36-18.63-1.56-29.71-7.94-32.04-18.44-7.41-33.32,30.53-41.79,67.22-49.99,27.29-6.1,55.52-12.4,67.34-28.29,19.79-26.6,18.39-45.59,17.26-60.86-.14-1.93-.28-3.8-.38-5.63h0c-.59-11.47-8.56-35.2-8.64-35.44-.27-.79,.02-1.67,.71-2.14,.69-.47,1.61-.43,2.26,.1,30.23,25.11,50.11,83.58,29.52,134.26-8.05,19.81-29.87,37.94-61.44,51.05-24.04,9.98-51.03,15.74-72.79,15.74Zm114.12-163.75c.09,1.8,.23,3.65,.37,5.55,1.17,15.88,2.63,35.65-17.99,63.37-12.65,17-41.56,23.46-69.53,29.71-36.5,8.15-70.97,15.85-64.38,45.52,1.91,8.61,12.11,14.12,28.7,15.51,22.42,1.88,53.09-3.91,80.06-15.1,30.64-12.72,51.74-30.12,59.41-49,18.76-46.18,2.92-98.96-23.32-125.28,2.48,8.09,6.26,21.56,6.69,29.72h0Z"/>
      </g>
    </g>
  </g>
</svg>