<?xml version="1.0" encoding="UTF-8"?>
<svg id="Layer_2" data-name="Layer 2" xmlns="http://www.w3.org/2000/svg" xmlns:xlink="http://www.w3.org/1999/xlink" viewBox="0 0 452.49 335.13">
  <defs>
    <style>
      .cls-1 {
        fill: #fff;
      }

      .cls-1, .cls-2, .cls-3, .cls-4 {
        fill-rule: evenodd;
      }

      .cls-2, .cls-5 {
        fill: #383c47;
      }

      .cls-5 {
        clip-rule: evenodd;
      }

      .cls-6 {
        fill: #70788f;
      }

      .cls-7 {
        clip-path: url(#clippath);
      }

      .cls-3 {
        fill: #ff275a;
      }
    </style>
    <clipPath id="clippath">
      <path class="cls-5" d="M233.39,61c60.48-.1,157.97,14.95,173.04,62.47,11.28,35.59,29,110.55,2.34,151.35-25.19,38.56-134.93,42.17-199.98,42.67s-155.21-.49-184.45-37.34c-15.88-20-31.81-67.13-18.02-138.35C15.17,96.14,53.29,68.73,75.71,63.99c54.31-11.48,111.73-2.91,157.68-2.99Z"/>
    </clipPath>
  </defs>
  <g id="_7" data-name="7">
    <g>
      <g>
        <path class="cls-2" d="M393.49,142.86s21.2-25.32,29.36-60.8c10.75-46.76,3.16-80.04,14.18-80.18,16.87-.22,15.51,35.7,9.45,81.23-5.27,39.6-21.08,80.95-33.73,97.68l-19.25-37.92Z"/>
        <path d="M412.75,182.66c-.06,0-.11,0-.17,0-.64-.06-1.21-.44-1.5-1.02l-19.25-37.92c-.34-.67-.25-1.48,.23-2.05,.21-.25,21.01-25.42,28.97-60.02,4.93-21.44,5.98-40.21,6.75-53.92C428.74,10.49,429.33,.1,437.01,0c3.57-.03,6.54,1.28,8.9,3.94,7.92,8.93,8.65,32.68,2.43,79.41-5.41,40.63-21.58,82.02-34.09,98.56-.36,.47-.91,.74-1.49,.74Zm-17.04-39.57l17.31,34.09c11.93-17.55,26.53-56.22,31.6-94.33,4.03-30.25,7.49-66.28-1.52-76.43-1.63-1.83-3.62-2.72-6.05-2.68-4.18,.05-4.75,10.17-5.54,24.18-.78,13.84-1.84,32.79-6.84,54.55-7.27,31.64-25.03,55.58-28.97,60.61Z"/>
      </g>
      <g>
        <g>
          <path class="cls-2" d="M233.39,61c60.48-.1,157.97,14.95,173.04,62.47,11.28,35.59,29,110.55,2.34,151.35-25.19,38.56-134.93,42.17-199.98,42.67s-155.21-.49-184.45-37.34c-15.88-20-31.81-67.13-18.02-138.35C15.17,96.14,53.29,68.73,75.71,63.99c54.31-11.48,111.73-2.91,157.68-2.99Z"/>
          <g class="cls-7">
            <g>
              <path class="cls-1" d="M95.68,58.11s11.85,59.92,22.59,59.75c9.4-.15,9.76-47.55,17.84-53.88,8.08-6.33,2.92,76.87,14.89,78.09,11.97,1.22,18.01-66.49,25.64-71.98,7.63-5.48,2.18,50.5,18.1,52.17,13.06,1.37,28.55-64.15,28.55-64.15,0,0-113-13.34-127.6,0Z"/>
              <path d="M151.3,143.05c-.14,0-.27,0-.41-.02-6.79-.69-8.46-20.29-10.07-47.91-.74-12.58-1.74-29.8-3.9-30.52,0,0-.08,.02-.23,.14-3.45,2.7-5.54,14.46-7.56,25.83-2.69,15.11-5.01,28.16-10.85,28.25h-.05c-11.2,0-22.27-54.32-23.49-60.53-.06-.33,.05-.67,.29-.9,14.75-13.48,123.73-.79,128.36-.25,.27,.03,.52,.18,.68,.4,.16,.22,.21,.51,.15,.77-1.59,6.71-15.74,64.9-29.11,64.91-.16,0-.32,0-.48-.02-10.02-1.05-12.07-20.45-13.72-36.04-.74-7.04-1.67-15.79-3.23-16.49-.13-.05-.38,.11-.48,.18-2.91,2.09-5.98,16.05-8.95,29.56-4.61,20.96-9.38,42.61-16.94,42.62Zm-14.36-80.37c.33,0,.6,.08,.78,.17,3.09,1.39,3.85,11.99,5.03,32.16,1.12,19.21,2.66,45.52,8.34,46.1,.08,0,.15,.01,.23,.01,5.99,0,11.21-23.72,15.04-41.11,3.85-17.48,6.37-28.31,9.71-30.71,1.03-.74,1.87-.61,2.4-.38,2.46,1.1,3.19,6.95,4.36,18.05,1.49,14.11,3.53,33.44,12,34.32,9.8,1.03,22.75-43.67,27.26-62.36-11.48-1.3-110.48-12.12-125.35-.46,4.56,22.85,14.31,58.42,21.48,58.42h.03c4.25-.07,6.88-14.81,8.99-26.66,2.18-12.27,4.24-23.85,8.27-27.01,.53-.42,1.03-.55,1.43-.55Z"/>
            </g>
          </g>
        </g>
        <path d="M191.62,318.6c-28.79,0-60.06-.76-88.62-4.75-40.29-5.62-66.28-16.43-79.47-33.06C5.96,258.68-8.05,210.49,5.3,141.6,14.09,96.22,52.38,67.85,75.5,62.97c38.74-8.19,79.56-6.19,115.58-4.42,14.94,.73,29.06,1.39,42.32,1.4h0c.21,0,.43,0,.64,0,35.32,0,73.85,5.01,103.2,13.42,39.15,11.22,63.43,28.44,70.19,49.79,4.61,14.53,12.74,43.47,15.44,73.94,3.01,33.92-1.44,60.26-13.22,78.29-24.49,37.49-126.35,42.58-200.84,43.14-5.6,.04-11.34,.07-17.18,.07ZM141.93,59.06c-21.86,0-44.28,1.36-66,5.95-22.57,4.77-59.97,32.53-68.58,76.99-13.21,68.2,.54,115.74,17.81,137.5,30.24,38.11,130.02,37.34,183.63,36.94,74.01-.56,175.17-5.55,199.11-42.2,28.26-43.26,5.26-126.1-2.46-150.46-15.49-48.87-118.6-61.74-171.48-61.74h-.56c-13.31,.02-27.45-.67-42.42-1.41-15.63-.77-32.17-1.58-49.04-1.58Z"/>
      </g>
      <g>
        <path class="cls-6" d="M239.92,242.13c-.16,0-.33-.03-.5-.08l-23.69-7.44c-.87-.27-1.36-1.21-1.08-2.08,.27-.87,1.2-1.36,2.08-1.08l23.69,7.44c.87,.27,1.36,1.21,1.08,2.08-.22,.71-.88,1.16-1.58,1.16Z"/>
        <path class="cls-6" d="M233.7,252.92c-.17,0-.34-.03-.52-.08l-19.8-6.46c-.87-.28-1.35-1.22-1.06-2.09,.28-.87,1.22-1.35,2.09-1.06l19.8,6.46c.87,.28,1.35,1.22,1.06,2.09-.23,.7-.88,1.14-1.58,1.14Z"/>
      </g>
      <g>
        <path class="cls-6" d="M61.15,244.86c-.71,0-1.36-.45-1.58-1.16-.27-.87,.21-1.8,1.08-2.08l23.69-7.44c.88-.27,1.81,.21,2.08,1.08,.27,.87-.21,1.8-1.08,2.08l-23.69,7.44c-.17,.05-.33,.08-.5,.08Z"/>
        <path class="cls-6" d="M67.36,255.66c-.7,0-1.35-.44-1.58-1.14-.28-.87,.19-1.81,1.06-2.09l19.8-6.46c.87-.29,1.81,.19,2.09,1.06s-.19,1.81-1.06,2.09l-19.8,6.46c-.17,.06-.34,.08-.52,.08Z"/>
      </g>
      <g>
        <g>
          <path class="cls-1" d="M182.7,181.19c-1.55-20.22,12.51-61.42,44.75-64.74,40.44-4.16,59.62,23.29,61.2,53.56,1.58,30.27-16.6,61.37-55.08,60.45-29.07-.69-48.32-15.85-50.88-49.28Z"/>
          <path d="M235.2,231.33c-.55,0-1.09,0-1.64-.02-31.36-.75-49.24-18.06-51.69-50.05-.88-11.48,2.97-26.86,9.81-39.18,6.12-11.02,17.28-24.56,35.69-26.46,17.29-1.78,32.17,2.19,43.03,11.49,11.38,9.74,18.16,24.96,19.1,42.86,.94,17.95-4.87,34.77-15.92,46.15-9.69,9.97-22.93,15.21-38.37,15.21Zm.31-114.46c-2.58,0-5.24,.14-7.97,.42-31.39,3.23-45.53,43.87-44,63.84h0c2.38,31.01,19.69,47.78,50.06,48.51,15.66,.37,29.07-4.71,38.77-14.68,10.73-11.04,16.37-27.41,15.45-44.89-.91-17.44-7.49-32.24-18.51-41.68-8.94-7.66-20.29-11.51-33.8-11.51Z"/>
        </g>
        <path class="cls-4" d="M196.14,179.16c-1.15-15.05,9.32-45.72,33.31-48.19,30.1-3.1,44.38,17.34,45.56,39.87,1.18,22.53-12.36,45.68-41,45-21.64-.52-35.96-11.8-37.87-36.68Z"/>
      </g>
      <g>
        <g>
          <path class="cls-1" d="M127.12,181.19c1.55-20.22-12.51-61.42-44.75-64.74-40.44-4.16-59.62,23.29-61.2,53.56-1.58,30.27,16.6,61.37,55.08,60.45,29.07-.69,48.32-15.85,50.88-49.28Z"/>
          <path d="M74.62,231.33c-15.44,0-28.68-5.24-38.37-15.21-11.06-11.38-16.86-28.2-15.92-46.15,.94-17.9,7.72-33.12,19.1-42.86,10.86-9.29,25.73-13.26,43.03-11.49,18.41,1.9,29.57,15.43,35.69,26.46,6.84,12.32,10.69,27.7,9.81,39.18-2.45,32-20.33,49.31-51.69,50.05-.55,.01-1.1,.02-1.64,.02Zm-.31-114.46c-13.51,0-24.85,3.86-33.8,11.51-11.03,9.44-17.6,24.24-18.51,41.68-.91,17.49,4.72,33.85,15.45,44.89,9.7,9.98,23.11,15.07,38.77,14.68,30.37-.72,47.69-17.5,50.06-48.51h0c1.53-19.97-12.61-60.61-44-63.84-2.73-.28-5.39-.42-7.97-.42Z"/>
        </g>
        <path class="cls-4" d="M113.68,179.16c1.15-15.05-9.32-45.72-33.31-48.19-30.1-3.1-44.38,17.34-45.56,39.87-1.18,22.53,12.36,45.68,41,45,21.64-.52,35.96-11.8,37.87-36.68Z"/>
      </g>
      <g>
        <path class="cls-2" d="M234.47,69.15c2.38-14.98,16.43-42.47,23.42-44.15,8.3-2,25.93,30.97,30.7,57.47,3.63,20.16-56.5,1.66-54.12-13.32Z"/>
        <path d="M288.59,84.34c-.89,0-1.68-.64-1.84-1.54-4.2-23.33-17.8-49.85-26-55.19-.99-.65-1.85-.93-2.42-.79-5.46,1.32-19.54,27.02-22.01,42.63-.16,1.02-1.12,1.72-2.14,1.56-1.02-.16-1.72-1.12-1.56-2.14,2.27-14.35,16.23-43.61,24.83-45.68,1.63-.39,3.43,.04,5.35,1.29,9.87,6.44,23.56,35,27.64,57.67,.18,1.02-.49,1.99-1.51,2.18-.11,.02-.22,.03-.33,.03Z"/>
      </g>
      <g>
        <path class="cls-2" d="M84.22,71.35c-5.06-14.3-23.88-38.76-31.07-39.15-8.52-.46-19.86,35.17-19.72,62.1,.1,20.49,55.85-8.65,50.79-22.95Z"/>
        <path d="M33.43,96.18c-1.03,0-1.87-.83-1.87-1.86-.12-23.03,8.14-53.61,16.67-61.74,1.66-1.58,3.34-2.34,5.02-2.25,8.83,.48,27.89,26.71,32.73,40.4,.35,.98-.17,2.05-1.14,2.39-.97,.35-2.05-.17-2.39-1.14-5.27-14.89-23.79-37.6-29.4-37.91-.58-.03-1.38,.4-2.23,1.22-7.08,6.75-15.63,35.3-15.51,59,0,1.04-.83,1.88-1.86,1.88h0Z"/>
      </g>
      <g>
        <g>
          <path class="cls-1" d="M118.77,252.36s9.44,3.78,18.5-.13c0,0-5.83,15.39-9.98,15.93-4.15,.54-8.52-15.8-8.52-15.8Z"/>
          <path d="M127.11,270.05c-4.81,0-8.41-10.7-10.15-17.2-.18-.69,.04-1.42,.57-1.89,.53-.47,1.28-.6,1.94-.34,.13,.05,8.89,3.42,17.06-.11,.69-.3,1.49-.15,2.04,.37,.54,.52,.72,1.32,.46,2.02-1.87,4.94-6.74,16.51-11.49,17.13-.14,.02-.28,.03-.42,.03Zm-5.57-14.93c1.88,5.87,4.32,10.86,5.59,11.18,1.27-.22,4.28-5.12,6.88-11.05-4.89,1.11-9.48,.54-12.47-.13Z"/>
        </g>
        <g>
          <path class="cls-1" d="M197.33,252.83s-9.88,3.77-18.93-.15c0,0,5.97,14.95,10.12,15.5,4.15,.54,8.81-15.35,8.81-15.35Z"/>
          <path d="M188.71,270.06c-.14,0-.29,0-.43-.03-4.73-.62-9.7-11.86-11.62-16.66-.28-.7-.11-1.51,.43-2.04,.54-.53,1.35-.68,2.05-.38,8.26,3.57,17.43,.15,17.52,.12,.66-.25,1.42-.11,1.94,.38,.52,.48,.73,1.22,.53,1.9-1.86,6.32-5.63,16.71-10.42,16.71Zm-6.96-14.34c2.66,5.73,5.69,10.42,7.01,10.6,1.22-.26,3.72-5.05,5.72-10.74-3.07,.67-7.79,1.25-12.73,.15Z"/>
        </g>
        <path d="M188.51,256.08c-1.35,0-2.76-.07-4.22-.22-17.51-1.74-23.97-17.41-26.3-27.13-4.07,10.55-13.6,28.52-30.89,27.14-23.89-1.89-25.69-22.49-25.7-22.7-.08-1.03,.7-1.93,1.73-2.01,1.03-.07,1.93,.7,2.01,1.73,.06,.73,1.65,17.62,22.26,19.24,20.72,1.64,29.29-31.34,29.37-31.67,.23-.9,1.08-1.48,1.99-1.41,.92,.09,1.64,.83,1.69,1.76,.07,1.19,1.95,29.12,24.21,31.32,7.86,.79,13.78-.73,17.6-4.5,5.59-5.51,4.93-14.21,4.92-14.29-.09-1.03,.68-1.94,1.71-2.03,1.03-.1,1.94,.67,2.03,1.7,.04,.43,.85,10.49-6,17.26-3.9,3.86-9.41,5.8-16.41,5.8Z"/>
        <g>
          <path class="cls-3" d="M158.88,223.67s-20.18-11.77-16.12-19.71c4.01-7.84,31.88-7.71,32.04,3.03,.11,7.39-15.92,16.68-15.92,16.68Z"/>
          <path d="M158.88,225.54c-.33,0-.65-.08-.94-.25-2.22-1.3-21.57-12.93-16.84-22.19,3.01-5.89,15.7-7.85,25.05-5.67,6.63,1.54,10.47,5.02,10.53,9.53,.12,8.25-15.11,17.33-16.85,18.33-.29,.17-.62,.25-.94,.25Zm-.56-25.21c-6.4,0-12.5,1.76-13.89,4.48-2.33,4.56,8.18,12.82,14.45,16.68,5.83-3.56,14.1-10.13,14.04-14.47-.06-3.76-5.36-5.4-7.64-5.93-2.22-.52-4.61-.75-6.97-.75Z"/>
        </g>
      </g>
      <g>
        <path class="cls-2" d="M337.64,206.98c-17.97,14.49-28.42,43.95-2.39,70.9,11.92,12.34,15.85,20.06,2.66,20.62-13.2,.55-48.56,1.13-45.39,21.48,2.73,17.57,93.96,5.4,116.34,3.52,16.48-1.39,14.69-8.81,12.82-15.41-2.1-7.46-14.13-10.19-7.49-16.53,11.44-10.92,14.78-24.83,15.53-39.23,.81-15.64-6.04-28.68-12.03-35.99-14.67-17.89-58.51-26.74-80.06-9.36Z"/>
        <path d="M328.57,330.28c-21.42,0-35.99-2.64-37.16-10.16-.68-4.35,.28-8.15,2.86-11.28,8.15-9.9,30.89-10.79,41.82-11.22l1.6-.06c4.13-.17,6.54-1.06,7.16-2.62,1.58-3.94-7.48-13.31-10.46-16.4-25.27-26.15-15.33-54.46,2.4-72.23,.37-.37,.97-.37,1.34,0,.37,.37,.37,.97,0,1.34-8.29,8.32-32.98,37.91-2.37,69.58,9.03,9.35,12.27,14.85,10.85,18.41-.94,2.35-3.83,3.6-8.84,3.81l-1.6,.06c-10.66,.42-32.83,1.29-40.44,10.54-2.25,2.73-3.05,5.94-2.45,9.79,2.23,14.35,73.21,7.03,103.52,3.9,4.96-.51,9.25-.95,12.23-1.2,6.35-.54,10.26-1.97,11.94-4.4,1.83-2.64,.8-6.27-.19-9.78-.77-2.73-3.14-4.89-5.23-6.8-2.23-2.03-4.33-3.95-4.33-6.35,0-1.45,.76-2.87,2.33-4.32,13.96-12.9,22.43-47.5,1.25-76.33-.31-.42-.22-1.01,.2-1.32,.42-.31,1.01-.22,1.32,.2,21.82,29.71,12.97,65.47-1.5,78.84-1.16,1.07-1.73,2.03-1.72,2.93,0,1.57,1.72,3.14,3.72,4.96,2.28,2.08,4.86,4.44,5.78,7.68,1.06,3.75,2.26,8-.08,11.37-2.02,2.92-6.38,4.62-13.33,5.21-2.96,.25-7.24,.69-12.2,1.2-25.14,2.59-49.46,4.66-68.42,4.66Z"/>
      </g>
      <g>
        <path class="cls-2" d="M170.25,328.96c-15.08-2.95-8.08-30.17,24.29-36.11,32.37-5.94,91.42-19.3,96.44,14.08,5.02,33.37-92.39,27.57-120.74,22.03Z"/>
        <path d="M223.01,335.13c-21.16,0-41.78-2.12-53.12-4.33-5.65-1.1-9.15-5.42-9.11-11.27,.06-10.87,11.8-24.56,33.43-28.52,1.98-.36,4.07-.76,6.23-1.16,27.29-5.13,64.67-12.17,82.66,.62,5.43,3.86,8.7,9.3,9.74,16.18,.85,5.64-.88,10.56-5.14,14.64-11.01,10.54-38.27,13.84-64.69,13.84Zm29.51-48.1c-16.88,0-36.41,3.67-51.39,6.49-2.17,.41-4.26,.8-6.25,1.17-22.03,4.04-30.31,17.39-30.35,24.86-.01,2.38,.76,6.53,6.08,7.57h0c24.15,4.72,95.92,9.24,114.5-8.54,3.37-3.23,4.69-6.95,4.03-11.38-.89-5.92-3.57-10.4-8.2-13.69-6.75-4.79-16.97-6.48-28.41-6.48Z"/>
      </g>
      <g>
        <path class="cls-2" d="M154.06,325.11c15.08-2.94,8.09-30.17-24.28-36.12-32.37-5.96-91.42-19.34-96.45,14.03-5.03,33.37,92.38,27.62,120.73,22.09Z"/>
        <path d="M101.45,331.26c-26.47,0-53.8-3.31-64.83-13.88-4.26-4.08-5.98-9-5.13-14.64,1.04-6.88,4.32-12.33,9.75-16.18,18-12.78,55.37-5.73,82.66-.58,2.17,.41,4.25,.8,6.23,1.17,21.63,3.98,33.36,17.67,33.41,28.54,.03,5.85-3.46,10.16-9.12,11.26-11.31,2.2-31.87,4.31-52.97,4.31Zm-29.69-48.11c-11.42,0-21.62,1.69-28.36,6.47-4.63,3.29-7.32,7.76-8.21,13.68-.67,4.42,.65,8.15,4.02,11.38,18.57,17.79,90.35,13.3,114.49,8.59h0c5.33-1.04,6.1-5.18,6.09-7.56-.04-7.47-8.31-20.82-30.34-24.87-1.99-.37-4.08-.76-6.25-1.17-14.99-2.83-34.55-6.52-51.44-6.52Z"/>
      </g>
    </g>
  </g>
</svg>