<?xml version="1.0" encoding="UTF-8"?>
<svg id="Layer_2" data-name="Layer 2" xmlns="http://www.w3.org/2000/svg" xmlns:xlink="http://www.w3.org/1999/xlink" viewBox="0 0 464.16 437.1">
  <defs>
    <style>
      .cls-1 {
        fill: #fff;
      }

      .cls-1, .cls-2, .cls-3, .cls-4 {
        fill-rule: evenodd;
      }

      .cls-2, .cls-5 {
        fill: #383c47;
      }

      .cls-5 {
        clip-rule: evenodd;
      }

      .cls-6 {
        fill: #70788f;
      }

      .cls-7 {
        clip-path: url(#clippath);
      }

      .cls-3 {
        fill: #ff275a;
      }
    </style>
    <clipPath id="clippath">
      <path class="cls-5" d="M290.98,23.84c52.69,8.56,79.46,47.64,87.61,94.24,7.89,45.15,30.64,221.68,1.66,261.31-23.64,32.33-47.21,51.95-123.02,47.04-79.7-5.16-151.64,5.75-187.55-39.49-19.5-24.56-25.04-181.93-8.1-269.38,10.86-56.06,57.67-89.72,85.2-95.54,66.68-14.1,88.52-7.22,144.21,1.82Z"/>
    </clipPath>
  </defs>
  <g id="_10" data-name="10">
    <g>
      <g>
        <path class="cls-2" d="M365.97,290.03s21.2-25.32,29.36-60.8c10.75-46.76,3.16-80.04,14.18-80.18,16.87-.22,15.51,35.7,9.45,81.23-5.27,39.6-21.08,80.95-33.73,97.68l-19.25-37.92Z"/>
        <path d="M385.23,329.83c-.05,0-.11,0-.17,0-.64-.06-1.21-.44-1.5-1.02l-19.25-37.92c-.34-.67-.25-1.48,.23-2.05,.21-.25,21.01-25.42,28.97-60.02,4.93-21.44,5.98-40.21,6.75-53.92,.97-17.22,1.55-27.62,9.23-27.72,3.54-.05,6.54,1.28,8.9,3.94,7.92,8.93,8.65,32.68,2.43,79.41-5.41,40.63-21.58,82.02-34.09,98.56-.36,.47-.91,.74-1.5,.74Zm-17.04-39.57l17.31,34.1c11.93-17.55,26.53-56.22,31.6-94.33,4.03-30.25,7.49-66.28-1.52-76.43-1.62-1.83-3.61-2.75-6.05-2.68-4.18,.05-4.75,10.17-5.54,24.18-.78,13.84-1.84,32.79-6.84,54.55-7.28,31.64-25.03,55.58-28.97,60.61Z"/>
      </g>
      <g>
        <path class="cls-2" d="M46.22,299.12c-17.97,14.49-28.42,43.95-2.39,70.9,11.92,12.34,15.85,20.06,2.66,20.62-13.2,.55-48.56,1.13-45.39,21.48,2.74,17.57,93.96,5.4,116.34,3.52,16.48-1.39,14.69-8.81,12.82-15.41-2.1-7.46-14.13-10.19-7.49-16.53,11.44-10.92,14.78-24.83,15.53-39.23,.81-15.64-6.04-28.68-12.03-35.99-14.67-17.89-58.51-26.74-80.06-9.36Z"/>
        <path d="M37.21,422.38c-21.32,0-35.83-2.63-37-10.12-.68-4.34,.28-8.12,2.85-11.24,8.13-9.89,30.86-10.78,41.79-11.21l1.6-.06c4.14-.17,6.57-1.07,7.2-2.65,1.59-3.97-7.49-13.36-10.47-16.44-11.18-11.57-16.65-24.73-15.82-38.07,.8-12.8,7.63-25.57,18.29-34.16,21.38-17.24,66.02-9.18,81.32,9.49,3.12,3.8,13.22,17.68,12.23,36.61-.93,18-5.81,30.29-15.81,39.83-1.15,1.1-1.71,2.09-1.7,3.01,.02,1.6,1.73,3.17,3.72,4.99,2.25,2.06,4.81,4.4,5.72,7.63,.99,3.49,2.22,7.84-.16,11.27-2.05,2.96-6.45,4.68-13.45,5.27-2.98,.25-7.29,.7-12.27,1.21-24.99,2.58-49.18,4.64-68.04,4.64Zm40.44-131.76c-11.69,0-22.93,2.8-30.86,9.2h0c-10.27,8.28-16.86,20.57-17.62,32.87-.8,12.82,4.5,25.51,15.32,36.71,9.01,9.33,12.26,14.82,10.84,18.36-.93,2.33-3.81,3.57-8.8,3.78l-1.61,.06c-10.66,.42-32.85,1.29-40.47,10.55-2.26,2.75-3.06,5.96-2.46,9.82,2.24,14.38,72.9,7.09,103.07,3.97,4.99-.51,9.3-.96,12.3-1.21,6.43-.54,10.4-2.02,12.12-4.51,1.75-2.53,1-5.92-.09-9.76-.77-2.74-3.12-4.89-5.2-6.79-2.2-2.01-4.28-3.92-4.3-6.3-.02-1.45,.72-2.86,2.26-4.33,9.64-9.2,14.34-21.12,15.25-38.62,.95-18.28-8.81-31.7-11.83-35.38-9.15-11.17-29.12-18.42-47.94-18.42Zm-31.43,8.5h0Z"/>
      </g>
      <g>
        <path class="cls-2" d="M417.95,299.12c17.97,14.49,28.42,43.95,2.39,70.9-11.92,12.34-15.85,20.06-2.66,20.62,13.2,.55,48.56,1.13,45.39,21.48-2.73,17.57-93.96,5.4-116.34,3.52-16.48-1.39-14.69-8.81-12.82-15.41,2.1-7.46,14.13-10.19,7.49-16.53-11.44-10.92-14.78-24.83-15.53-39.23-.81-15.64,6.04-28.68,12.03-35.99,14.67-17.89,58.51-26.74,80.06-9.36Z"/>
        <path d="M426.95,422.38c-18.86,0-43.04-2.06-68.04-4.64-4.98-.51-9.29-.96-12.27-1.21-7-.59-11.4-2.32-13.45-5.27-2.38-3.43-1.15-7.78-.16-11.28,.91-3.23,3.46-5.57,5.72-7.63,1.99-1.82,3.7-3.39,3.72-4.99,0-.92-.55-1.91-1.7-3.01-10-9.54-14.87-21.83-15.81-39.83-.99-18.93,9.11-32.81,12.23-36.61,15.3-18.67,59.94-26.73,81.32-9.49,10.66,8.59,17.5,21.36,18.29,34.16,.83,13.33-4.64,26.5-15.82,38.07-2.98,3.09-12.05,12.48-10.47,16.44,.63,1.58,3.06,2.48,7.2,2.65l1.6,.06c10.92,.43,33.65,1.32,41.79,11.21,2.57,3.12,3.53,6.9,2.85,11.24-1.17,7.49-15.68,10.12-37,10.12Zm-40.44-131.76c-18.82,0-38.79,7.26-47.94,18.42-3.02,3.68-12.78,17.09-11.83,35.38,.91,17.51,5.61,29.42,15.25,38.62,1.54,1.47,2.27,2.88,2.26,4.33-.02,2.38-2.1,4.29-4.3,6.3-2.08,1.9-4.43,4.06-5.2,6.79-1.09,3.84-1.84,7.23-.09,9.76,1.72,2.49,5.69,3.96,12.12,4.51,3,.25,7.31,.7,12.3,1.21,30.17,3.11,100.84,10.4,103.07-3.97,.6-3.86-.2-7.08-2.46-9.82-7.62-9.26-29.81-10.13-40.47-10.55l-1.61-.06c-4.99-.21-7.86-1.45-8.8-3.78-1.42-3.54,1.83-9.03,10.84-18.36,10.82-11.2,16.12-23.89,15.32-36.71-.76-12.3-7.35-24.59-17.62-32.87h0c-7.93-6.4-19.18-9.2-30.86-9.2Z"/>
      </g>
      <g>
        <g>
          <path class="cls-2" d="M290.98,23.84c52.69,8.56,79.46,47.64,87.61,94.24,7.89,45.15,30.64,221.68,1.66,261.31-23.64,32.33-47.21,51.95-123.02,47.04-79.7-5.16-151.64,5.75-187.55-39.49-19.5-24.56-25.04-181.93-8.1-269.38,10.86-56.06,57.67-89.72,85.2-95.54,66.68-14.1,88.52-7.22,144.21,1.82Z"/>
          <g class="cls-7">
            <g>
              <path class="cls-1" d="M144.91,13.59s20.05,72.26,33.18,71.06c11.49-1.05,7.55-59.11,16.85-67.61,9.31-8.5,10.68,93.84,25.45,94.23,14.77,.39,15.89-83.08,24.73-90.5,8.84-7.42,7.34,61.63,26.99,62.2,16.11,.46,29.01-81.18,29.01-81.18,0,0-139.58-5.88-156.21,11.81Z"/>
              <path d="M220.5,112.05s-.08,0-.12,0c-8.06-.21-11.87-23.91-16.38-57.38-2.29-16.99-4.88-36.25-7.85-37.33-.07-.03-.27-.1-.68,.27-4.09,3.73-5.57,18.4-7,32.58-1.8,17.8-3.5,34.61-10.31,35.23-.12,.01-.25,.02-.37,.02-13.37,0-31.58-64.26-33.63-71.65-.07-.26,0-.55,.18-.75C161.02-4.68,295.44,.77,301.16,1.01c.22,0,.43,.11,.57,.29,.14,.17,.2,.4,.17,.62-.53,3.35-13.12,81.83-29.66,81.84-.05,0-.1,0-.15,0-12.04-.35-16.31-23.73-19.75-42.52-1.74-9.54-3.55-19.4-5.74-20.2-.11-.04-.4-.14-.97,.34-3.48,2.92-5.96,20.38-8.36,37.27-3.73,26.26-7.59,53.41-16.77,53.41ZM196.02,15.75c.25,0,.48,.05,.67,.12,3.68,1.34,5.67,14.84,8.87,38.59,3.35,24.87,7.52,55.83,14.87,56.02,.03,0,.06,0,.08,0,7.82,0,11.92-28.86,15.21-52.07,2.66-18.75,4.96-34.93,8.9-38.25,1.04-.88,1.94-.82,2.51-.61,2.9,1.05,4.39,8.43,6.75,21.39,3.16,17.27,7.48,40.92,18.25,41.24,.04,0,.08,0,.12,0,12.45,0,24.25-56.61,27.96-79.65-11.82-.45-137.62-4.85-154.43,11.28,5.59,20.04,21.77,70.07,31.96,70.07,.09,0,.18,0,.28-.01,5.53-.51,7.32-18.21,8.89-33.83,1.53-15.14,2.97-29.45,7.5-33.58,.59-.54,1.14-.71,1.6-.71Z"/>
            </g>
          </g>
        </g>
        <path d="M278.97,428.02c-6.83,0-14.08-.25-21.81-.75-17.39-1.13-34.37-1.49-50.79-1.83-58.52-1.24-109.06-2.31-137.37-37.98-20.03-25.23-24.89-184.24-8.27-270.07,6.17-31.87,23.3-54.05,36.59-67.05,15.29-14.96,33.71-25.86,49.26-29.15,59.43-12.56,83.47-8.49,127.1-1.09,5.46,.93,11.23,1.9,17.41,2.91h0c47.59,7.73,78.95,41.44,88.3,94.93,7.39,42.28,30.89,221.77,1.51,261.96-12.18,16.66-24.03,29.46-42.28,37.76-15.38,6.99-34.66,10.38-59.68,10.38ZM211.91,14.82c-17.73,0-37.56,2.24-64.96,8.03-27.82,5.88-73.93,40.1-84.54,94.87-7.88,40.65-11.46,99.75-9.6,158.08,1.82,56.89,8.54,99.28,17.53,110.61,27.81,35.04,77.98,36.11,136.08,37.34,16.44,.35,33.43,.71,50.86,1.84,78.12,5.07,99.96-16.16,122.29-46.69,29.03-39.71,5.55-218.53-1.81-260.67-9.22-52.72-40.09-85.94-86.91-93.55h0c-6.19-1-11.96-1.98-17.42-2.91-23.3-3.95-40.99-6.95-61.51-6.95Z"/>
      </g>
      <g>
        <path class="cls-6" d="M344.36,219.57c-.16,0-.33-.03-.5-.08l-23.69-7.44c-.87-.27-1.36-1.21-1.08-2.08,.27-.87,1.2-1.36,2.08-1.08l23.69,7.44c.87,.27,1.36,1.21,1.09,2.08-.22,.71-.88,1.16-1.58,1.16Z"/>
        <path class="cls-6" d="M338.14,230.37c-.17,0-.34-.03-.51-.08l-19.8-6.46c-.87-.28-1.35-1.22-1.06-2.09,.28-.87,1.22-1.35,2.09-1.06l19.8,6.46c.87,.28,1.35,1.22,1.06,2.09-.23,.7-.88,1.14-1.58,1.14Z"/>
      </g>
      <g>
        <path class="cls-6" d="M107.71,220.55c-.71,0-1.36-.45-1.58-1.16-.27-.87,.21-1.8,1.08-2.08l23.69-7.44c.88-.27,1.8,.21,2.08,1.08,.27,.87-.21,1.8-1.09,2.08l-23.69,7.44c-.17,.05-.33,.08-.5,.08Z"/>
        <path class="cls-6" d="M113.93,231.35c-.7,0-1.35-.44-1.58-1.14-.28-.87,.19-1.81,1.06-2.09l19.8-6.46c.87-.29,1.81,.19,2.09,1.06,.28,.87-.19,1.81-1.06,2.09l-19.8,6.46c-.17,.06-.34,.08-.51,.08Z"/>
      </g>
      <g>
        <g>
          <path class="cls-1" d="M238.31,152.46c-1.55-20.22,12.51-61.42,44.75-64.74,40.44-4.16,59.62,23.29,61.2,53.56,1.58,30.27-16.6,61.37-55.08,60.45-29.07-.69-48.32-15.85-50.88-49.28Z"/>
          <path d="M290.81,202.6c-.54,0-1.09,0-1.64-.02-31.36-.75-49.24-18.06-51.69-50.05h0c-.88-11.48,2.97-26.86,9.81-39.18,6.12-11.02,17.28-24.56,35.69-26.46,17.29-1.78,32.17,2.19,43.03,11.49,11.38,9.74,18.16,24.96,19.1,42.86,.94,17.95-4.87,34.77-15.92,46.15-9.69,9.97-22.93,15.21-38.37,15.21Zm.31-114.46c-2.58,0-5.24,.14-7.97,.42-31.39,3.23-45.54,43.87-44,63.84h0c2.38,31.01,19.69,47.78,50.06,48.51,15.68,.35,29.07-4.71,38.77-14.68,10.73-11.04,16.37-27.41,15.45-44.89-.91-17.44-7.49-32.24-18.51-41.68-8.94-7.66-20.29-11.51-33.8-11.51Z"/>
        </g>
        <path class="cls-4" d="M251.75,150.43c-1.15-15.05,9.32-45.72,33.31-48.19,30.1-3.1,44.38,17.34,45.56,39.87,1.18,22.53-12.36,45.68-41,45-21.64-.52-35.96-11.8-37.87-36.68Z"/>
      </g>
      <g>
        <g>
          <path class="cls-1" d="M204.13,152.46c1.55-20.22-12.51-61.42-44.75-64.74-40.44-4.16-59.62,23.29-61.2,53.56-1.58,30.27,16.6,61.37,55.08,60.45,29.07-.69,48.32-15.85,50.88-49.28Z"/>
          <path d="M151.63,202.6c-15.44,0-28.68-5.24-38.37-15.21-11.06-11.38-16.86-28.2-15.92-46.15,.94-17.9,7.72-33.12,19.1-42.86,10.86-9.29,25.74-13.26,43.03-11.49,18.41,1.9,29.57,15.43,35.69,26.46,6.84,12.32,10.69,27.7,9.81,39.18h0c-2.45,32-20.33,49.31-51.69,50.05-.55,.01-1.1,.02-1.64,.02Zm-.31-114.46c-13.51,0-24.85,3.86-33.8,11.51-11.03,9.44-17.6,24.24-18.51,41.68-.91,17.49,4.72,33.85,15.45,44.89,9.7,9.98,23.1,15.05,38.77,14.68,30.37-.72,47.69-17.5,50.06-48.51h0c1.53-19.97-12.61-60.61-44-63.84-2.73-.28-5.39-.42-7.97-.42Z"/>
        </g>
        <path class="cls-4" d="M190.68,150.43c1.15-15.05-9.32-45.72-33.31-48.19-30.1-3.1-44.38,17.34-45.56,39.87-1.18,22.53,12.36,45.68,41,45,21.64-.52,35.96-11.8,37.87-36.68Z"/>
      </g>
      <g>
        <path class="cls-2" d="M314.41,39.39c8.44-12.61,32.71-31.67,39.77-30.27,8.37,1.66,10.56,38.99,3.78,65.05-5.16,19.83-51.99-22.17-43.55-34.78Z"/>
        <path d="M357.96,76.04c-.16,0-.31-.02-.47-.06-1-.26-1.6-1.28-1.34-2.29,5.97-22.94,4.73-52.72-.46-61.01-.63-1-1.29-1.62-1.86-1.73-5.5-1.08-29.06,16.35-37.85,29.47-.58,.86-1.74,1.09-2.6,.52-.86-.58-1.09-1.74-.52-2.6,8.08-12.07,33.04-32.8,41.69-31.07,1.64,.33,3.09,1.47,4.31,3.41,6.26,9.98,6.71,41.65,.92,63.94-.22,.84-.98,1.4-1.81,1.4Z"/>
      </g>
      <g>
        <path class="cls-2" d="M133.59,35.65C126.34,22.33,103.89,1.14,96.74,1.89c-8.49,.89-14.06,37.87-9.68,64.43,3.33,20.21,53.79-17.35,46.53-30.67Z"/>
        <path d="M87.06,68.2c-.9,0-1.7-.65-1.85-1.57-3.75-22.73-.41-54.23,6.73-63.59,1.39-1.82,2.94-2.83,4.6-3.01,8.78-.9,31.75,21.97,38.69,34.73,.5,.91,.16,2.05-.75,2.54-.91,.5-2.05,.16-2.54-.75C124.39,22.67,102.54,3.15,96.93,3.75c-.58,.06-1.3,.61-2.01,1.55-5.93,7.78-9.87,37.32-6.01,60.71,.17,1.02-.52,1.99-1.54,2.15-.1,.02-.21,.03-.31,.03Z"/>
      </g>
      <g>
        <g>
          <path class="cls-1" d="M185.62,229.52s9.44,3.78,18.5-.13c0,0-5.83,15.39-9.98,15.93-4.15,.54-8.52-15.8-8.52-15.8Z"/>
          <path d="M193.95,247.2c-4.81,0-8.41-10.7-10.15-17.2-.18-.69,.04-1.42,.57-1.89,.53-.47,1.28-.6,1.94-.34h0c.09,.04,8.86,3.43,17.06-.11,.69-.29,1.49-.15,2.04,.37,.54,.52,.73,1.32,.46,2.02-1.87,4.94-6.74,16.51-11.49,17.13-.14,.02-.28,.03-.42,.03Zm-5.57-14.93c1.88,5.87,4.32,10.86,5.59,11.18,1.27-.22,4.28-5.12,6.88-11.05-4.89,1.12-9.48,.54-12.47-.13Z"/>
        </g>
        <g>
          <path class="cls-1" d="M264.17,229.98s-9.88,3.77-18.93-.15c0,0,5.97,14.95,10.12,15.5,4.15,.54,8.81-15.35,8.81-15.35Z"/>
          <path d="M255.55,247.22c-.14,0-.29,0-.43-.03-4.73-.62-9.7-11.86-11.62-16.66-.28-.71-.11-1.51,.43-2.04,.54-.53,1.35-.68,2.05-.38,8.21,3.55,17.43,.15,17.53,.12,.66-.25,1.42-.1,1.94,.38,.52,.48,.73,1.22,.53,1.9-1.85,6.32-5.63,16.71-10.42,16.71Zm-6.96-14.34c2.66,5.73,5.69,10.42,7.01,10.6,1.22-.26,3.72-5.05,5.71-10.74-3.07,.67-7.79,1.25-12.73,.15Z"/>
        </g>
        <path d="M255.36,233.23c-1.35,0-2.76-.07-4.22-.22-17.51-1.74-23.97-17.41-26.3-27.13-4.07,10.55-13.6,28.51-30.89,27.14-23.89-1.89-25.69-22.49-25.71-22.7-.08-1.03,.7-1.93,1.73-2.01,1.01-.07,1.93,.7,2.01,1.73,.06,.73,1.65,17.62,22.26,19.24,20.74,1.65,29.29-31.34,29.37-31.67,.23-.9,1.09-1.5,1.99-1.41,.92,.09,1.64,.83,1.69,1.76,.07,1.19,1.95,29.12,24.21,31.32,7.88,.78,13.8-.74,17.62-4.52,5.6-5.54,4.91-14.18,4.9-14.27-.09-1.03,.67-1.94,1.7-2.03,1.02-.11,1.94,.67,2.03,1.7,.04,.43,.85,10.49-6,17.26-3.9,3.86-9.41,5.8-16.41,5.8Z"/>
        <g>
          <path class="cls-3" d="M225.73,200.82s-20.18-11.77-16.12-19.71c4.01-7.84,31.88-7.71,32.04,3.03,.11,7.39-15.92,16.68-15.92,16.68Z"/>
          <path d="M225.73,202.7c-.33,0-.65-.08-.94-.26-2.22-1.3-21.57-12.93-16.84-22.18,3.01-5.89,15.71-7.85,25.05-5.67,6.63,1.54,10.47,5.02,10.53,9.53,.12,8.25-15.11,17.33-16.85,18.33-.29,.17-.62,.25-.94,.25Zm-.56-25.22c-6.4,0-12.5,1.76-13.89,4.48-2.33,4.56,8.18,12.82,14.45,16.68,5.83-3.56,14.1-10.14,14.04-14.47-.06-3.76-5.36-5.4-7.64-5.93-2.22-.52-4.61-.75-6.97-.75Z"/>
        </g>
      </g>
      <g>
        <path class="cls-2" d="M157.05,427.18c5.5,14.35,37.11,5.66,37.38-27.25,.28-32.91,.81-60.2-5.94-96.48-1.26-6.78-48.7-7.43-50.11-.37-5.49,27.58,10.45,102.64,18.67,124.1Z"/>
        <path d="M167.94,435.72c-5.96,0-10.74-2.89-12.65-7.87-8.21-21.43-19.41-86.05-22.47-121.96-.09-1.03,.68-1.94,1.71-2.03,1.05-.09,1.94,.68,2.03,1.71,3.04,35.67,14.12,99.77,22.24,120.93,1.95,5.08,7.51,6.02,12.06,5.19,10.34-1.87,21.54-12.61,21.7-31.79l.08-8.76c.28-28.83,.49-51.6-2.49-85.79-.09-1.03,.67-1.94,1.7-2.03,1.05-.09,1.94,.67,2.03,1.7,3,34.37,2.78,57.22,2.5,86.15l-.08,8.76c-.18,21.31-12.97,33.31-24.78,35.45-1.23,.22-2.43,.33-3.58,.33Z"/>
      </g>
      <g>
        <path class="cls-2" d="M275.4,428.56c-5.5,14.35-37.11,5.65-37.38-27.25-.28-32.91-.81-60.2,5.94-96.48,1.26-6.78,48.7-7.43,50.11-.37,5.49,27.58-10.45,102.64-18.67,124.1Z"/>
        <path d="M264.5,437.1c-1.15,0-2.35-.11-3.58-.33-11.81-2.13-24.6-14.14-24.78-35.45l-.08-8.76c-.28-28.93-.5-51.78,2.5-86.15,.09-1.03,1-1.79,2.03-1.7,1.03,.09,1.79,1,1.7,2.03-2.98,34.19-2.76,56.96-2.49,85.79l.08,8.76c.16,19.18,11.36,29.92,21.7,31.79,4.55,.82,10.11-.11,12.06-5.19,8.11-21.17,19.2-85.26,22.24-120.93,.09-1.03,1-1.8,2.03-1.71,1.03,.09,1.8,1,1.71,2.03-3.06,35.91-14.26,100.53-22.47,121.96-1.91,4.98-6.69,7.87-12.65,7.87Z"/>
      </g>
    </g>
  </g>
</svg>